<?xml version="1.0" encoding="utf-8"?>
<!-- Generator: Adobe Illustrator 23.0.1, SVG Export Plug-In . SVG Version: 6.00 Build 0)  -->
<svg version="1.1" id="Capa_1" xmlns="http://www.w3.org/2000/svg" xmlns:xlink="http://www.w3.org/1999/xlink" x="0px" y="0px"
	 viewBox="0 0 536 768" style="enable-background:new 0 0 536 768;" xml:space="preserve">
<style type="text/css">
	.st0{fill:#FFFFFF;}
</style>
<g>
	<g>
		<path class="st0" d="M114.2,433.1c1.4,0,2.5-0.6,3.5-2l0.2,0.3c-1.1,1.6-2.4,2.2-3.8,2.2c-2.5,0-4.2-2.2-4.2-5.2
			c0-3.4,2-5.5,4.6-5.5c1.1,0,2.5,0.6,3.5,2.1l-0.2,0.3c-1-1.2-2-1.8-3.3-1.8c-2.2,0-3.9,1.6-3.9,5
			C110.6,431.5,112.2,433.1,114.2,433.1z M120.6,432.9v0.4l-2.9,0.1l0.1-2V425v-0.1v-7h-2v-0.4l2.3-0.3l0.3,0.2l0,3v12.9l-0.3-0.6
			L120.6,432.9z"/>
		<path class="st0" d="M157.9,426.9c0,0.5,0,0.9-0.1,1.2l-7.9,0v-0.5l7,0c0.3,0,0.4-0.2,0.4-0.8c0-1.8-1.1-3.5-3.2-3.5
			c-2.3,0-3.9,2.2-3.9,4.6c0,3.6,2,5.1,4.1,5.1c1.4,0,2.5-0.5,3.4-1.4l0.2,0.2c-0.9,1.1-2.2,1.7-3.6,1.7c-2.4,0-4.8-1.6-4.8-5.4
			c0-3.3,2.2-5.3,4.6-5.3C156.6,423,157.9,424.8,157.9,426.9z"/>
		<path class="st0" d="M187.4,433l-0.1-2.2h0.5l0.3,2.2l-0.5-0.2v-0.4c0.7,0.4,1.5,0.7,2.8,0.7c2,0,3-1,3-2.2c0-1.1-0.5-1.6-2.3-2.3
			l-1-0.4c-1.5-0.6-2.5-1.3-2.5-2.8c0-1.5,1.2-2.6,3.3-2.6c1.2,0,1.9,0.3,2.9,0.9l0,1.9h-0.5l-0.2-2.1l0.3,0.3v0.3
			c-0.9-0.6-1.7-0.8-2.6-0.8c-1.8,0-2.6,0.9-2.6,2.1c0,1.1,0.7,1.7,2.2,2.2l1.1,0.4c1.9,0.7,2.6,1.5,2.6,2.8c0,1.5-1.1,2.8-3.7,2.8
			C189.3,433.6,188.4,433.4,187.4,433z"/>
		<path class="st0" d="M225.4,433.3c0-1,0.1-3.2,0.1-4.5v-1.1c0-1.3,0-2.7,0-4h-2v-0.4l2.5-0.3l0.2,0.1l0,2.5v3.1
			c0,1.3,0,3.5,0.1,4.5H225.4z M227.9,432.9v0.4h-4.4v-0.4l2.2-0.1h0.2L227.9,432.9z M225,418.8c0-0.4,0.3-0.7,0.7-0.7
			c0.4,0,0.7,0.3,0.7,0.7c0,0.4-0.3,0.7-0.7,0.7C225.3,419.5,225,419.2,225,418.8z"/>
		<path class="st0" d="M265.8,435.3c0-1-0.5-1.8-2.3-1.8h-2.7c-0.5,0-1.1,0-1.6-0.1v-0.1c-0.7-0.2-1.3-0.7-1.3-1.4
			c0-1,0.7-1.7,1.7-2.5l0.2,0.2c-0.8,0.9-1.3,1.4-1.3,2.2c0,0.6,0.6,1.1,2,1.1h3.1c1.8,0,2.8,0.8,2.8,2.4c0,1.7-1.5,3.4-4.8,3.4
			c-2.7,0-4.4-1.2-4.4-2.9c0-1.4,1.1-2.3,2.3-2.8l0.2,0.2c-1.2,0.7-1.8,1.3-1.8,2.4c0,1.6,1.4,2.5,3.8,2.5
			C264.4,438.1,265.8,436.8,265.8,435.3z M261.3,423c2.1,0,3.5,1.4,3.5,3.5c0,2.2-1.5,3.6-3.5,3.6c-2.1,0-3.5-1.5-3.5-3.6
			C257.8,424.4,259.2,423,261.3,423z M258.4,426.5c0,1.9,1.2,3.1,2.9,3.1c1.7,0,2.9-1.3,2.9-3.1c0-1.8-1.2-3.1-2.9-3.1
			C259.6,423.4,258.4,424.7,258.4,426.5z M266.1,423.1l0.3,0.2v0.7h-3.1v-0.3L266.1,423.1z"/>
		<path class="st0" d="M297.2,433.3c0-1,0.1-3.2,0.1-4.5v-1.1c0-1.5,0-2.9-0.1-4h-2v-0.4l2.4-0.3l0.2,0.1l0,2.3v3.3
			c0,1.3,0,3.5,0.1,4.5H297.2z M299.7,432.9v0.4h-4.4v-0.4l2.2-0.1h0.2L299.7,432.9z M304.8,426.6v2.2c0,1.4,0,3.5,0.1,4.5h-0.7
			c0-1,0.1-3.1,0.1-4.5v-2.3c0-2.2-0.9-3-2.2-3c-0.9,0-2.5,0.4-4.3,2.5h-0.3v-0.5h0.4l-0.2,0.1c1.7-2.1,3.2-2.8,4.6-2.8
			C303.8,423,304.8,423.9,304.8,426.6z M304.6,432.8l2,0.1v0.4h-4.4v-0.4l2.2-0.1H304.6z"/>
	</g>
	<g>
		<path class="st0" d="M134.8,370.4c3.6-4.6,5.3-11,2.4-17.7c-2.9-6.8-9.9-11.1-17.3-11.1H87.8c-5.2,0-9.3,4.2-9.3,9.3v41.5
			c0,5.2,4.2,9.3,9.3,9.3H124c9.5,0,17.6-8.1,17.6-17.6C141.7,378.8,138.9,373.7,134.8,370.4z M99.5,354.8l13.6,0
			c2.7,0,5.2,2,5.4,4.7c0.3,3.1-2.1,5.7-5.2,5.7l-13.8,0c-2.9,0-5.2-2.3-5.2-5.2C94.3,357.1,96.6,354.8,99.5,354.8z M121.4,384.7
			c-0.5,2.4-2.8,4.1-5.3,4.1l-16.6,0c-2.9,0-5.2-2.3-5.2-5.2v0c0-2.9,2.3-5.2,5.2-5.2l16.8,0C119.4,378.4,122.1,381.4,121.4,384.7z"
			/>
		<path class="st0" d="M207,375.7l-6.4,11.1l2.8-12.7l-10.1-4.5c0,0.1,0.1,0.2,0.1,0.3c2.1,10.3-6.4,19.5-16.8,18.3
			c-6.8-0.8-12.3-6.3-13.2-13.1c-0.9-6.6,2.5-12.5,7.7-15.4l-16.8-7.5c-5.4,6.3-8.4,14.6-7.6,23.6c1.3,15.4,13.8,27.9,29.3,29.1
			c17.5,1.3,32.3-11.4,34.2-28.1c0-0.1,0-0.1,0-0.2L207,375.7z"/>
		<path class="st0" d="M175.5,353.5c3.8,0.7,7.1,2.9,9.3,5.9l16.5,5.7l-13.5-9.5l16.2,7.2c-2.6-14-14.5-25-28.9-26.1
			c-10.4-0.8-19.8,3.4-26.1,10.4l19.6,6.7C170.7,353.2,173.1,353.1,175.5,353.5z"/>
		<path class="st0" d="M238.9,353.5c6,1.1,10.8,5.9,12,11.8c1.3,6.3-1.4,12.2-6.1,15.6l16.4,7.3c4.8-6.1,7.4-13.9,6.7-22.3
			c-1.3-15.5-13.8-28-29.3-29.2c-16.8-1.3-31.1,10.6-33.9,26.4l16.3,7.3C219.8,360.1,228.7,351.6,238.9,353.5z"/>
		<path class="st0" d="M240,388.3c-3.9-0.5-7.4-2.5-9.8-5.4l-20-6.1c0,0.1,0,0.1,0,0.2c1.7,15,14,26.9,29.2,28.1
			c10.7,0.8,20.4-3.7,26.8-11.1l-20-6.2C244.2,388.3,242.2,388.5,240,388.3z"/>
		<path class="st0" d="M332.9,341.7c-1.3,0-2.5,0.5-3.5,1.3l-9.5,8.7c-7.7,7-19.3,7-27,0l-9.6-8.7c-0.9-0.9-2.2-1.3-3.5-1.3
			c-2.8,0-5.1,2.3-5.1,5.1v47.1c0,4.4,3.6,7.9,7.9,7.9h0c4.4,0,7.9-3.6,7.9-7.9v-22.9l0,0c9,8.1,22.6,8.1,31.5-0.1v0v0v22.9
			c0,4.4,3.6,7.9,7.9,7.9c4.4,0,7.9-3.6,7.9-7.9v-47.1C338,344,335.7,341.7,332.9,341.7z"/>
	</g>
</g>
</svg>
