<svg xmlns="http://www.w3.org/2000/svg" viewBox="0 0 53.25 53.25"><defs><style>.cls-1{fill:#00a099;}.cls-2{opacity:0.75;}</style></defs><title>aboutusicon</title><g id="Capa_2" data-name="Capa 2"><g id="Capa_1-2" data-name="Capa 1"><circle class="cls-1" cx="26.63" cy="26.63" r="26.63"/><g class="cls-2"><path d="M20.94,24.41a4.7,4.7,0,0,1,.27,1,6.57,6.57,0,0,1,.09,1.05,6.34,6.34,0,0,1-.15,1.43,5,5,0,0,1-.46,1.22,5.69,5.69,0,0,1-.77,1.09,9.79,9.79,0,0,1-1.08,1c-.42.36-.79.7-1.12,1a7.8,7.8,0,0,0-.84.94,3.4,3.4,0,0,0-.51,1,3.5,3.5,0,0,0-.17,1.11,2.41,2.41,0,0,0,.19,1,2.12,2.12,0,0,0,.53.78,2.46,2.46,0,0,0,.86.51,3.06,3.06,0,0,0,1.12.19,7.66,7.66,0,0,0,2.76-.55,9,9,0,0,0,2.71-1.68v5.13a10.33,10.33,0,0,1-2.86,1.18,13.18,13.18,0,0,1-3.21.39,11.66,11.66,0,0,1-3-.35A6.85,6.85,0,0,1,13,40.76a5.2,5.2,0,0,1-1.58-1.92A6.34,6.34,0,0,1,10.81,36,6.87,6.87,0,0,1,11,34.15a6.53,6.53,0,0,1,.7-1.6,8,8,0,0,1,1.15-1.44,18.87,18.87,0,0,1,1.57-1.42c.4-.34.75-.64,1-.93a5.67,5.67,0,0,0,.75-.84,3.24,3.24,0,0,0,.45-.89A3.5,3.5,0,0,0,16.86,26a3,3,0,0,0-.11-.83,2.17,2.17,0,0,0-.3-.72Zm-2.49-7.47a3.2,3.2,0,0,1,2.27.82,2.68,2.68,0,0,1,.91,2,2.58,2.58,0,0,1-.91,2,3.31,3.31,0,0,1-2.27.8,3.21,3.21,0,0,1-2.23-.8,2.54,2.54,0,0,1-.89-2,2.6,2.6,0,0,1,.87-2A3.2,3.2,0,0,1,18.45,16.94Z"/><path d="M33.1,28.09a5.4,5.4,0,0,1-.26-1A6.57,6.57,0,0,1,32.75,26a6.34,6.34,0,0,1,.15-1.43,5.12,5.12,0,0,1,.46-1.22,5.69,5.69,0,0,1,.77-1.09,9.66,9.66,0,0,1,1.07-1c.44-.36.81-.7,1.14-1a8.61,8.61,0,0,0,.83-.94,3.77,3.77,0,0,0,.51-1,3.6,3.6,0,0,0,.17-1.12,2.45,2.45,0,0,0-.19-1,2,2,0,0,0-.54-.78,2.33,2.33,0,0,0-.85-.51,3.1,3.1,0,0,0-1.12-.19,7.64,7.64,0,0,0-2.76.56A8.74,8.74,0,0,0,29.67,17V11.86a10.84,10.84,0,0,1,2.87-1.18,13.18,13.18,0,0,1,3.21-.39,11.53,11.53,0,0,1,3,.35,6.69,6.69,0,0,1,2.38,1.1,5.13,5.13,0,0,1,1.59,1.92,6.34,6.34,0,0,1,.57,2.81A6.86,6.86,0,0,1,43,18.35a6.17,6.17,0,0,1-.7,1.6,7.5,7.5,0,0,1-1.14,1.44c-.46.46-1,.94-1.57,1.43-.4.33-.75.63-1.05.92a5.67,5.67,0,0,0-.75.84,3.24,3.24,0,0,0-.45.89,3.21,3.21,0,0,0-.16,1.07,3.44,3.44,0,0,0,.11.83,2.69,2.69,0,0,0,.3.72Zm2.5,7.47a3.27,3.27,0,0,1-2.27-.81,2.67,2.67,0,0,1-.91-2,2.53,2.53,0,0,1,.91-2,3.27,3.27,0,0,1,2.27-.81,3.17,3.17,0,0,1,2.23.81,2.53,2.53,0,0,1,.89,2,2.63,2.63,0,0,1-.87,2A3.2,3.2,0,0,1,35.6,35.56Z"/></g></g></g></svg>