<?xml version="1.0" encoding="utf-8"?>
<!-- Generator: Adobe Illustrator 23.0.1, SVG Export Plug-In . SVG Version: 6.00 Build 0)  -->
<svg version="1.1" id="Capa_1" xmlns="http://www.w3.org/2000/svg" xmlns:xlink="http://www.w3.org/1999/xlink" x="0px" y="0px"
	 viewBox="0 0 412.8 70" style="enable-background:new 0 0 412.8 70;" xml:space="preserve">
<style type="text/css">
	.st0{clip-path:url(#SVGID_2_);}
	.st1{opacity:0.6;}
	.st2{opacity:0.25;fill:#FFFFFF;}
	.st3{opacity:0.4;}
	.st4{fill:#FFFFFF;}
	.st5{fill:#A3897A;}
	.st6{fill:#F29100;}
	.st7{fill:#F8B133;}
	.st8{fill:#2DAB66;}
	.st9{fill:#00A099;}
	.st10{fill:#35A8E0;}
	.st11{opacity:0.75;}
	.st12{opacity:0.7;}
	.st13{opacity:0.75;fill:url(#SVGID_3_);}
	.st14{opacity:0.75;fill:url(#SVGID_4_);}
	.st15{opacity:0.3;fill:#FFFFFF;}
</style>
<g>
	<g>
		<g>
			<path class="st4" d="M264.8,17.1h0.9v9.2h-0.9V17.1z M265.5,21.9h3c0.4,0,0.7-0.1,1-0.2s0.5-0.4,0.6-0.7c0.2-0.3,0.2-0.6,0.2-1
				c0-0.4-0.1-0.7-0.2-1c-0.2-0.3-0.4-0.5-0.6-0.7s-0.6-0.2-1-0.2h-3v-0.9h2.9c0.5,0,1,0.1,1.5,0.4c0.4,0.2,0.7,0.6,1,1
				c0.2,0.4,0.3,0.9,0.3,1.5c0,0.6-0.1,1.1-0.3,1.5c-0.2,0.4-0.6,0.8-1,1c-0.4,0.2-0.9,0.4-1.5,0.4h-2.9V21.9z"/>
			<path class="st4" d="M272.5,19.7h0.9v6.6h-0.9V19.7z M275.8,20.6c-0.2-0.1-0.4-0.1-0.7-0.1c-0.5,0-1,0.1-1.3,0.4
				c-0.3,0.3-0.5,0.7-0.5,1.2l-0.1-1.3c0.2-0.4,0.6-0.7,0.9-0.9c0.4-0.2,0.8-0.3,1.3-0.3c0.3,0,0.6,0,0.8,0.1s0.5,0.2,0.6,0.4
				l-0.6,0.8C276.2,20.8,276.1,20.7,275.8,20.6z"/>
			<path class="st4" d="M279,26.1c-0.4-0.2-0.7-0.6-0.9-1s-0.3-0.9-0.3-1.6v-1.1c0-0.6,0.1-1.1,0.3-1.5c0.2-0.4,0.5-0.7,0.9-1
				c0.4-0.2,0.9-0.3,1.5-0.3s1.1,0.1,1.5,0.3c0.4,0.2,0.7,0.5,0.9,1c0.2,0.4,0.3,0.9,0.3,1.5v1.1c0,0.6-0.1,1.1-0.3,1.5
				c-0.2,0.4-0.5,0.8-0.9,1c-0.4,0.2-0.9,0.3-1.5,0.3S279.4,26.3,279,26.1z M281.8,25c0.3-0.3,0.5-0.8,0.5-1.5v-1.1
				c0-0.6-0.2-1.1-0.5-1.5c-0.3-0.3-0.8-0.5-1.3-0.5c-0.6,0-1,0.2-1.3,0.5c-0.3,0.3-0.5,0.8-0.5,1.5v1.1c0,0.6,0.2,1.1,0.5,1.5
				c0.3,0.3,0.8,0.5,1.3,0.5C281,25.6,281.4,25.4,281.8,25z"/>
			<path class="st4" d="M284.2,19.7h0.9l2.2,6.1l-0.5,1L284.2,19.7z M290,19.7l-2.8,8.1c-0.1,0.3-0.2,0.5-0.4,0.7s-0.4,0.3-0.6,0.4
				s-0.5,0.1-0.9,0.1H285v-0.9h0.3c0.3,0,0.6-0.1,0.8-0.2c0.2-0.2,0.4-0.4,0.5-0.8l2.4-7.4H290z"/>
			<path class="st4" d="M292.8,26.4c0,0-0.2-0.1-0.6-0.3c-0.4-0.2-0.8-0.6-1-1s-0.3-1-0.3-1.6v-0.7c0-0.7,0.1-1.2,0.3-1.7
				c0.2-0.5,0.5-0.8,0.9-1.1c0.4-0.2,0.9-0.4,1.5-0.4c0.5,0,1,0.1,1.4,0.4c0.4,0.2,0.7,0.6,0.9,1c0.2,0.5,0.3,1,0.3,1.6v0.8h-4.8
				v-0.8h3.9v-0.1c0-0.7-0.2-1.2-0.5-1.5s-0.7-0.5-1.3-0.5c-0.6,0-1.1,0.2-1.4,0.6c-0.3,0.4-0.5,0.9-0.5,1.6v0.8
				c0,0.7,0.2,1.2,0.5,1.5c0.4,0.4,0.9,0.5,1.5,0.5c0.3,0,0.6-0.1,0.9-0.2c0.3-0.1,0.6-0.3,0.8-0.5l0.6,0.6
				c-0.3,0.3-0.7,0.6-1.1,0.7c-0.4,0.2-0.8,0.3-1.2,0.3C293.1,26.4,292.8,26.4,292.8,26.4z"/>
			<path class="st4" d="M299.7,26.4c0,0-0.2-0.1-0.6-0.3c-0.4-0.2-0.7-0.5-0.9-1c-0.2-0.4-0.3-1-0.3-1.6v-1.1c0-0.6,0.1-1.2,0.3-1.6
				s0.5-0.7,0.9-0.9c0.4-0.2,0.9-0.3,1.6-0.3c0.4,0,0.7,0,1,0.1s0.6,0.2,0.8,0.3c0.2,0.2,0.4,0.4,0.6,0.6l-0.7,0.6
				c-0.2-0.3-0.5-0.5-0.8-0.6c-0.3-0.1-0.6-0.2-0.9-0.2c-0.7,0-1.1,0.2-1.5,0.5c-0.3,0.3-0.5,0.8-0.5,1.5v1.1c0,0.7,0.2,1.2,0.5,1.5
				c0.3,0.3,0.8,0.5,1.5,0.5c0.4,0,0.7-0.1,1-0.2s0.6-0.3,0.8-0.6l0.6,0.6c-0.2,0.2-0.4,0.4-0.6,0.6c-0.2,0.2-0.5,0.3-0.8,0.3
				s-0.6,0.1-1,0.1C300,26.4,299.7,26.4,299.7,26.4z"/>
			<path class="st4" d="M303.9,19.7h3v0.8h-3V19.7z M305,25.9c-0.2-0.3-0.4-0.7-0.4-1.3v-6.8h0.9v6.8c0,0.3,0.1,0.5,0.2,0.7
				s0.3,0.2,0.6,0.2h0.6v0.9h-0.7C305.6,26.3,305.2,26.2,305,25.9z"/>
			<path class="st4" d="M309.8,26.1c-0.4-0.2-0.7-0.6-0.9-1s-0.3-0.9-0.3-1.6v-1.1c0-0.6,0.1-1.1,0.3-1.5c0.2-0.4,0.5-0.7,0.9-1
				c0.4-0.2,0.9-0.3,1.5-0.3s1.1,0.1,1.5,0.3c0.4,0.2,0.7,0.5,0.9,1c0.2,0.4,0.3,0.9,0.3,1.5v1.1c0,0.6-0.1,1.1-0.3,1.5
				c-0.2,0.4-0.5,0.8-0.9,1c-0.4,0.2-0.9,0.3-1.5,0.3S310.2,26.3,309.8,26.1z M312.6,25c0.3-0.3,0.5-0.8,0.5-1.5v-1.1
				c0-0.6-0.2-1.1-0.5-1.5c-0.3-0.3-0.8-0.5-1.3-0.5c-0.6,0-1,0.2-1.3,0.5c-0.3,0.3-0.5,0.8-0.5,1.5v1.1c0,0.6,0.2,1.1,0.5,1.5
				c0.3,0.3,0.8,0.5,1.3,0.5C311.8,25.6,312.2,25.4,312.6,25z"/>
			<path class="st4" d="M315.5,19.7h0.9v0.9h-0.9V19.7z M315.5,25.4h0.9v0.9h-0.9V25.4z"/>
			<path class="st4" d="M320.8,17.1h1.5v9.2h-1.5V17.1z M321.5,24.9h2.7c0.5,0,0.9-0.1,1.2-0.3c0.3-0.2,0.4-0.5,0.4-0.9v0
				c0-0.3-0.1-0.5-0.2-0.7c-0.1-0.2-0.3-0.3-0.5-0.4c-0.2-0.1-0.5-0.2-0.8-0.2h-2.9v-1.4h2.9c0.4,0,0.7-0.1,1-0.3
				c0.2-0.2,0.3-0.5,0.3-0.9c0-0.4-0.1-0.7-0.3-0.9c-0.2-0.2-0.6-0.3-1-0.3h-2.8v-1.4h2.9c0.6,0,1.1,0.1,1.5,0.3
				c0.4,0.2,0.7,0.5,0.9,0.9c0.2,0.4,0.3,0.8,0.3,1.3c0,0.3-0.1,0.6-0.2,0.9c-0.1,0.3-0.3,0.5-0.6,0.7c-0.3,0.2-0.6,0.3-1,0.4
				c0.4,0.1,0.7,0.2,1,0.4s0.5,0.5,0.6,0.8c0.1,0.3,0.2,0.7,0.2,1v0c0,0.5-0.1,1-0.3,1.3c-0.2,0.4-0.5,0.7-1,0.9s-0.9,0.3-1.5,0.3
				h-3V24.9z"/>
			<path class="st4" d="M330.1,26.1c-0.4-0.2-0.7-0.6-1-1s-0.3-0.9-0.3-1.6v-1.1c0-0.6,0.1-1.1,0.3-1.5c0.2-0.4,0.5-0.7,1-1
				c0.4-0.2,0.9-0.3,1.5-0.3s1.1,0.1,1.5,0.3c0.4,0.2,0.7,0.5,1,1c0.2,0.4,0.3,0.9,0.3,1.5v1.1c0,0.6-0.1,1.1-0.3,1.5
				c-0.2,0.4-0.5,0.8-1,1c-0.4,0.2-0.9,0.3-1.5,0.3S330.5,26.3,330.1,26.1z M332.5,24.6c0.2-0.2,0.3-0.6,0.3-1v-1.1
				c0-0.4-0.1-0.8-0.3-1c-0.2-0.2-0.5-0.4-0.9-0.4s-0.7,0.1-0.9,0.4c-0.2,0.2-0.3,0.6-0.3,1v1.1c0,0.4,0.1,0.8,0.3,1
				c0.2,0.2,0.5,0.4,0.9,0.4C332,25,332.3,24.8,332.5,24.6z"/>
			<path class="st4" d="M336.1,17.1h1.5v9.2h-1.5V17.1z M340,22.3c0-0.4-0.1-0.7-0.3-0.9c-0.2-0.2-0.5-0.3-0.9-0.3
				c-0.4,0-0.7,0.1-0.9,0.3c-0.2,0.2-0.3,0.5-0.3,0.8l-0.1-1.4c0.2-0.4,0.4-0.7,0.8-0.9c0.3-0.2,0.7-0.3,1.1-0.3
				c0.7,0,1.2,0.2,1.6,0.7c0.4,0.5,0.6,1.1,0.6,2v4H340V22.3z"/>
			<path class="st4" d="M345.2,26.4c0,0-0.2-0.1-0.7-0.3s-0.8-0.6-1-1c-0.2-0.4-0.3-1-0.3-1.6v-0.7c0-0.7,0.1-1.2,0.3-1.7
				c0.2-0.5,0.5-0.8,1-1.1c0.4-0.2,0.9-0.4,1.5-0.4c0.6,0,1,0.1,1.4,0.4c0.4,0.3,0.7,0.7,0.9,1.2c0.2,0.5,0.3,1.2,0.3,1.9v0.4h-4.5
				v-1.1h3.1l0-0.1c0-0.5-0.2-0.8-0.4-1.1S346.4,21,346,21c-0.5,0-0.8,0.1-1.1,0.4c-0.3,0.3-0.4,0.7-0.4,1.2v0.8
				c0,0.5,0.1,0.9,0.4,1.2c0.3,0.3,0.7,0.4,1.1,0.4c0.3,0,0.5,0,0.7-0.1c0.2-0.1,0.5-0.2,0.7-0.4l1,0.9c-0.3,0.3-0.7,0.6-1.1,0.7
				c-0.4,0.2-0.8,0.3-1.3,0.3C345.5,26.4,345.2,26.4,345.2,26.4z"/>
			<path class="st4" d="M350.3,19.7h1.5v6.6h-1.5V19.7z M354.2,22.4c0-0.4-0.1-0.8-0.3-1c-0.2-0.2-0.5-0.3-0.9-0.3
				c-0.4,0-0.7,0.1-0.9,0.3s-0.3,0.5-0.3,0.9l-0.1-1.4c0.2-0.4,0.5-0.7,0.8-0.9s0.7-0.3,1.1-0.3c0.5,0,0.9,0.1,1.2,0.3
				s0.6,0.5,0.8,0.9c0.2,0.4,0.3,0.9,0.3,1.5v3.9h-1.5V22.4z M358.1,22.4c0-0.4-0.1-0.8-0.3-1c-0.2-0.2-0.5-0.3-0.9-0.3
				c-0.4,0-0.7,0.1-0.9,0.3c-0.2,0.2-0.3,0.5-0.3,0.9l-0.3-1.4c0.2-0.4,0.5-0.8,0.8-1c0.3-0.2,0.7-0.3,1.1-0.3
				c0.5,0,0.9,0.1,1.2,0.3c0.3,0.2,0.6,0.5,0.8,0.9s0.3,0.9,0.3,1.5v3.9h-1.5V22.4z"/>
			<path class="st4" d="M361.4,17.1h1.5v1.5h-1.5V17.1z M361.4,19.7h1.5v6.6h-1.5V19.7z"/>
			<path class="st4" d="M365,25.9c-0.4-0.3-0.6-0.8-0.6-1.5c0-0.7,0.2-1.1,0.6-1.5c0.4-0.3,1-0.5,1.7-0.5h1.8l0.1,1.2h-1.8
				c-0.3,0-0.5,0.1-0.7,0.2s-0.2,0.3-0.2,0.6c0,0.3,0.1,0.5,0.3,0.6c0.2,0.1,0.5,0.2,0.9,0.2c0.5,0,0.8-0.1,1.1-0.2
				c0.2-0.1,0.4-0.3,0.4-0.5l0.1,0.9c-0.1,0.2-0.2,0.4-0.4,0.5s-0.4,0.2-0.7,0.3c-0.3,0.1-0.5,0.1-0.8,0.1
				C365.9,26.4,365.4,26.2,365,25.9z M368.4,22.1c0-0.4-0.1-0.7-0.3-0.9s-0.5-0.3-0.9-0.3c-0.3,0-0.5,0-0.7,0.1
				c-0.2,0.1-0.5,0.2-0.7,0.3l-1-0.9c0.3-0.3,0.6-0.5,1-0.7c0.4-0.2,0.9-0.3,1.4-0.3c0.6,0,1,0.1,1.4,0.3c0.4,0.2,0.7,0.5,0.9,0.8
				c0.2,0.4,0.3,0.8,0.3,1.3v4.2h-1.4V22.1z"/>
			<path class="st4" d="M371.7,19.7h1.5v6.6h-1.5V19.7z M375.6,22.3c0-0.4-0.1-0.7-0.3-0.9c-0.2-0.2-0.5-0.3-0.9-0.3
				c-0.4,0-0.7,0.1-0.9,0.3s-0.3,0.5-0.3,0.9l-0.1-1.4c0.2-0.4,0.4-0.7,0.8-0.9c0.3-0.2,0.7-0.3,1.1-0.3c0.7,0,1.2,0.2,1.6,0.7
				c0.4,0.5,0.6,1.1,0.6,2v4h-1.5V22.3z"/>
			<path class="st4" d="M381.3,17.1h1.5v9.2h-1.5V17.1z M381.9,21.1h3.2c0.2,0,0.4-0.1,0.6-0.2c0.2-0.1,0.3-0.3,0.4-0.4
				s0.1-0.4,0.1-0.7c0-0.2,0-0.5-0.1-0.7c-0.1-0.2-0.2-0.3-0.4-0.4c-0.2-0.1-0.4-0.2-0.6-0.2h-3.2v-1.5h3.2c0.5,0,1,0.1,1.4,0.3
				c0.4,0.2,0.7,0.5,0.9,1c0.2,0.4,0.3,0.9,0.3,1.4c0,0.5-0.1,1-0.3,1.4c-0.2,0.4-0.5,0.7-0.9,1c-0.4,0.2-0.9,0.3-1.4,0.3h-3.2V21.1
				z M384.1,22.2l1.6-0.3l2.4,4.4h-1.8L384.1,22.2z"/>
			<path class="st4" d="M390.4,26.1c-0.4-0.2-0.7-0.6-1-1s-0.3-0.9-0.3-1.6v-1.1c0-0.6,0.1-1.1,0.3-1.5c0.2-0.4,0.5-0.7,1-1
				c0.4-0.2,0.9-0.3,1.5-0.3s1.1,0.1,1.5,0.3c0.4,0.2,0.7,0.5,1,1c0.2,0.4,0.3,0.9,0.3,1.5v1.1c0,0.6-0.1,1.1-0.3,1.5
				c-0.2,0.4-0.5,0.8-1,1c-0.4,0.2-0.9,0.3-1.5,0.3S390.9,26.3,390.4,26.1z M392.9,24.6c0.2-0.2,0.3-0.6,0.3-1v-1.1
				c0-0.4-0.1-0.8-0.3-1c-0.2-0.2-0.5-0.4-0.9-0.4s-0.7,0.1-0.9,0.4c-0.2,0.2-0.3,0.6-0.3,1v1.1c0,0.4,0.1,0.8,0.3,1
				c0.2,0.2,0.5,0.4,0.9,0.4C392.3,25,392.7,24.8,392.9,24.6z"/>
			<path class="st4" d="M397.5,26.1c-0.4-0.2-0.7-0.6-1-1s-0.3-0.9-0.3-1.6v-1.1c0-0.6,0.1-1.1,0.3-1.5c0.2-0.4,0.5-0.7,1-1
				c0.4-0.2,0.9-0.3,1.5-0.3s1.1,0.1,1.5,0.3c0.4,0.2,0.7,0.5,1,1c0.2,0.4,0.3,0.9,0.3,1.5v1.1c0,0.6-0.1,1.1-0.3,1.5
				c-0.2,0.4-0.5,0.8-1,1c-0.4,0.2-0.9,0.3-1.5,0.3S397.9,26.3,397.5,26.1z M400,24.6c0.2-0.2,0.3-0.6,0.3-1v-1.1
				c0-0.4-0.1-0.8-0.3-1c-0.2-0.2-0.5-0.4-0.9-0.4s-0.7,0.1-0.9,0.4c-0.2,0.2-0.3,0.6-0.3,1v1.1c0,0.4,0.1,0.8,0.3,1
				c0.2,0.2,0.5,0.4,0.9,0.4C399.4,25,399.7,24.8,400,24.6z"/>
			<path class="st4" d="M403.5,19.7h1.5v6.6h-1.5V19.7z M407.4,22.4c0-0.4-0.1-0.8-0.3-1c-0.2-0.2-0.5-0.3-0.9-0.3
				c-0.4,0-0.7,0.1-0.9,0.3s-0.3,0.5-0.3,0.9l-0.1-1.4c0.2-0.4,0.5-0.7,0.8-0.9s0.7-0.3,1.1-0.3c0.5,0,0.9,0.1,1.2,0.3
				s0.6,0.5,0.8,0.9c0.2,0.4,0.3,0.9,0.3,1.5v3.9h-1.5V22.4z M411.3,22.4c0-0.4-0.1-0.8-0.3-1c-0.2-0.2-0.5-0.3-0.9-0.3
				c-0.4,0-0.7,0.1-0.9,0.3c-0.2,0.2-0.3,0.5-0.3,0.9l-0.3-1.4c0.2-0.4,0.5-0.8,0.8-1c0.3-0.2,0.7-0.3,1.1-0.3
				c0.5,0,0.9,0.1,1.2,0.3c0.3,0.2,0.6,0.5,0.8,0.9s0.3,0.9,0.3,1.5v3.9h-1.5V22.4z"/>
		</g>
		<g>
			<path class="st4" d="M263.5,32.5h1.6v11.4h-1.6V32.5z M264.4,42.4h3.1c0.8,0,1.4-0.2,1.8-0.5c0.4-0.3,0.6-0.7,0.6-1.3v0
				c0-0.4-0.1-0.7-0.2-1c-0.1-0.3-0.3-0.5-0.6-0.6s-0.7-0.2-1.1-0.2h-3.5v-1.4h3.5c0.6,0,1-0.1,1.3-0.4c0.3-0.3,0.4-0.7,0.4-1.2
				c0-0.6-0.2-1-0.5-1.3s-0.8-0.4-1.5-0.4h-3.3v-1.5h3.5c0.7,0,1.3,0.1,1.8,0.4s0.9,0.6,1.1,1.1c0.2,0.5,0.4,1,0.4,1.6
				c0,0.4-0.1,0.8-0.2,1.1c-0.2,0.3-0.4,0.6-0.7,0.9s-0.7,0.4-1.2,0.5c0.5,0.1,0.9,0.2,1.2,0.5s0.6,0.6,0.8,1
				c0.2,0.4,0.3,0.8,0.3,1.3v0c0,0.6-0.1,1.2-0.4,1.6s-0.7,0.8-1.2,1.1c-0.5,0.3-1.1,0.4-1.8,0.4h-3.7V42.4z"/>
			<path class="st4" d="M274.9,43.6c-0.5-0.3-0.9-0.7-1.1-1.2c-0.3-0.5-0.4-1.2-0.4-1.9v-1.3c0-0.7,0.1-1.4,0.4-1.9s0.6-0.9,1.1-1.2
				s1.1-0.4,1.8-0.4s1.3,0.1,1.8,0.4s0.9,0.7,1.1,1.2s0.4,1.2,0.4,1.9v1.3c0,0.7-0.1,1.4-0.4,1.9s-0.6,0.9-1.1,1.2
				c-0.5,0.3-1.1,0.4-1.8,0.4S275.4,43.9,274.9,43.6z M278,42c0.3-0.3,0.5-0.8,0.5-1.5v-1.3c0-0.6-0.2-1.1-0.5-1.5s-0.7-0.5-1.3-0.5
				s-1,0.2-1.3,0.5s-0.5,0.8-0.5,1.5v1.3c0,0.6,0.2,1.1,0.5,1.5c0.3,0.3,0.7,0.5,1.3,0.5S277.7,42.3,278,42z"/>
			<path class="st4" d="M283.4,43.7c-0.4-0.3-0.7-0.6-1-1.1c-0.2-0.5-0.3-1.1-0.3-1.8V39c0-0.7,0.1-1.3,0.3-1.8
				c0.2-0.5,0.5-0.9,0.9-1.1s0.9-0.4,1.5-0.4c0.5,0,0.9,0.1,1.3,0.4s0.7,0.6,1,1.1l-0.2,1.7c0-0.3-0.1-0.6-0.2-0.9
				c-0.1-0.2-0.3-0.4-0.5-0.6c-0.2-0.1-0.5-0.2-0.9-0.2c-0.5,0-0.9,0.2-1.2,0.5s-0.4,0.8-0.4,1.4v1.8c0,0.6,0.1,1,0.4,1.4
				s0.7,0.5,1.2,0.5c0.3,0,0.6-0.1,0.9-0.2s0.4-0.3,0.5-0.6s0.2-0.5,0.2-0.9l0.1,1.7c-0.2,0.4-0.4,0.7-0.8,1s-0.8,0.4-1.4,0.4
				C284.3,44,283.8,43.9,283.4,43.7z M284.2,47.2c0,0-0.2-0.1-0.7-0.3s-0.9-0.5-1.1-1l1.1-1c0.2,0.3,0.5,0.5,0.7,0.7
				s0.6,0.2,0.9,0.2c0.6,0,1.1-0.2,1.4-0.5s0.5-0.8,0.5-1.4v-8.1h1.6v7.9c0,0.7-0.1,1.4-0.4,1.9s-0.7,0.9-1.2,1.2s-1.1,0.4-1.9,0.4
				C284.5,47.2,284.2,47.2,284.2,47.2z"/>
			<path class="st4" d="M292.3,43.6c-0.5-0.3-0.9-0.7-1.1-1.2c-0.3-0.5-0.4-1.2-0.4-1.9v-1.3c0-0.7,0.1-1.4,0.4-1.9s0.6-0.9,1.1-1.2
				s1.1-0.4,1.8-0.4s1.3,0.1,1.8,0.4s0.9,0.7,1.1,1.2s0.4,1.2,0.4,1.9v1.3c0,0.7-0.1,1.4-0.4,1.9s-0.6,0.9-1.1,1.2
				c-0.5,0.3-1.1,0.4-1.8,0.4S292.8,43.9,292.3,43.6z M295.4,42c0.3-0.3,0.5-0.8,0.5-1.5v-1.3c0-0.6-0.2-1.1-0.5-1.5
				s-0.7-0.5-1.3-0.5s-1,0.2-1.3,0.5s-0.5,0.8-0.5,1.5v1.3c0,0.6,0.2,1.1,0.5,1.5c0.3,0.3,0.7,0.5,1.3,0.5S295.1,42.3,295.4,42z"/>
			<path class="st4" d="M299.1,35.8h3.7v1.4h-3.7V35.8z M300.4,43.4c-0.3-0.4-0.5-0.9-0.5-1.6v-8.4h1.6v8.4c0,0.2,0,0.4,0.1,0.5
				c0.1,0.1,0.2,0.2,0.3,0.2h0.8v1.5h-0.9C301.2,43.9,300.7,43.8,300.4,43.4z"/>
			<path class="st4" d="M305.3,43.4c-0.5-0.4-0.7-1-0.7-1.9c0-0.8,0.2-1.4,0.7-1.8c0.5-0.4,1.1-0.6,2.1-0.6h2.3l0.1,1.3h-2.4
				c-0.4,0-0.7,0.1-0.9,0.3c-0.2,0.2-0.3,0.5-0.3,0.8c0,0.4,0.1,0.7,0.4,0.9c0.3,0.2,0.7,0.3,1.2,0.3c0.6,0,1.1-0.1,1.4-0.2
				c0.3-0.1,0.4-0.3,0.4-0.6l0.2,1.1c-0.1,0.2-0.3,0.4-0.5,0.5s-0.4,0.2-0.7,0.3s-0.6,0.1-0.9,0.1C306.5,44,305.8,43.8,305.3,43.4z
				 M309.5,38.8c0-0.5-0.1-0.9-0.4-1.2c-0.3-0.3-0.7-0.4-1.2-0.4c-0.3,0-0.6,0-0.9,0.1c-0.3,0.1-0.6,0.2-0.8,0.4l-1.2-0.8
				c0.3-0.4,0.7-0.7,1.2-0.9c0.5-0.2,1.1-0.3,1.7-0.3c0.7,0,1.2,0.1,1.7,0.4c0.5,0.2,0.8,0.6,1.1,1c0.3,0.5,0.4,1,0.4,1.6v5.2h-1.5
				V38.8z M307,33.4l2.2-2.8l1.1,1l-2.4,2.6L307,33.4z"/>
		</g>
	</g>
	<g>
		<path class="st4" d="M3.4,13.5h1.1l3.4,9.2h-1L4,14.4L1,22.7H0L3.4,13.5z M1.6,19.6h4.9v0.9H1.6V19.6z"/>
		<path class="st4" d="M9.2,16.1h0.9v6.6H9.2V16.1z M13.6,18.7c0-0.6-0.2-1-0.5-1.4c-0.3-0.3-0.7-0.5-1.3-0.5c-0.5,0-1,0.1-1.3,0.4
			c-0.3,0.3-0.4,0.7-0.4,1.2L10,17.3c0.2-0.4,0.5-0.7,0.9-0.9c0.4-0.2,0.8-0.3,1.3-0.3c0.7,0,1.3,0.2,1.7,0.7c0.4,0.5,0.6,1.1,0.6,2
			v4h-0.9V18.7z"/>
		<path class="st4" d="M16.8,22.3c-0.4-0.4-0.6-0.9-0.6-1.5c0-0.6,0.2-1.1,0.6-1.4c0.4-0.3,0.9-0.5,1.6-0.5h2.2l0.1,0.9h-2.3
			c-0.4,0-0.8,0.1-1,0.3c-0.2,0.2-0.3,0.5-0.3,0.8c0,0.4,0.1,0.7,0.4,0.9s0.7,0.3,1.2,0.3c0.6,0,1-0.1,1.3-0.2s0.5-0.3,0.5-0.5
			l0.1,0.9c-0.1,0.1-0.3,0.3-0.5,0.4c-0.2,0.1-0.4,0.2-0.7,0.2s-0.5,0.1-0.9,0.1C17.8,22.8,17.2,22.6,16.8,22.3z M20.5,18.5
			c0-0.5-0.1-0.9-0.4-1.2c-0.3-0.3-0.7-0.4-1.2-0.4c-0.3,0-0.6,0.1-0.9,0.2s-0.6,0.2-0.8,0.4L16.4,17c0.3-0.3,0.6-0.5,1-0.7
			s0.9-0.3,1.4-0.3c0.5,0,1,0.1,1.4,0.3s0.7,0.5,0.9,0.8s0.3,0.8,0.3,1.3v4.2h-0.9V18.5z M18.3,14.4l1.8-2.3l0.7,0.6l-1.9,2.1
			L18.3,14.4z"/>
		<path class="st4" d="M24.3,21c0,0.3,0.1,0.5,0.2,0.7c0.1,0.2,0.3,0.2,0.6,0.2h0.6v0.9h-0.8c-0.5,0-0.9-0.2-1.1-0.5
			s-0.4-0.7-0.4-1.3v-7.5h0.9V21z"/>
		<path class="st4" d="M27.3,13.5h0.9v0.9h-0.9V13.5z M27.3,16.1h0.9v6.6h-0.9V16.1z"/>
		<path class="st4" d="M32.1,22.8c0,0-0.2,0-0.5-0.1c-0.3-0.1-0.6-0.2-0.9-0.3c-0.3-0.1-0.5-0.3-0.8-0.5l0.5-0.6
			c0.4,0.2,0.7,0.4,1.1,0.6c0.4,0.1,0.8,0.2,1.1,0.2c0.6,0,1.1-0.1,1.5-0.3s0.5-0.5,0.5-0.9c0-0.3-0.1-0.5-0.3-0.6
			c-0.2-0.1-0.4-0.2-0.6-0.3s-0.6-0.1-1.1-0.1c0,0-0.1,0-0.1,0c0,0-0.1,0-0.1,0c0,0,0,0-0.1,0c0,0,0,0-0.1,0c-0.4,0-0.8-0.1-1.1-0.2
			c-0.3-0.1-0.5-0.2-0.7-0.5c-0.2-0.2-0.3-0.6-0.3-1c0-0.4,0.1-0.8,0.3-1.1c0.2-0.3,0.5-0.5,0.9-0.7c0.4-0.2,0.9-0.2,1.4-0.2
			c0.3,0,0.6,0,0.9,0.1c0.3,0.1,0.6,0.1,0.8,0.2c0.3,0.1,0.5,0.2,0.7,0.4l-0.5,0.6c-0.3-0.2-0.6-0.3-1-0.4c-0.3-0.1-0.7-0.1-1-0.1
			c-0.6,0-1,0.1-1.3,0.3c-0.3,0.2-0.5,0.5-0.5,0.9c0,0.3,0.1,0.5,0.2,0.6c0.2,0.1,0.4,0.2,0.6,0.3c0.3,0,0.6,0.1,1,0.1
			c0,0,0,0,0.1,0c0,0,0,0,0.1,0c0,0,0,0,0,0s0,0,0,0c0.5,0,0.9,0.1,1.2,0.2c0.3,0.1,0.6,0.3,0.8,0.5c0.2,0.3,0.3,0.6,0.3,1.1
			c0,0.4-0.1,0.8-0.3,1.1c-0.2,0.3-0.5,0.5-1,0.7c-0.4,0.2-0.9,0.2-1.5,0.2C32.3,22.8,32.1,22.8,32.1,22.8z"/>
		<path class="st4" d="M37.3,13.5h0.9v0.9h-0.9V13.5z M37.3,16.1h0.9v6.6h-0.9V16.1z"/>
		<path class="st4" d="M42.1,22.8c0,0-0.2,0-0.5-0.1c-0.3-0.1-0.6-0.2-0.9-0.3c-0.3-0.1-0.5-0.3-0.8-0.5l0.5-0.6
			c0.4,0.2,0.7,0.4,1.1,0.6c0.4,0.1,0.8,0.2,1.1,0.2c0.6,0,1.1-0.1,1.5-0.3s0.5-0.5,0.5-0.9c0-0.3-0.1-0.5-0.3-0.6
			c-0.2-0.1-0.4-0.2-0.6-0.3s-0.6-0.1-1.1-0.1c0,0-0.1,0-0.1,0c0,0-0.1,0-0.1,0c0,0,0,0-0.1,0c0,0,0,0-0.1,0c-0.4,0-0.8-0.1-1.1-0.2
			c-0.3-0.1-0.5-0.2-0.7-0.5c-0.2-0.2-0.3-0.6-0.3-1c0-0.4,0.1-0.8,0.3-1.1c0.2-0.3,0.5-0.5,0.9-0.7c0.4-0.2,0.9-0.2,1.4-0.2
			c0.3,0,0.6,0,0.9,0.1c0.3,0.1,0.6,0.1,0.8,0.2c0.3,0.1,0.5,0.2,0.7,0.4l-0.5,0.6c-0.3-0.2-0.6-0.3-1-0.4c-0.3-0.1-0.7-0.1-1-0.1
			c-0.6,0-1,0.1-1.3,0.3c-0.3,0.2-0.5,0.5-0.5,0.9c0,0.3,0.1,0.5,0.2,0.6c0.2,0.1,0.4,0.2,0.6,0.3c0.3,0,0.6,0.1,1,0.1
			c0,0,0,0,0.1,0c0,0,0,0,0.1,0c0,0,0,0,0,0s0,0,0,0c0.5,0,0.9,0.1,1.2,0.2c0.3,0.1,0.6,0.3,0.8,0.5c0.2,0.3,0.3,0.6,0.3,1.1
			c0,0.4-0.1,0.8-0.3,1.1c-0.2,0.3-0.5,0.5-1,0.7c-0.4,0.2-0.9,0.2-1.5,0.2C42.3,22.8,42.1,22.8,42.1,22.8z"/>
		<path class="st4" d="M48.7,16.1h0.9l2.2,6.1l-0.5,1L48.7,16.1z M54.5,16.1l-2.8,8.1c-0.1,0.3-0.2,0.5-0.4,0.7
			c-0.2,0.2-0.4,0.3-0.6,0.4s-0.5,0.1-0.9,0.1h-0.3v-0.9h0.3c0.3,0,0.6-0.1,0.8-0.2s0.4-0.4,0.5-0.8l2.4-7.4H54.5z"/>
		<path class="st4" d="M59.6,22.8c0,0-0.2-0.1-0.6-0.3c-0.4-0.2-0.7-0.5-0.9-1c-0.2-0.4-0.3-1-0.3-1.6v-1.1c0-0.6,0.1-1.2,0.3-1.6
			s0.5-0.7,0.9-0.9c0.4-0.2,0.9-0.3,1.6-0.3c0.4,0,0.7,0,1,0.1c0.3,0.1,0.6,0.2,0.8,0.3c0.2,0.2,0.4,0.4,0.6,0.6l-0.7,0.6
			c-0.2-0.3-0.5-0.5-0.8-0.6c-0.3-0.1-0.6-0.2-0.9-0.2c-0.7,0-1.1,0.2-1.5,0.5c-0.3,0.3-0.5,0.8-0.5,1.5v1.1c0,0.7,0.2,1.2,0.5,1.5
			c0.3,0.3,0.8,0.5,1.5,0.5c0.4,0,0.7-0.1,1-0.2s0.6-0.3,0.8-0.6l0.6,0.6c-0.2,0.2-0.4,0.4-0.6,0.6c-0.2,0.2-0.5,0.3-0.8,0.3
			s-0.6,0.1-1,0.1C59.9,22.8,59.6,22.8,59.6,22.8z"/>
		<path class="st4" d="M65.4,22.5c-0.4-0.2-0.7-0.6-0.9-1c-0.2-0.4-0.3-0.9-0.3-1.6v-1.1c0-0.6,0.1-1.1,0.3-1.5
			c0.2-0.4,0.5-0.7,0.9-1c0.4-0.2,0.9-0.3,1.5-0.3s1.1,0.1,1.5,0.3c0.4,0.2,0.7,0.5,0.9,1c0.2,0.4,0.3,0.9,0.3,1.5V20
			c0,0.6-0.1,1.1-0.3,1.5c-0.2,0.4-0.5,0.8-0.9,1c-0.4,0.2-0.9,0.3-1.5,0.3S65.8,22.7,65.4,22.5z M68.2,21.4
			c0.3-0.3,0.5-0.8,0.5-1.5v-1.1c0-0.6-0.2-1.1-0.5-1.5c-0.3-0.3-0.8-0.5-1.3-0.5c-0.6,0-1,0.2-1.3,0.5c-0.3,0.3-0.5,0.8-0.5,1.5V20
			c0,0.6,0.2,1.1,0.5,1.5c0.3,0.3,0.8,0.5,1.3,0.5C67.4,22,67.9,21.8,68.2,21.4z"/>
		<path class="st4" d="M71.4,16.1h0.9v6.6h-0.9V16.1z M75.8,18.7c0-0.6-0.2-1-0.5-1.4C75,17,74.6,16.9,74,16.9c-0.5,0-1,0.1-1.3,0.4
			c-0.3,0.3-0.4,0.7-0.4,1.2l-0.1-1.3c0.2-0.4,0.5-0.7,0.9-0.9c0.4-0.2,0.8-0.3,1.3-0.3c0.7,0,1.3,0.2,1.7,0.7
			c0.4,0.5,0.6,1.1,0.6,2v4h-0.9V18.7z"/>
		<path class="st4" d="M80.4,22.8c0,0-0.2-0.1-0.6-0.3c-0.4-0.2-0.7-0.5-0.9-1c-0.2-0.4-0.3-1-0.3-1.6v-1.1c0-0.6,0.1-1.2,0.3-1.6
			s0.5-0.7,0.9-0.9c0.4-0.2,0.9-0.3,1.6-0.3c0.4,0,0.7,0,1,0.1c0.3,0.1,0.6,0.2,0.8,0.3c0.2,0.2,0.4,0.4,0.6,0.6L83,17.7
			c-0.2-0.3-0.5-0.5-0.8-0.6c-0.3-0.1-0.6-0.2-0.9-0.2c-0.7,0-1.1,0.2-1.5,0.5c-0.3,0.3-0.5,0.8-0.5,1.5v1.1c0,0.7,0.2,1.2,0.5,1.5
			c0.3,0.3,0.8,0.5,1.5,0.5c0.4,0,0.7-0.1,1-0.2s0.6-0.3,0.8-0.6l0.6,0.6c-0.2,0.2-0.4,0.4-0.6,0.6c-0.2,0.2-0.5,0.3-0.8,0.3
			s-0.6,0.1-1,0.1C80.7,22.8,80.4,22.8,80.4,22.8z"/>
		<path class="st4" d="M86.9,22.8c0,0-0.2-0.1-0.6-0.3s-0.8-0.6-1-1c-0.2-0.4-0.3-1-0.3-1.6v-0.7c0-0.7,0.1-1.2,0.3-1.7
			c0.2-0.5,0.5-0.8,0.9-1.1c0.4-0.2,0.9-0.4,1.5-0.4c0.5,0,1,0.1,1.4,0.4c0.4,0.2,0.7,0.6,0.9,1s0.3,1,0.3,1.6v0.8h-4.8V19h3.9v-0.1
			c0-0.7-0.2-1.2-0.5-1.5c-0.3-0.4-0.7-0.5-1.3-0.5c-0.6,0-1.1,0.2-1.4,0.6c-0.3,0.4-0.5,0.9-0.5,1.6v0.8c0,0.7,0.2,1.2,0.5,1.5
			c0.4,0.4,0.9,0.5,1.5,0.5c0.3,0,0.6-0.1,0.9-0.2c0.3-0.1,0.6-0.3,0.8-0.5l0.6,0.6c-0.3,0.3-0.7,0.6-1.1,0.7
			c-0.4,0.2-0.8,0.3-1.2,0.3C87.2,22.8,86.9,22.8,86.9,22.8z"/>
		<path class="st4" d="M92.1,16.1H93v9.3h-0.9V16.1z M93.7,22.5c-0.4-0.2-0.6-0.5-0.8-0.9l0.1-1.4c0,0.3,0.1,0.6,0.2,0.8
			s0.3,0.5,0.6,0.6s0.5,0.2,0.9,0.2c0.5,0,1-0.2,1.3-0.5c0.3-0.3,0.5-0.8,0.5-1.4v-1.4c0-0.6-0.2-1.1-0.5-1.4
			c-0.3-0.3-0.7-0.5-1.3-0.5c-0.3,0-0.6,0.1-0.9,0.2c-0.3,0.2-0.4,0.4-0.6,0.6c-0.1,0.3-0.2,0.5-0.2,0.8l-0.1-1.3
			c0.2-0.4,0.5-0.7,0.9-0.9c0.4-0.2,0.8-0.3,1.3-0.3c0.5,0,0.9,0.1,1.2,0.3c0.3,0.2,0.6,0.5,0.8,0.9c0.2,0.4,0.3,0.9,0.3,1.5v1.4
			c0,0.6-0.1,1-0.3,1.4c-0.2,0.4-0.4,0.7-0.8,0.9c-0.3,0.2-0.8,0.3-1.2,0.3C94.5,22.8,94.1,22.7,93.7,22.5z"/>
		<path class="st4" d="M98.7,16.1h3v0.8h-3V16.1z M99.7,22.3c-0.2-0.3-0.4-0.7-0.4-1.3v-6.8h0.9V21c0,0.3,0.1,0.5,0.2,0.7
			s0.3,0.2,0.6,0.2h0.6v0.9h-0.7C100.4,22.7,100,22.6,99.7,22.3z"/>
		<path class="st4" d="M104.3,20.1c0,0.6,0.2,1,0.5,1.3c0.3,0.3,0.7,0.5,1.3,0.5c0.5,0,1-0.1,1.3-0.4c0.3-0.3,0.4-0.7,0.4-1.2
			l0.1,1.4c-0.2,0.3-0.4,0.6-0.8,0.8c-0.4,0.2-0.8,0.3-1.4,0.3c-0.7,0-1.3-0.2-1.7-0.7s-0.6-1.1-0.6-2v-4h0.9V20.1z M107.8,16.1h0.9
			v6.6h-0.9V16.1z"/>
		<path class="st4" d="M111,22.3c-0.4-0.4-0.6-0.9-0.6-1.5c0-0.6,0.2-1.1,0.6-1.4c0.4-0.3,0.9-0.5,1.6-0.5h2.2l0.1,0.9h-2.3
			c-0.4,0-0.8,0.1-1,0.3c-0.2,0.2-0.3,0.5-0.3,0.8c0,0.4,0.1,0.7,0.4,0.9s0.7,0.3,1.2,0.3c0.6,0,1-0.1,1.3-0.2s0.5-0.3,0.5-0.5
			l0.1,0.9c-0.1,0.1-0.3,0.3-0.5,0.4c-0.2,0.1-0.4,0.2-0.7,0.2s-0.5,0.1-0.9,0.1C112,22.8,111.4,22.6,111,22.3z M114.7,18.5
			c0-0.5-0.1-0.9-0.4-1.2c-0.3-0.3-0.7-0.4-1.2-0.4c-0.3,0-0.6,0.1-0.9,0.2s-0.6,0.2-0.8,0.4l-0.7-0.5c0.3-0.3,0.6-0.5,1-0.7
			s0.9-0.3,1.4-0.3c0.5,0,1,0.1,1.4,0.3s0.7,0.5,0.9,0.8s0.3,0.8,0.3,1.3v4.2h-0.9V18.5z"/>
		<path class="st4" d="M118.5,21c0,0.3,0.1,0.5,0.2,0.7c0.1,0.2,0.3,0.2,0.6,0.2h0.6v0.9h-0.8c-0.5,0-0.9-0.2-1.1-0.5
			s-0.4-0.7-0.4-1.3v-7.5h0.9V21z"/>
		<path class="st4" d="M121.5,13.5h0.9v0.9h-0.9V13.5z M121.5,16.1h0.9v6.6h-0.9V16.1z"/>
		<path class="st4" d="M129.1,16.8l-3.5,5.1h3.7v0.8h-4.9V22l3.6-5h-3.5v-0.8h4.6V16.8z"/>
		<path class="st4" d="M131.4,22.3c-0.4-0.4-0.6-0.9-0.6-1.5c0-0.6,0.2-1.1,0.6-1.4c0.4-0.3,0.9-0.5,1.6-0.5h2.2l0.1,0.9h-2.3
			c-0.4,0-0.8,0.1-1,0.3c-0.2,0.2-0.3,0.5-0.3,0.8c0,0.4,0.1,0.7,0.4,0.9s0.7,0.3,1.2,0.3c0.6,0,1-0.1,1.3-0.2s0.5-0.3,0.5-0.5
			l0.1,0.9c-0.1,0.1-0.3,0.3-0.5,0.4c-0.2,0.1-0.4,0.2-0.7,0.2s-0.5,0.1-0.9,0.1C132.4,22.8,131.8,22.6,131.4,22.3z M135.1,18.5
			c0-0.5-0.1-0.9-0.4-1.2c-0.3-0.3-0.7-0.4-1.2-0.4c-0.3,0-0.6,0.1-0.9,0.2s-0.6,0.2-0.8,0.4L131,17c0.3-0.3,0.6-0.5,1-0.7
			s0.9-0.3,1.4-0.3c0.5,0,1,0.1,1.4,0.3s0.7,0.5,0.9,0.8s0.3,0.8,0.3,1.3v4.2h-0.9V18.5z"/>
		<path class="st4" d="M139.7,22.8c0,0-0.2-0.1-0.6-0.3c-0.4-0.2-0.7-0.5-0.9-1c-0.2-0.4-0.3-1-0.3-1.6v-1.1c0-0.6,0.1-1.2,0.3-1.6
			s0.5-0.7,0.9-0.9c0.4-0.2,0.9-0.3,1.6-0.3c0.4,0,0.7,0,1,0.1c0.3,0.1,0.6,0.2,0.8,0.3c0.2,0.2,0.4,0.4,0.6,0.6l-0.7,0.6
			c-0.2-0.3-0.5-0.5-0.8-0.6c-0.3-0.1-0.6-0.2-0.9-0.2c-0.7,0-1.1,0.2-1.5,0.5c-0.3,0.3-0.5,0.8-0.5,1.5v1.1c0,0.7,0.2,1.2,0.5,1.5
			c0.3,0.3,0.8,0.5,1.5,0.5c0.4,0,0.7-0.1,1-0.2s0.6-0.3,0.8-0.6l0.6,0.6c-0.2,0.2-0.4,0.4-0.6,0.6c-0.2,0.2-0.5,0.3-0.8,0.3
			s-0.6,0.1-1,0.1C140,22.8,139.7,22.8,139.7,22.8z"/>
		<path class="st4" d="M144.6,13.5h0.9v0.9h-0.9V13.5z M144.6,16.1h0.9v6.6h-0.9V16.1z"/>
		<path class="st4" d="M148.8,22.5c-0.4-0.2-0.7-0.6-0.9-1c-0.2-0.4-0.3-0.9-0.3-1.6v-1.1c0-0.6,0.1-1.1,0.3-1.5
			c0.2-0.4,0.5-0.7,0.9-1c0.4-0.2,0.9-0.3,1.5-0.3s1.1,0.1,1.5,0.3c0.4,0.2,0.7,0.5,0.9,1c0.2,0.4,0.3,0.9,0.3,1.5V20
			c0,0.6-0.1,1.1-0.3,1.5c-0.2,0.4-0.5,0.8-0.9,1c-0.4,0.2-0.9,0.3-1.5,0.3S149.2,22.7,148.8,22.5z M151.5,21.4
			c0.3-0.3,0.5-0.8,0.5-1.5v-1.1c0-0.6-0.2-1.1-0.5-1.5c-0.3-0.3-0.8-0.5-1.3-0.5c-0.6,0-1,0.2-1.3,0.5c-0.3,0.3-0.5,0.8-0.5,1.5V20
			c0,0.6,0.2,1.1,0.5,1.5c0.3,0.3,0.8,0.5,1.3,0.5C150.8,22,151.2,21.8,151.5,21.4z M149.6,14.4l1.8-2.3l0.7,0.6l-1.9,2.1
			L149.6,14.4z"/>
		<path class="st4" d="M154.8,16.1h0.9v6.6h-0.9V16.1z M159.2,18.7c0-0.6-0.2-1-0.5-1.4c-0.3-0.3-0.7-0.5-1.3-0.5
			c-0.5,0-1,0.1-1.3,0.4c-0.3,0.3-0.4,0.7-0.4,1.2l-0.1-1.3c0.2-0.4,0.5-0.7,0.9-0.9c0.4-0.2,0.8-0.3,1.3-0.3c0.7,0,1.3,0.2,1.7,0.7
			c0.4,0.5,0.6,1.1,0.6,2v4h-0.9V18.7z"/>
		<path class="st4" d="M162,21.8h0.9v0.9l-0.9,0.9V21.8z"/>
		<path class="st4" d="M167.2,16.1h0.9v9.3h-0.9V16.1z M168.8,22.5c-0.4-0.2-0.6-0.5-0.8-0.9l0.1-1.4c0,0.3,0.1,0.6,0.2,0.8
			s0.3,0.5,0.6,0.6s0.5,0.2,0.9,0.2c0.5,0,1-0.2,1.3-0.5c0.3-0.3,0.5-0.8,0.5-1.4v-1.4c0-0.6-0.2-1.1-0.5-1.4
			c-0.3-0.3-0.7-0.5-1.3-0.5c-0.3,0-0.6,0.1-0.9,0.2c-0.3,0.2-0.4,0.4-0.6,0.6c-0.1,0.3-0.2,0.5-0.2,0.8l-0.1-1.3
			c0.2-0.4,0.5-0.7,0.9-0.9c0.4-0.2,0.8-0.3,1.3-0.3c0.5,0,0.9,0.1,1.2,0.3c0.3,0.2,0.6,0.5,0.8,0.9c0.2,0.4,0.3,0.9,0.3,1.5v1.4
			c0,0.6-0.1,1-0.3,1.4c-0.2,0.4-0.4,0.7-0.8,0.9c-0.3,0.2-0.8,0.3-1.2,0.3C169.6,22.8,169.2,22.7,168.8,22.5z"/>
		<path class="st4" d="M175.2,21c0,0.3,0.1,0.5,0.2,0.7c0.1,0.2,0.3,0.2,0.6,0.2h0.6v0.9h-0.8c-0.5,0-0.9-0.2-1.1-0.5
			s-0.4-0.7-0.4-1.3v-7.5h0.9V21z"/>
		<path class="st4" d="M178.3,22.3c-0.4-0.4-0.6-0.9-0.6-1.5c0-0.6,0.2-1.1,0.6-1.4c0.4-0.3,0.9-0.5,1.6-0.5h2.2l0.1,0.9h-2.3
			c-0.4,0-0.8,0.1-1,0.3c-0.2,0.2-0.3,0.5-0.3,0.8c0,0.4,0.1,0.7,0.4,0.9s0.7,0.3,1.2,0.3c0.6,0,1-0.1,1.3-0.2s0.5-0.3,0.5-0.5
			l0.1,0.9c-0.1,0.1-0.3,0.3-0.5,0.4c-0.2,0.1-0.4,0.2-0.7,0.2s-0.5,0.1-0.9,0.1C179.3,22.8,178.7,22.6,178.3,22.3z M182,18.5
			c0-0.5-0.1-0.9-0.4-1.2c-0.3-0.3-0.7-0.4-1.2-0.4c-0.3,0-0.6,0.1-0.9,0.2s-0.6,0.2-0.8,0.4L178,17c0.3-0.3,0.6-0.5,1-0.7
			s0.9-0.3,1.4-0.3c0.5,0,1,0.1,1.4,0.3s0.7,0.5,0.9,0.8s0.3,0.8,0.3,1.3v4.2H182V18.5z"/>
		<path class="st4" d="M184.9,16.1h0.9v6.6h-0.9V16.1z M189.3,18.7c0-0.6-0.2-1-0.5-1.4c-0.3-0.3-0.7-0.5-1.3-0.5
			c-0.5,0-1,0.1-1.3,0.4c-0.3,0.3-0.4,0.7-0.4,1.2l-0.1-1.3c0.2-0.4,0.5-0.7,0.9-0.9c0.4-0.2,0.8-0.3,1.3-0.3c0.7,0,1.3,0.2,1.7,0.7
			c0.4,0.5,0.6,1.1,0.6,2v4h-0.9V18.7z"/>
		<path class="st4" d="M192.3,13.5h0.9v0.9h-0.9V13.5z M192.3,16.1h0.9v6.6h-0.9V16.1z"/>
		<path class="st4" d="M195.4,16.1h0.9v6.6h-0.9V16.1z M199.5,18.7c0-0.6-0.1-1-0.4-1.4c-0.3-0.3-0.7-0.5-1.2-0.5s-0.9,0.1-1.2,0.4
			c-0.3,0.3-0.4,0.7-0.4,1.2l-0.1-1.3c0.2-0.4,0.5-0.8,0.9-1c0.4-0.2,0.8-0.3,1.2-0.3c0.5,0,0.8,0.1,1.2,0.3
			c0.3,0.2,0.6,0.5,0.7,0.9c0.2,0.4,0.3,0.9,0.3,1.5v4h-0.9V18.7z M203.7,18.7c0-0.6-0.1-1-0.4-1.4c-0.3-0.3-0.7-0.5-1.2-0.5
			c-0.5,0-0.9,0.2-1.2,0.5c-0.3,0.3-0.4,0.8-0.4,1.3l-0.4-1c0.2-0.5,0.5-1,0.9-1.3c0.4-0.3,0.8-0.4,1.4-0.4c0.5,0,0.9,0.1,1.2,0.3
			c0.3,0.2,0.6,0.5,0.8,0.9c0.2,0.4,0.3,0.9,0.3,1.5v4h-0.9V18.7z"/>
		<path class="st4" d="M208.3,22.8c0,0-0.2-0.1-0.6-0.3s-0.8-0.6-1-1c-0.2-0.4-0.3-1-0.3-1.6v-0.7c0-0.7,0.1-1.2,0.3-1.7
			c0.2-0.5,0.5-0.8,0.9-1.1c0.4-0.2,0.9-0.4,1.5-0.4c0.5,0,1,0.1,1.4,0.4c0.4,0.2,0.7,0.6,0.9,1s0.3,1,0.3,1.6v0.8H207V19h3.9v-0.1
			c0-0.7-0.2-1.2-0.5-1.5c-0.3-0.4-0.7-0.5-1.3-0.5c-0.6,0-1.1,0.2-1.4,0.6c-0.3,0.4-0.5,0.9-0.5,1.6v0.8c0,0.7,0.2,1.2,0.5,1.5
			c0.4,0.4,0.9,0.5,1.5,0.5c0.3,0,0.6-0.1,0.9-0.2c0.3-0.1,0.6-0.3,0.8-0.5l0.6,0.6c-0.3,0.3-0.7,0.6-1.1,0.7
			c-0.4,0.2-0.8,0.3-1.2,0.3C208.6,22.8,208.3,22.8,208.3,22.8z"/>
		<path class="st4" d="M213,16.1h3v0.8h-3V16.1z M214.1,22.3c-0.2-0.3-0.4-0.7-0.4-1.3v-6.8h0.9V21c0,0.3,0.1,0.5,0.2,0.7
			s0.3,0.2,0.6,0.2h0.6v0.9h-0.7C214.7,22.7,214.3,22.6,214.1,22.3z"/>
		<path class="st4" d="M217.8,16.1h0.9v6.6h-0.9V16.1z M221.1,17c-0.2-0.1-0.4-0.1-0.7-0.1c-0.5,0-1,0.1-1.3,0.4s-0.5,0.7-0.5,1.2
			l-0.1-1.3c0.2-0.4,0.6-0.7,0.9-0.9s0.8-0.3,1.3-0.3c0.3,0,0.6,0,0.8,0.1c0.2,0.1,0.5,0.2,0.6,0.4l-0.6,0.8
			C221.5,17.2,221.3,17.1,221.1,17z"/>
		<path class="st4" d="M223.4,14.4l1.8-2.3l0.7,0.6l-1.9,2.1L223.4,14.4z M223.5,16.1h0.9v6.6h-0.9V16.1z"/>
		<path class="st4" d="M226.9,22.3c-0.4-0.4-0.6-0.9-0.6-1.5c0-0.6,0.2-1.1,0.6-1.4c0.4-0.3,0.9-0.5,1.6-0.5h2.2l0.1,0.9h-2.3
			c-0.4,0-0.8,0.1-1,0.3c-0.2,0.2-0.3,0.5-0.3,0.8c0,0.4,0.1,0.7,0.4,0.9s0.7,0.3,1.2,0.3c0.6,0,1-0.1,1.3-0.2s0.5-0.3,0.5-0.5
			l0.1,0.9c-0.1,0.1-0.3,0.3-0.5,0.4c-0.2,0.1-0.4,0.2-0.7,0.2s-0.5,0.1-0.9,0.1C227.9,22.8,227.3,22.6,226.9,22.3z M230.6,18.5
			c0-0.5-0.1-0.9-0.4-1.2c-0.3-0.3-0.7-0.4-1.2-0.4c-0.3,0-0.6,0.1-0.9,0.2s-0.6,0.2-0.8,0.4l-0.7-0.5c0.3-0.3,0.6-0.5,1-0.7
			s0.9-0.3,1.4-0.3c0.5,0,1,0.1,1.4,0.3s0.7,0.5,0.9,0.8s0.3,0.8,0.3,1.3v4.2h-0.9V18.5z"/>
		<path class="st4" d="M233.5,21.8h0.9v0.9l-0.9,0.9V21.8z"/>
		<path class="st4" d="M0.8,32.1h0.9v6.6H0.8V32.1z M4.1,33c-0.2-0.1-0.4-0.1-0.7-0.1c-0.5,0-1,0.1-1.3,0.4S1.7,34,1.7,34.5
			l-0.1-1.3c0.2-0.4,0.6-0.7,0.9-0.9S3.3,32,3.8,32c0.3,0,0.6,0,0.8,0.1c0.2,0.1,0.5,0.2,0.6,0.4l-0.6,0.8C4.5,33.2,4.3,33.1,4.1,33
			z"/>
		<path class="st4" d="M8,38.8c0,0-0.2-0.1-0.6-0.3s-0.8-0.6-1-1C6.1,37,6,36.5,6,35.9v-0.7c0-0.7,0.1-1.2,0.3-1.7
			c0.2-0.5,0.5-0.8,0.9-1.1C7.7,32.1,8.2,32,8.8,32c0.5,0,1,0.1,1.4,0.4c0.4,0.2,0.7,0.6,0.9,1s0.3,1,0.3,1.6v0.8H6.6V35h3.9v-0.1
			c0-0.7-0.2-1.2-0.5-1.5c-0.3-0.4-0.7-0.5-1.3-0.5c-0.6,0-1.1,0.2-1.4,0.6C7,33.8,6.8,34.4,6.8,35v0.8c0,0.7,0.2,1.2,0.5,1.5
			C7.7,37.8,8.2,38,8.9,38c0.3,0,0.6-0.1,0.9-0.2c0.3-0.1,0.6-0.3,0.8-0.5l0.6,0.6c-0.3,0.3-0.7,0.6-1.1,0.7
			c-0.4,0.2-0.8,0.3-1.2,0.3C8.3,38.8,8,38.8,8,38.8z"/>
		<path class="st4" d="M13.2,32.1h0.9v6.6h-0.9V32.1z M17.5,34.7c0-0.6-0.2-1-0.5-1.4c-0.3-0.3-0.7-0.5-1.3-0.5
			c-0.5,0-1,0.1-1.3,0.4c-0.3,0.3-0.4,0.7-0.4,1.2l-0.1-1.3c0.2-0.4,0.5-0.7,0.9-0.9c0.4-0.2,0.8-0.3,1.3-0.3c0.7,0,1.3,0.2,1.7,0.7
			c0.4,0.5,0.6,1.1,0.6,2v4h-0.9V34.7z"/>
		<path class="st4" d="M21.3,38.5c-0.3-0.2-0.6-0.5-0.8-0.9c-0.2-0.4-0.3-0.9-0.3-1.4v-1.4c0-0.6,0.1-1.1,0.3-1.5
			c0.2-0.4,0.4-0.7,0.8-0.9c0.3-0.2,0.7-0.3,1.2-0.3c0.5,0,0.9,0.1,1.3,0.3c0.4,0.2,0.7,0.5,0.9,0.9l-0.1,1.3c0-0.3-0.1-0.6-0.2-0.8
			c-0.1-0.3-0.3-0.5-0.6-0.6c-0.3-0.2-0.6-0.2-0.9-0.2c-0.5,0-1,0.2-1.3,0.5c-0.3,0.3-0.5,0.8-0.5,1.4v1.4c0,0.6,0.2,1.1,0.5,1.4
			c0.3,0.3,0.7,0.5,1.3,0.5c0.3,0,0.6-0.1,0.9-0.2s0.4-0.4,0.6-0.6s0.2-0.5,0.2-0.8l0.1,1.4c-0.2,0.4-0.4,0.7-0.8,0.9
			c-0.4,0.2-0.8,0.3-1.3,0.3C22,38.8,21.6,38.7,21.3,38.5z M24.5,29.5h0.9v9.2h-0.9V29.5z"/>
		<path class="st4" d="M29.2,38.8c0,0-0.2-0.1-0.6-0.3s-0.8-0.6-1-1c-0.2-0.4-0.3-1-0.3-1.6v-0.7c0-0.7,0.1-1.2,0.3-1.7
			c0.2-0.5,0.5-0.8,0.9-1.1c0.4-0.2,0.9-0.4,1.5-0.4c0.5,0,1,0.1,1.4,0.4c0.4,0.2,0.7,0.6,0.9,1s0.3,1,0.3,1.6v0.8h-4.8V35h3.9v-0.1
			c0-0.7-0.2-1.2-0.5-1.5c-0.3-0.4-0.7-0.5-1.3-0.5c-0.6,0-1.1,0.2-1.4,0.6c-0.3,0.4-0.5,0.9-0.5,1.6v0.8c0,0.7,0.2,1.2,0.5,1.5
			c0.4,0.4,0.9,0.5,1.5,0.5c0.3,0,0.6-0.1,0.9-0.2c0.3-0.1,0.6-0.3,0.8-0.5l0.6,0.6c-0.3,0.3-0.7,0.6-1.1,0.7
			c-0.4,0.2-0.8,0.3-1.2,0.3C29.5,38.8,29.2,38.8,29.2,38.8z"/>
		<path class="st4" d="M34.4,32.1h0.9v6.6h-0.9V32.1z M37.8,33c-0.2-0.1-0.4-0.1-0.7-0.1c-0.5,0-1,0.1-1.3,0.4s-0.5,0.7-0.5,1.2
			l-0.1-1.3c0.2-0.4,0.6-0.7,0.9-0.9s0.8-0.3,1.3-0.3c0.3,0,0.6,0,0.8,0.1c0.2,0.1,0.5,0.2,0.6,0.4l-0.6,0.8
			C38.1,33.2,38,33.1,37.8,33z"/>
		<path class="st4" d="M40.1,29.5H41v0.9h-0.9V29.5z M40.1,32.1H41v6.6h-0.9V32.1z"/>
		<path class="st4" d="M47.7,32.8l-3.5,5.1h3.7v0.8H43V38l3.6-5h-3.5v-0.8h4.6V32.8z"/>
		<path class="st4" d="M49.9,38.3c-0.4-0.4-0.6-0.9-0.6-1.5c0-0.6,0.2-1.1,0.6-1.4c0.4-0.3,0.9-0.5,1.6-0.5h2.2l0.1,0.9h-2.3
			c-0.4,0-0.8,0.1-1,0.3c-0.2,0.2-0.3,0.5-0.3,0.8c0,0.4,0.1,0.7,0.4,0.9s0.7,0.3,1.2,0.3c0.6,0,1-0.1,1.3-0.2s0.5-0.3,0.5-0.5
			l0.1,0.9c-0.1,0.1-0.3,0.3-0.5,0.4c-0.2,0.1-0.4,0.2-0.7,0.2s-0.5,0.1-0.9,0.1C51,38.8,50.4,38.6,49.9,38.3z M53.7,34.5
			c0-0.5-0.1-0.9-0.4-1.2C53,33,52.5,32.9,52,32.9c-0.3,0-0.6,0.1-0.9,0.2s-0.6,0.2-0.8,0.4L49.6,33c0.3-0.3,0.6-0.5,1-0.7
			S51.5,32,52,32c0.5,0,1,0.1,1.4,0.3s0.7,0.5,0.9,0.8s0.3,0.8,0.3,1.3v4.2h-0.9V34.5z"/>
		<path class="st4" d="M57.4,38.5c-0.3-0.2-0.6-0.5-0.8-0.9c-0.2-0.4-0.3-0.9-0.3-1.4v-1.4c0-0.6,0.1-1.1,0.3-1.5
			c0.2-0.4,0.4-0.7,0.8-0.9c0.3-0.2,0.7-0.3,1.2-0.3c0.5,0,0.9,0.1,1.3,0.3c0.4,0.2,0.7,0.5,0.9,0.9l-0.1,1.3c0-0.3-0.1-0.6-0.2-0.8
			c-0.1-0.3-0.3-0.5-0.6-0.6c-0.3-0.2-0.6-0.2-0.9-0.2c-0.5,0-1,0.2-1.3,0.5c-0.3,0.3-0.5,0.8-0.5,1.4v1.4c0,0.6,0.2,1.1,0.5,1.4
			C58,37.9,58.5,38,59,38c0.3,0,0.6-0.1,0.9-0.2s0.4-0.4,0.6-0.6s0.2-0.5,0.2-0.8l0.1,1.4c-0.2,0.4-0.4,0.7-0.8,0.9
			c-0.4,0.2-0.8,0.3-1.3,0.3C58.2,38.8,57.8,38.7,57.4,38.5z M60.7,29.5h0.9v9.2h-0.9V29.5z"/>
		<path class="st4" d="M64.6,38.5c-0.4-0.2-0.7-0.6-0.9-1c-0.2-0.4-0.3-0.9-0.3-1.6v-1.1c0-0.6,0.1-1.1,0.3-1.5
			c0.2-0.4,0.5-0.7,0.9-1c0.4-0.2,0.9-0.3,1.5-0.3s1.1,0.1,1.5,0.3c0.4,0.2,0.7,0.5,0.9,1c0.2,0.4,0.3,0.9,0.3,1.5V36
			c0,0.6-0.1,1.1-0.3,1.5c-0.2,0.4-0.5,0.8-0.9,1c-0.4,0.2-0.9,0.3-1.5,0.3S65,38.7,64.6,38.5z M67.4,37.4c0.3-0.3,0.5-0.8,0.5-1.5
			v-1.1c0-0.6-0.2-1.1-0.5-1.5c-0.3-0.3-0.8-0.5-1.3-0.5c-0.6,0-1,0.2-1.3,0.5c-0.3,0.3-0.5,0.8-0.5,1.5V36c0,0.6,0.2,1.1,0.5,1.5
			c0.3,0.3,0.8,0.5,1.3,0.5C66.7,38,67.1,37.8,67.4,37.4z"/>
		<path class="st4" d="M70.4,37.8h0.9v0.9l-0.9,0.9V37.8z"/>
		<path class="st4" d="M77.3,38.8c0,0-0.2-0.1-0.6-0.3c-0.4-0.2-0.7-0.5-0.9-1c-0.2-0.4-0.3-1-0.3-1.6v-1.1c0-0.6,0.1-1.2,0.3-1.6
			s0.5-0.7,0.9-0.9c0.4-0.2,0.9-0.3,1.6-0.3c0.4,0,0.7,0,1,0.1c0.3,0.1,0.6,0.2,0.8,0.3c0.2,0.2,0.4,0.4,0.6,0.6l-0.7,0.6
			c-0.2-0.3-0.5-0.5-0.8-0.6c-0.3-0.1-0.6-0.2-0.9-0.2c-0.7,0-1.1,0.2-1.5,0.5c-0.3,0.3-0.5,0.8-0.5,1.5v1.1c0,0.7,0.2,1.2,0.5,1.5
			c0.3,0.3,0.8,0.5,1.5,0.5c0.4,0,0.7-0.1,1-0.2s0.6-0.3,0.8-0.6l0.6,0.6c-0.2,0.2-0.4,0.4-0.6,0.6c-0.2,0.2-0.5,0.3-0.8,0.3
			s-0.6,0.1-1,0.1C77.6,38.8,77.3,38.8,77.3,38.8z"/>
		<path class="st4" d="M83.1,38.5c-0.4-0.2-0.7-0.6-0.9-1c-0.2-0.4-0.3-0.9-0.3-1.6v-1.1c0-0.6,0.1-1.1,0.3-1.5
			c0.2-0.4,0.5-0.7,0.9-1c0.4-0.2,0.9-0.3,1.5-0.3s1.1,0.1,1.5,0.3c0.4,0.2,0.7,0.5,0.9,1c0.2,0.4,0.3,0.9,0.3,1.5V36
			c0,0.6-0.1,1.1-0.3,1.5c-0.2,0.4-0.5,0.8-0.9,1c-0.4,0.2-0.9,0.3-1.5,0.3S83.5,38.7,83.1,38.5z M85.9,37.4
			c0.3-0.3,0.5-0.8,0.5-1.5v-1.1c0-0.6-0.2-1.1-0.5-1.5c-0.3-0.3-0.8-0.5-1.3-0.5c-0.6,0-1,0.2-1.3,0.5c-0.3,0.3-0.5,0.8-0.5,1.5V36
			c0,0.6,0.2,1.1,0.5,1.5c0.3,0.3,0.8,0.5,1.3,0.5C85.1,38,85.6,37.8,85.9,37.4z"/>
		<path class="st4" d="M89.1,32.1H90v6.6h-0.9V32.1z M93.5,34.7c0-0.6-0.2-1-0.5-1.4c-0.3-0.3-0.7-0.5-1.3-0.5c-0.5,0-1,0.1-1.3,0.4
			C90.2,33.6,90,34,90,34.5l-0.1-1.3c0.2-0.4,0.5-0.7,0.9-0.9c0.4-0.2,0.8-0.3,1.3-0.3c0.7,0,1.3,0.2,1.7,0.7c0.4,0.5,0.6,1.1,0.6,2
			v4h-0.9V34.7z"/>
		<path class="st4" d="M98.1,38.8c0,0-0.2,0-0.5-0.1c-0.3-0.1-0.6-0.2-0.9-0.3c-0.3-0.1-0.5-0.3-0.8-0.5l0.5-0.6
			c0.4,0.2,0.7,0.4,1.1,0.6c0.4,0.1,0.8,0.2,1.1,0.2c0.6,0,1.1-0.1,1.5-0.3s0.5-0.5,0.5-0.9c0-0.3-0.1-0.5-0.3-0.6
			c-0.2-0.1-0.4-0.2-0.6-0.3s-0.6-0.1-1.1-0.1c0,0-0.1,0-0.1,0c0,0-0.1,0-0.1,0c0,0,0,0-0.1,0c0,0,0,0-0.1,0c-0.4,0-0.8-0.1-1.1-0.2
			c-0.3-0.1-0.5-0.2-0.7-0.5c-0.2-0.2-0.3-0.6-0.3-1c0-0.4,0.1-0.8,0.3-1.1c0.2-0.3,0.5-0.5,0.9-0.7c0.4-0.2,0.9-0.2,1.4-0.2
			c0.3,0,0.6,0,0.9,0.1c0.3,0.1,0.6,0.1,0.8,0.2c0.3,0.1,0.5,0.2,0.7,0.4l-0.5,0.6c-0.3-0.2-0.6-0.3-1-0.4c-0.3-0.1-0.7-0.1-1-0.1
			c-0.6,0-1,0.1-1.3,0.3C97.2,33.3,97,33.6,97,34c0,0.3,0.1,0.5,0.2,0.6c0.2,0.1,0.4,0.2,0.6,0.3c0.3,0,0.6,0.1,1,0.1c0,0,0,0,0.1,0
			c0,0,0,0,0.1,0c0,0,0,0,0,0s0,0,0,0c0.5,0,0.9,0.1,1.2,0.2c0.3,0.1,0.6,0.3,0.8,0.5c0.2,0.3,0.3,0.6,0.3,1.1
			c0,0.4-0.1,0.8-0.3,1.1c-0.2,0.3-0.5,0.5-1,0.7c-0.4,0.2-0.9,0.2-1.5,0.2C98.3,38.8,98.1,38.8,98.1,38.8z"/>
		<path class="st4" d="M102.6,32.1h3v0.8h-3V32.1z M103.7,38.3c-0.2-0.3-0.4-0.7-0.4-1.3v-6.8h0.9V37c0,0.3,0.1,0.5,0.2,0.7
			s0.3,0.2,0.6,0.2h0.6v0.9h-0.7C104.3,38.7,103.9,38.6,103.7,38.3z"/>
		<path class="st4" d="M107.4,32.1h0.9v6.6h-0.9V32.1z M110.7,33c-0.2-0.1-0.4-0.1-0.7-0.1c-0.5,0-1,0.1-1.3,0.4s-0.5,0.7-0.5,1.2
			l-0.1-1.3c0.2-0.4,0.6-0.7,0.9-0.9s0.8-0.3,1.3-0.3c0.3,0,0.6,0,0.8,0.1c0.2,0.1,0.5,0.2,0.6,0.4l-0.6,0.8
			C111.1,33.2,110.9,33.1,110.7,33z"/>
		<path class="st4" d="M113.8,36.1c0,0.6,0.2,1,0.5,1.3c0.3,0.3,0.7,0.5,1.3,0.5c0.5,0,1-0.1,1.3-0.4c0.3-0.3,0.4-0.7,0.4-1.2
			l0.1,1.4c-0.2,0.3-0.4,0.6-0.8,0.8c-0.4,0.2-0.8,0.3-1.4,0.3c-0.7,0-1.3-0.2-1.7-0.7s-0.6-1.1-0.6-2v-4h0.9V36.1z M117.3,32.1h0.9
			v6.6h-0.9V32.1z"/>
		<path class="st4" d="M121.8,38.8c0,0-0.2-0.1-0.6-0.3c-0.4-0.2-0.7-0.5-0.9-1c-0.2-0.4-0.3-1-0.3-1.6v-1.1c0-0.6,0.1-1.2,0.3-1.6
			s0.5-0.7,0.9-0.9c0.4-0.2,0.9-0.3,1.6-0.3c0.4,0,0.7,0,1,0.1c0.3,0.1,0.6,0.2,0.8,0.3c0.2,0.2,0.4,0.4,0.6,0.6l-0.7,0.6
			c-0.2-0.3-0.5-0.5-0.8-0.6c-0.3-0.1-0.6-0.2-0.9-0.2c-0.7,0-1.1,0.2-1.5,0.5c-0.3,0.3-0.5,0.8-0.5,1.5v1.1c0,0.7,0.2,1.2,0.5,1.5
			c0.3,0.3,0.8,0.5,1.5,0.5c0.4,0,0.7-0.1,1-0.2s0.6-0.3,0.8-0.6l0.6,0.6c-0.2,0.2-0.4,0.4-0.6,0.6c-0.2,0.2-0.5,0.3-0.8,0.3
			s-0.6,0.1-1,0.1C122.2,38.8,121.8,38.8,121.8,38.8z"/>
		<path class="st4" d="M128.3,38.8c0,0-0.2-0.1-0.6-0.3c-0.4-0.2-0.7-0.5-0.9-1c-0.2-0.4-0.3-1-0.3-1.6v-1.1c0-0.6,0.1-1.2,0.3-1.6
			s0.5-0.7,0.9-0.9c0.4-0.2,0.9-0.3,1.6-0.3c0.4,0,0.7,0,1,0.1c0.3,0.1,0.6,0.2,0.8,0.3c0.2,0.2,0.4,0.4,0.6,0.6l-0.7,0.6
			c-0.2-0.3-0.5-0.5-0.8-0.6c-0.3-0.1-0.6-0.2-0.9-0.2c-0.7,0-1.1,0.2-1.5,0.5c-0.3,0.3-0.5,0.8-0.5,1.5v1.1c0,0.7,0.2,1.2,0.5,1.5
			c0.3,0.3,0.8,0.5,1.5,0.5c0.4,0,0.7-0.1,1-0.2s0.6-0.3,0.8-0.6l0.6,0.6c-0.2,0.2-0.4,0.4-0.6,0.6c-0.2,0.2-0.5,0.3-0.8,0.3
			s-0.6,0.1-1,0.1C128.6,38.8,128.3,38.8,128.3,38.8z"/>
		<path class="st4" d="M133.3,29.5h0.9v0.9h-0.9V29.5z M133.3,32.1h0.9v6.6h-0.9V32.1z"/>
		<path class="st4" d="M137.4,38.5c-0.4-0.2-0.7-0.6-0.9-1c-0.2-0.4-0.3-0.9-0.3-1.6v-1.1c0-0.6,0.1-1.1,0.3-1.5
			c0.2-0.4,0.5-0.7,0.9-1c0.4-0.2,0.9-0.3,1.5-0.3s1.1,0.1,1.5,0.3c0.4,0.2,0.7,0.5,0.9,1c0.2,0.4,0.3,0.9,0.3,1.5V36
			c0,0.6-0.1,1.1-0.3,1.5c-0.2,0.4-0.5,0.8-0.9,1c-0.4,0.2-0.9,0.3-1.5,0.3S137.8,38.7,137.4,38.5z M140.2,37.4
			c0.3-0.3,0.5-0.8,0.5-1.5v-1.1c0-0.6-0.2-1.1-0.5-1.5c-0.3-0.3-0.8-0.5-1.3-0.5c-0.6,0-1,0.2-1.3,0.5c-0.3,0.3-0.5,0.8-0.5,1.5V36
			c0,0.6,0.2,1.1,0.5,1.5c0.3,0.3,0.8,0.5,1.3,0.5C139.4,38,139.9,37.8,140.2,37.4z M138.3,30.4l1.8-2.3l0.7,0.6l-1.9,2.1
			L138.3,30.4z"/>
		<path class="st4" d="M143.4,32.1h0.9v6.6h-0.9V32.1z M147.8,34.7c0-0.6-0.2-1-0.5-1.4c-0.3-0.3-0.7-0.5-1.3-0.5
			c-0.5,0-1,0.1-1.3,0.4c-0.3,0.3-0.4,0.7-0.4,1.2l-0.1-1.3c0.2-0.4,0.5-0.7,0.9-0.9c0.4-0.2,0.8-0.3,1.3-0.3c0.7,0,1.3,0.2,1.7,0.7
			c0.4,0.5,0.6,1.1,0.6,2v4h-0.9V34.7z"/>
		<path class="st4" d="M152.2,32.1h0.9l2.2,6.1l-0.5,1L152.2,32.1z M158,32.1l-2.8,8.1c-0.1,0.3-0.2,0.5-0.4,0.7
			c-0.2,0.2-0.4,0.3-0.6,0.4s-0.5,0.1-0.9,0.1h-0.3v-0.9h0.3c0.3,0,0.6-0.1,0.8-0.2s0.4-0.4,0.5-0.8l2.4-7.4H158z"/>
		<path class="st4" d="M161.7,38.3c-0.4-0.4-0.6-0.9-0.6-1.5c0-0.6,0.2-1.1,0.6-1.4c0.4-0.3,0.9-0.5,1.6-0.5h2.2l0.1,0.9h-2.3
			c-0.4,0-0.8,0.1-1,0.3c-0.2,0.2-0.3,0.5-0.3,0.8c0,0.4,0.1,0.7,0.4,0.9s0.7,0.3,1.2,0.3c0.6,0,1-0.1,1.3-0.2s0.5-0.3,0.5-0.5
			l0.1,0.9c-0.1,0.1-0.3,0.3-0.5,0.4c-0.2,0.1-0.4,0.2-0.7,0.2s-0.5,0.1-0.9,0.1C162.8,38.8,162.2,38.6,161.7,38.3z M165.5,34.5
			c0-0.5-0.1-0.9-0.4-1.2c-0.3-0.3-0.7-0.4-1.2-0.4c-0.3,0-0.6,0.1-0.9,0.2s-0.6,0.2-0.8,0.4l-0.7-0.5c0.3-0.3,0.6-0.5,1-0.7
			s0.9-0.3,1.4-0.3c0.5,0,1,0.1,1.4,0.3s0.7,0.5,0.9,0.8s0.3,0.8,0.3,1.3v4.2h-0.9V34.5z"/>
		<path class="st4" d="M170,38.8c0,0-0.2-0.1-0.6-0.3c-0.4-0.2-0.7-0.5-0.9-1c-0.2-0.4-0.3-1-0.3-1.6v-1.1c0-0.6,0.1-1.2,0.3-1.6
			s0.5-0.7,0.9-0.9c0.4-0.2,0.9-0.3,1.6-0.3c0.4,0,0.7,0,1,0.1c0.3,0.1,0.6,0.2,0.8,0.3c0.2,0.2,0.4,0.4,0.6,0.6l-0.7,0.6
			c-0.2-0.3-0.5-0.5-0.8-0.6c-0.3-0.1-0.6-0.2-0.9-0.2c-0.7,0-1.1,0.2-1.5,0.5c-0.3,0.3-0.5,0.8-0.5,1.5v1.1c0,0.7,0.2,1.2,0.5,1.5
			c0.3,0.3,0.8,0.5,1.5,0.5c0.4,0,0.7-0.1,1-0.2s0.6-0.3,0.8-0.6l0.6,0.6c-0.2,0.2-0.4,0.4-0.6,0.6c-0.2,0.2-0.5,0.3-0.8,0.3
			s-0.6,0.1-1,0.1C170.4,38.8,170,38.8,170,38.8z"/>
		<path class="st4" d="M175.1,38.3c-0.4-0.4-0.6-0.9-0.6-1.5c0-0.6,0.2-1.1,0.6-1.4c0.4-0.3,0.9-0.5,1.6-0.5h2.2l0.1,0.9h-2.3
			c-0.4,0-0.8,0.1-1,0.3c-0.2,0.2-0.3,0.5-0.3,0.8c0,0.4,0.1,0.7,0.4,0.9s0.7,0.3,1.2,0.3c0.6,0,1-0.1,1.3-0.2s0.5-0.3,0.5-0.5
			l0.1,0.9c-0.1,0.1-0.3,0.3-0.5,0.4c-0.2,0.1-0.4,0.2-0.7,0.2s-0.5,0.1-0.9,0.1C176.1,38.8,175.5,38.6,175.1,38.3z M178.8,34.5
			c0-0.5-0.1-0.9-0.4-1.2c-0.3-0.3-0.7-0.4-1.2-0.4c-0.3,0-0.6,0.1-0.9,0.2s-0.6,0.2-0.8,0.4l-0.7-0.5c0.3-0.3,0.6-0.5,1-0.7
			s0.9-0.3,1.4-0.3c0.5,0,1,0.1,1.4,0.3s0.7,0.5,0.9,0.8s0.3,0.8,0.3,1.3v4.2h-0.9V34.5z"/>
		<path class="st4" d="M181.7,29.5h0.9v9.2h-0.9V29.5z M183.3,38.5c-0.4-0.2-0.6-0.5-0.8-0.9l0.1-1.4c0,0.3,0.1,0.6,0.2,0.8
			s0.3,0.5,0.6,0.6s0.5,0.2,0.9,0.2c0.5,0,1-0.2,1.3-0.5c0.3-0.3,0.5-0.8,0.5-1.4v-1.4c0-0.6-0.2-1.1-0.5-1.4
			c-0.3-0.3-0.7-0.5-1.3-0.5c-0.3,0-0.6,0.1-0.9,0.2c-0.3,0.2-0.4,0.4-0.6,0.6c-0.1,0.3-0.2,0.5-0.2,0.8l-0.1-1.3
			c0.2-0.4,0.5-0.7,0.9-0.9c0.4-0.2,0.8-0.3,1.3-0.3c0.5,0,0.9,0.1,1.2,0.3c0.3,0.2,0.6,0.5,0.8,0.9c0.2,0.4,0.3,0.9,0.3,1.5v1.4
			c0,0.6-0.1,1-0.3,1.4c-0.2,0.4-0.4,0.7-0.8,0.9c-0.3,0.2-0.8,0.3-1.2,0.3C184.1,38.8,183.7,38.7,183.3,38.5z"/>
		<path class="st4" d="M189.1,38.3c-0.4-0.4-0.6-0.9-0.6-1.5c0-0.6,0.2-1.1,0.6-1.4c0.4-0.3,0.9-0.5,1.6-0.5h2.2l0.1,0.9h-2.3
			c-0.4,0-0.8,0.1-1,0.3c-0.2,0.2-0.3,0.5-0.3,0.8c0,0.4,0.1,0.7,0.4,0.9s0.7,0.3,1.2,0.3c0.6,0,1-0.1,1.3-0.2s0.5-0.3,0.5-0.5
			l0.1,0.9c-0.1,0.1-0.3,0.3-0.5,0.4c-0.2,0.1-0.4,0.2-0.7,0.2s-0.5,0.1-0.9,0.1C190.1,38.8,189.5,38.6,189.1,38.3z M192.8,34.5
			c0-0.5-0.1-0.9-0.4-1.2c-0.3-0.3-0.7-0.4-1.2-0.4c-0.3,0-0.6,0.1-0.9,0.2s-0.6,0.2-0.8,0.4l-0.7-0.5c0.3-0.3,0.6-0.5,1-0.7
			s0.9-0.3,1.4-0.3c0.5,0,1,0.1,1.4,0.3s0.7,0.5,0.9,0.8s0.3,0.8,0.3,1.3v4.2h-0.9V34.5z"/>
		<path class="st4" d="M196.6,38.5c-0.3-0.2-0.6-0.5-0.8-0.9c-0.2-0.4-0.3-0.9-0.3-1.4v-1.4c0-0.6,0.1-1.1,0.3-1.5
			c0.2-0.4,0.4-0.7,0.8-0.9c0.3-0.2,0.7-0.3,1.2-0.3c0.5,0,0.9,0.1,1.3,0.3c0.4,0.2,0.7,0.5,0.9,0.9l-0.1,1.3c0-0.3-0.1-0.6-0.2-0.8
			c-0.1-0.3-0.3-0.5-0.6-0.6c-0.3-0.2-0.6-0.2-0.9-0.2c-0.5,0-1,0.2-1.3,0.5c-0.3,0.3-0.5,0.8-0.5,1.4v1.4c0,0.6,0.2,1.1,0.5,1.4
			c0.3,0.3,0.7,0.5,1.3,0.5c0.3,0,0.6-0.1,0.9-0.2s0.4-0.4,0.6-0.6s0.2-0.5,0.2-0.8l0.1,1.4c-0.2,0.4-0.4,0.7-0.8,0.9
			c-0.4,0.2-0.8,0.3-1.3,0.3C197.3,38.8,196.9,38.7,196.6,38.5z M199.8,29.5h0.9v9.2h-0.9V29.5z"/>
		<path class="st4" d="M203.8,38.5c-0.4-0.2-0.7-0.6-0.9-1c-0.2-0.4-0.3-0.9-0.3-1.6v-1.1c0-0.6,0.1-1.1,0.3-1.5
			c0.2-0.4,0.5-0.7,0.9-1c0.4-0.2,0.9-0.3,1.5-0.3s1.1,0.1,1.5,0.3c0.4,0.2,0.7,0.5,0.9,1c0.2,0.4,0.3,0.9,0.3,1.5V36
			c0,0.6-0.1,1.1-0.3,1.5c-0.2,0.4-0.5,0.8-0.9,1c-0.4,0.2-0.9,0.3-1.5,0.3S204.2,38.7,203.8,38.5z M206.6,37.4
			c0.3-0.3,0.5-0.8,0.5-1.5v-1.1c0-0.6-0.2-1.1-0.5-1.5c-0.3-0.3-0.8-0.5-1.3-0.5c-0.6,0-1,0.2-1.3,0.5c-0.3,0.3-0.5,0.8-0.5,1.5V36
			c0,0.6,0.2,1.1,0.5,1.5c0.3,0.3,0.8,0.5,1.3,0.5C205.8,38,206.3,37.8,206.6,37.4z"/>
		<path class="st4" d="M211.5,38.8c0,0-0.2,0-0.5-0.1c-0.3-0.1-0.6-0.2-0.9-0.3c-0.3-0.1-0.5-0.3-0.8-0.5l0.5-0.6
			c0.4,0.2,0.7,0.4,1.1,0.6c0.4,0.1,0.8,0.2,1.1,0.2c0.6,0,1.1-0.1,1.5-0.3s0.5-0.5,0.5-0.9c0-0.3-0.1-0.5-0.3-0.6
			c-0.2-0.1-0.4-0.2-0.6-0.3s-0.6-0.1-1.1-0.1c0,0-0.1,0-0.1,0c0,0-0.1,0-0.1,0c0,0,0,0-0.1,0c0,0,0,0-0.1,0c-0.4,0-0.8-0.1-1.1-0.2
			c-0.3-0.1-0.5-0.2-0.7-0.5c-0.2-0.2-0.3-0.6-0.3-1c0-0.4,0.1-0.8,0.3-1.1c0.2-0.3,0.5-0.5,0.9-0.7c0.4-0.2,0.9-0.2,1.4-0.2
			c0.3,0,0.6,0,0.9,0.1c0.3,0.1,0.6,0.1,0.8,0.2c0.3,0.1,0.5,0.2,0.7,0.4l-0.5,0.6c-0.3-0.2-0.6-0.3-1-0.4c-0.3-0.1-0.7-0.1-1-0.1
			c-0.6,0-1,0.1-1.3,0.3c-0.3,0.2-0.5,0.5-0.5,0.9c0,0.3,0.1,0.5,0.2,0.6c0.2,0.1,0.4,0.2,0.6,0.3c0.3,0,0.6,0.1,1,0.1
			c0,0,0,0,0.1,0c0,0,0,0,0.1,0c0,0,0,0,0,0s0,0,0,0c0.5,0,0.9,0.1,1.2,0.2c0.3,0.1,0.6,0.3,0.8,0.5c0.2,0.3,0.3,0.6,0.3,1.1
			c0,0.4-0.1,0.8-0.3,1.1c-0.2,0.3-0.5,0.5-1,0.7c-0.4,0.2-0.9,0.2-1.5,0.2C211.7,38.8,211.5,38.8,211.5,38.8z"/>
		<path class="st4" d="M216.5,37.8h0.9v0.9h-0.9V37.8z"/>
	</g>
	<rect x="246.2" class="st15" width="1" height="70"/>
</g>
</svg>
