<?xml version="1.0" encoding="utf-8"?>
<!-- Generator: Adobe Illustrator 23.0.1, SVG Export Plug-In . SVG Version: 6.00 Build 0)  -->
<svg version="1.1" id="Capa_1" xmlns="http://www.w3.org/2000/svg" xmlns:xlink="http://www.w3.org/1999/xlink" x="0px" y="0px"
	 viewBox="0 0 466 768" style="enable-background:new 0 0 466 768;" xml:space="preserve">
<style type="text/css">
	.st0{fill:#FFFFFF;}
</style>
<g>
	<g>
		<path class="st0" d="M110.9,426c1.2,0,2.2-0.5,3.2-1.8l0.2,0.3c-1,1.5-2.2,2-3.5,2c-2.3,0-3.8-2-3.8-4.7c0-3.1,1.8-5,4.1-5
			c1,0,2.2,0.6,3.1,1.9l-0.2,0.3c-0.9-1.1-1.8-1.7-3-1.7c-2,0-3.5,1.4-3.5,4.5C107.6,424.5,109.1,426,110.9,426z M116.7,425.8v0.4
			l-2.7,0.1l0.1-1.8v-5.9v-0.1v-6.3h-1.8v-0.4l2.1-0.2l0.3,0.2l0,2.7v11.8l-0.3-0.5L116.7,425.8z"/>
		<path class="st0" d="M150.6,420.4c0,0.5,0,0.8-0.1,1.1l-7.2,0V421l6.3,0c0.3,0,0.4-0.2,0.4-0.8c0-1.6-1-3.1-2.9-3.1
			c-2.1,0-3.5,2-3.5,4.2c0,3.3,1.8,4.6,3.7,4.6c1.2,0,2.3-0.4,3.1-1.2l0.2,0.2c-0.8,1-2,1.5-3.3,1.5c-2.1,0-4.3-1.5-4.3-4.9
			c0-3,2-4.8,4.2-4.8C149.4,416.8,150.6,418.4,150.6,420.4z"/>
		<path class="st0" d="M177.3,425.8l-0.1-2h0.4l0.3,2l-0.4-0.1v-0.3c0.7,0.4,1.3,0.6,2.6,0.6c1.8,0,2.7-0.9,2.7-2
			c0-1-0.5-1.5-2.1-2.1l-0.9-0.3c-1.4-0.5-2.3-1.2-2.3-2.5c0-1.4,1.1-2.4,3-2.4c1.1,0,1.7,0.2,2.6,0.8l0,1.7h-0.4l-0.2-1.9l0.3,0.3
			v0.3c-0.8-0.6-1.6-0.8-2.3-0.8c-1.6,0-2.4,0.9-2.4,1.9c0,1,0.7,1.5,2,2l1,0.4c1.7,0.6,2.4,1.3,2.4,2.5c0,1.3-1,2.5-3.3,2.5
			C179,426.4,178.3,426.2,177.3,425.8z"/>
		<path class="st0" d="M211.9,426.2c0-0.9,0.1-2.9,0.1-4.1v-1c0-1.2,0-2.4,0-3.7H210v-0.4l2.3-0.2l0.2,0.1l0,2.3v2.8
			c0,1.2,0,3.2,0.1,4.1H211.9z M214.1,425.8v0.4h-4v-0.4l2-0.1h0.2L214.1,425.8z M211.4,413c0-0.4,0.3-0.6,0.6-0.6
			c0.3,0,0.6,0.2,0.6,0.6c0,0.4-0.3,0.6-0.6,0.6C211.7,413.6,211.4,413.4,211.4,413z"/>
		<path class="st0" d="M248.4,427.9c0-0.9-0.5-1.6-2.1-1.6H244c-0.5,0-1,0-1.4-0.1v-0.1c-0.7-0.2-1.2-0.6-1.2-1.3
			c0-0.9,0.6-1.5,1.5-2.3l0.2,0.2c-0.8,0.8-1.2,1.3-1.2,2c0,0.6,0.5,1,1.8,1h2.8c1.6,0,2.5,0.7,2.5,2.2c0,1.5-1.4,3-4.3,3
			c-2.5,0-4-1.1-4-2.6c0-1.2,1-2.1,2.1-2.5l0.1,0.2c-1.1,0.6-1.6,1.2-1.6,2.2c0,1.4,1.2,2.3,3.4,2.3
			C247.2,430.5,248.4,429.4,248.4,427.9z M244.4,416.8c1.9,0,3.2,1.3,3.2,3.2c0,2-1.3,3.2-3.2,3.2c-1.9,0-3.2-1.3-3.2-3.2
			C241.2,418.1,242.5,416.8,244.4,416.8z M241.8,420c0,1.7,1.1,2.8,2.6,2.8c1.5,0,2.6-1.2,2.6-2.8c0-1.7-1.1-2.8-2.6-2.8
			C242.9,417.2,241.8,418.3,241.8,420z M248.8,416.9l0.3,0.2v0.6h-2.8v-0.2L248.8,416.9z"/>
		<path class="st0" d="M277,426.2c0-0.9,0.1-2.9,0.1-4.1v-1c0-1.4,0-2.7-0.1-3.7h-1.8v-0.4l2.2-0.2l0.2,0.1l0,2.1v3
			c0,1.2,0,3.2,0.1,4.1H277z M279.2,425.8v0.4h-4v-0.4l2-0.1h0.2L279.2,425.8z M283.9,420.1v2c0,1.2,0,3.2,0.1,4.1h-0.7
			c0-0.9,0.1-2.8,0.1-4.1v-2c0-2-0.8-2.7-2-2.7c-0.8,0-2.3,0.4-3.9,2.3h-0.3v-0.4h0.4l-0.2,0.1c1.5-1.9,2.9-2.5,4.2-2.5
			C282.9,416.8,283.9,417.6,283.9,420.1z M283.6,425.7l1.8,0.1v0.4h-4v-0.4l2-0.1H283.6z"/>
	</g>
	<g>
		<path class="st0" d="M129.6,369.1c3.3-4.1,4.8-10,2.2-16c-2.7-6.2-8.9-10-15.7-10H87c-4.7,0-8.5,3.8-8.5,8.5v37.6
			c0,4.7,3.8,8.5,8.5,8.5h32.8c8.7,0,16-7.4,16-16C135.8,376.7,133.3,372.1,129.6,369.1z M97.6,354.9l12.4,0c2.5,0,4.7,1.8,4.9,4.3
			c0.3,2.8-1.9,5.2-4.7,5.2l-12.5,0c-2.6,0-4.7-2.1-4.7-4.7S95,354.9,97.6,354.9z M117.4,382.1c-0.5,2.2-2.6,3.7-4.8,3.7l-15,0
			c-2.6,0-4.7-2.1-4.7-4.7v0c0-2.6,2.1-4.7,4.7-4.7l15.2,0C115.6,376.3,118.1,379,117.4,382.1z"/>
		<path class="st0" d="M195.1,373.9l-5.8,10.1l2.6-11.5l-9.2-4.1c0,0.1,0.1,0.2,0.1,0.3c1.9,9.4-5.8,17.7-15.2,16.6
			c-6.2-0.7-11.2-5.7-12-11.9c-0.8-6,2.3-11.3,7-14l-15.3-6.8c-4.9,5.7-7.6,13.3-6.9,21.4c1.1,14,12.5,25.3,26.6,26.4
			c15.9,1.2,29.3-10.3,31.1-25.5c0-0.1,0-0.1,0-0.2L195.1,373.9z"/>
		<path class="st0" d="M166.6,353.8c3.4,0.6,6.4,2.6,8.5,5.3l15,5.2l-12.3-8.7l14.7,6.5c-2.4-12.7-13.1-22.7-26.2-23.7
			c-9.4-0.7-17.9,3.1-23.7,9.5l17.8,6.1C162.2,353.5,164.3,353.4,166.6,353.8z"/>
		<path class="st0" d="M224.1,353.8c5.4,1,9.8,5.3,10.9,10.7c1.2,5.7-1.3,11.1-5.5,14.1l14.8,6.6c4.3-5.5,6.7-12.6,6-20.3
			c-1.2-14.1-12.6-25.5-26.6-26.5c-15.3-1.2-28.3,9.6-30.8,23.9l14.8,6.6C206.7,359.7,214.8,352,224.1,353.8z"/>
		<path class="st0" d="M225.1,385.3c-3.6-0.4-6.7-2.3-8.9-4.9l-18.1-5.6c0,0.1,0,0.1,0,0.2c1.5,13.6,12.7,24.5,26.5,25.5
			c9.7,0.7,18.5-3.3,24.3-10l-18.2-5.6C228.9,385.3,227,385.5,225.1,385.3z"/>
		<path class="st0" d="M309.3,343c-1.2,0-2.3,0.4-3.1,1.2l-8.6,7.9c-6.9,6.3-17.6,6.3-24.5,0l-8.7-7.9c-0.9-0.8-2-1.2-3.1-1.2
			c-2.6,0-4.7,2.1-4.7,4.7v42.7c0,4,3.2,7.2,7.2,7.2h0c4,0,7.2-3.2,7.2-7.2v-20.7l0,0c8.1,7.3,20.5,7.3,28.6-0.1v0v0v20.8
			c0,4,3.2,7.2,7.2,7.2c4,0,7.2-3.2,7.2-7.2v-42.7C314,345.1,311.9,343,309.3,343z"/>
	</g>
</g>
</svg>
