<svg xmlns="http://www.w3.org/2000/svg" viewBox="0 0 41.41 23.38"><defs><style>.cls-1{fill:#00a099;}</style></defs><title>boomiso</title><g id="Capa_2" data-name="Capa 2"><g id="Capa_1-2" data-name="Capa 1"><path class="cls-1" d="M20.61,13.36l-2.18,3.78,1-4.31-3.46-1.54,0,.11A5.19,5.19,0,1,1,8.38,7.92L2.64,5.37A10.89,10.89,0,1,0,21.7,13.76v-.07Z"/><path class="cls-1" d="M9.87,5.79a5.22,5.22,0,0,1,3.19,2l5.63,1.94L14.08,6.48,19.6,8.94A11,11,0,0,0,9.73,0,10.83,10.83,0,0,0,.82,3.59L7.5,5.89A5.23,5.23,0,0,1,9.87,5.79Z"/><path class="cls-1" d="M31.5,5.79a5.2,5.2,0,0,1,2,9.35l5.58,2.49A10.84,10.84,0,0,0,41.37,10,10.88,10.88,0,0,0,19.8,9l5.57,2.48A5.19,5.19,0,0,1,31.5,5.79Z"/><path class="cls-1" d="M31.87,17.64a5.16,5.16,0,0,1-3.35-1.85L21.71,13.7v.06a10.89,10.89,0,0,0,19.09,5.81L34,17.47A5.23,5.23,0,0,1,31.87,17.64Z"/></g></g></svg>