<svg xmlns="http://www.w3.org/2000/svg" viewBox="0 0 191.41 208.64"><defs><style>.cls-1{fill:#fff;}</style></defs><title>circlemenu</title><g id="Capa_2" data-name="Capa 2"><g id="Capa_1-2" data-name="Capa 1"><path class="cls-1" d="M12.25,177c.46.48.94.95,1.41,1.42l.7-.71c-.47-.46-.93-.93-1.4-1.41Z"/><path class="cls-1" d="M1.66,162.45c-.32-.46-.62-.93-.93-1.39l-.73.71L.83,163Z"/><path class="cls-1" d="M2,164.66c.38.54.78,1.09,1.17,1.62l.81-.59c-.4-.53-.78-1.07-1.17-1.61Z"/><path class="cls-1" d="M9.5,174.06c.45.5.9,1,1.36,1.48l.73-.68-1.34-1.47Z"/><path class="cls-1" d="M12.25,31.64c-.47.48-.93,1-1.39,1.46l.73.68c.46-.48.91-1,1.38-1.44Z"/><path class="cls-1" d="M4.36,167.89l1.24,1.58.78-.63-1.22-1.56Z"/><path class="cls-1" d="M6.87,171c.43.52.86,1,1.3,1.53l.76-.65-1.29-1.52Z"/><path class="cls-1" d="M41.43,198.14c.6.3,1.21.59,1.82.87l.42-.91-1.8-.85Z"/><path class="cls-1" d="M52.59,202.8l1.91.65.31-.95-1.89-.64Z"/><path class="cls-1" d="M48.81,201.39l1.88.73.35-.94c-.62-.23-1.25-.47-1.86-.72Z"/><path class="cls-1" d="M45.09,199.84c.61.27,1.23.54,1.85.79l.39-.92c-.62-.25-1.23-.52-1.84-.79Z"/><path class="cls-1" d="M56.42,204.06c.64.2,1.29.39,1.93.57l.28-1c-.64-.18-1.28-.37-1.91-.57Z"/><path class="cls-1" d="M111.85,3,109.9,2.5l-.22,1c.65.14,1.29.29,1.94.45Z"/><path class="cls-1" d="M60.29,205.17l2,.49.24-1-1.93-.49Z"/><path class="cls-1" d="M15.1,28.81l-1.44,1.4.71.71c.47-.46.94-.93,1.42-1.38Z"/><path class="cls-1" d="M107.93,2.08l-2-.38-.18,1,2,.37Z"/><path class="cls-1" d="M64.2,206.12c.65.15,1.3.29,2,.42l.2-1q-1-.19-2-.42Z"/><path class="cls-1" d="M18.06,26.1l-1.49,1.34.68.74,1.48-1.33Z"/><path class="cls-1" d="M18.06,182.54c.51.45,1,.89,1.52,1.32l.65-.76c-.5-.43-1-.87-1.5-1.31Z"/><path class="cls-1" d="M21.13,185.15l1.57,1.26.62-.79-1.56-1.25Z"/><path class="cls-1" d="M15.1,179.82q.74.7,1.47,1.38l.68-.74c-.49-.45-1-.9-1.46-1.36Z"/><path class="cls-1" d="M68.14,206.92l2,.35.16-1-2-.34Z"/><path class="cls-1" d="M37.84,196.31c.6.32,1.19.63,1.79.93l.45-.89-1.76-.92Z"/><path class="cls-1" d="M34.33,194.34l1.75,1,.49-.87c-.58-.33-1.16-.66-1.73-1Z"/><path class="cls-1" d="M27.55,190l1.66,1.13.56-.83-1.65-1.13Z"/><path class="cls-1" d="M24.29,187.63l1.62,1.2.59-.81c-.54-.39-1.07-.79-1.6-1.19Z"/><path class="cls-1" d="M30.9,192.23l1.7,1.07.53-.85-1.69-1.06Z"/><path class="cls-1" d="M45.39,9.76,45,8.84c-.62.27-1.22.55-1.83.83l.42.91Z"/><path class="cls-1" d="M41.79,11.43l-.44-.9-1.79.9.46.89Z"/><path class="cls-1" d="M49.05,8.23l-.37-.93c-.62.24-1.24.49-1.85.75l.38.93C47.82,8.72,48.43,8.47,49.05,8.23Z"/><path class="cls-1" d="M56.56,5.58l-.29-1-1.92.61.31,1Z"/><path class="cls-1" d="M52.78,6.83l-.33-.94c-.64.22-1.27.45-1.89.68l.35.94Z"/><path class="cls-1" d="M38.26,13.24l-.48-.88-1.75,1,.49.87Z"/><path class="cls-1" d="M28.11,19.48l-.58-.82c-.55.38-1.09.77-1.63,1.16l.58.81Z"/><path class="cls-1" d="M34.8,15.19l-.51-.86-1.72,1,.52.85C33.66,15.87,34.23,15.52,34.8,15.19Z"/><path class="cls-1" d="M24.89,21.81l-.61-.8-1.59,1.23.62.79Z"/><path class="cls-1" d="M60.39,4.48l-.26-1-1.94.53.28,1Z"/><path class="cls-1" d="M80,1.24l-.07-1-2,.16.08,1Z"/><path class="cls-1" d="M84,1.05l0-1-2,.07,0,1Z"/><path class="cls-1" d="M72.08,2.08l-.14-1L70,1.4l.16,1Z"/><path class="cls-1" d="M76,1.58l-.1-1-2,.23.12,1Z"/><path class="cls-1" d="M64.25,3.53l-.22-1c-.65.14-1.3.3-2,.46l.24,1Z"/><path class="cls-1" d="M68.15,2.73l-.18-1-2,.38.2,1Z"/><path class="cls-1" d="M96,.38,94,.22l-.06,1,2,.15Z"/><path class="cls-1" d="M104,1.36l-2-.3-.14,1,2,.3Z"/><path class="cls-1" d="M92,.11,90,0l0,1,2,.07Z"/><path class="cls-1" d="M31.41,17.27l-.54-.84c-.56.36-1.12.72-1.68,1.1l.56.83Z"/><path class="cls-1" d="M10.25,35.25l-.75-.67c-.45.5-.89,1-1.33,1.51l.76.65C9.36,36.24,9.8,35.74,10.25,35.25Z"/><path class="cls-1" d="M7.64,38.26l-.77-.64L5.6,39.18l.78.62C6.79,39.29,7.21,38.77,7.64,38.26Z"/><path class="cls-1" d="M5.15,41.37l-.79-.61c-.41.53-.82,1.07-1.21,1.61L4,43Q4.54,42.17,5.15,41.37Z"/><path class="cls-1" d="M2.78,44.58,2,44c-.39.54-.78,1.09-1.15,1.65l.82.56Z"/><path class="cls-1" d="M21.76,24.27l-.63-.77-1.55,1.28.65.76C20.74,25.11,21.24,24.69,21.76,24.27Z"/><path class="cls-1" d="M100,.79,98,.56l-.11,1,2,.22Z"/><path class="cls-1" d="M156.86,180.52l.68.73,1.47-1.37-.69-.72C157.84,179.62,157.35,180.07,156.86,180.52Z"/><path class="cls-1" d="M153.88,183.15l.65.76,1.52-1.31-.67-.75C154.89,182.29,154.39,182.72,153.88,183.15Z"/><path class="cls-1" d="M150.8,185.66l.62.79L153,185.2l-.63-.78C151.84,184.84,151.32,185.25,150.8,185.66Z"/><path class="cls-1" d="M159.75,177.77l.7.71c.48-.47,1-.94,1.42-1.42l-.72-.7C160.69,176.83,160.22,177.31,159.75,177.77Z"/><path class="cls-1" d="M169.76,40.69l-.79.61q.6.78,1.2,1.59l.8-.6C170.57,41.75,170.17,41.22,169.76,40.69Z"/><path class="cls-1" d="M130.51,198.1l.43.9,1.81-.86-.44-.9C131.71,197.53,131.12,197.82,130.51,198.1Z"/><path class="cls-1" d="M167.74,168.9l.78.62c.42-.52.84-1.05,1.24-1.58l-.79-.61C168.57,167.86,168.16,168.38,167.74,168.9Z"/><path class="cls-1" d="M162.52,174.92l.73.68c.46-.49.92-1,1.36-1.48l-.74-.67Q163.21,174.19,162.52,174.92Z"/><path class="cls-1" d="M167.25,37.56l-.77.64,1.26,1.54.78-.63Z"/><path class="cls-1" d="M165.19,172l.76.65c.43-.5.87-1,1.3-1.53l-.77-.64Z"/><path class="cls-1" d="M153,23.44l-.63.78,1.53,1.27.64-.76C154,24.29,153.5,23.87,153,23.44Z"/><path class="cls-1" d="M136.26,12.29l-.48.88,1.75,1,.49-.87C137.44,12.93,136.85,12.61,136.26,12.29Z"/><path class="cls-1" d="M139.77,14.26l-.51.87q.87.49,1.71,1l.53-.85Z"/><path class="cls-1" d="M137.58,194.48l.49.87c.59-.33,1.17-.66,1.74-1l-.5-.86Z"/><path class="cls-1" d="M147.62,188.06l.59.81c.54-.4,1.08-.79,1.61-1.2l-.6-.79Z"/><path class="cls-1" d="M134.08,196.36l.46.89,1.77-.93-.47-.89C135.26,195.75,134.67,196.05,134.08,196.36Z"/><path class="cls-1" d="M132.67,10.46l-.44.9,1.79.89.45-.89Q133.57,10.9,132.67,10.46Z"/><path class="cls-1" d="M141,192.47l.52.85c.57-.35,1.14-.7,1.7-1.06l-.54-.85C142.14,191.77,141.57,192.12,141,192.47Z"/><path class="cls-1" d="M144.36,190.33l.55.83c.56-.37,1.11-.75,1.66-1.13l-.57-.82C145.46,189.59,144.91,190,144.36,190.33Z"/><path class="cls-1" d="M146.55,18.6l-.57.82,1.63,1.15.58-.81Z"/><path class="cls-1" d="M143.2,16.36l-.54.85c.57.36,1.12.72,1.67,1.09l.56-.83C144.33,17.09,143.77,16.73,143.2,16.36Z"/><path class="cls-1" d="M149.81,21l-.6.8c.53.4,1.06.8,1.58,1.21l.62-.78C150.88,21.77,150.35,21.36,149.81,21Z"/><path class="cls-1" d="M187.2,129.94l1,.25c.17-.65.33-1.3.48-2l-1-.23C187.53,128.65,187.37,129.3,187.2,129.94Z"/><path class="cls-1" d="M188.87,122.15l1,.17c.11-.66.22-1.32.32-2l-1-.15C189.09,120.84,189,121.5,188.87,122.15Z"/><path class="cls-1" d="M188.11,126.06l1,.21c.14-.65.28-1.31.4-2l-1-.19C188.39,124.76,188.25,125.41,188.11,126.06Z"/><path class="cls-1" d="M186.15,133.78l1,.28c.19-.64.37-1.29.55-1.93l-1-.27C186.52,132.5,186.33,133.14,186.15,133.78Z"/><path class="cls-1" d="M184.94,137.58l.94.32q.33-1,.63-1.92l-.95-.3C185.36,136.31,185.15,137,184.94,137.58Z"/><path class="cls-1" d="M189.93,114.26l1,.1c.06-.67.12-1.34.17-2l-1-.07C190.05,112.94,190,113.6,189.93,114.26Z"/><path class="cls-1" d="M189.48,118.22l1,.13c.09-.66.17-1.33.25-2l-1-.11C189.65,116.9,189.57,117.56,189.48,118.22Z"/><path class="cls-1" d="M190.24,110.29l1,.06c0-.67.07-1.34.1-2l-1,0Z"/><path class="cls-1" d="M191.4,104.16h-1v.16c0,.66,0,1.33,0,2l1,0c0-.67,0-1.34,0-2Z"/><path class="cls-1" d="M183.58,141.34l.93.35c.24-.62.48-1.25.71-1.89l-.95-.34C184.05,140.09,183.82,140.71,183.58,141.34Z"/><path class="cls-1" d="M174.41,47.23l-.84.55c.37.55.73,1.11,1.08,1.67l.84-.53C175.14,48.35,174.78,47.79,174.41,47.23Z"/><path class="cls-1" d="M174.67,159.16l.84.53c.36-.57.71-1.14,1.06-1.72l-.86-.51C175.37,158,175,158.59,174.67,159.16Z"/><path class="cls-1" d="M176.54,50.63l-.85.51c.34.57.68,1.14,1,1.72l.86-.5C177.23,51.78,176.89,51.2,176.54,50.63Z"/><path class="cls-1" d="M172.15,43.92l-.82.58c.39.54.77,1.08,1.14,1.63l.83-.57C172.92,45,172.54,44.46,172.15,43.92Z"/><path class="cls-1" d="M172.48,162.49l.83.57c.38-.56.75-1.11,1.12-1.68l-.84-.54C173.23,161.39,172.86,162,172.48,162.49Z"/><path class="cls-1" d="M178.64,152.24l.89.47c.31-.6.62-1.2.92-1.8l-.9-.44C179.25,151.06,179,151.65,178.64,152.24Z"/><path class="cls-1" d="M180.43,148.67l.9.43c.29-.6.57-1.21.85-1.83l-.91-.41Z"/><path class="cls-1" d="M176.72,155.74l.87.5,1-1.76-.88-.48C177.38,154.58,177.05,155.16,176.72,155.74Z"/><path class="cls-1" d="M182.07,145l.92.39q.4-.93.78-1.86l-.93-.38C182.59,143.81,182.34,144.42,182.07,145Z"/><path class="cls-1" d="M178.55,54.1l-.88.49c.32.58.63,1.16.94,1.75l.89-.47Z"/><path class="cls-1" d="M170.17,165.74l.81.6c.4-.54.79-1.08,1.18-1.63l-.82-.58C171,164.67,170.57,165.21,170.17,165.74Z"/><path class="cls-1" d="M92.1,207.52l.05,1,2-.12-.07-1Z"/><path class="cls-1" d="M181.29,59.45c-.29-.6-.58-1.2-.88-1.8l-.89.45.87,1.79Z"/><path class="cls-1" d="M166,36c-.44-.51-.89-1-1.34-1.51l-.74.67c.45.49.88,1,1.32,1.49Z"/><path class="cls-1" d="M88.12,207.63v1c.68,0,1.34,0,2,0l0-1C89.45,207.61,88.79,207.63,88.12,207.63Z"/><path class="cls-1" d="M182,63.5l.92-.4-.81-1.83-.91.41C181.5,62.29,181.77,62.89,182,63.5Z"/><path class="cls-1" d="M186.1,74.71l1-.28c-.19-.65-.39-1.29-.59-1.92l-1,.3C185.72,73.44,185.91,74.08,186.1,74.71Z"/><path class="cls-1" d="M184.89,70.92l1-.32c-.22-.64-.44-1.27-.67-1.9l-.94.34Z"/><path class="cls-1" d="M183.53,67.18l.93-.36c-.24-.63-.49-1.25-.74-1.87l-.93.38C183,65.94,183.29,66.56,183.53,67.18Z"/><path class="cls-1" d="M96.08,207.25l.08,1,2-.19-.1-1C97.4,207.13,96.74,207.2,96.08,207.25Z"/><path class="cls-1" d="M157.54,27.39c-.49-.46-1-.9-1.49-1.35l-.67.75,1.49,1.33Z"/><path class="cls-1" d="M76.09,208.07l2,.19.09-1c-.66,0-1.32-.12-2-.19Z"/><path class="cls-1" d="M100,206.84l.12,1,2-.27-.14-1Z"/><path class="cls-1" d="M80.1,208.41l2,.11,0-1c-.66,0-1.32-.06-2-.11Z"/><path class="cls-1" d="M163.26,33c-.46-.49-.92-1-1.39-1.45l-.72.69,1.38,1.44Z"/><path class="cls-1" d="M72.1,207.57c.67.1,1.33.19,2,.27l.12-1c-.66-.09-1.32-.17-2-.27Z"/><path class="cls-1" d="M84.11,208.6l2,0v-1l-2,0Z"/><path class="cls-1" d="M88,0H86V1h2Z"/><path class="cls-1" d="M160.45,30.16c-.47-.47-.95-.94-1.44-1.4l-.69.72c.48.46,1,.92,1.43,1.39Z"/><path class="cls-1" d="M119.43,202.48l.31,1,1.91-.65-.33-.95Z"/><path class="cls-1" d="M117.67,4.56l-.29,1,1.9.61.31-1C119,5,118.31,4.75,117.67,4.56Z"/><path class="cls-1" d="M129,8.77l-.4.91,1.82.82.42-.9C130.24,9.31,129.63,9,129,8.77Z"/><path class="cls-1" d="M115.63,203.65l.27,1,1.93-.57-.3-1Z"/><path class="cls-1" d="M125.29,7.22l-.37.93c.62.24,1.24.49,1.85.75l.39-.93C126.54,7.71,125.91,7.46,125.29,7.22Z"/><path class="cls-1" d="M113.8,3.45l-.25,1,1.92.53.27-1Z"/><path class="cls-1" d="M123.19,201.16l.35.93c.63-.23,1.25-.47,1.88-.72l-.37-.93Z"/><path class="cls-1" d="M187.17,78.55l1-.25c-.16-.65-.34-1.3-.51-1.94l-1,.27C186.83,77.27,187,77.91,187.17,78.55Z"/><path class="cls-1" d="M126.88,199.7l.39.92,1.84-.79-.4-.92Z"/><path class="cls-1" d="M121.5,5.81l-.33,1,1.88.67.35-.93C122.77,6.26,122.14,6,121.5,5.81Z"/><path class="cls-1" d="M190.38,102.17l1,0q0-1-.06-2l-1,0C190.35,100.84,190.37,101.5,190.38,102.17Z"/><path class="cls-1" d="M190.23,98.19l1-.06c0-.67-.09-1.33-.14-2l-1,.08C190.14,96.87,190.19,97.53,190.23,98.19Z"/><path class="cls-1" d="M189.46,90.27l1-.14c-.09-.66-.19-1.33-.29-2l-1,.16C189.27,89,189.37,89.61,189.46,90.27Z"/><path class="cls-1" d="M188.85,86.33l1-.17c-.12-.66-.24-1.32-.37-2l-1,.2C188.61,85,188.73,85.68,188.85,86.33Z"/><path class="cls-1" d="M188.08,82.43l1-.22c-.14-.65-.29-1.31-.44-2l-1,.23C187.79,81.13,187.94,81.78,188.08,82.43Z"/><path class="cls-1" d="M107.89,205.54l.2,1c.66-.13,1.32-.27,2-.42l-.22-1Z"/><path class="cls-1" d="M111.78,204.67l.24,1c.65-.16,1.3-.32,1.94-.5l-.25-1Z"/><path class="cls-1" d="M104,206.27l.16,1,2-.34-.18-1Z"/><path class="cls-1" d="M189.92,94.22l1-.09c-.06-.67-.13-1.34-.21-2l-1,.11Z"/><path class="cls-1" d="M110.8,90.51c-.34-.59-.71-1.17-1.09-1.73l-.83.57c.37.54.73,1.1,1.06,1.67Z"/><path class="cls-1" d="M112.64,114.34c.25-.63.47-1.28.68-1.94l-1-.29c-.19.63-.41,1.26-.65,1.87Z"/><path class="cls-1" d="M114.44,102.16c0-.68-.13-1.37-.23-2l-1,.15c.1.65.17,1.31.22,2Z"/><path class="cls-1" d="M83.07,78.18l-.15-1c-.68.11-1.35.24-2,.39l.23,1C81.77,78.41,82.42,78.28,83.07,78.18Z"/><path class="cls-1" d="M110.87,92.76c.29.59.56,1.19.8,1.8l.93-.36c-.25-.64-.53-1.27-.83-1.88Z"/><path class="cls-1" d="M112.33,96.43c.19.63.37,1.27.52,1.9l1-.22c-.15-.66-.33-1.33-.54-2Z"/><path class="cls-1" d="M102.47,81.59c-.56-.38-1.15-.74-1.74-1.08l-.5.86q.85.5,1.68,1Z"/><path class="cls-1" d="M105,84.88l.67-.74c-.5-.46-1-.91-1.56-1.33l-.62.78C104,84,104.52,84.43,105,84.88Z"/><path class="cls-1" d="M79.22,79.07l-.3-1c-.65.21-1.3.44-1.93.69l.37.93C78,79.49,78.59,79.27,79.22,79.07Z"/><path class="cls-1" d="M60.71,102.4l-1-.07c0,.65-.07,1.32-.07,2v.05l1-.05C60.65,103.68,60.67,103,60.71,102.4Z"/><path class="cls-1" d="M100.32,127.22c-.57.32-1.15.64-1.75.92l.44.9c.61-.3,1.22-.62,1.81-1Z"/><path class="cls-1" d="M96.77,128.93c-.62.24-1.24.46-1.87.66l.3.95c.64-.2,1.3-.43,1.93-.68Z"/><path class="cls-1" d="M97,78.74l-.36.93c.61.24,1.22.5,1.81.79l.43-.91C98.3,79.26,97.67,79,97,78.74Z"/><path class="cls-1" d="M93,130.1c-.64.14-1.29.27-1.94.36l.15,1c.67-.1,1.35-.23,2-.38Z"/><path class="cls-1" d="M93.11,77.54l-.22,1c.64.14,1.28.31,1.91.5l.29-1C94.44,77.87,93.77,77.69,93.11,77.54Z"/><path class="cls-1" d="M89.05,77,89,78c.65,0,1.31.11,2,.21l.15-1C90.41,77.07,89.73,77,89.05,77Z"/><path class="cls-1" d="M85,77,85,78c.65,0,1.32-.08,2-.08v-1C86.32,76.88,85.63,76.91,85,77Z"/><path class="cls-1" d="M89.09,130.69c-.66,0-1.32.07-2,.07v1c.68,0,1.37,0,2-.08Z"/><path class="cls-1" d="M107.14,85.59l-.73.68c.44.48.88,1,1.29,1.49l.78-.62C108.05,86.61,107.6,86.08,107.14,85.59Z"/><path class="cls-1" d="M112.87,110.2l1,.22c.16-.66.28-1.34.38-2l-1-.15C113.14,108.91,113,109.56,112.87,110.2Z"/><path class="cls-1" d="M110.92,115.79c-.29.59-.6,1.18-.93,1.75l.87.5c.34-.59.66-1.2,1-1.82Z"/><path class="cls-1" d="M103.58,125c-.51.41-1,.8-1.59,1.17l.56.83c.57-.39,1.12-.8,1.65-1.22Z"/><path class="cls-1" d="M113.53,104.32c0,.66,0,1.32-.08,2l1,.08c0-.68.08-1.37.08-2.05v-.11h-1Z"/><path class="cls-1" d="M109.76,119.77l-.82-.56c-.37.54-.77,1.08-1.18,1.59l.78.62C109,120.89,109.38,120.34,109.76,119.77Z"/><path class="cls-1" d="M105.08,123.7l.68.73c.5-.46,1-1,1.45-1.45l-.74-.68C106,122.78,105.56,123.25,105.08,123.7Z"/><path class="cls-1" d="M75.55,80.52l-.44-.9c-.61.3-1.22.62-1.81,1l.51.86C74.37,81.12,75,80.81,75.55,80.52Z"/><path class="cls-1" d="M85.14,130.69c-.66-.05-1.32-.12-2-.22l-.14,1c.67.1,1.35.18,2,.23Z"/><path class="cls-1" d="M81.23,130.11c-.64-.14-1.28-.32-1.91-.51l-.29,1c.65.2,1.32.38,2,.53Z"/><path class="cls-1" d="M63.23,92.9c.29-.59.6-1.18.92-1.75l-.86-.5c-.34.59-.66,1.2-1,1.82Z"/><path class="cls-1" d="M60.34,110.48c.15.66.33,1.33.53,2l1-.3c-.2-.62-.37-1.27-.52-1.91Z"/><path class="cls-1" d="M72.14,82.51l-.57-.83c-.56.39-1.12.8-1.65,1.23l.63.78C71.06,83.28,71.59,82.88,72.14,82.51Z"/><path class="cls-1" d="M59.94,100.29l1,.14c.09-.64.21-1.3.36-1.94l-1-.22C60.16,98.94,60,99.62,59.94,100.29Z"/><path class="cls-1" d="M67.66,86.38c.45-.48.92-.95,1.4-1.4l-.69-.73c-.49.46-1,1-1.44,1.45Z"/><path class="cls-1" d="M66.38,87.88l-.79-.62c-.42.54-.83,1.09-1.21,1.65l.82.56C65.57,88.93,66,88.4,66.38,87.88Z"/><path class="cls-1" d="M62.44,94.71l-.93-.36c-.24.63-.47,1.28-.67,1.94l.95.29C62,96,62.21,95.32,62.44,94.71Z"/><path class="cls-1" d="M73.89,127.24c-.57-.33-1.13-.68-1.67-1l-.57.82c.57.39,1.15.75,1.74,1.09Z"/><path class="cls-1" d="M68.45,124.46c.5.46,1,.91,1.55,1.34l.63-.79c-.52-.41-1-.84-1.5-1.28Z"/><path class="cls-1" d="M77.45,129c-.61-.24-1.22-.5-1.81-.79l-.43.9c.61.3,1.25.57,1.88.82Z"/><path class="cls-1" d="M61.55,114.39c.25.63.53,1.26.83,1.88l.9-.44c-.29-.59-.56-1.2-.8-1.8Z"/><path class="cls-1" d="M65.65,121.46c.43.53.88,1.05,1.34,1.55l.74-.68c-.45-.48-.88-1-1.3-1.5Z"/><path class="cls-1" d="M60.72,106.35l-1,.07c.05.68.12,1.37.23,2l1-.15C60.85,107.66,60.77,107,60.72,106.35Z"/><path class="cls-1" d="M65.26,119.25c-.37-.55-.73-1.11-1.06-1.67l-.86.5c.34.58.71,1.17,1.09,1.73Z"/></g></g></svg>