<svg xmlns="http://www.w3.org/2000/svg" viewBox="0 0 53.25 53.25"><defs><style>.cls-1{isolation:isolate;}.cls-2{fill:#a3897a;}.cls-3{opacity:0.75;mix-blend-mode:multiply;}</style></defs><title>contacticon</title><g class="cls-1"><g id="Capa_2" data-name="Capa 2"><g id="Capa_1-2" data-name="Capa 1"><circle class="cls-2" cx="26.63" cy="26.63" r="26.63"/><g class="cls-3"><path d="M26.78,18.86c4.76,0,7.74-.25,8.14,5h5.8c0-8.17-7.12-9.27-14.09-9.27s-14.09,1.1-14.09,9.27H18.3C18.74,18.51,22.07,18.81,26.78,18.86Z"/><path d="M15.42,26.51c1.41,0,2.59.08,2.85-1.31a4.09,4.09,0,0,0,.05-.65H12.51C12.51,26.62,13.81,26.51,15.42,26.51Z"/><path d="M35,24.55H34.9a3.13,3.13,0,0,0,.06.65c.28,1.28,1.45,1.2,2.86,1.2,1.61,0,2.92.11,2.92-1.85Z"/><path d="M32.12,23.14v-.82c0-.37-.42-.39-.94-.39h-.86c-.52,0-.94,0-.94.39v1.26h-6V22.32c0-.37-.42-.39-.95-.39h-.85c-.52,0-.95,0-.95.39v1.54c-1.37,1.43-5.87,7.51-6,8.25V37a.82.82,0,0,0,.82.82h22a.82.82,0,0,0,.82-.82V32.09c-.16-.72-4.66-6.8-6-8.23ZM23,32.77a.8.8,0,1,1,.8-.8A.8.8,0,0,1,23,32.77ZM23,30a.8.8,0,1,1,.8-.8A.8.8,0,0,1,23,30Zm0-2.75a.8.8,0,1,1,.8-.8A.8.8,0,0,1,23,27.28Zm3.3,5.49a.8.8,0,0,1,0-1.6.8.8,0,0,1,0,1.6Zm0-2.74a.8.8,0,1,1,.8-.8A.8.8,0,0,1,26.34,30Zm0-2.75a.8.8,0,0,1,0-1.6.8.8,0,0,1,0,1.6Zm3.29,5.49a.8.8,0,1,1,.8-.8A.8.8,0,0,1,29.63,32.77Zm0-2.74a.8.8,0,1,1,.8-.8A.8.8,0,0,1,29.63,30Zm0-2.75a.8.8,0,1,1,.8-.8A.8.8,0,0,1,29.63,27.28Z"/></g></g></g></g></svg>