<svg xmlns="http://www.w3.org/2000/svg" viewBox="0 0 53.25 53.25"><defs><style>.cls-1{fill:#35a8e0;}.cls-2{opacity:0.75;}</style></defs><title>espaciosicon</title><g id="Capa_2" data-name="Capa 2"><g id="Capa_1-2" data-name="Capa 1"><circle class="cls-1" cx="26.63" cy="26.63" r="26.63"/><g class="cls-2"><polygon class="cls-1" points="23.56 44.14 9.08 36.9 7.88 17.28 8.94 17.6 10 35.78 23.53 42.33 23.56 44.14"/><path d="M23.56,44.21h0L9.05,37a.05.05,0,0,1,0-.05L7.81,17.29a.06.06,0,0,1,0-.06.07.07,0,0,1,.06,0L9,17.54a.06.06,0,0,1,0,.06l1.05,18.13,13.5,6.54a.05.05,0,0,1,0,.06l0,1.81a.07.07,0,0,1,0,.06ZM9.15,36.86,23.49,44l0-1.66L10,35.84a.08.08,0,0,1,0-.06l-1-18.13L8,17.37Z"/><polygon class="cls-1" points="44.69 34.27 23.56 44.14 23.53 42.33 43.89 33.13 44.82 15.87 45.74 15.61 44.69 34.27"/><path d="M23.56,44.21h0a.06.06,0,0,1,0-.06l0-1.81a.06.06,0,0,1,0-.06l20.31-9.19.93-17.22a.06.06,0,0,1,0-.06l.93-.26h.06a.14.14,0,0,1,0,.06L44.75,34.27a.05.05,0,0,1,0,.06L23.59,44.2Zm0-1.84,0,1.67,21-9.81L45.67,15.7l-.79.22L44,33.13a.09.09,0,0,1,0,.06Zm21.09-8.1Z"/><polygon class="cls-1" points="8.94 17.6 7.88 17.28 30.33 12.43 45.74 15.61 44.82 15.87 30.47 12.87 8.94 17.6"/><path d="M8.94,17.67h0l-1.06-.32a.08.08,0,0,1-.05-.07.06.06,0,0,1,.05-.06l22.45-4.85h0l15.42,3.17a.06.06,0,0,1,.05.06.08.08,0,0,1-.05.07l-.92.26h0l-14.33-3L9,17.67Zm-.79-.38.79.24L30.46,12.8h0l14.34,3,.64-.18L30.33,12.5Z"/><path d="M8.94,17.6l21.53-4.73-.14,15.64L10,35.78Zm16.29,8.13-.06-7.84-1.07.27L16.82,20l.26,7.62,0,.71Z"/><polygon points="30.47 12.87 44.82 15.87 43.89 33.13 42.24 32.57 42.27 31.89 42.87 19.52 38.04 18.36 37.12 18.14 36.74 30.69 30.33 28.51 30.47 12.87"/><path class="cls-1" d="M44,33.22l-1.78-.61,0-.72.59-12.32-5.61-1.34-.38,12.56-6.55-2.23v0l.14-15.73,14.49,3v.06Zm-1.64-.7,1.52.52.92-17.12L30.54,13l-.15,15.51,6.29,2.14.38-12.54,5.88,1.41v.06Z"/><polygon points="43.89 33.13 23.53 42.33 10 35.78 30.33 28.51 36.74 30.69 37.64 30.34 42.27 31.89 42.24 32.57 43.89 33.13"/><path class="cls-1" d="M23.53,42.41l0,0L9.82,35.77l20.51-7.33h0l6.39,2.17.9-.36h0l4.68,1.57,0,.68,1.76.6-.15.07ZM10.17,35.79l13.37,6.47,20.17-9.12-1.54-.53,0-.67-4.56-1.53-.9.36h0l-6.39-2.18Z"/><polygon class="cls-1" points="36.74 30.69 37.12 18.14 38.04 18.36 37.64 30.34 36.74 30.69"/><path d="M36.74,30.76h0s0,0,0-.06l.37-12.55a.05.05,0,0,1,0-.05.07.07,0,0,1,.06,0l.91.22a.06.06,0,0,1,.05.06l-.39,12a.08.08,0,0,1,0,.06l-.9.36Zm.45-12.53-.38,12.36.77-.3L38,18.41Z"/><polygon class="cls-1" points="25.17 17.89 25.23 25.73 24.18 25.39 24.1 18.16 25.17 17.89"/><path d="M25.23,25.8h0l-1.05-.35a.07.07,0,0,1-.05-.06L24,18.16a.08.08,0,0,1,0-.07l1.07-.27h.06a.09.09,0,0,1,0,.06l.06,7.84a.07.07,0,0,1,0,.06Zm-1-.46.92.3L25.1,18l-.93.24Z"/><polygon class="cls-1" points="25.23 25.73 17.1 28.32 17.08 27.61 24.18 25.39 25.23 25.73"/><path d="M17.1,28.39h0a.08.08,0,0,1,0-.05l0-.72a.08.08,0,0,1,0-.07l7.1-2.22h0l1.05.35a.06.06,0,0,1,.05.06.08.08,0,0,1-.05.07l-8.13,2.59Zm0-.73,0,.57L25,25.73l-.83-.27Z"/></g></g></g></svg>