<svg xmlns="http://www.w3.org/2000/svg" xmlns:xlink="http://www.w3.org/1999/xlink" viewBox="0 0 83.63 83.63"><defs><style>.cls-1{fill:url(#linear-gradient);}.cls-2{fill:#fff;}</style><linearGradient id="linear-gradient" x1="31.5" y1="-28.05" x2="48.96" y2="90.11" gradientUnits="userSpaceOnUse"><stop offset="0" stop-color="#0e3189"/><stop offset="0.94" stop-color="#001042"/></linearGradient></defs><title>facebookicon</title><g id="Capa_2" data-name="Capa 2"><g id="Capa_1-2" data-name="Capa 1"><path class="cls-1" d="M83.63,41.76a41.72,41.72,0,0,1-38.2,41.65,19.35,19.35,0,0,1-3.56.22,40.19,40.19,0,0,1-9.06-1A41.82,41.82,0,1,1,83.63,41.76Z"/><path class="cls-2" d="M47.16,32.6A5,5,0,0,1,51,31.3a22,22,0,0,1,5.77.78l1.65-8.77a31.1,31.1,0,0,0-10.48-1.52c-3.61,0-6.45.54-8.73,1.85a9.9,9.9,0,0,0-4.7,4.75c-.87,1.84-1.31,5-1.31,8.83v3.47h-7V51.14h7V82.63a34.69,34.69,0,0,0,8.34,1,16.4,16.4,0,0,0,3.27-.22V51.14h9.28V40.69H46V37.44C46,35,46.29,33.46,47.16,32.6Z"/></g></g></svg>