<svg xmlns="http://www.w3.org/2000/svg" viewBox="0 0 30 30"><defs><style>.cls-1{fill:#fff;}.cls-2{opacity:0.7;}</style></defs><title>homeicon</title><g id="Capa_2" data-name="Capa 2"><g id="Capa_1-2" data-name="Capa 1"><circle class="cls-1" cx="15" cy="15" r="15"/><path class="cls-2" d="M22.26,14.34,15.59,6.89a1.28,1.28,0,0,0-1.87,0L7.05,14.34A1.11,1.11,0,0,0,8,16.17h.58a2.43,2.43,0,0,0-.19.94V22a2.45,2.45,0,0,0,2.45,2.45h2.32a.76.76,0,0,1,0-.21V18.87A.93.93,0,0,1,14,18h2a.93.93,0,0,1,.93.92v5.36a.76.76,0,0,1,0,.21h1.52A2.45,2.45,0,0,0,20.93,22V17.11a2.42,2.42,0,0,0-.18-.94h.57A1.11,1.11,0,0,0,22.26,14.34Z"/></g></g></svg>