<?xml version="1.0" encoding="utf-8"?>
<!-- Generator: Adobe Illustrator 23.0.1, SVG Export Plug-In . SVG Version: 6.00 Build 0)  -->
<svg version="1.1" id="Capa_1" xmlns="http://www.w3.org/2000/svg" xmlns:xlink="http://www.w3.org/1999/xlink" x="0px" y="0px"
	 viewBox="0 0 30 30" style="enable-background:new 0 0 30 30;" xml:space="preserve">
<style type="text/css">
	.st0{fill:#FFFFFF;}
	.st1{opacity:0.7;enable-background:new    ;}
</style>
<title>homeicon</title>
<rect width="30" height="30"/>
<g>
	<g id="Capa_1-2">
		<circle class="st0" cx="15" cy="15" r="15"/>
		<path class="st1" d="M22.3,14.3l-6.7-7.5c-0.5-0.5-1.3-0.5-1.8-0.1c0,0,0,0-0.1,0.1l-6.7,7.5c-0.4,0.5-0.3,1.2,0.1,1.6
			c0.2,0.2,0.5,0.3,0.8,0.3h0.6c-0.1,0.3-0.2,0.6-0.2,0.9V22c0,1.4,1.1,2.5,2.4,2.5c0,0,0,0,0,0h2.3c0-0.1,0-0.1,0-0.2v-5.4
			c0-0.5,0.4-0.8,0.8-0.9h2c0.5,0,0.9,0.4,0.9,0.9v5.4c0,0.1,0,0.1,0,0.2h1.5c1.4,0,2.5-1.1,2.5-2.4c0,0,0,0,0-0.1v-4.9
			c0-0.3-0.1-0.6-0.2-0.9h0.6c0.6,0.1,1.1-0.4,1.2-1C22.6,14.9,22.5,14.6,22.3,14.3z"/>
	</g>
</g>
</svg>
