<?xml version="1.0" encoding="utf-8"?>
<!-- Generator: Adobe Illustrator 23.0.1, SVG Export Plug-In . SVG Version: 6.00 Build 0)  -->
<svg version="1.1" id="Capa_1" xmlns="http://www.w3.org/2000/svg" xmlns:xlink="http://www.w3.org/1999/xlink" x="0px" y="0px"
	 viewBox="0 0 30 30" style="enable-background:new 0 0 30 30;" xml:space="preserve">
<style type="text/css">
	.st0{fill:#FFFFFF;}
	.st1{fill:#00A099;}
	.st2{fill:#35A8E0;}
</style>
<path class="st0" d="M-102.9,191.7c0.6,0.3,1.2,0.6,1.8,0.9l0.5-0.9c-0.6-0.3-1.2-0.6-1.8-0.9L-102.9,191.7z"/>
<path class="st0" d="M-106.4,189.7c0.6,0.3,1.2,0.7,1.7,1l0.5-0.9c-0.6-0.3-1.2-0.7-1.7-1L-106.4,189.7z"/>
<g>
	<circle class="st1" cx="-96.2" cy="194.3" r="26.6"/>
</g>
<g>
	<circle class="st2" cx="-104.2" cy="-102" r="26.6"/>
	<g>
		<g>
			<polygon class="st2" points="-107.3,-84.5 -121.7,-91.7 -122.9,-111.3 -121.9,-111 -120.8,-92.8 -107.3,-86.3 			"/>
			<path d="M-107.3-84.4C-107.3-84.4-107.3-84.4-107.3-84.4l-14.5-7.2c0,0,0,0,0-0.1l-1.2-19.6c0,0,0,0,0-0.1c0,0,0,0,0.1,0l1.1,0.3
				c0,0,0,0,0,0.1l1.1,18.1l13.5,6.5c0,0,0,0,0,0.1L-107.3-84.4C-107.2-84.5-107.2-84.4-107.3-84.4
				C-107.2-84.4-107.2-84.4-107.3-84.4z M-121.7-91.8l14.3,7.2l0-1.7l-13.5-6.5c0,0,0,0,0-0.1l-1.1-18.1l-0.9-0.3L-121.7-91.8z"/>
		</g>
		<g>
			<polygon class="st2" points="-86.1,-94.4 -107.3,-84.5 -107.3,-86.3 -86.9,-95.5 -86,-112.8 -85.1,-113 			"/>
			<path d="M-107.3-84.4C-107.3-84.4-107.3-84.4-107.3-84.4C-107.3-84.4-107.3-84.5-107.3-84.4l-0.1-1.9c0,0,0-0.1,0-0.1l20.3-9.2
				l0.9-17.2c0,0,0-0.1,0-0.1l0.9-0.3c0,0,0,0,0.1,0c0,0,0,0,0,0.1l-1.1,18.7c0,0,0,0,0,0.1L-107.3-84.4
				C-107.2-84.4-107.2-84.4-107.3-84.4z M-107.2-86.3l0,1.7l21-9.8l1.1-18.5l-0.8,0.2l-0.9,17.2c0,0,0,0,0,0.1L-107.2-86.3z
				 M-86.1-94.4L-86.1-94.4L-86.1-94.4z"/>
		</g>
		<g>
			<polygon class="st2" points="-121.9,-111 -122.9,-111.3 -100.5,-116.2 -85.1,-113 -86,-112.8 -100.3,-115.8 			"/>
			<path d="M-121.9-111C-121.9-111-121.9-111-121.9-111l-1.1-0.3c0,0,0,0,0-0.1c0,0,0-0.1,0.1-0.1l22.4-4.8c0,0,0,0,0,0l15.4,3.2
				c0,0,0.1,0,0.1,0.1c0,0,0,0.1,0,0.1l-0.9,0.3c0,0,0,0,0,0l-14.3-3L-121.9-111C-121.9-111-121.9-111-121.9-111z M-122.7-111.3
				l0.8,0.2l21.5-4.7c0,0,0,0,0,0l14.3,3l0.6-0.2l-15.1-3.1L-122.7-111.3z"/>
		</g>
		<g>
			<path d="M-121.9-111l21.5-4.7l-0.1,15.6l-20.3,7.3L-121.9-111z M-105.6-102.9l-0.1-7.8l-1.1,0.3l-7.3,1.8l0.3,7.6l0,0.7
				L-105.6-102.9z"/>
		</g>
		<g>
			<polygon points="-100.3,-115.8 -86,-112.8 -86.9,-95.5 -88.6,-96.1 -88.5,-96.7 -87.9,-109.1 -92.8,-110.3 -93.7,-110.5 
				-94.1,-97.9 -100.5,-100.1 			"/>
			<path class="st2" d="M-86.9-95.4l-1.8-0.6l0-0.7L-88-109l-5.6-1.3L-94-97.8l-6.5-2.2l0,0l0.1-15.7l14.5,3l0,0.1L-86.9-95.4z
				 M-88.5-96.1l1.5,0.5l0.9-17.1l-14.2-3l-0.1,15.5l6.3,2.1l0.4-12.5l5.9,1.4l0,0.1L-88.5-96.1z"/>
		</g>
		<g>
			<polygon points="-86.9,-95.5 -107.3,-86.3 -120.8,-92.8 -100.5,-100.1 -94.1,-97.9 -93.2,-98.3 -88.5,-96.7 -88.6,-96.1 			"/>
			<path class="st2" d="M-107.3-86.2L-107.3-86.2l-13.7-6.6l20.5-7.3l0,0l6.4,2.2l0.9-0.4l0,0l4.7,1.6l0,0.7l1.8,0.6l-0.2,0.1
				L-107.3-86.2z M-120.6-92.8l13.4,6.5l20.2-9.1l-1.5-0.5l0-0.7l-4.6-1.5l-0.9,0.4l0,0l-6.4-2.2L-120.6-92.8z"/>
		</g>
		<g>
			<polygon class="st2" points="-94.1,-97.9 -93.7,-110.5 -92.8,-110.3 -93.2,-98.3 			"/>
			<path d="M-94.1-97.9C-94.1-97.9-94.1-97.9-94.1-97.9C-94.1-97.9-94.1-97.9-94.1-97.9l0.3-12.6c0,0,0,0,0-0.1c0,0,0,0,0.1,0
				l0.9,0.2c0,0,0.1,0,0.1,0.1l-0.4,12c0,0,0,0.1,0,0.1L-94.1-97.9C-94.1-97.9-94.1-97.9-94.1-97.9z M-93.6-110.4L-94-98l0.8-0.3
				l0.4-11.9L-93.6-110.4z"/>
		</g>
		<g>
			<polygon class="st2" points="-105.6,-110.7 -105.6,-102.9 -106.6,-103.2 -106.7,-110.5 			"/>
			<path d="M-105.6-102.8C-105.6-102.8-105.6-102.8-105.6-102.8l-1.1-0.4c0,0,0,0,0-0.1l-0.1-7.2c0,0,0-0.1,0.1-0.1l1.1-0.3
				c0,0,0,0,0.1,0c0,0,0,0,0,0.1L-105.6-102.8C-105.5-102.9-105.5-102.8-105.6-102.8C-105.6-102.8-105.6-102.8-105.6-102.8z
				 M-106.6-103.3l0.9,0.3l-0.1-7.7l-0.9,0.2L-106.6-103.3z"/>
		</g>
		<g>
			<polygon class="st2" points="-105.6,-102.9 -113.7,-100.3 -113.7,-101 -106.6,-103.2 			"/>
			<path d="M-113.7-100.2C-113.7-100.2-113.7-100.2-113.7-100.2C-113.8-100.3-113.8-100.3-113.7-100.2l-0.1-0.8c0,0,0-0.1,0-0.1
				l7.1-2.2c0,0,0,0,0,0l1.1,0.3c0,0,0,0,0,0.1c0,0,0,0.1,0,0.1L-113.7-100.2C-113.7-100.2-113.7-100.2-113.7-100.2z M-113.7-101
				l0,0.6l7.8-2.5l-0.8-0.3L-113.7-101z"/>
		</g>
	</g>
</g>
<g>
	<path d="M-102.9,192.1c0.1,0.3,0.2,0.6,0.3,1c0.1,0.4,0.1,0.7,0.1,1.1c0,0.5-0.1,1-0.2,1.4c-0.1,0.4-0.3,0.8-0.5,1.2
		c-0.2,0.4-0.5,0.7-0.8,1.1c-0.3,0.3-0.7,0.7-1.1,1c-0.4,0.4-0.8,0.7-1.1,1c-0.3,0.3-0.6,0.6-0.8,0.9c-0.2,0.3-0.4,0.6-0.5,1
		s-0.2,0.7-0.2,1.1c0,0.4,0.1,0.7,0.2,1c0.1,0.3,0.3,0.6,0.5,0.8c0.2,0.2,0.5,0.4,0.9,0.5c0.3,0.1,0.7,0.2,1.1,0.2
		c0.9,0,1.8-0.2,2.8-0.6c1-0.4,1.9-0.9,2.7-1.7v5.1c-0.9,0.5-1.8,0.9-2.9,1.2c-1,0.3-2.1,0.4-3.2,0.4c-1.1,0-2-0.1-3-0.3
		c-0.9-0.2-1.7-0.6-2.4-1.1c-0.7-0.5-1.2-1.1-1.6-1.9c-0.4-0.8-0.6-1.7-0.6-2.8c0-0.7,0.1-1.3,0.2-1.9c0.2-0.6,0.4-1.1,0.7-1.6
		c0.3-0.5,0.7-1,1.1-1.4s1-0.9,1.6-1.4c0.4-0.3,0.7-0.6,1.1-0.9c0.3-0.3,0.6-0.6,0.8-0.8c0.2-0.3,0.4-0.6,0.5-0.9
		c0.1-0.3,0.2-0.7,0.2-1.1c0-0.3,0-0.6-0.1-0.8c-0.1-0.3-0.2-0.5-0.3-0.7H-102.9z M-105.4,184.6c0.9,0,1.7,0.3,2.3,0.8
		c0.6,0.6,0.9,1.2,0.9,2c0,0.8-0.3,1.5-0.9,2c-0.6,0.5-1.4,0.8-2.3,0.8c-0.9,0-1.6-0.3-2.2-0.8c-0.6-0.5-0.9-1.2-0.9-2
		c0-0.8,0.3-1.5,0.9-2C-107,184.9-106.3,184.6-105.4,184.6z"/>
	<path d="M-90.7,195.8c-0.1-0.3-0.2-0.6-0.3-1c-0.1-0.4-0.1-0.7-0.1-1.1c0-0.5,0.1-1,0.2-1.4c0.1-0.4,0.3-0.8,0.5-1.2
		c0.2-0.4,0.5-0.7,0.8-1.1c0.3-0.3,0.7-0.7,1.1-1c0.4-0.4,0.8-0.7,1.1-1c0.3-0.3,0.6-0.6,0.8-0.9c0.2-0.3,0.4-0.6,0.5-1
		c0.1-0.3,0.2-0.7,0.2-1.1c0-0.4-0.1-0.7-0.2-1c-0.1-0.3-0.3-0.6-0.5-0.8c-0.2-0.2-0.5-0.4-0.9-0.5c-0.3-0.1-0.7-0.2-1.1-0.2
		c-0.9,0-1.8,0.2-2.8,0.6c-1,0.4-1.9,0.9-2.7,1.7v-5.1c0.9-0.5,1.8-0.9,2.9-1.2c1-0.3,2.1-0.4,3.2-0.4c1.1,0,2,0.1,3,0.3
		c0.9,0.2,1.7,0.6,2.4,1.1c0.7,0.5,1.2,1.1,1.6,1.9c0.4,0.8,0.6,1.7,0.6,2.8c0,0.7-0.1,1.3-0.2,1.9c-0.2,0.6-0.4,1.1-0.7,1.6
		c-0.3,0.5-0.7,1-1.1,1.4c-0.5,0.5-1,0.9-1.6,1.4c-0.4,0.3-0.7,0.6-1,0.9c-0.3,0.3-0.6,0.6-0.8,0.8c-0.2,0.3-0.3,0.6-0.5,0.9
		c-0.1,0.3-0.2,0.7-0.2,1.1c0,0.3,0,0.6,0.1,0.8c0.1,0.3,0.2,0.5,0.3,0.7H-90.7z M-88.2,203.3c-0.9,0-1.7-0.3-2.3-0.8
		c-0.6-0.6-0.9-1.2-0.9-2c0-0.8,0.3-1.5,0.9-2c0.6-0.5,1.4-0.8,2.3-0.8c0.9,0,1.6,0.3,2.2,0.8c0.6,0.5,0.9,1.2,0.9,2
		c0,0.8-0.3,1.5-0.9,2C-86.6,203-87.3,203.3-88.2,203.3z"/>
</g>
<g>
	<g>
		<circle class="st0" cx="15" cy="15" r="15"/>
	</g>
	<path d="M22.7,13l-6.7-7.4c-0.5-0.5-1.4-0.5-1.9,0L7.5,13c-0.7,0.7-0.1,1.8,0.9,1.8H9c-0.1,0.3-0.2,0.6-0.2,0.9v4.9
		c0,1.3,1.1,2.4,2.4,2.4h2.3c0-0.1,0-0.1,0-0.2v-5.4c0-0.5,0.4-0.9,0.9-0.9h2c0.5,0,0.9,0.4,0.9,0.9v5.4c0,0.1,0,0.1,0,0.2H19
		c1.3,0,2.4-1.1,2.4-2.4v-4.9c0-0.3-0.1-0.6-0.2-0.9h0.6C22.8,14.8,23.4,13.7,22.7,13z"/>
</g>
</svg>
