<?xml version="1.0" encoding="utf-8"?>
<!-- Generator: Adobe Illustrator 23.0.1, SVG Export Plug-In . SVG Version: 6.00 Build 0)  -->
<svg version="1.1" id="Capa_1" xmlns="http://www.w3.org/2000/svg" xmlns:xlink="http://www.w3.org/1999/xlink" x="0px" y="0px"
	 viewBox="0 0 53.3 53.3" style="enable-background:new 0 0 53.3 53.3;" xml:space="preserve">
<style type="text/css">
	.st0{fill:#F29104;}
	.st1{fill:#06A099;}
	.st2{fill:#F8B133;}
	.st3{fill:#A3897B;}
	.st4{fill:#2EAC68;}
	.st5{fill:#39A8E0;}
</style>
<g>
	<g>
		<circle class="st4" cx="26.6" cy="26.6" r="26.6"/>
	</g>
	<path d="M25.8,13.4l-2.2,0.8l0.2,0.6L26,14C25.9,13.8,25.8,13.6,25.8,13.4z"/>
	<path d="M29.6,14c-0.1,0.2-0.2,0.3-0.4,0.4l9.4,6.3c0.1-0.1,0.1-0.2,0.2-0.3L29.6,14z"/>
	<path d="M39.5,23.5l-7.4,18.7h0.8l7.2-18.5C39.9,23.6,39.7,23.6,39.5,23.5z"/>
	<path d="M42.6,21.6c0-1.2-0.9-2.1-2.1-2.1c-0.2,0-0.4,0-0.6,0.1l-10-7c-0.1-1.1-1-1.9-2.1-1.9c-0.9,0-1.6,0.5-1.9,1.2l-2.7,1
		L23,12.4l-3.8,1.1c-0.9-1.3-2.4-2.1-4.1-2.1c-2.8,0-5,2.2-5,5v2.7c0,0,0.7,1.2,5,1.2c4.3,0,5-1.2,5-1.2v-2.5l0.3-0.1l1,4
		c-0.2,0.1-0.3,0.3-0.3,0.5c0,0.3,0.3,0.6,0.6,0.6c0.3,0,0.6-0.3,0.6-0.6c0-0.3-0.2-0.6-0.6-0.6l-1-4l3.1-0.9l-0.1-0.3l2.5-0.8
		c0.4,0.4,0.9,0.6,1.4,0.6c0.4,0,0.7-0.1,1-0.2l9.6,6.5c0,0.1,0,0.3,0,0.4c0,0.6,0.3,1.2,0.7,1.6l-7.5,19h-1.7v-0.8h-1.7v0.8h-1.4
		v2.5h11.4v-2.5h-3.9l7.3-18.8C42.2,23,42.6,22.4,42.6,21.6z M23.6,14.2l2.2-0.8c0.1,0.2,0.1,0.4,0.3,0.6l-2.3,0.8L23.6,14.2z
		 M29.2,14.4c0.1-0.1,0.3-0.3,0.4-0.4l9.2,6.4c-0.1,0.1-0.1,0.2-0.2,0.3L29.2,14.4z M32.1,42.2l7.4-18.7c0.2,0.1,0.4,0.2,0.6,0.2
		l-7.2,18.5H32.1z"/>
</g>
</svg>
