<?xml version="1.0" encoding="utf-8"?>
<!-- Generator: Adobe Illustrator 23.0.1, SVG Export Plug-In . SVG Version: 6.00 Build 0)  -->
<svg version="1.1" id="Capa_1" xmlns="http://www.w3.org/2000/svg" xmlns:xlink="http://www.w3.org/1999/xlink" x="0px" y="0px"
	 viewBox="0 0 53.3 53.3" style="enable-background:new 0 0 53.3 53.3;" xml:space="preserve">
<style type="text/css">
	.st0{fill:#F29104;}
	.st1{fill:#06A099;}
	.st2{fill:#F8B133;}
	.st3{fill:#A3897B;}
	.st4{fill:#2EAC68;}
	.st5{fill:#39A8E0;}
</style>
<g>
	<g>
		<circle class="st5" cx="26.6" cy="26.6" r="26.6"/>
	</g>
	<path d="M39,24.8L27.8,12.3c-0.8-0.9-2.3-0.9-3.1,0L13.5,24.8c-1.1,1.2-0.2,3.1,1.6,3.1h1c-0.2,0.5-0.3,1-0.3,1.6v8.2
		c0,2.3,1.8,4.1,4.1,4.1h3.9c0-0.1,0-0.2,0-0.3v-9c0-0.9,0.7-1.6,1.6-1.6h3.4c0.9,0,1.6,0.7,1.6,1.6v9c0,0.1,0,0.2,0,0.3h2.5
		c2.3,0,4.1-1.8,4.1-4.1v-8.2c0-0.6-0.1-1.1-0.3-1.6h1C39.2,27.9,40.1,26,39,24.8z"/>
</g>
</svg>
