<?xml version="1.0" encoding="utf-8"?>
<!-- Generator: Adobe Illustrator 23.0.1, SVG Export Plug-In . SVG Version: 6.00 Build 0)  -->
<svg version="1.1" id="Capa_1" xmlns="http://www.w3.org/2000/svg" xmlns:xlink="http://www.w3.org/1999/xlink" x="0px" y="0px"
	 viewBox="0 0 53.3 53.3" style="enable-background:new 0 0 53.3 53.3;" xml:space="preserve">
<style type="text/css">
	.st0{fill:#FFFFFF;}
	.st1{fill:#00A099;}
	.st2{fill:#35A8E0;}
</style>
<path class="st0" d="M19.9,23.9c0.6,0.3,1.2,0.6,1.8,0.9l0.5-0.9c-0.6-0.3-1.2-0.6-1.8-0.9L19.9,23.9z"/>
<path class="st0" d="M16.4,22c0.6,0.3,1.2,0.7,1.7,1l0.5-0.9c-0.6-0.3-1.2-0.7-1.7-1L16.4,22z"/>
<g>
	<circle class="st1" cx="26.6" cy="26.6" r="26.6"/>
</g>
<g>
	<circle class="st2" cx="18.6" cy="-269.7" r="26.6"/>
	<g>
		<g>
			<polygon class="st2" points="15.6,-252.2 1.1,-259.4 -0.1,-279.1 0.9,-278.7 2,-260.6 15.5,-254 			"/>
			<path d="M15.6-252.1C15.5-252.1,15.5-252.1,15.6-252.1l-14.5-7.2c0,0,0,0,0-0.1L-0.2-279c0,0,0,0,0-0.1c0,0,0,0,0.1,0l1.1,0.3
				c0,0,0,0,0,0.1l1.1,18.1l13.5,6.5c0,0,0,0,0,0.1L15.6-252.1C15.6-252.2,15.6-252.1,15.6-252.1C15.6-252.1,15.6-252.1,15.6-252.1z
				 M1.1-259.5l14.3,7.2l0-1.7L2-260.5c0,0,0,0,0-0.1l-1.1-18.1L0-279L1.1-259.5z"/>
		</g>
		<g>
			<polygon class="st2" points="36.7,-262.1 15.6,-252.2 15.5,-254 35.9,-263.2 36.8,-280.5 37.7,-280.7 			"/>
			<path d="M15.6-252.1C15.5-252.1,15.5-252.1,15.6-252.1C15.5-252.1,15.5-252.2,15.6-252.1l-0.1-1.9c0,0,0-0.1,0-0.1l20.3-9.2
				l0.9-17.2c0,0,0-0.1,0-0.1l0.9-0.3c0,0,0,0,0.1,0s0,0,0,0.1l-1.1,18.7c0,0,0,0,0,0.1L15.6-252.1
				C15.6-252.1,15.6-252.1,15.6-252.1z M15.6-254l0,1.7l21-9.8l1.1-18.5l-0.8,0.2L36-263.2c0,0,0,0,0,0.1L15.6-254z M36.7-262.1
				L36.7-262.1L36.7-262.1z"/>
		</g>
		<g>
			<polygon class="st2" points="0.9,-278.7 -0.1,-279.1 22.3,-283.9 37.7,-280.7 36.8,-280.5 22.5,-283.5 			"/>
			<path d="M0.9-278.7C0.9-278.7,0.9-278.7,0.9-278.7l-1.1-0.3c0,0,0,0,0-0.1c0,0,0-0.1,0.1-0.1l22.4-4.8c0,0,0,0,0,0l15.4,3.2
				c0,0,0.1,0,0.1,0.1s0,0.1,0,0.1l-0.9,0.3c0,0,0,0,0,0l-14.3-3L0.9-278.7C1-278.7,0.9-278.7,0.9-278.7z M0.1-279l0.8,0.2l21.5-4.7
				c0,0,0,0,0,0l14.3,3l0.6-0.2l-15.1-3.1L0.1-279z"/>
		</g>
		<g>
			<path d="M0.9-278.7l21.5-4.7l-0.1,15.6L2-260.6L0.9-278.7z M17.2-270.6l-0.1-7.8l-1.1,0.3l-7.3,1.8l0.3,7.6l0,0.7L17.2-270.6z"/>
		</g>
		<g>
			<polygon points="22.5,-283.5 36.8,-280.5 35.9,-263.2 34.2,-263.8 34.3,-264.4 34.9,-276.8 30,-278 29.1,-278.2 28.7,-265.6 
				22.3,-267.8 			"/>
			<path class="st2" d="M36-263.1l-1.8-0.6l0-0.7l0.6-12.3l-5.6-1.3l-0.4,12.6l-6.5-2.2l0,0l0.1-15.7l14.5,3l0,0.1L36-263.1z
				 M34.3-263.8l1.5,0.5l0.9-17.1l-14.2-3l-0.1,15.5l6.3,2.1l0.4-12.5l5.9,1.4l0,0.1L34.3-263.8z"/>
		</g>
		<g>
			<polygon points="35.9,-263.2 15.5,-254 2,-260.6 22.3,-267.8 28.7,-265.6 29.6,-266 34.3,-264.4 34.2,-263.8 			"/>
			<path class="st2" d="M15.5-253.9L15.5-253.9l-13.7-6.6l20.5-7.3l0,0l6.4,2.2l0.9-0.4l0,0l4.7,1.6l0,0.7l1.8,0.6l-0.2,0.1
				L15.5-253.9z M2.2-260.5l13.4,6.5l20.2-9.1l-1.5-0.5l0-0.7l-4.6-1.5l-0.9,0.4l0,0l-6.4-2.2L2.2-260.5z"/>
		</g>
		<g>
			<polygon class="st2" points="28.7,-265.6 29.1,-278.2 30,-278 29.6,-266 			"/>
			<path d="M28.7-265.6C28.7-265.6,28.7-265.6,28.7-265.6C28.7-265.6,28.7-265.6,28.7-265.6l0.3-12.6c0,0,0,0,0-0.1c0,0,0,0,0.1,0
				l0.9,0.2c0,0,0.1,0,0.1,0.1l-0.4,12c0,0,0,0.1,0,0.1L28.7-265.6C28.8-265.6,28.8-265.6,28.7-265.6z M29.2-278.1l-0.4,12.4
				l0.8-0.3l0.4-11.9L29.2-278.1z"/>
		</g>
		<g>
			<polygon class="st2" points="17.2,-278.4 17.2,-270.6 16.2,-271 16.1,-278.2 			"/>
			<path d="M17.2-270.5C17.2-270.5,17.2-270.5,17.2-270.5l-1.1-0.4c0,0,0,0,0-0.1l-0.1-7.2c0,0,0-0.1,0.1-0.1l1.1-0.3c0,0,0,0,0.1,0
				c0,0,0,0,0,0.1L17.2-270.5C17.3-270.6,17.3-270.6,17.2-270.5C17.3-270.5,17.2-270.5,17.2-270.5z M16.2-271l0.9,0.3l-0.1-7.7
				l-0.9,0.2L16.2-271z"/>
		</g>
		<g>
			<polygon class="st2" points="17.2,-270.6 9.1,-268 9.1,-268.7 16.2,-271 			"/>
			<path d="M9.1-267.9C9.1-267.9,9.1-267.9,9.1-267.9C9-268,9-268,9.1-267.9L9-268.7c0,0,0-0.1,0-0.1l7.1-2.2c0,0,0,0,0,0l1.1,0.3
				c0,0,0,0,0,0.1c0,0,0,0.1,0,0.1L9.1-267.9C9.1-267.9,9.1-267.9,9.1-267.9z M9.1-268.7l0,0.6l7.8-2.5l-0.8-0.3L9.1-268.7z"/>
		</g>
	</g>
</g>
<g>
	<path d="M19.9,24.4c0.1,0.3,0.2,0.6,0.3,1c0.1,0.4,0.1,0.7,0.1,1.1c0,0.5-0.1,1-0.2,1.4c-0.1,0.4-0.3,0.8-0.5,1.2
		c-0.2,0.4-0.5,0.7-0.8,1.1c-0.3,0.3-0.7,0.7-1.1,1c-0.4,0.4-0.8,0.7-1.1,1c-0.3,0.3-0.6,0.6-0.8,0.9c-0.2,0.3-0.4,0.6-0.5,1
		c-0.1,0.3-0.2,0.7-0.2,1.1c0,0.4,0.1,0.7,0.2,1c0.1,0.3,0.3,0.6,0.5,0.8c0.2,0.2,0.5,0.4,0.9,0.5c0.3,0.1,0.7,0.2,1.1,0.2
		c0.9,0,1.8-0.2,2.8-0.6c1-0.4,1.9-0.9,2.7-1.7v5.1c-0.9,0.5-1.8,0.9-2.9,1.2c-1,0.3-2.1,0.4-3.2,0.4c-1.1,0-2-0.1-3-0.3
		c-0.9-0.2-1.7-0.6-2.4-1.1c-0.7-0.5-1.2-1.1-1.6-1.9C10,38.1,9.8,37.1,9.8,36c0-0.7,0.1-1.3,0.2-1.9c0.2-0.6,0.4-1.1,0.7-1.6
		c0.3-0.5,0.7-1,1.1-1.4c0.5-0.5,1-0.9,1.6-1.4c0.4-0.3,0.7-0.6,1.1-0.9c0.3-0.3,0.6-0.6,0.8-0.8c0.2-0.3,0.4-0.6,0.5-0.9
		c0.1-0.3,0.2-0.7,0.2-1.1c0-0.3,0-0.6-0.1-0.8c-0.1-0.3-0.2-0.5-0.3-0.7H19.9z M17.5,16.9c0.9,0,1.7,0.3,2.3,0.8
		c0.6,0.6,0.9,1.2,0.9,2c0,0.8-0.3,1.5-0.9,2c-0.6,0.5-1.4,0.8-2.3,0.8c-0.9,0-1.6-0.3-2.2-0.8c-0.6-0.5-0.9-1.2-0.9-2
		c0-0.8,0.3-1.5,0.9-2C15.8,17.2,16.5,16.9,17.5,16.9z"/>
	<path d="M32.1,28.1c-0.1-0.3-0.2-0.6-0.3-1c-0.1-0.4-0.1-0.7-0.1-1.1c0-0.5,0.1-1,0.2-1.4c0.1-0.4,0.3-0.8,0.5-1.2
		c0.2-0.4,0.5-0.7,0.8-1.1c0.3-0.3,0.7-0.7,1.1-1c0.4-0.4,0.8-0.7,1.1-1c0.3-0.3,0.6-0.6,0.8-0.9c0.2-0.3,0.4-0.6,0.5-1
		c0.1-0.3,0.2-0.7,0.2-1.1c0-0.4-0.1-0.7-0.2-1c-0.1-0.3-0.3-0.6-0.5-0.8c-0.2-0.2-0.5-0.4-0.9-0.5c-0.3-0.1-0.7-0.2-1.1-0.2
		c-0.9,0-1.8,0.2-2.8,0.6c-1,0.4-1.9,0.9-2.7,1.7v-5.1c0.9-0.5,1.8-0.9,2.9-1.2c1-0.3,2.1-0.4,3.2-0.4c1.1,0,2,0.1,3,0.3
		c0.9,0.2,1.7,0.6,2.4,1.1c0.7,0.5,1.2,1.1,1.6,1.9c0.4,0.8,0.6,1.7,0.6,2.8c0,0.7-0.1,1.3-0.2,1.9c-0.2,0.6-0.4,1.1-0.7,1.6
		c-0.3,0.5-0.7,1-1.1,1.4c-0.5,0.5-1,0.9-1.6,1.4c-0.4,0.3-0.7,0.6-1,0.9c-0.3,0.3-0.6,0.6-0.8,0.8c-0.2,0.3-0.3,0.6-0.5,0.9
		c-0.1,0.3-0.2,0.7-0.2,1.1c0,0.3,0,0.6,0.1,0.8c0.1,0.3,0.2,0.5,0.3,0.7H32.1z M34.6,35.6c-0.9,0-1.7-0.3-2.3-0.8
		c-0.6-0.6-0.9-1.2-0.9-2c0-0.8,0.3-1.5,0.9-2c0.6-0.5,1.4-0.8,2.3-0.8c0.9,0,1.6,0.3,2.2,0.8c0.6,0.5,0.9,1.2,0.9,2
		c0,0.8-0.3,1.5-0.9,2C36.3,35.3,35.5,35.6,34.6,35.6z"/>
</g>
<g>
	<g>
		<circle class="st0" cx="137.8" cy="-152.7" r="15"/>
	</g>
	<path d="M145.5-154.7l-6.7-7.4c-0.5-0.5-1.4-0.5-1.9,0l-6.7,7.4c-0.7,0.7-0.1,1.8,0.9,1.8h0.6c-0.1,0.3-0.2,0.6-0.2,0.9v4.9
		c0,1.3,1.1,2.4,2.4,2.4h2.3c0-0.1,0-0.1,0-0.2v-5.4c0-0.5,0.4-0.9,0.9-0.9h2c0.5,0,0.9,0.4,0.9,0.9v5.4c0,0.1,0,0.1,0,0.2h1.5
		c1.3,0,2.4-1.1,2.4-2.4v-4.9c0-0.3-0.1-0.6-0.2-0.9h0.6C145.6-152.9,146.2-154,145.5-154.7z"/>
</g>
</svg>
