<?xml version="1.0" encoding="utf-8"?>
<!-- Generator: Adobe Illustrator 23.0.1, SVG Export Plug-In . SVG Version: 6.00 Build 0)  -->
<svg version="1.1" id="Capa_1" xmlns="http://www.w3.org/2000/svg" xmlns:xlink="http://www.w3.org/1999/xlink" x="0px" y="0px"
	 viewBox="0 0 53.3 53.3" style="enable-background:new 0 0 53.3 53.3;" xml:space="preserve">
<style type="text/css">
	.st0{fill:#F29104;}
	.st1{fill:#06A099;}
	.st2{fill:#F8B133;}
	.st3{fill:#A3897B;}
	.st4{fill:#2EAC68;}
	.st5{fill:#39A8E0;}
</style>
<g>
	<g>
		<circle class="st3" cx="26.6" cy="26.6" r="26.6"/>
	</g>
	<g>
		<g>
			<path d="M26.8,18.9c4.8,0,7.7-0.2,8.1,5h5.8c0-8.2-7.1-9.3-14.1-9.3c-7,0-14.1,1.1-14.1,9.3h5.8C18.7,18.5,22.1,18.8,26.8,18.9z"
				/>
			<path d="M15.4,26.5c1.4,0,2.6,0.1,2.8-1.3c0-0.2,0.1-0.4,0.1-0.7h-0.1h-5.7C12.5,26.6,13.8,26.5,15.4,26.5z"/>
			<path d="M35,24.6L35,24.6c-0.1,0.2,0,0.5,0,0.7c0.3,1.3,1.4,1.2,2.9,1.2c1.6,0,2.9,0.1,2.9-1.9C40.7,24.6,35,24.6,35,24.6z"/>
			<path d="M32.1,23.1v-0.8c0-0.4-0.4-0.4-0.9-0.4h-0.9c-0.5,0-0.9,0-0.9,0.4V23v0.5h-6V23v-0.7c0-0.4-0.4-0.4-0.9-0.4h-0.9
				c-0.5,0-0.9,0-0.9,0.4v0.8v0.7c-1.4,1.4-5.9,7.5-6,8.3l0,4.9c0,0.5,0.4,0.8,0.8,0.8h22c0.5,0,0.8-0.4,0.8-0.8v-4.9
				c-0.2-0.7-4.7-6.8-6-8.2V23.1z M23,32.8c-0.4,0-0.8-0.4-0.8-0.8c0-0.4,0.4-0.8,0.8-0.8s0.8,0.4,0.8,0.8
				C23.8,32.4,23.5,32.8,23,32.8z M23,30c-0.4,0-0.8-0.4-0.8-0.8s0.4-0.8,0.8-0.8s0.8,0.4,0.8,0.8S23.5,30,23,30z M23,27.3
				c-0.4,0-0.8-0.4-0.8-0.8c0-0.4,0.4-0.8,0.8-0.8s0.8,0.4,0.8,0.8C23.8,26.9,23.5,27.3,23,27.3z M26.3,32.8c-0.4,0-0.8-0.4-0.8-0.8
				c0-0.4,0.4-0.8,0.8-0.8c0.4,0,0.8,0.4,0.8,0.8C27.1,32.4,26.8,32.8,26.3,32.8z M26.3,30c-0.4,0-0.8-0.4-0.8-0.8s0.4-0.8,0.8-0.8
				c0.4,0,0.8,0.4,0.8,0.8S26.8,30,26.3,30z M26.3,27.3c-0.4,0-0.8-0.4-0.8-0.8c0-0.4,0.4-0.8,0.8-0.8c0.4,0,0.8,0.4,0.8,0.8
				C27.1,26.9,26.8,27.3,26.3,27.3z M29.6,32.8c-0.4,0-0.8-0.4-0.8-0.8c0-0.4,0.4-0.8,0.8-0.8s0.8,0.4,0.8,0.8
				C30.4,32.4,30.1,32.8,29.6,32.8z M29.6,30c-0.4,0-0.8-0.4-0.8-0.8s0.4-0.8,0.8-0.8s0.8,0.4,0.8,0.8S30.1,30,29.6,30z M29.6,27.3
				c-0.4,0-0.8-0.4-0.8-0.8c0-0.4,0.4-0.8,0.8-0.8s0.8,0.4,0.8,0.8C30.4,26.9,30.1,27.3,29.6,27.3z"/>
		</g>
	</g>
</g>
</svg>
