<?xml version="1.0" encoding="utf-8"?>
<!-- Generator: Adobe Illustrator 23.0.1, SVG Export Plug-In . SVG Version: 6.00 Build 0)  -->
<svg version="1.1" id="Capa_1" xmlns="http://www.w3.org/2000/svg" xmlns:xlink="http://www.w3.org/1999/xlink" x="0px" y="0px"
	 viewBox="0 0 53.3 53.3" style="enable-background:new 0 0 53.3 53.3;" xml:space="preserve">
<style type="text/css">
	.st0{fill:#F29104;}
	.st1{fill:#06A099;}
	.st2{fill:#F8B133;}
	.st3{fill:#A3897B;}
	.st4{fill:#2EAC68;}
	.st5{fill:#39A8E0;}
</style>
<g>
	<g>
		<circle class="st0" cx="26.6" cy="26.6" r="26.6"/>
	</g>
	<g>
		<path d="M23.2,25.6c0.3,3.2,3.4,2.8,3.4,2.8s3.1,0.3,3.4-2.8c0.3-2.8-2-4.4-2.5-7.5c3.5-0.1,4.4-0.6,4.4-0.6l-0.6-7.9
			c0,0-3.5-0.4-4.7-0.4c-1.3,0-4.7,0.4-4.7,0.4l-0.6,7.9c0,0,0.9,0.5,4.4,0.6C25.2,21.3,23,22.8,23.2,25.6z"/>
		<path d="M35.6,28.5H17.7c-0.1,0-0.2,0-0.3,0l-1.8,0.4v0.4h1.1v12.9v1.8h0.8v0c0-1,0.8-1.8,1.8-1.8h14.9c1,0,1.8,0.8,1.8,1.8v0h0.8
			v-1.8V29.3h1.1v-0.4l-1.8-0.4C35.8,28.5,35.7,28.5,35.6,28.5z"/>
	</g>
</g>
</svg>
