<?xml version="1.0" encoding="utf-8"?>
<!-- Generator: Adobe Illustrator 23.0.1, SVG Export Plug-In . SVG Version: 6.00 Build 0)  -->
<svg version="1.1" id="Capa_1" xmlns="http://www.w3.org/2000/svg" xmlns:xlink="http://www.w3.org/1999/xlink" x="0px" y="0px"
	 viewBox="0 0 53.3 53.3" style="enable-background:new 0 0 53.3 53.3;" xml:space="preserve">
<style type="text/css">
	.st0{fill:#F29104;}
	.st1{fill:#06A099;}
	.st2{fill:#F8B133;}
	.st3{fill:#A3897B;}
	.st4{fill:#2EAC68;}
	.st5{fill:#39A8E0;}
</style>
<g>
	<g>
		<circle class="st1" cx="26.6" cy="26.6" r="26.6"/>
	</g>
	<g>
		<g>
			<path d="M27.8,29.5c0,0.4-0.4,0.8-0.8,0.8h-0.8c-0.4,0-0.8-0.4-0.8-0.8v-0.7l-12.5-2.5v8.4c0,1.8,1.4,3.2,3.2,3.2h20.9
				c1.8,0,3.2-1.5,3.2-3.2v-8.4l-12.5,2.5V29.5z"/>
			<path d="M37.1,19.3H32c0,0,0-0.1,0-0.1v-1.6c0-1.2-1-2.2-2.2-2.2h-6.4c-1.2,0-2.2,1-2.2,2.2v1.6c0,0.1,0,0.1,0,0.1h-5.1
				c-2,0-3.6,1.6-3.6,3.6v2.5L25.4,28v-1c0-0.4,0.4-0.8,0.8-0.8H27c0.4,0,0.8,0.4,0.8,0.8v1l12.9-2.6v-2.5
				C40.7,20.9,39.1,19.3,37.1,19.3z M30.8,19.1c0,0.1,0,0.1,0,0.1h-8.4c0,0,0-0.1,0-0.1v-1.6c0-0.6,0.5-1,1-1h6.4c0.6,0,1,0.5,1,1
				L30.8,19.1L30.8,19.1z"/>
		</g>
	</g>
</g>
</svg>
