<?xml version="1.0" encoding="utf-8"?>
<!-- Generator: Adobe Illustrator 23.0.1, SVG Export Plug-In . SVG Version: 6.00 Build 0)  -->
<svg version="1.1" id="Capa_1" xmlns="http://www.w3.org/2000/svg" xmlns:xlink="http://www.w3.org/1999/xlink" x="0px" y="0px"
	 viewBox="0 0 53.3 53.3" style="enable-background:new 0 0 53.3 53.3;" xml:space="preserve">
<style type="text/css">
	.st0{fill:#F29104;}
	.st1{fill:#06A099;}
	.st2{fill:#F8B133;}
	.st3{fill:#A3897B;}
	.st4{fill:#2EAC68;}
	.st5{fill:#39A8E0;}
</style>
<g>
	<g>
		<circle class="st2" cx="26.6" cy="26.6" r="26.6"/>
	</g>
	<path d="M45.9,33.5c-0.3-9.3-7.2-17-16.2-18.5h15.5c0.1,0.3,0.3,0.4,0.6,0.4c0.3,0,0.6-0.3,0.6-0.6c0-0.3-0.3-0.6-0.6-0.6
		c-0.3,0-0.5,0.2-0.6,0.4H27.6c-0.1-0.4-0.5-0.8-0.9-0.8s-0.9,0.3-0.9,0.8H8.1c-0.1-0.3-0.3-0.4-0.6-0.4c-0.3,0-0.6,0.3-0.6,0.6
		c0,0.3,0.3,0.6,0.6,0.6c0.3,0,0.5-0.2,0.6-0.4h15.5c-9,1.4-16,9.1-16.2,18.5c-0.3,0.1-0.4,0.3-0.4,0.6c0,0.3,0.3,0.6,0.6,0.6
		s0.6-0.3,0.6-0.6c0-0.3-0.2-0.5-0.4-0.6c0.3-9.9,8.2-17.9,18-18.3c0,0,0,0,0,0c-1.1,6.1-4.2,9.6-4.2,10.5c0,0.7,1.1,4.3,1.4,5.6H23
		v2.2h0.5v5.8h6.3v-5.8h0.5v-2.2h-0.1c0.4-1.2,1.4-4.8,1.4-5.6c0-0.9-3.1-4.4-4.2-10.5c0,0,0,0,0,0c9.8,0.5,17.7,8.5,18,18.3
		c-0.2,0.1-0.4,0.3-0.4,0.6c0,0.3,0.3,0.6,0.6,0.6c0.3,0,0.6-0.3,0.6-0.6C46.4,33.8,46.2,33.6,45.9,33.5z M28,26.4
		c0,0.7-0.6,1.3-1.3,1.3c-0.7,0-1.3-0.6-1.3-1.3c0-0.7,0.5-1.2,1.1-1.3v-9.2c0.1,0,0.1,0,0.2,0c0.1,0,0.1,0,0.2,0v9.2
		C27.5,25.2,28,25.7,28,26.4z"/>
</g>
</svg>
