<?xml version="1.0" encoding="utf-8"?>
<!-- Generator: Adobe Illustrator 23.0.1, SVG Export Plug-In . SVG Version: 6.00 Build 0)  -->
<svg version="1.1" id="Capa_1" xmlns="http://www.w3.org/2000/svg" xmlns:xlink="http://www.w3.org/1999/xlink" x="0px" y="0px"
	 viewBox="0 0 53.3 53.3" style="enable-background:new 0 0 53.3 53.3;" xml:space="preserve">
<style type="text/css">
	.st0{fill:#FFFFFF;}
	.st1{fill:#00A099;}
	.st2{fill:#35A8E0;}
</style>
<path class="st0" d="M27.9,320.3c0.6,0.3,1.2,0.6,1.8,0.9l0.5-0.9c-0.6-0.3-1.2-0.6-1.8-0.9L27.9,320.3z"/>
<path class="st0" d="M24.4,318.3c0.6,0.3,1.2,0.7,1.7,1l0.5-0.9c-0.6-0.3-1.2-0.7-1.7-1L24.4,318.3z"/>
<g>
	<circle class="st1" cx="34.6" cy="323" r="26.6"/>
</g>
<g>
	<circle class="st2" cx="26.6" cy="26.6" r="26.6"/>
	<g>
		<g>
			<polygon class="st2" points="23.6,44.1 9.1,36.9 7.9,17.3 8.9,17.6 10,35.8 23.5,42.3 			"/>
			<path d="M23.6,44.2C23.5,44.2,23.5,44.2,23.6,44.2L9.1,37c0,0,0,0,0-0.1L7.8,17.3c0,0,0,0,0-0.1c0,0,0,0,0.1,0L9,17.5
				c0,0,0,0,0,0.1l1.1,18.1l13.5,6.5c0,0,0,0,0,0.1L23.6,44.2C23.6,44.2,23.6,44.2,23.6,44.2C23.6,44.2,23.6,44.2,23.6,44.2z
				 M9.1,36.9L23.5,44l0-1.7L10,35.8c0,0,0,0,0-0.1L8.9,17.7L8,17.4L9.1,36.9z"/>
		</g>
		<g>
			<polygon class="st2" points="44.7,34.3 23.6,44.1 23.5,42.3 43.9,33.1 44.8,15.9 45.7,15.6 			"/>
			<path d="M23.6,44.2C23.5,44.2,23.5,44.2,23.6,44.2C23.5,44.2,23.5,44.2,23.6,44.2l-0.1-1.9c0,0,0-0.1,0-0.1l20.3-9.2l0.9-17.2
				c0,0,0-0.1,0-0.1l0.9-0.3c0,0,0,0,0.1,0s0,0,0,0.1l-1.1,18.7c0,0,0,0,0,0.1L23.6,44.2C23.6,44.2,23.6,44.2,23.6,44.2z M23.6,42.4
				l0,1.7l21-9.8l1.1-18.5l-0.8,0.2L44,33.1c0,0,0,0,0,0.1L23.6,42.4z M44.7,34.3L44.7,34.3L44.7,34.3z"/>
		</g>
		<g>
			<polygon class="st2" points="8.9,17.6 7.9,17.3 30.3,12.4 45.7,15.6 44.8,15.9 30.5,12.9 			"/>
			<path d="M8.9,17.7C8.9,17.7,8.9,17.7,8.9,17.7l-1.1-0.3c0,0,0,0,0-0.1c0,0,0-0.1,0.1-0.1l22.4-4.8c0,0,0,0,0,0l15.4,3.2
				c0,0,0.1,0,0.1,0.1c0,0,0,0.1,0,0.1l-0.9,0.3c0,0,0,0,0,0l-14.3-3L8.9,17.7C9,17.7,8.9,17.7,8.9,17.7z M8.1,17.3l0.8,0.2
				l21.5-4.7c0,0,0,0,0,0l14.3,3l0.6-0.2l-15.1-3.1L8.1,17.3z"/>
		</g>
		<g>
			<path d="M8.9,17.6l21.5-4.7l-0.1,15.6L10,35.8L8.9,17.6z M25.2,25.7l-0.1-7.8l-1.1,0.3L16.8,20l0.3,7.6l0,0.7L25.2,25.7z"/>
		</g>
		<g>
			<polygon points="30.5,12.9 44.8,15.9 43.9,33.1 42.2,32.6 42.3,31.9 42.9,19.5 38,18.4 37.1,18.1 36.7,30.7 30.3,28.5 			"/>
			<path class="st2" d="M44,33.2l-1.8-0.6l0-0.7l0.6-12.3l-5.6-1.3l-0.4,12.6l-6.5-2.2l0,0l0.1-15.7l14.5,3l0,0.1L44,33.2z
				 M42.3,32.5l1.5,0.5l0.9-17.1l-14.2-3l-0.1,15.5l6.3,2.1l0.4-12.5l5.9,1.4l0,0.1L42.3,32.5z"/>
		</g>
		<g>
			<polygon points="43.9,33.1 23.5,42.3 10,35.8 30.3,28.5 36.7,30.7 37.6,30.3 42.3,31.9 42.2,32.6 			"/>
			<path class="st2" d="M23.5,42.4L23.5,42.4L9.8,35.8l20.5-7.3l0,0l6.4,2.2l0.9-0.4l0,0l4.7,1.6l0,0.7l1.8,0.6l-0.2,0.1L23.5,42.4z
				 M10.2,35.8l13.4,6.5l20.2-9.1l-1.5-0.5l0-0.7l-4.6-1.5l-0.9,0.4l0,0l-6.4-2.2L10.2,35.8z"/>
		</g>
		<g>
			<polygon class="st2" points="36.7,30.7 37.1,18.1 38,18.4 37.6,30.3 			"/>
			<path d="M36.7,30.8C36.7,30.8,36.7,30.8,36.7,30.8C36.7,30.7,36.7,30.7,36.7,30.8l0.3-12.6c0,0,0,0,0-0.1c0,0,0,0,0.1,0l0.9,0.2
				c0,0,0.1,0,0.1,0.1l-0.4,12c0,0,0,0.1,0,0.1L36.7,30.8C36.8,30.8,36.8,30.8,36.7,30.8z M37.2,18.2l-0.4,12.4l0.8-0.3L38,18.4
				L37.2,18.2z"/>
		</g>
		<g>
			<polygon class="st2" points="25.2,17.9 25.2,25.7 24.2,25.4 24.1,18.2 			"/>
			<path d="M25.2,25.8C25.2,25.8,25.2,25.8,25.2,25.8l-1.1-0.4c0,0,0,0,0-0.1L24,18.2c0,0,0-0.1,0.1-0.1l1.1-0.3c0,0,0,0,0.1,0
				c0,0,0,0,0,0.1L25.2,25.8C25.3,25.8,25.3,25.8,25.2,25.8C25.3,25.8,25.2,25.8,25.2,25.8z M24.2,25.3l0.9,0.3L25.1,18l-0.9,0.2
				L24.2,25.3z"/>
		</g>
		<g>
			<polygon class="st2" points="25.2,25.7 17.1,28.3 17.1,27.6 24.2,25.4 			"/>
			<path d="M17.1,28.4C17.1,28.4,17.1,28.4,17.1,28.4C17,28.4,17,28.3,17.1,28.4L17,27.6c0,0,0-0.1,0-0.1l7.1-2.2c0,0,0,0,0,0
				l1.1,0.3c0,0,0,0,0,0.1c0,0,0,0.1,0,0.1L17.1,28.4C17.1,28.4,17.1,28.4,17.1,28.4z M17.1,27.7l0,0.6l7.8-2.5l-0.8-0.3L17.1,27.7z
				"/>
		</g>
	</g>
</g>
<g>
	<path d="M27.9,320.7c0.1,0.3,0.2,0.6,0.3,1c0.1,0.4,0.1,0.7,0.1,1.1c0,0.5-0.1,1-0.2,1.4c-0.1,0.4-0.3,0.8-0.5,1.2
		c-0.2,0.4-0.5,0.7-0.8,1.1c-0.3,0.3-0.7,0.7-1.1,1c-0.4,0.4-0.8,0.7-1.1,1c-0.3,0.3-0.6,0.6-0.8,0.9c-0.2,0.3-0.4,0.6-0.5,1
		s-0.2,0.7-0.2,1.1c0,0.4,0.1,0.7,0.2,1c0.1,0.3,0.3,0.6,0.5,0.8c0.2,0.2,0.5,0.4,0.9,0.5c0.3,0.1,0.7,0.2,1.1,0.2
		c0.9,0,1.8-0.2,2.8-0.6c1-0.4,1.9-0.9,2.7-1.7v5.1c-0.9,0.5-1.8,0.9-2.9,1.2c-1,0.3-2.1,0.4-3.2,0.4c-1.1,0-2-0.1-3-0.3
		c-0.9-0.2-1.7-0.6-2.4-1.1c-0.7-0.5-1.2-1.1-1.6-1.9c-0.4-0.8-0.6-1.7-0.6-2.8c0-0.7,0.1-1.3,0.2-1.9c0.2-0.6,0.4-1.1,0.7-1.6
		c0.3-0.5,0.7-1,1.1-1.4c0.5-0.5,1-0.9,1.6-1.4c0.4-0.3,0.7-0.6,1.1-0.9c0.3-0.3,0.6-0.6,0.8-0.8c0.2-0.3,0.4-0.6,0.5-0.9
		c0.1-0.3,0.2-0.7,0.2-1.1c0-0.3,0-0.6-0.1-0.8c-0.1-0.3-0.2-0.5-0.3-0.7H27.9z M25.5,313.3c0.9,0,1.7,0.3,2.3,0.8
		c0.6,0.6,0.9,1.2,0.9,2c0,0.8-0.3,1.5-0.9,2c-0.6,0.5-1.4,0.8-2.3,0.8c-0.9,0-1.6-0.3-2.2-0.8c-0.6-0.5-0.9-1.2-0.9-2
		c0-0.8,0.3-1.5,0.9-2C23.8,313.5,24.5,313.3,25.5,313.3z"/>
	<path d="M40.1,324.4c-0.1-0.3-0.2-0.6-0.3-1c-0.1-0.4-0.1-0.7-0.1-1.1c0-0.5,0.1-1,0.2-1.4c0.1-0.4,0.3-0.8,0.5-1.2
		c0.2-0.4,0.5-0.7,0.8-1.1c0.3-0.3,0.7-0.7,1.1-1c0.4-0.4,0.8-0.7,1.1-1c0.3-0.3,0.6-0.6,0.8-0.9c0.2-0.3,0.4-0.6,0.5-1
		c0.1-0.3,0.2-0.7,0.2-1.1c0-0.4-0.1-0.7-0.2-1c-0.1-0.3-0.3-0.6-0.5-0.8c-0.2-0.2-0.5-0.4-0.9-0.5c-0.3-0.1-0.7-0.2-1.1-0.2
		c-0.9,0-1.8,0.2-2.8,0.6c-1,0.4-1.9,0.9-2.7,1.7v-5.1c0.9-0.5,1.8-0.9,2.9-1.2c1-0.3,2.1-0.4,3.2-0.4c1.1,0,2,0.1,3,0.3
		c0.9,0.2,1.7,0.6,2.4,1.1c0.7,0.5,1.2,1.1,1.6,1.9c0.4,0.8,0.6,1.7,0.6,2.8c0,0.7-0.1,1.3-0.2,1.9c-0.2,0.6-0.4,1.1-0.7,1.6
		c-0.3,0.5-0.7,1-1.1,1.4c-0.5,0.5-1,0.9-1.6,1.4c-0.4,0.3-0.7,0.6-1,0.9c-0.3,0.3-0.6,0.6-0.8,0.8c-0.2,0.3-0.3,0.6-0.5,0.9
		c-0.1,0.3-0.2,0.7-0.2,1.1c0,0.3,0,0.6,0.1,0.8c0.1,0.3,0.2,0.5,0.3,0.7H40.1z M42.6,331.9c-0.9,0-1.7-0.3-2.3-0.8
		c-0.6-0.6-0.9-1.2-0.9-2c0-0.8,0.3-1.5,0.9-2c0.6-0.5,1.4-0.8,2.3-0.8c0.9,0,1.6,0.3,2.2,0.8c0.6,0.5,0.9,1.2,0.9,2
		c0,0.8-0.3,1.5-0.9,2C44.3,331.6,43.5,331.9,42.6,331.9z"/>
</g>
<g>
	<g>
		<circle class="st0" cx="145.8" cy="143.6" r="15"/>
	</g>
	<path d="M153.5,141.6l-6.7-7.4c-0.5-0.5-1.4-0.5-1.9,0l-6.7,7.4c-0.7,0.7-0.1,1.8,0.9,1.8h0.6c-0.1,0.3-0.2,0.6-0.2,0.9v4.9
		c0,1.3,1.1,2.4,2.4,2.4h2.3c0-0.1,0-0.1,0-0.2v-5.4c0-0.5,0.4-0.9,0.9-0.9h2c0.5,0,0.9,0.4,0.9,0.9v5.4c0,0.1,0,0.1,0,0.2h1.5
		c1.3,0,2.4-1.1,2.4-2.4v-4.9c0-0.3-0.1-0.6-0.2-0.9h0.6C153.6,143.5,154.2,142.4,153.5,141.6z"/>
</g>
</svg>
