<svg xmlns="http://www.w3.org/2000/svg" viewBox="0 0 53.25 53.25"><defs><style>.cls-1{fill:#2dab66;}.cls-2{opacity:0.75;}</style></defs><title>industrialicon</title><g id="Capa_2" data-name="Capa 2"><g id="Capa_1-2" data-name="Capa 1"><circle class="cls-1" cx="26.63" cy="26.63" r="26.63"/><g class="cls-2"><path d="M25.76,12.36l-2.2.8.16.57L26,13A1.79,1.79,0,0,1,25.76,12.36Z"/><path d="M29.58,13a2.17,2.17,0,0,1-.36.44l9.36,6.29a2.23,2.23,0,0,1,.2-.33Z"/><path d="M39.53,22.47,32.12,41.21h.82l7.17-18.54A1.67,1.67,0,0,1,39.53,22.47Z"/><path d="M42.62,20.59a2.12,2.12,0,0,0-2.12-2.12,2.27,2.27,0,0,0-.59.08l-10-7a2.12,2.12,0,0,0-4-.66l-2.68,1L23,11.37l-3.81,1.11a5,5,0,0,0-9.14,2.88v2.75s.7,1.24,5,1.24,5-1.24,5-1.24V15.63l.32-.1,1,4a.6.6,0,0,0-.32.53.62.62,0,0,0,.62.62.62.62,0,0,0,.62-.62.61.61,0,0,0-.56-.61l-1-4L24,14.51l-.09-.31,2.5-.84a2.1,2.1,0,0,0,1.44.57,2.16,2.16,0,0,0,1-.24l9.63,6.47a2,2,0,0,0,0,.43,2.13,2.13,0,0,0,.73,1.61l-7.52,19H29.92v-.82H28.18v.82H26.8v2.51H38.23V41.21h-3.9l7.28-18.82A2.12,2.12,0,0,0,42.62,20.59ZM23.56,13.16l2.2-.8A1.79,1.79,0,0,0,26,13l-2.3.77Zm5.66.23a2.17,2.17,0,0,0,.36-.44l9.2,6.4a2.23,2.23,0,0,0-.2.33Zm2.9,27.82,7.41-18.74a1.67,1.67,0,0,0,.58.2L32.94,41.21Z"/></g></g></g></svg>