<?xml version="1.0" encoding="utf-8"?>
<!-- Generator: Adobe Illustrator 23.0.1, SVG Export Plug-In . SVG Version: 6.00 Build 0)  -->
<svg version="1.1" id="Capa_1" xmlns="http://www.w3.org/2000/svg" xmlns:xlink="http://www.w3.org/1999/xlink" x="0px" y="0px"
	 viewBox="0 0 343 667" style="enable-background:new 0 0 343 667;" xml:space="preserve">
<style type="text/css">
	.st0{fill:#FFFFFF;}
	.st1{fill:#A3897A;}
	.st2{fill:#F29100;}
	.st3{fill:#F8B133;}
	.st4{fill:#2DAB66;}
	.st5{fill:#00A099;}
	.st6{fill:#35A8E0;}
	.st7{opacity:0.75;}
	.st8{opacity:0.7;}
</style>
<g>
	<g>
		<path class="st0" d="M72.7,381.3c1,0,1.9-0.4,2.7-1.5l0.1,0.2c-0.8,1.2-1.8,1.7-2.9,1.7c-1.9,0-3.2-1.6-3.2-3.9
			c0-2.6,1.5-4.2,3.5-4.2c0.9,0,1.9,0.5,2.6,1.6l-0.1,0.2c-0.8-0.9-1.5-1.4-2.5-1.4c-1.6,0-2.9,1.2-2.9,3.8
			C69.9,380.1,71.1,381.3,72.7,381.3z M77.5,381.2v0.3l-2.2,0.1l0-1.5v-4.9v-0.1v-5.3h-1.5v-0.3l1.7-0.2l0.2,0.1l0,2.2v9.8l-0.2-0.4
			L77.5,381.2z"/>
		<path class="st0" d="M105.8,376.6c0,0.4,0,0.7-0.1,0.9l-6,0v-0.3l5.3,0c0.2,0,0.3-0.2,0.3-0.6c0-1.4-0.8-2.6-2.4-2.6
			c-1.7,0-3,1.7-3,3.5c0,2.7,1.5,3.8,3.1,3.8c1,0,1.9-0.4,2.6-1l0.2,0.2c-0.7,0.8-1.7,1.3-2.7,1.3c-1.8,0-3.6-1.2-3.6-4.1
			c0-2.5,1.7-4,3.5-4C104.8,373.6,105.8,375,105.8,376.6z"/>
		<path class="st0" d="M128.1,381.2l0-1.6h0.4l0.2,1.7l-0.3-0.1v-0.3c0.6,0.3,1.1,0.5,2.2,0.5c1.5,0,2.3-0.7,2.3-1.7
			c0-0.8-0.4-1.2-1.8-1.7l-0.8-0.3c-1.2-0.4-1.9-1-1.9-2.1c0-1.2,0.9-2,2.5-2c0.9,0,1.4,0.2,2.2,0.7l0,1.5h-0.4l-0.1-1.6l0.3,0.2
			v0.2c-0.7-0.5-1.3-0.6-1.9-0.6c-1.4,0-2,0.7-2,1.6c0,0.8,0.6,1.3,1.6,1.7l0.8,0.3c1.5,0.5,2,1.1,2,2.1c0,1.1-0.9,2.1-2.8,2.1
			C129.6,381.7,128.9,381.5,128.1,381.2z"/>
		<path class="st0" d="M157,381.5c0-0.7,0-2.4,0-3.4v-0.8c0-1,0-2,0-3h-1.5v-0.3l1.9-0.2l0.2,0.1l0,1.9v2.4c0,1,0,2.7,0,3.4H157z
			 M158.9,381.2v0.3h-3.3v-0.3l1.6-0.1h0.1L158.9,381.2z M156.6,370.5c0-0.3,0.2-0.5,0.5-0.5c0.3,0,0.5,0.2,0.5,0.5
			c0,0.3-0.2,0.5-0.5,0.5C156.9,371,156.6,370.8,156.6,370.5z"/>
		<path class="st0" d="M187.6,383c0-0.8-0.4-1.4-1.7-1.4h-2c-0.4,0-0.8,0-1.2-0.1v-0.1c-0.6-0.1-1-0.5-1-1.1c0-0.8,0.5-1.3,1.3-1.9
			l0.2,0.2c-0.6,0.7-1,1.1-1,1.6c0,0.5,0.4,0.8,1.5,0.8h2.3c1.3,0,2.1,0.6,2.1,1.8c0,1.3-1.2,2.5-3.6,2.5c-2.1,0-3.3-0.9-3.3-2.2
			c0-1,0.8-1.7,1.7-2.1l0.1,0.2c-0.9,0.5-1.4,1-1.4,1.8c0,1.2,1,1.9,2.9,1.9C186.5,385.1,187.6,384.2,187.6,383z M184.2,373.6
			c1.6,0,2.7,1.1,2.7,2.7c0,1.6-1.1,2.7-2.7,2.7c-1.6,0-2.7-1.1-2.7-2.7C181.5,374.7,182.6,373.6,184.2,373.6z M182,376.3
			c0,1.4,0.9,2.4,2.2,2.4c1.3,0,2.2-1,2.2-2.4c0-1.4-0.9-2.4-2.2-2.4C182.9,374,182,374.9,182,376.3z M187.8,373.7l0.2,0.2v0.5h-2.3
			v-0.2L187.8,373.7z"/>
		<path class="st0" d="M211.4,381.5c0-0.7,0-2.4,0-3.4v-0.8c0-1.1,0-2.2,0-3h-1.5v-0.3l1.8-0.2l0.2,0.1l0,1.8v2.5c0,1,0,2.7,0,3.4
			H211.4z M213.3,381.2v0.3H210v-0.3l1.6-0.1h0.1L213.3,381.2z M217.2,376.4v1.7c0,1,0,2.7,0,3.4h-0.6c0-0.7,0-2.4,0-3.4v-1.7
			c0-1.7-0.7-2.3-1.6-2.3c-0.7,0-1.9,0.3-3.3,1.9h-0.2v-0.3h0.3l-0.2,0.1c1.3-1.6,2.5-2.1,3.5-2.1
			C216.4,373.6,217.2,374.3,217.2,376.4z M217,381.1l1.5,0.1v0.3h-3.3v-0.3l1.6-0.1H217z"/>
	</g>
	<g>
		<path class="st0" d="M88.3,333.8c2.7-3.5,4-8.4,1.8-13.4c-2.2-5.2-7.5-8.4-13.1-8.4H52.7c-3.9,0-7.1,3.2-7.1,7.1v31.5
			c0,3.9,3.2,7.1,7.1,7.1h27.4c7.2,0,13.4-6.1,13.4-13.4C93.5,340.1,91.4,336.3,88.3,333.8z M61.5,322l10.3,0c2.1,0,3.9,1.5,4.1,3.6
			c0.2,2.4-1.6,4.3-3.9,4.3l-10.5,0c-2.2,0-4-1.8-4-4C57.6,323.7,59.3,322,61.5,322z M78.1,344.7c-0.4,1.9-2.1,3.1-4,3.1l-12.6,0
			c-2.2,0-4-1.8-4-4v0c0-2.2,1.8-4,4-4l12.7,0C76.6,339.9,78.7,342.1,78.1,344.7z"/>
		<path class="st0" d="M143,337.8l-4.8,8.4l2.1-9.6l-7.7-3.4c0,0.1,0,0.2,0.1,0.2c1.6,7.8-4.9,14.8-12.7,13.9
			c-5.2-0.6-9.3-4.8-10-9.9c-0.6-5,1.9-9.5,5.8-11.7l-12.7-5.7c-4.1,4.7-6.4,11.1-5.8,17.9c1,11.7,10.5,21.2,22.2,22
			c13.3,1,24.5-8.6,26-21.3c0-0.1,0-0.1,0-0.2L143,337.8z"/>
		<path class="st0" d="M119.2,321c2.9,0.5,5.4,2.2,7.1,4.5l12.5,4.3l-10.2-7.2l12.3,5.5c-2-10.6-11-19-21.9-19.8
			c-7.9-0.6-15,2.6-19.8,7.9l14.8,5.1C115.5,320.8,117.3,320.7,119.2,321z"/>
		<path class="st0" d="M167.2,321c4.5,0.9,8.2,4.4,9.1,9c1,4.8-1.1,9.3-4.6,11.8l12.4,5.5c3.6-4.6,5.6-10.5,5.1-16.9
			c-1-11.8-10.5-21.3-22.2-22.2c-12.8-1-23.6,8-25.7,20l12.4,5.5C152.7,326,159.5,319.5,167.2,321z"/>
		<path class="st0" d="M168.1,347.3c-3-0.4-5.6-1.9-7.5-4.1l-15.1-4.7c0,0.1,0,0.1,0,0.2c1.3,11.4,10.6,20.4,22.1,21.3
			c8.1,0.6,15.5-2.8,20.3-8.4l-15.2-4.7C171.3,347.4,169.7,347.5,168.1,347.3z"/>
		<path class="st0" d="M238.4,312c-1,0-1.9,0.4-2.6,1l-7.2,6.6c-5.8,5.3-14.7,5.3-20.5,0l-7.2-6.6c-0.7-0.7-1.7-1-2.6-1
			c-2.2,0-3.9,1.7-3.9,3.9v35.7c0,3.3,2.7,6,6,6h0c3.3,0,6-2.7,6-6v-17.3l0,0c6.8,6.1,17.1,6.1,23.9-0.1v0v0v17.4c0,3.3,2.7,6,6,6
			c3.3,0,6-2.7,6-6V316C242.3,313.8,240.6,312,238.4,312z"/>
	</g>
</g>
</svg>
