<svg xmlns="http://www.w3.org/2000/svg" viewBox="0 0 83.63 83.65"><defs><style>.cls-1{fill:#a3195b;}.cls-2{fill:#fff;}</style></defs><title>mailicon</title><g id="Capa_2" data-name="Capa 2"><g id="Capa_1-2" data-name="Capa 1"><path class="cls-1" d="M83.63,41.82A41.82,41.82,0,1,1,41.82,0,41.84,41.84,0,0,1,83.63,41.82Z"/><path class="cls-2" d="M41.81,48.21,69.4,24.6a3,3,0,0,0-1.59-.51h-52a3,3,0,0,0-1.59.51Z"/><path class="cls-2" d="M43.69,50.37a2.85,2.85,0,0,1-3.75,0l-27-23v30a2.9,2.9,0,0,0,2.89,2.88h52a2.9,2.9,0,0,0,2.89-2.88v-30Z"/></g></g></svg>