<?xml version="1.0" encoding="utf-8"?>
<!-- Generator: Adobe Illustrator 23.0.1, SVG Export Plug-In . SVG Version: 6.00 Build 0)  -->
<svg version="1.1" id="Capa_1" xmlns="http://www.w3.org/2000/svg" xmlns:xlink="http://www.w3.org/1999/xlink" x="0px" y="0px"
	 viewBox="0 0 294 294" style="enable-background:new 0 0 294 294;" xml:space="preserve">
<style type="text/css">
	.st0{opacity:0.8;}
	.st1{fill:#FFFFFF;}
	.st2{opacity:0.7;}
</style>
<g>
	<circle class="st0" cx="147" cy="147" r="147"/>
	<g>
		<path class="st1" d="M71.5,219.3c0.5,0.5,0.9,1,1.4,1.4l0.7-0.7c-0.5-0.5-0.9-0.9-1.4-1.4L71.5,219.3z"/>
		<path class="st1" d="M59,203.7c0.4,0.6,0.7,1.1,1.1,1.7l0.8-0.6c-0.4-0.5-0.7-1.1-1.1-1.7L59,203.7z"/>
		<path class="st1" d="M61.3,207c0.4,0.5,0.8,1.1,1.2,1.6l0.8-0.6c-0.4-0.5-0.8-1.1-1.2-1.6L61.3,207z"/>
		<path class="st1" d="M54.9,196.8c0.3,0.6,0.6,1.2,1,1.7l0.9-0.5c-0.3-0.6-0.7-1.2-1-1.7L54.9,196.8z"/>
		<path class="st1" d="M53,193.3c0.3,0.6,0.6,1.2,0.9,1.8l0.9-0.5c-0.3-0.6-0.6-1.2-0.9-1.8L53,193.3z"/>
		<path class="st1" d="M43.1,150.7l-1,0c0,0.7,0.1,1.3,0.1,2l1-0.1C43.2,152.1,43.2,151.4,43.1,150.7z"/>
		<path class="st1" d="M68.8,216.4c0.4,0.5,0.9,1,1.4,1.5l0.7-0.7c-0.5-0.5-0.9-1-1.3-1.5L68.8,216.4z"/>
		<path class="st1" d="M71.5,74c-0.5,0.5-0.9,1-1.4,1.5l0.7,0.7c0.5-0.5,0.9-1,1.4-1.4L71.5,74z"/>
		<path class="st1" d="M52.2,189.2l-0.9,0.4c0.3,0.6,0.6,1.2,0.8,1.8L53,191C52.8,190.4,52.5,189.8,52.2,189.2z"/>
		<path class="st1" d="M63.6,210.2c0.4,0.5,0.8,1.1,1.2,1.6l0.8-0.6c-0.4-0.5-0.8-1-1.2-1.6L63.6,210.2z"/>
		<path class="st1" d="M56.9,200.3c0.3,0.6,0.7,1.1,1,1.7l0.8-0.5c-0.4-0.6-0.7-1.1-1-1.7L56.9,200.3z"/>
		<path class="st1" d="M44.3,162.6l-1,0.2c0.1,0.7,0.2,1.3,0.3,2l1-0.2C44.5,163.9,44.4,163.3,44.3,162.6z"/>
		<path class="st1" d="M45,166.5l-1,0.2c0.1,0.7,0.3,1.3,0.4,2l1-0.2C45.2,167.8,45.1,167.2,45,166.5z"/>
		<path class="st1" d="M43.7,158.7l-1,0.1c0.1,0.7,0.2,1.3,0.3,2l1-0.1C43.9,160,43.8,159.3,43.7,158.7z"/>
		<path class="st1" d="M43.4,154.7l-1,0.1c0.1,0.7,0.1,1.3,0.2,2l1-0.1C43.5,156,43.4,155.4,43.4,154.7z"/>
		<path class="st1" d="M47.9,178.1l-1,0.3c0.2,0.6,0.4,1.3,0.6,1.9l0.9-0.3C48.3,179.4,48.1,178.7,47.9,178.1z"/>
		<path class="st1" d="M49.2,181.9l-0.9,0.3c0.2,0.6,0.5,1.3,0.7,1.9l0.9-0.4C49.7,183.1,49.4,182.5,49.2,181.9z"/>
		<path class="st1" d="M50.6,185.6l-0.9,0.4c0.3,0.6,0.5,1.2,0.8,1.8l0.9-0.4C51.1,186.8,50.9,186.2,50.6,185.6z"/>
		<path class="st1" d="M45.8,170.4l-1,0.2c0.2,0.7,0.3,1.3,0.5,2l1-0.2C46.1,171.7,45.9,171.1,45.8,170.4z"/>
		<path class="st1" d="M46.8,174.3l-1,0.3c0.2,0.6,0.4,1.3,0.6,1.9l1-0.3C47.1,175.6,47,174.9,46.8,174.3z"/>
		<path class="st1" d="M66.2,213.4c0.4,0.5,0.9,1,1.3,1.5l0.8-0.7c-0.4-0.5-0.9-1-1.3-1.5L66.2,213.4z"/>
		<path class="st1" d="M100.7,240.5c0.6,0.3,1.2,0.6,1.8,0.9l0.4-0.9c-0.6-0.3-1.2-0.6-1.8-0.9L100.7,240.5z"/>
		<path class="st1" d="M111.9,245.2c0.6,0.2,1.3,0.4,1.9,0.6l0.3-1c-0.6-0.2-1.3-0.4-1.9-0.6L111.9,245.2z"/>
		<path class="st1" d="M108.1,243.7c0.6,0.2,1.3,0.5,1.9,0.7l0.3-0.9c-0.6-0.2-1.2-0.5-1.9-0.7L108.1,243.7z"/>
		<path class="st1" d="M104.4,242.2c0.6,0.3,1.2,0.5,1.9,0.8l0.4-0.9c-0.6-0.3-1.2-0.5-1.8-0.8L104.4,242.2z"/>
		<path class="st1" d="M115.7,246.4c0.6,0.2,1.3,0.4,1.9,0.6l0.3-1c-0.6-0.2-1.3-0.4-1.9-0.6L115.7,246.4z"/>
		<path class="st1" d="M171.1,45.3c-0.7-0.2-1.3-0.3-2-0.5l-0.2,1c0.6,0.1,1.3,0.3,1.9,0.5L171.1,45.3z"/>
		<path class="st1" d="M119.6,247.5c0.6,0.2,1.3,0.3,1.9,0.5l0.2-1c-0.6-0.2-1.3-0.3-1.9-0.5L119.6,247.5z"/>
		<path class="st1" d="M74.4,71.2c-0.5,0.5-1,0.9-1.4,1.4l0.7,0.7c0.5-0.5,0.9-0.9,1.4-1.4L74.4,71.2z"/>
		<path class="st1" d="M167.2,44.4c-0.7-0.1-1.3-0.3-2-0.4l-0.2,1c0.7,0.1,1.3,0.2,2,0.4L167.2,44.4z"/>
		<path class="st1" d="M123.5,248.5c0.7,0.1,1.3,0.3,2,0.4l0.2-1c-0.7-0.1-1.3-0.3-1.9-0.4L123.5,248.5z"/>
		<path class="st1" d="M77.4,68.4c-0.5,0.4-1,0.9-1.5,1.3l0.7,0.7c0.5-0.4,1-0.9,1.5-1.3L77.4,68.4z"/>
		<path class="st1" d="M77.4,224.9c0.5,0.4,1,0.9,1.5,1.3l0.6-0.8c-0.5-0.4-1-0.9-1.5-1.3L77.4,224.9z"/>
		<path class="st1" d="M80.4,227.5c0.5,0.4,1,0.8,1.6,1.3l0.6-0.8c-0.5-0.4-1-0.8-1.6-1.2L80.4,227.5z"/>
		<path class="st1" d="M74.4,222.2c0.5,0.5,1,0.9,1.5,1.4l0.7-0.7c-0.5-0.4-1-0.9-1.5-1.4L74.4,222.2z"/>
		<path class="st1" d="M127.4,249.3c0.7,0.1,1.3,0.2,2,0.3l0.2-1c-0.7-0.1-1.3-0.2-2-0.3L127.4,249.3z"/>
		<path class="st1" d="M97.1,238.7c0.6,0.3,1.2,0.6,1.8,0.9l0.5-0.9c-0.6-0.3-1.2-0.6-1.8-0.9L97.1,238.7z"/>
		<path class="st1" d="M93.6,236.7c0.6,0.3,1.2,0.7,1.7,1l0.5-0.9c-0.6-0.3-1.2-0.7-1.7-1L93.6,236.7z"/>
		<path class="st1" d="M86.8,232.3c0.6,0.4,1.1,0.8,1.7,1.1l0.6-0.8c-0.6-0.4-1.1-0.7-1.6-1.1L86.8,232.3z"/>
		<path class="st1" d="M83.6,230c0.5,0.4,1.1,0.8,1.6,1.2l0.6-0.8c-0.5-0.4-1.1-0.8-1.6-1.2L83.6,230z"/>
		<path class="st1" d="M90.2,234.6c0.6,0.4,1.1,0.7,1.7,1.1l0.5-0.9c-0.6-0.3-1.1-0.7-1.7-1.1L90.2,234.6z"/>
		<path class="st1" d="M104.7,52.1l-0.4-0.9c-0.6,0.3-1.2,0.5-1.8,0.8l0.4,0.9C103.5,52.6,104.1,52.4,104.7,52.1z"/>
		<path class="st1" d="M101.1,53.8l-0.4-0.9c-0.6,0.3-1.2,0.6-1.8,0.9l0.5,0.9C99.9,54.4,100.5,54.1,101.1,53.8z"/>
		<path class="st1" d="M108.3,50.6l-0.4-0.9c-0.6,0.2-1.2,0.5-1.9,0.8l0.4,0.9C107.1,51.1,107.7,50.8,108.3,50.6z"/>
		<path class="st1" d="M115.8,47.9l-0.3-1c-0.6,0.2-1.3,0.4-1.9,0.6l0.3,0.9C114.6,48.3,115.2,48.1,115.8,47.9z"/>
		<path class="st1" d="M112.1,49.2l-0.3-0.9c-0.6,0.2-1.3,0.5-1.9,0.7l0.4,0.9C110.8,49.6,111.4,49.4,112.1,49.2z"/>
		<path class="st1" d="M97.5,55.6l-0.5-0.9c-0.6,0.3-1.2,0.6-1.8,1l0.5,0.9C96.4,56.2,97,55.9,97.5,55.6z"/>
		<path class="st1" d="M87.4,61.8L86.8,61c-0.5,0.4-1.1,0.8-1.6,1.2l0.6,0.8C86.3,62.6,86.8,62.2,87.4,61.8z"/>
		<path class="st1" d="M43.1,146.8l-1,0c0,0.7,0,1.3,0,2l1,0C43.1,148.1,43.1,147.4,43.1,146.8z"/>
		<path class="st1" d="M94.1,57.5l-0.5-0.9c-0.6,0.3-1.1,0.7-1.7,1l0.5,0.9C92.9,58.2,93.5,57.9,94.1,57.5z"/>
		<path class="st1" d="M84.2,64.2l-0.6-0.8c-0.5,0.4-1.1,0.8-1.6,1.2l0.6,0.8C83.1,65,83.6,64.6,84.2,64.2z"/>
		<path class="st1" d="M119.7,46.8l-0.3-1c-0.6,0.2-1.3,0.4-1.9,0.5l0.3,1C118.4,47.2,119,47,119.7,46.8z"/>
		<path class="st1" d="M139.3,43.6l-0.1-1c-0.7,0-1.3,0.1-2,0.2l0.1,1C138,43.7,138.6,43.6,139.3,43.6z"/>
		<path class="st1" d="M143.3,43.4l0-1c-0.7,0-1.3,0-2,0.1l0,1C141.9,43.4,142.6,43.4,143.3,43.4z"/>
		<path class="st1" d="M131.4,44.4l-0.1-1c-0.7,0.1-1.3,0.2-2,0.3l0.2,1C130.1,44.6,130.7,44.5,131.4,44.4z"/>
		<path class="st1" d="M135.3,43.9l-0.1-1c-0.7,0.1-1.3,0.1-2,0.2l0.1,1C134,44.1,134.7,44,135.3,43.9z"/>
		<path class="st1" d="M123.5,45.9l-0.2-1c-0.7,0.1-1.3,0.3-2,0.5l0.2,1C122.2,46.2,122.9,46,123.5,45.9z"/>
		<path class="st1" d="M127.4,45.1l-0.2-1c-0.7,0.1-1.3,0.3-2,0.4l0.2,1C126.1,45.3,126.8,45.2,127.4,45.1z"/>
		<path class="st1" d="M155.3,42.7c-0.7-0.1-1.3-0.1-2-0.2l-0.1,1c0.7,0,1.3,0.1,2,0.1L155.3,42.7z"/>
		<path class="st1" d="M163.3,43.7c-0.7-0.1-1.3-0.2-2-0.3l-0.1,1c0.7,0.1,1.3,0.2,2,0.3L163.3,43.7z"/>
		<path class="st1" d="M151.3,42.5c-0.7,0-1.3-0.1-2-0.1l0,1c0.7,0,1.3,0,2,0.1L151.3,42.5z"/>
		<path class="st1" d="M90.7,59.6l-0.5-0.8c-0.6,0.4-1.1,0.7-1.7,1.1l0.6,0.8C89.6,60.3,90.1,60,90.7,59.6z"/>
		<path class="st1" d="M44.9,127l-1-0.2c-0.1,0.7-0.2,1.3-0.4,2l1,0.2C44.7,128.3,44.8,127.6,44.9,127z"/>
		<path class="st1" d="M45.8,123.1l-1-0.2c-0.2,0.7-0.3,1.3-0.4,2l1,0.2C45.5,124.4,45.6,123.7,45.8,123.1z"/>
		<path class="st1" d="M46.7,119.2l-1-0.3c-0.2,0.6-0.3,1.3-0.5,1.9l1,0.2C46.4,120.5,46.6,119.8,46.7,119.2z"/>
		<path class="st1" d="M49.2,111.6l-0.9-0.3c-0.2,0.6-0.5,1.3-0.7,1.9l0.9,0.3C48.7,112.9,48.9,112.2,49.2,111.6z"/>
		<path class="st1" d="M47.9,115.4l-1-0.3c-0.2,0.6-0.4,1.3-0.6,1.9l1,0.3C47.5,116.7,47.7,116,47.9,115.4z"/>
		<path class="st1" d="M43.7,134.8l-1-0.1c-0.1,0.7-0.1,1.3-0.2,2l1,0.1C43.6,136.1,43.6,135.5,43.7,134.8z"/>
		<path class="st1" d="M43.3,138.8l-1-0.1c-0.1,0.7-0.1,1.3-0.1,2l1,0.1C43.3,140.1,43.3,139.5,43.3,138.8z"/>
		<path class="st1" d="M43.1,142.8l-1,0c0,0.7,0,1.3-0.1,2l1,0C43.1,144.1,43.1,143.4,43.1,142.8z"/>
		<path class="st1" d="M44.3,130.9l-1-0.2c-0.1,0.7-0.2,1.3-0.3,2l1,0.1C44.1,132.2,44.2,131.5,44.3,130.9z"/>
		<path class="st1" d="M50.6,107.9l-0.9-0.4c-0.3,0.6-0.5,1.2-0.7,1.9l0.9,0.4C50.1,109.1,50.3,108.5,50.6,107.9z"/>
		<path class="st1" d="M69.5,77.6l-0.7-0.7c-0.4,0.5-0.9,1-1.3,1.5l0.8,0.7C68.6,78.6,69.1,78.1,69.5,77.6z"/>
		<path class="st1" d="M66.9,80.6L66.2,80c-0.4,0.5-0.9,1-1.3,1.6l0.8,0.6C66.1,81.6,66.5,81.1,66.9,80.6z"/>
		<path class="st1" d="M64.4,83.7l-0.8-0.6c-0.4,0.5-0.8,1.1-1.2,1.6l0.8,0.6C63.6,84.8,64,84.2,64.4,83.7z"/>
		<path class="st1" d="M62.1,86.9l-0.8-0.6c-0.4,0.5-0.8,1.1-1.1,1.7l0.8,0.6C61.3,88,61.7,87.5,62.1,86.9z"/>
		<path class="st1" d="M81,66.6l-0.6-0.8c-0.5,0.4-1,0.9-1.5,1.3l0.6,0.8C80,67.5,80.5,67,81,66.6z"/>
		<path class="st1" d="M59.8,90.2L59,89.7c-0.4,0.6-0.7,1.1-1.1,1.7l0.8,0.5C59.1,91.3,59.5,90.8,59.8,90.2z"/>
		<path class="st1" d="M55.7,97.1l-0.9-0.5c-0.3,0.6-0.6,1.2-1,1.8l0.9,0.5C55.1,98.2,55.4,97.6,55.7,97.1z"/>
		<path class="st1" d="M52.2,104.2l-0.9-0.4c-0.3,0.6-0.5,1.2-0.8,1.8l0.9,0.4C51.6,105.4,51.9,104.8,52.2,104.2z"/>
		<path class="st1" d="M53.9,100.6l-0.9-0.4c-0.3,0.6-0.6,1.2-0.9,1.8l0.9,0.4C53.3,101.8,53.6,101.2,53.9,100.6z"/>
		<path class="st1" d="M57.7,93.6l-0.9-0.5c-0.3,0.6-0.7,1.2-1,1.7l0.9,0.5C57,94.7,57.4,94.2,57.7,93.6z"/>
		<path class="st1" d="M159.3,43.1c-0.7-0.1-1.3-0.2-2-0.2l-0.1,1c0.7,0.1,1.3,0.1,2,0.2L159.3,43.1z"/>
		<path class="st1" d="M216.2,222.9l0.7,0.7c0.5-0.5,1-0.9,1.5-1.4l-0.7-0.7C217.1,222,216.6,222.4,216.2,222.9z"/>
		<path class="st1" d="M213.2,225.5l0.6,0.8c0.5-0.4,1-0.9,1.5-1.3l-0.7-0.8C214.2,224.6,213.7,225.1,213.2,225.5z"/>
		<path class="st1" d="M210.1,228l0.6,0.8c0.5-0.4,1-0.8,1.6-1.3l-0.6-0.8C211.1,227.2,210.6,227.6,210.1,228z"/>
		<path class="st1" d="M219,220.1l0.7,0.7c0.5-0.5,0.9-0.9,1.4-1.4l-0.7-0.7C220,219.2,219.5,219.7,219,220.1z"/>
		<path class="st1" d="M229,83l-0.8,0.6c0.4,0.5,0.8,1.1,1.2,1.6l0.8-0.6C229.9,84.1,229.5,83.6,229,83z"/>
		<path class="st1" d="M189.8,240.4l0.4,0.9c0.6-0.3,1.2-0.6,1.8-0.9l-0.4-0.9C191,239.9,190.4,240.2,189.8,240.4z"/>
		<path class="st1" d="M227,211.2l0.8,0.6c0.4-0.5,0.8-1.1,1.2-1.6l-0.8-0.6C227.9,210.2,227.4,210.7,227,211.2z"/>
		<path class="st1" d="M221.8,217.3l0.7,0.7c0.5-0.5,0.9-1,1.4-1.5l-0.7-0.7C222.7,216.3,222.3,216.8,221.8,217.3z"/>
		<path class="st1" d="M226.5,79.9l-0.8,0.6c0.4,0.5,0.8,1,1.3,1.5l0.8-0.6C227.4,80.9,227,80.4,226.5,79.9z"/>
		<path class="st1" d="M224.5,214.3l0.8,0.7c0.4-0.5,0.9-1,1.3-1.5l-0.8-0.6C225.3,213.3,224.9,213.8,224.5,214.3z"/>
		<path class="st1" d="M212.3,65.8l-0.6,0.8c0.5,0.4,1,0.8,1.5,1.3l0.6-0.8C213.3,66.6,212.8,66.2,212.3,65.8z"/>
		<path class="st1" d="M195.5,54.6l-0.5,0.9c0.6,0.3,1.2,0.6,1.7,1l0.5-0.9C196.7,55.3,196.1,55,195.5,54.6z"/>
		<path class="st1" d="M199.1,56.6l-0.5,0.9c0.6,0.3,1.1,0.7,1.7,1l0.5-0.9C200.2,57.3,199.6,57,199.1,56.6z"/>
		<path class="st1" d="M196.9,236.8l0.5,0.9c0.6-0.3,1.2-0.7,1.7-1l-0.5-0.9C198,236.2,197.4,236.5,196.9,236.8z"/>
		<path class="st1" d="M206.9,230.4l0.6,0.8c0.5-0.4,1.1-0.8,1.6-1.2l-0.6-0.8C208,229.6,207.4,230,206.9,230.4z"/>
		<path class="st1" d="M193.4,238.7l0.5,0.9c0.6-0.3,1.2-0.6,1.8-0.9l-0.5-0.9C194.5,238.1,194,238.4,193.4,238.7z"/>
		<path class="st1" d="M192,52.8l-0.4,0.9c0.6,0.3,1.2,0.6,1.8,0.9l0.5-0.9C193.2,53.4,192.6,53.1,192,52.8z"/>
		<path class="st1" d="M200.3,234.8l0.5,0.9c0.6-0.3,1.1-0.7,1.7-1.1l-0.5-0.8C201.4,234.1,200.9,234.5,200.3,234.8z"/>
		<path class="st1" d="M203.6,232.7l0.6,0.8c0.6-0.4,1.1-0.7,1.7-1.1l-0.6-0.8C204.7,231.9,204.2,232.3,203.6,232.7z"/>
		<path class="st1" d="M205.8,60.9l-0.6,0.8c0.5,0.4,1.1,0.8,1.6,1.2l0.6-0.8C206.9,61.7,206.4,61.3,205.8,60.9z"/>
		<path class="st1" d="M202.5,58.7l-0.5,0.8c0.6,0.4,1.1,0.7,1.7,1.1l0.6-0.8C203.6,59.4,203.1,59.1,202.5,58.7z"/>
		<path class="st1" d="M209.1,63.3l-0.6,0.8c0.5,0.4,1.1,0.8,1.6,1.2l0.6-0.8C210.2,64.1,209.6,63.7,209.1,63.3z"/>
		<path class="st1" d="M246.5,172.3l1,0.2c0.2-0.6,0.3-1.3,0.5-2l-1-0.2C246.8,171,246.7,171.6,246.5,172.3z"/>
		<path class="st1" d="M248.2,164.5l1,0.2c0.1-0.7,0.2-1.3,0.3-2l-1-0.2C248.4,163.2,248.3,163.8,248.2,164.5z"/>
		<path class="st1" d="M247.4,168.4l1,0.2c0.1-0.7,0.3-1.3,0.4-2l-1-0.2C247.7,167.1,247.5,167.8,247.4,168.4z"/>
		<path class="st1" d="M245.4,176.1l1,0.3c0.2-0.6,0.4-1.3,0.6-1.9l-1-0.3C245.8,174.9,245.6,175.5,245.4,176.1z"/>
		<path class="st1" d="M244.2,179.9l0.9,0.3c0.2-0.6,0.4-1.3,0.6-1.9l-1-0.3C244.6,178.7,244.4,179.3,244.2,179.9z"/>
		<path class="st1" d="M249.2,156.6l1,0.1c0.1-0.7,0.1-1.3,0.2-2l-1-0.1C249.3,155.3,249.3,156,249.2,156.6z"/>
		<path class="st1" d="M248.8,160.6l1,0.1c0.1-0.7,0.2-1.3,0.2-2l-1-0.1C248.9,159.3,248.9,159.9,248.8,160.6z"/>
		<path class="st1" d="M249.5,152.6l1,0.1c0-0.7,0.1-1.3,0.1-2l-1,0C249.6,151.3,249.6,152,249.5,152.6z"/>
		<path class="st1" d="M250.7,146.5h-1l0,0.2c0,0.7,0,1.3,0,2l1,0c0-0.7,0-1.3,0-2L250.7,146.5z"/>
		<path class="st1" d="M242.9,183.7l0.9,0.4c0.2-0.6,0.5-1.3,0.7-1.9l-0.9-0.3C243.3,182.4,243.1,183.1,242.9,183.7z"/>
		<path class="st1" d="M233.7,89.6l-0.8,0.5c0.4,0.6,0.7,1.1,1.1,1.7l0.8-0.5C234.4,90.7,234.1,90.1,233.7,89.6z"/>
		<path class="st1" d="M234,201.5l0.8,0.5c0.4-0.6,0.7-1.1,1.1-1.7l-0.9-0.5C234.7,200.4,234.3,200.9,234,201.5z"/>
		<path class="st1" d="M235.8,93l-0.9,0.5c0.3,0.6,0.7,1.1,1,1.7l0.9-0.5C236.5,94.1,236.2,93.6,235.8,93z"/>
		<path class="st1" d="M231.4,86.3l-0.8,0.6c0.4,0.5,0.8,1.1,1.1,1.6l0.8-0.6C232.2,87.4,231.8,86.8,231.4,86.3z"/>
		<path class="st1" d="M231.8,204.8l0.8,0.6c0.4-0.6,0.8-1.1,1.1-1.7l-0.8-0.5C232.5,203.7,232.1,204.3,231.8,204.8z"/>
		<path class="st1" d="M237.9,194.6l0.9,0.5c0.3-0.6,0.6-1.2,0.9-1.8l-0.9-0.4C238.5,193.4,238.2,194,237.9,194.6z"/>
		<path class="st1" d="M239.7,191l0.9,0.4c0.3-0.6,0.6-1.2,0.8-1.8l-0.9-0.4C240.3,189.8,240,190.4,239.7,191z"/>
		<path class="st1" d="M236,198.1l0.9,0.5c0.3-0.6,0.7-1.2,1-1.8l-0.9-0.5C236.7,196.9,236.3,197.5,236,198.1z"/>
		<path class="st1" d="M241.4,187.4l0.9,0.4c0.3-0.6,0.5-1.2,0.8-1.9l-0.9-0.4C241.9,186.2,241.6,186.8,241.4,187.4z"/>
		<path class="st1" d="M237.8,96.5l-0.9,0.5c0.3,0.6,0.6,1.2,0.9,1.7l0.9-0.5C238.5,97.6,238.2,97,237.8,96.5z"/>
		<path class="st1" d="M229.5,208.1l0.8,0.6c0.4-0.5,0.8-1.1,1.2-1.6l-0.8-0.6C230.2,207,229.9,207.6,229.5,208.1z"/>
		<path class="st1" d="M151.4,249.9l0,1c0.7,0,1.3-0.1,2-0.1l-0.1-1C152.7,249.8,152.1,249.8,151.4,249.9z"/>
		<path class="st1" d="M240.6,101.8c-0.3-0.6-0.6-1.2-0.9-1.8l-0.9,0.4c0.3,0.6,0.6,1.2,0.9,1.8L240.6,101.8z"/>
		<path class="st1" d="M225.2,78.4c-0.4-0.5-0.9-1-1.3-1.5l-0.7,0.7c0.4,0.5,0.9,1,1.3,1.5L225.2,78.4z"/>
		<path class="st1" d="M147.4,250l0,1c0.7,0,1.3,0,2,0l0-1C148.7,250,148.1,250,147.4,250z"/>
		<path class="st1" d="M241.3,105.8l0.9-0.4c-0.3-0.6-0.5-1.2-0.8-1.8l-0.9,0.4C240.8,104.6,241.1,105.2,241.3,105.8z"/>
		<path class="st1" d="M245.4,117.1l1-0.3c-0.2-0.6-0.4-1.3-0.6-1.9l-1,0.3C245,115.8,245.2,116.4,245.4,117.1z"/>
		<path class="st1" d="M244.2,113.3l0.9-0.3c-0.2-0.6-0.4-1.3-0.7-1.9l-0.9,0.3C243.7,112,244,112.6,244.2,113.3z"/>
		<path class="st1" d="M242.8,109.5l0.9-0.4c-0.2-0.6-0.5-1.2-0.7-1.9l-0.9,0.4C242.3,108.3,242.6,108.9,242.8,109.5z"/>
		<path class="st1" d="M155.4,249.6l0.1,1c0.7-0.1,1.3-0.1,2-0.2l-0.1-1C156.7,249.5,156,249.5,155.4,249.6z"/>
		<path class="st1" d="M216.8,69.7c-0.5-0.5-1-0.9-1.5-1.3l-0.7,0.8c0.5,0.4,1,0.9,1.5,1.3L216.8,69.7z"/>
		<path class="st1" d="M135.4,250.4c0.7,0.1,1.3,0.1,2,0.2l0.1-1c-0.7-0.1-1.3-0.1-2-0.2L135.4,250.4z"/>
		<path class="st1" d="M159.3,249.2l0.1,1c0.7-0.1,1.3-0.2,2-0.3l-0.1-1C160.6,249,160,249.1,159.3,249.2z"/>
		<path class="st1" d="M139.4,250.8c0.7,0,1.3,0.1,2,0.1l0-1c-0.7,0-1.3-0.1-2-0.1L139.4,250.8z"/>
		<path class="st1" d="M222.5,75.4c-0.5-0.5-0.9-1-1.4-1.5l-0.7,0.7c0.5,0.5,0.9,1,1.4,1.4L222.5,75.4z"/>
		<path class="st1" d="M131.4,249.9c0.7,0.1,1.3,0.2,2,0.3l0.1-1c-0.7-0.1-1.3-0.2-2-0.3L131.4,249.9z"/>
		<path class="st1" d="M143.4,250.9c0.7,0,1.3,0,2,0l0-1c-0.7,0-1.3,0-2,0L143.4,250.9z"/>
		<path class="st1" d="M147.3,42.4l-0.9,0c-0.4,0-0.8,0-1.1,0l0,1c0.4,0,0.7,0,1.1,0l0.9,0L147.3,42.4z"/>
		<path class="st1" d="M219.7,72.5c-0.5-0.5-1-0.9-1.4-1.4l-0.7,0.7c0.5,0.5,1,0.9,1.4,1.4L219.7,72.5z"/>
		<path class="st1" d="M178.7,244.8l0.3,1c0.6-0.2,1.3-0.4,1.9-0.6l-0.3-0.9C180,244.4,179.3,244.6,178.7,244.8z"/>
		<path class="st1" d="M177,46.9l-0.3,1c0.6,0.2,1.3,0.4,1.9,0.6l0.3-1C178.2,47.3,177.6,47.1,177,46.9z"/>
		<path class="st1" d="M188.3,51.1l-0.4,0.9c0.6,0.3,1.2,0.5,1.8,0.8l0.4-0.9C189.5,51.7,188.9,51.4,188.3,51.1z"/>
		<path class="st1" d="M174.9,246l0.3,1c0.6-0.2,1.3-0.4,1.9-0.6l-0.3-1C176.2,245.6,175.6,245.8,174.9,246z"/>
		<path class="st1" d="M184.6,49.6l-0.4,0.9c0.6,0.2,1.2,0.5,1.9,0.7l0.4-0.9C185.8,50.1,185.2,49.8,184.6,49.6z"/>
		<path class="st1" d="M173.1,45.8l-0.3,1c0.6,0.2,1.3,0.3,1.9,0.5l0.3-1C174.4,46.2,173.7,46,173.1,45.8z"/>
		<path class="st1" d="M182.5,243.5l0.3,0.9c0.6-0.2,1.3-0.5,1.9-0.7l-0.4-0.9C183.7,243,183.1,243.3,182.5,243.5z"/>
		<path class="st1" d="M246.5,120.9l1-0.2c-0.2-0.6-0.3-1.3-0.5-1.9l-1,0.3C246.1,119.6,246.3,120.3,246.5,120.9z"/>
		<path class="st1" d="M186.2,242l0.4,0.9c0.6-0.3,1.2-0.5,1.8-0.8l-0.4-0.9C187.4,241.5,186.8,241.8,186.2,242z"/>
		<path class="st1" d="M180.8,48.2l-0.3,0.9c0.6,0.2,1.3,0.4,1.9,0.7l0.3-0.9C182.1,48.6,181.4,48.4,180.8,48.2z"/>
		<path class="st1" d="M249.7,144.5l1,0c0-0.7,0-1.3-0.1-2l-1,0C249.6,143.2,249.7,143.9,249.7,144.5z"/>
		<path class="st1" d="M249.5,140.5l1-0.1c0-0.7-0.1-1.3-0.1-2l-1,0.1C249.4,139.2,249.5,139.9,249.5,140.5z"/>
		<path class="st1" d="M248.7,132.6l1-0.1c-0.1-0.7-0.2-1.3-0.3-2l-1,0.2C248.6,131.3,248.7,132,248.7,132.6z"/>
		<path class="st1" d="M248.1,128.7l1-0.2c-0.1-0.7-0.2-1.3-0.4-2l-1,0.2C247.9,127.4,248,128,248.1,128.7z"/>
		<path class="st1" d="M247.4,124.8l1-0.2c-0.1-0.7-0.3-1.3-0.4-2l-1,0.2C247.1,123.5,247.2,124.1,247.4,124.8z"/>
		<path class="st1" d="M167.2,247.9l0.2,1c0.7-0.1,1.3-0.3,2-0.4l-0.2-1C168.5,247.6,167.8,247.8,167.2,247.9z"/>
		<path class="st1" d="M171.1,247l0.2,1c0.7-0.2,1.3-0.3,1.9-0.5l-0.3-1C172.4,246.7,171.7,246.9,171.1,247z"/>
		<path class="st1" d="M163.3,248.6l0.2,1c0.7-0.1,1.3-0.2,2-0.3l-0.2-1C164.6,248.4,163.9,248.5,163.3,248.6z"/>
		<path class="st1" d="M249.2,136.6l1-0.1c-0.1-0.7-0.1-1.3-0.2-2l-1,0.1C249.1,135.3,249.1,135.9,249.2,136.6z"/>
		<path class="st1" d="M170.1,132.9c-0.3-0.6-0.7-1.2-1.1-1.7l-0.8,0.6c0.4,0.5,0.7,1.1,1.1,1.7L170.1,132.9z"/>
		<path class="st1" d="M171.9,156.7c0.2-0.6,0.5-1.3,0.7-1.9l-1-0.3c-0.2,0.6-0.4,1.3-0.7,1.9L171.9,156.7z"/>
		<path class="st1" d="M173.7,144.5c-0.1-0.7-0.1-1.4-0.2-2l-1,0.2c0.1,0.6,0.2,1.3,0.2,2L173.7,144.5z"/>
		<path class="st1" d="M142.4,120.5l-0.2-1c-0.7,0.1-1.3,0.2-2,0.4l0.2,1C141.1,120.8,141.7,120.6,142.4,120.5z"/>
		<path class="st1" d="M170.2,135.1c0.3,0.6,0.6,1.2,0.8,1.8l0.9-0.4c-0.3-0.6-0.5-1.3-0.8-1.9L170.2,135.1z"/>
		<path class="st1" d="M171.6,138.8c0.2,0.6,0.4,1.3,0.5,1.9l1-0.2c-0.2-0.7-0.3-1.3-0.5-2L171.6,138.8z"/>
		<path class="st1" d="M161.8,123.9c-0.6-0.4-1.2-0.7-1.7-1.1l-0.5,0.9c0.6,0.3,1.1,0.7,1.7,1L161.8,123.9z"/>
		<path class="st1" d="M164.3,127.2l0.7-0.7c-0.5-0.5-1-0.9-1.6-1.3l-0.6,0.8C163.3,126.3,163.8,126.8,164.3,127.2z"/>
		<path class="st1" d="M138.5,121.4l-0.3-1c-0.7,0.2-1.3,0.4-1.9,0.7l0.4,0.9C137.3,121.8,137.9,121.6,138.5,121.4z"/>
		<path class="st1" d="M120,144.7l-1-0.1c0,0.7-0.1,1.3-0.1,2v0.1l1-0.1C119.9,146,120,145.4,120,144.7z"/>
		<path class="st1" d="M159.6,169.6c-0.6,0.3-1.2,0.6-1.7,0.9l0.4,0.9c0.6-0.3,1.2-0.6,1.8-1L159.6,169.6z"/>
		<path class="st1" d="M156.1,171.3c-0.6,0.2-1.2,0.5-1.9,0.7l0.3,1c0.6-0.2,1.3-0.4,1.9-0.7L156.1,171.3z"/>
		<path class="st1" d="M156.3,121.1L156,122c0.6,0.2,1.2,0.5,1.8,0.8l0.4-0.9C157.6,121.6,157,121.3,156.3,121.1z"/>
		<path class="st1" d="M152.3,172.4c-0.6,0.1-1.3,0.3-1.9,0.4l0.1,1c0.7-0.1,1.3-0.2,2-0.4L152.3,172.4z"/>
		<path class="st1" d="M152.4,119.9l-0.2,1c0.6,0.1,1.3,0.3,1.9,0.5l0.3-1C153.7,120.2,153.1,120,152.4,119.9z"/>
		<path class="st1" d="M148.3,119.3l-0.1,1c0.7,0,1.3,0.1,2,0.2l0.1-1C149.7,119.4,149,119.3,148.3,119.3z"/>
		<path class="st1" d="M144.2,119.3l0.1,1c0.7-0.1,1.3-0.1,2-0.1l0-1C145.6,119.2,144.9,119.3,144.2,119.3z"/>
		<path class="st1" d="M148.4,173c-0.7,0-1.3,0.1-2,0.1l0,1c0.7,0,1.4,0,2-0.1L148.4,173z"/>
		<path class="st1" d="M166.4,127.9l-0.7,0.7c0.4,0.5,0.9,1,1.3,1.5l0.8-0.6C167.3,129,166.9,128.4,166.4,127.9z"/>
		<path class="st1" d="M172.2,152.6l1,0.2c0.2-0.7,0.3-1.3,0.4-2l-1-0.1C172.4,151.3,172.3,151.9,172.2,152.6z"/>
		<path class="st1" d="M170.2,158.1c-0.3,0.6-0.6,1.2-0.9,1.7l0.9,0.5c0.3-0.6,0.7-1.2,1-1.8L170.2,158.1z"/>
		<path class="st1" d="M162.9,167.3c-0.5,0.4-1,0.8-1.6,1.2l0.6,0.8c0.6-0.4,1.1-0.8,1.6-1.2L162.9,167.3z"/>
		<path class="st1" d="M172.8,146.7c0,0.7,0,1.3-0.1,2l1,0.1c0-0.7,0.1-1.4,0.1-2v-0.1h-1V146.7z"/>
		<path class="st1" d="M169,162.1l-0.8-0.6c-0.4,0.5-0.8,1.1-1.2,1.6l0.8,0.6C168.3,163.2,168.7,162.7,169,162.1z"/>
		<path class="st1" d="M164.4,166l0.7,0.7c0.5-0.5,1-1,1.5-1.5l-0.7-0.7C165.3,165.1,164.8,165.6,164.4,166z"/>
		<path class="st1" d="M134.8,122.9l-0.4-0.9c-0.6,0.3-1.2,0.6-1.8,1l0.5,0.9C133.7,123.5,134.2,123.2,134.8,122.9z"/>
		<path class="st1" d="M144.4,173c-0.7,0-1.3-0.1-2-0.2l-0.1,1c0.7,0.1,1.4,0.2,2,0.2L144.4,173z"/>
		<path class="st1" d="M140.5,172.5c-0.6-0.1-1.3-0.3-1.9-0.5l-0.3,1c0.7,0.2,1.3,0.4,2,0.5L140.5,172.5z"/>
		<path class="st1" d="M122.5,135.2c0.3-0.6,0.6-1.2,0.9-1.8l-0.9-0.5c-0.3,0.6-0.7,1.2-1,1.8L122.5,135.2z"/>
		<path class="st1" d="M119.6,152.8c0.2,0.7,0.3,1.3,0.5,2l1-0.3c-0.2-0.6-0.4-1.3-0.5-1.9L119.6,152.8z"/>
		<path class="st1" d="M131.4,124.9l-0.6-0.8c-0.6,0.4-1.1,0.8-1.6,1.2l0.6,0.8C130.3,125.6,130.9,125.2,131.4,124.9z"/>
		<path class="st1" d="M119.2,142.6l1,0.1c0.1-0.6,0.2-1.3,0.4-1.9l-1-0.2C119.5,141.3,119.3,142,119.2,142.6z"/>
		<path class="st1" d="M126.9,128.7c0.4-0.5,0.9-1,1.4-1.4l-0.7-0.7c-0.5,0.5-1,1-1.4,1.5L126.9,128.7z"/>
		<path class="st1" d="M125.7,130.2l-0.8-0.6c-0.4,0.5-0.8,1.1-1.2,1.7l0.8,0.6C124.9,131.3,125.3,130.7,125.7,130.2z"/>
		<path class="st1" d="M121.7,137.1l-0.9-0.4c-0.2,0.6-0.5,1.3-0.7,1.9l1,0.3C121.3,138.3,121.5,137.7,121.7,137.1z"/>
		<path class="st1" d="M133.2,169.6c-0.6-0.3-1.1-0.7-1.7-1.1l-0.6,0.8c0.6,0.4,1.1,0.8,1.7,1.1L133.2,169.6z"/>
		<path class="st1" d="M127.7,166.8c0.5,0.5,1,0.9,1.6,1.3l0.6-0.8c-0.5-0.4-1-0.8-1.5-1.3L127.7,166.8z"/>
		<path class="st1" d="M136.7,171.3c-0.6-0.2-1.2-0.5-1.8-0.8l-0.4,0.9c0.6,0.3,1.2,0.6,1.9,0.8L136.7,171.3z"/>
		<path class="st1" d="M120.8,156.7c0.2,0.6,0.5,1.3,0.8,1.9l0.9-0.4c-0.3-0.6-0.6-1.2-0.8-1.8L120.8,156.7z"/>
		<path class="st1" d="M124.9,163.8c0.4,0.5,0.9,1.1,1.3,1.6l0.7-0.7c-0.4-0.5-0.9-1-1.3-1.5L124.9,163.8z"/>
		<path class="st1" d="M120,148.7l-1,0.1c0.1,0.7,0.1,1.4,0.2,2l1-0.1C120.1,150,120.1,149.3,120,148.7z"/>
		<path class="st1" d="M124.5,161.6c-0.4-0.5-0.7-1.1-1.1-1.7l-0.9,0.5c0.3,0.6,0.7,1.2,1.1,1.7L124.5,161.6z"/>
	</g>
	<g class="st2">
		<circle cx="146.4" cy="146.7" r="7.4"/>
	</g>
</g>
</svg>
