<svg xmlns="http://www.w3.org/2000/svg" viewBox="0 0 83.63 83.65"><defs><style>.cls-1{fill:#1b1464;}.cls-2{fill:#fff;fill-rule:evenodd;}</style></defs><title>phoneicon</title><g id="Capa_2" data-name="Capa 2"><g id="Capa_1-2" data-name="Capa 1"><path class="cls-1" d="M83.63,41.82A41.82,41.82,0,1,1,41.82,0,41.84,41.84,0,0,1,83.63,41.82Z"/><path class="cls-2" d="M48.31,15.89a14,14,0,0,1,3.38,4.35c6,11,7.23,22.67,5.33,34.91-.7,4.55-1.68,9.21-4.46,13.1a14.27,14.27,0,0,1-13.27,6.57c-1.9,0-5.17-2.44-5.7-4.22a5.93,5.93,0,0,1,.15-1.8c1.59-3.7,2.92-7.28,4.36-10.85a2.8,2.8,0,0,1,1.75-1.44,21.38,21.38,0,0,1,5.36-.8,1.94,1.94,0,0,0,2.25-1.8A35.24,35.24,0,0,0,45.68,30.3a2.11,2.11,0,0,0-2.34-1.49c-2.07.16-4.23.45-6.28.73A2.19,2.19,0,0,1,34.51,28c-1-2.62-2-5.27-2.91-7.81-.23-.74-.4-1.25-.63-1.88-.92-2.75-.81-2.86,1.37-4.62C36.46,10,41.4,11,45.78,13.47A8.77,8.77,0,0,1,48.31,15.89Z"/></g></g></svg>