<?xml version="1.0" encoding="utf-8"?>
<!-- Generator: Adobe Illustrator 23.0.1, SVG Export Plug-In . SVG Version: 6.00 Build 0)  -->
<svg version="1.1" id="Capa_1" xmlns="http://www.w3.org/2000/svg" xmlns:xlink="http://www.w3.org/1999/xlink" x="0px" y="0px"
	 viewBox="0 0 376.2 70" style="enable-background:new 0 0 376.2 70;" xml:space="preserve">
<style type="text/css">
	.st0{clip-path:url(#SVGID_2_);}
	.st1{opacity:0.6;}
	.st2{opacity:0.25;fill:#FFFFFF;}
	.st3{opacity:0.4;}
	.st4{fill:#FFFFFF;}
	.st5{fill:#A3897A;}
	.st6{fill:#F29100;}
	.st7{fill:#F8B133;}
	.st8{fill:#2DAB66;}
	.st9{fill:#00A099;}
	.st10{fill:#35A8E0;}
	.st11{opacity:0.75;}
	.st12{opacity:0.7;}
	.st13{opacity:0.75;fill:url(#SVGID_3_);}
	.st14{opacity:0.75;fill:url(#SVGID_4_);}
	.st15{opacity:0.3;fill:#FFFFFF;}
</style>
<g>
	<g>
		<g>
			<path class="st4" d="M264.8,17.1h0.9v9.2h-0.9V17.1z M265.5,21.9h3c0.4,0,0.7-0.1,1-0.2s0.5-0.4,0.6-0.7c0.2-0.3,0.2-0.6,0.2-1
				c0-0.4-0.1-0.7-0.2-1c-0.2-0.3-0.4-0.5-0.6-0.7s-0.6-0.2-1-0.2h-3v-0.9h2.9c0.5,0,1,0.1,1.5,0.4c0.4,0.2,0.7,0.6,1,1
				c0.2,0.4,0.3,0.9,0.3,1.5c0,0.6-0.1,1.1-0.3,1.5c-0.2,0.4-0.6,0.8-1,1c-0.4,0.2-0.9,0.4-1.5,0.4h-2.9V21.9z"/>
			<path class="st4" d="M272.5,19.7h0.9v6.6h-0.9V19.7z M275.8,20.6c-0.2-0.1-0.4-0.1-0.7-0.1c-0.5,0-1,0.1-1.3,0.4
				c-0.3,0.3-0.5,0.7-0.5,1.2l-0.1-1.3c0.2-0.4,0.6-0.7,0.9-0.9c0.4-0.2,0.8-0.3,1.3-0.3c0.3,0,0.6,0,0.8,0.1s0.5,0.2,0.6,0.4
				l-0.6,0.8C276.2,20.8,276.1,20.7,275.8,20.6z"/>
			<path class="st4" d="M279,26.1c-0.4-0.2-0.7-0.6-0.9-1s-0.3-0.9-0.3-1.6v-1.1c0-0.6,0.1-1.1,0.3-1.5c0.2-0.4,0.5-0.7,0.9-1
				c0.4-0.2,0.9-0.3,1.5-0.3s1.1,0.1,1.5,0.3c0.4,0.2,0.7,0.5,0.9,1c0.2,0.4,0.3,0.9,0.3,1.5v1.1c0,0.6-0.1,1.1-0.3,1.5
				c-0.2,0.4-0.5,0.8-0.9,1c-0.4,0.2-0.9,0.3-1.5,0.3S279.4,26.3,279,26.1z M281.8,25c0.3-0.3,0.5-0.8,0.5-1.5v-1.1
				c0-0.6-0.2-1.1-0.5-1.5c-0.3-0.3-0.8-0.5-1.3-0.5c-0.6,0-1,0.2-1.3,0.5c-0.3,0.3-0.5,0.8-0.5,1.5v1.1c0,0.6,0.2,1.1,0.5,1.5
				c0.3,0.3,0.8,0.5,1.3,0.5C281,25.6,281.4,25.4,281.8,25z"/>
			<path class="st4" d="M284.2,19.7h0.9l2.2,6.1l-0.5,1L284.2,19.7z M290,19.7l-2.8,8.1c-0.1,0.3-0.2,0.5-0.4,0.7s-0.4,0.3-0.6,0.4
				s-0.5,0.1-0.9,0.1H285v-0.9h0.3c0.3,0,0.6-0.1,0.8-0.2c0.2-0.2,0.4-0.4,0.5-0.8l2.4-7.4H290z"/>
			<path class="st4" d="M292.8,26.4c0,0-0.2-0.1-0.6-0.3c-0.4-0.2-0.8-0.6-1-1s-0.3-1-0.3-1.6v-0.7c0-0.7,0.1-1.2,0.3-1.7
				c0.2-0.5,0.5-0.8,0.9-1.1c0.4-0.2,0.9-0.4,1.5-0.4c0.5,0,1,0.1,1.4,0.4c0.4,0.2,0.7,0.6,0.9,1c0.2,0.5,0.3,1,0.3,1.6v0.8h-4.8
				v-0.8h3.9v-0.1c0-0.7-0.2-1.2-0.5-1.5s-0.7-0.5-1.3-0.5c-0.6,0-1.1,0.2-1.4,0.6c-0.3,0.4-0.5,0.9-0.5,1.6v0.8
				c0,0.7,0.2,1.2,0.5,1.5c0.4,0.4,0.9,0.5,1.5,0.5c0.3,0,0.6-0.1,0.9-0.2c0.3-0.1,0.6-0.3,0.8-0.5l0.6,0.6
				c-0.3,0.3-0.7,0.6-1.1,0.7c-0.4,0.2-0.8,0.3-1.2,0.3C293.1,26.4,292.8,26.4,292.8,26.4z"/>
			<path class="st4" d="M299.7,26.4c0,0-0.2-0.1-0.6-0.3c-0.4-0.2-0.7-0.5-0.9-1c-0.2-0.4-0.3-1-0.3-1.6v-1.1c0-0.6,0.1-1.2,0.3-1.6
				s0.5-0.7,0.9-0.9c0.4-0.2,0.9-0.3,1.6-0.3c0.4,0,0.7,0,1,0.1s0.6,0.2,0.8,0.3c0.2,0.2,0.4,0.4,0.6,0.6l-0.7,0.6
				c-0.2-0.3-0.5-0.5-0.8-0.6c-0.3-0.1-0.6-0.2-0.9-0.2c-0.7,0-1.1,0.2-1.5,0.5c-0.3,0.3-0.5,0.8-0.5,1.5v1.1c0,0.7,0.2,1.2,0.5,1.5
				c0.3,0.3,0.8,0.5,1.5,0.5c0.4,0,0.7-0.1,1-0.2s0.6-0.3,0.8-0.6l0.6,0.6c-0.2,0.2-0.4,0.4-0.6,0.6c-0.2,0.2-0.5,0.3-0.8,0.3
				s-0.6,0.1-1,0.1C300,26.4,299.7,26.4,299.7,26.4z"/>
			<path class="st4" d="M303.9,19.7h3v0.8h-3V19.7z M305,25.9c-0.2-0.3-0.4-0.7-0.4-1.3v-6.8h0.9v6.8c0,0.3,0.1,0.5,0.2,0.7
				s0.3,0.2,0.6,0.2h0.6v0.9h-0.7C305.6,26.3,305.2,26.2,305,25.9z"/>
			<path class="st4" d="M309.8,26.1c-0.4-0.2-0.7-0.6-0.9-1s-0.3-0.9-0.3-1.6v-1.1c0-0.6,0.1-1.1,0.3-1.5c0.2-0.4,0.5-0.7,0.9-1
				c0.4-0.2,0.9-0.3,1.5-0.3s1.1,0.1,1.5,0.3c0.4,0.2,0.7,0.5,0.9,1c0.2,0.4,0.3,0.9,0.3,1.5v1.1c0,0.6-0.1,1.1-0.3,1.5
				c-0.2,0.4-0.5,0.8-0.9,1c-0.4,0.2-0.9,0.3-1.5,0.3S310.2,26.3,309.8,26.1z M312.6,25c0.3-0.3,0.5-0.8,0.5-1.5v-1.1
				c0-0.6-0.2-1.1-0.5-1.5c-0.3-0.3-0.8-0.5-1.3-0.5c-0.6,0-1,0.2-1.3,0.5c-0.3,0.3-0.5,0.8-0.5,1.5v1.1c0,0.6,0.2,1.1,0.5,1.5
				c0.3,0.3,0.8,0.5,1.3,0.5C311.8,25.6,312.2,25.4,312.6,25z"/>
			<path class="st4" d="M315.5,19.7h0.9v0.9h-0.9V19.7z M315.5,25.4h0.9v0.9h-0.9V25.4z"/>
			<path class="st4" d="M320.8,17.1h1.5v9.2h-1.5V17.1z M321.5,21.3h3c0.2,0,0.5-0.1,0.6-0.2c0.2-0.1,0.3-0.3,0.4-0.5
				c0.1-0.2,0.2-0.4,0.2-0.7c0-0.3-0.1-0.5-0.2-0.7c-0.1-0.2-0.2-0.4-0.4-0.5s-0.4-0.2-0.6-0.2h-3v-1.5h2.9c0.6,0,1.1,0.1,1.5,0.4
				c0.4,0.2,0.8,0.6,1,1c0.2,0.4,0.4,0.9,0.4,1.5c0,0.6-0.1,1.1-0.4,1.5c-0.2,0.4-0.6,0.8-1,1c-0.4,0.2-0.9,0.3-1.5,0.3h-2.9V21.3z"
				/>
			<path class="st4" d="M328.4,19.7h1.6v6.6h-1.6V19.7z M331.7,21.2c-0.1-0.1-0.3-0.1-0.5-0.1c-0.4,0-0.7,0.1-0.9,0.3
				c-0.2,0.2-0.3,0.5-0.3,0.9l-0.1-1.5c0.2-0.4,0.4-0.7,0.7-0.9c0.3-0.2,0.6-0.3,1-0.3c0.3,0,0.5,0,0.8,0.1s0.4,0.2,0.6,0.4
				l-0.9,1.3C332,21.3,331.8,21.2,331.7,21.2z"/>
			<path class="st4" d="M334.9,26.1c-0.4-0.2-0.7-0.6-1-1s-0.3-0.9-0.3-1.6v-1.1c0-0.6,0.1-1.1,0.3-1.5c0.2-0.4,0.5-0.7,1-1
				c0.4-0.2,0.9-0.3,1.5-0.3s1.1,0.1,1.5,0.3c0.4,0.2,0.7,0.5,1,1c0.2,0.4,0.3,0.9,0.3,1.5v1.1c0,0.6-0.1,1.1-0.3,1.5
				c-0.2,0.4-0.5,0.8-1,1c-0.4,0.2-0.9,0.3-1.5,0.3S335.3,26.3,334.9,26.1z M337.3,24.6c0.2-0.2,0.3-0.6,0.3-1v-1.1
				c0-0.4-0.1-0.8-0.3-1c-0.2-0.2-0.5-0.4-0.9-0.4s-0.7,0.1-0.9,0.4c-0.2,0.2-0.3,0.6-0.3,1v1.1c0,0.4,0.1,0.8,0.3,1
				c0.2,0.2,0.5,0.4,0.9,0.4C336.8,25,337.1,24.8,337.3,24.6z"/>
			<path class="st4" d="M340.1,19.7h1.5l2.1,5.7l-0.9,1.4L340.1,19.7z M346,19.7l-2.9,8.1c-0.1,0.3-0.2,0.5-0.4,0.7
				s-0.4,0.3-0.6,0.4s-0.5,0.1-0.9,0.1H341v-1.5h0.3c0.2,0,0.4,0,0.5-0.1c0.1-0.1,0.2-0.2,0.3-0.5l2.4-7.3H346z"/>
			<path class="st4" d="M348.8,26.4c0,0-0.2-0.1-0.7-0.3s-0.8-0.6-1-1c-0.2-0.4-0.3-1-0.3-1.6v-0.7c0-0.7,0.1-1.2,0.3-1.7
				c0.2-0.5,0.5-0.8,1-1.1c0.4-0.2,0.9-0.4,1.5-0.4c0.6,0,1,0.1,1.4,0.4c0.4,0.3,0.7,0.7,0.9,1.2c0.2,0.5,0.3,1.2,0.3,1.9v0.4h-4.5
				v-1.1h3.1l0-0.1c0-0.5-0.2-0.8-0.4-1.1s-0.5-0.4-0.9-0.4c-0.5,0-0.8,0.1-1.1,0.4c-0.3,0.3-0.4,0.7-0.4,1.2v0.8
				c0,0.5,0.1,0.9,0.4,1.2c0.3,0.3,0.7,0.4,1.1,0.4c0.3,0,0.5,0,0.7-0.1c0.2-0.1,0.5-0.2,0.7-0.4l1,0.9c-0.3,0.3-0.7,0.6-1.1,0.7
				c-0.4,0.2-0.8,0.3-1.3,0.3C349.1,26.4,348.8,26.4,348.8,26.4z"/>
			<path class="st4" d="M355.7,26.4c0,0-0.2-0.1-0.7-0.3c-0.4-0.2-0.8-0.6-1-1s-0.3-1-0.3-1.6v-0.9c0-0.6,0.1-1.1,0.3-1.6
				c0.2-0.4,0.6-0.8,1-1c0.4-0.2,1-0.3,1.6-0.3c0.4,0,0.7,0,1,0.1c0.3,0.1,0.6,0.2,0.8,0.4c0.2,0.2,0.5,0.3,0.6,0.6l-1,1
				c-0.2-0.2-0.4-0.3-0.6-0.4c-0.2-0.1-0.5-0.1-0.7-0.1c-0.5,0-0.8,0.1-1.1,0.4c-0.3,0.3-0.4,0.6-0.4,1.1v0.9c0,0.5,0.1,0.9,0.4,1.1
				c0.3,0.3,0.6,0.4,1.1,0.4c0.3,0,0.5-0.1,0.7-0.2c0.2-0.1,0.4-0.3,0.6-0.5l1,1c-0.2,0.2-0.4,0.4-0.6,0.6c-0.2,0.2-0.5,0.3-0.8,0.4
				c-0.3,0.1-0.6,0.1-1,0.1C356,26.4,355.7,26.4,355.7,26.4z"/>
			<path class="st4" d="M359.9,19.7h3.1v1.3h-3.1V19.7z M360.9,25.9c-0.3-0.3-0.4-0.7-0.4-1.3v-6.8h1.5v6.6c0,0.2,0,0.3,0.1,0.4
				c0.1,0.1,0.2,0.1,0.3,0.1h0.5v1.5h-0.8C361.6,26.3,361.2,26.2,360.9,25.9z"/>
			<path class="st4" d="M365.7,26.1c-0.4-0.2-0.7-0.6-1-1s-0.3-0.9-0.3-1.6v-1.1c0-0.6,0.1-1.1,0.3-1.5c0.2-0.4,0.5-0.7,1-1
				c0.4-0.2,0.9-0.3,1.5-0.3s1.1,0.1,1.5,0.3c0.4,0.2,0.7,0.5,1,1c0.2,0.4,0.3,0.9,0.3,1.5v1.1c0,0.6-0.1,1.1-0.3,1.5
				c-0.2,0.4-0.5,0.8-1,1c-0.4,0.2-0.9,0.3-1.5,0.3S366.1,26.3,365.7,26.1z M368.1,24.6c0.2-0.2,0.3-0.6,0.3-1v-1.1
				c0-0.4-0.1-0.8-0.3-1c-0.2-0.2-0.5-0.4-0.9-0.4s-0.7,0.1-0.9,0.4c-0.2,0.2-0.3,0.6-0.3,1v1.1c0,0.4,0.1,0.8,0.3,1
				c0.2,0.2,0.5,0.4,0.9,0.4C367.6,25,367.9,24.8,368.1,24.6z"/>
			<path class="st4" d="M376.2,26.3h-1.5v-7.5l-1.2,0.6v-1.6l1.3-0.7h1.4V26.3z"/>
		</g>
		<g>
			<path class="st4" d="M263.5,32.5h1.6v11.4h-1.6V32.5z M264.4,42.4h3.1c0.8,0,1.4-0.2,1.8-0.5c0.4-0.3,0.6-0.7,0.6-1.3v0
				c0-0.4-0.1-0.7-0.2-1c-0.1-0.3-0.3-0.5-0.6-0.6s-0.7-0.2-1.1-0.2h-3.5v-1.4h3.5c0.6,0,1-0.1,1.3-0.4c0.3-0.3,0.4-0.7,0.4-1.2
				c0-0.6-0.2-1-0.5-1.3s-0.8-0.4-1.5-0.4h-3.3v-1.5h3.5c0.7,0,1.3,0.1,1.8,0.4s0.9,0.6,1.1,1.1c0.2,0.5,0.4,1,0.4,1.6
				c0,0.4-0.1,0.8-0.2,1.1c-0.2,0.3-0.4,0.6-0.7,0.9s-0.7,0.4-1.2,0.5c0.5,0.1,0.9,0.2,1.2,0.5s0.6,0.6,0.8,1
				c0.2,0.4,0.3,0.8,0.3,1.3v0c0,0.6-0.1,1.2-0.4,1.6s-0.7,0.8-1.2,1.1c-0.5,0.3-1.1,0.4-1.8,0.4h-3.7V42.4z"/>
			<path class="st4" d="M274,43.4c-0.5-0.4-0.7-1-0.7-1.9c0-0.8,0.2-1.4,0.7-1.8c0.5-0.4,1.1-0.6,2.1-0.6h2.3l0.1,1.3H276
				c-0.4,0-0.7,0.1-0.9,0.3c-0.2,0.2-0.3,0.5-0.3,0.8c0,0.4,0.1,0.7,0.4,0.9c0.3,0.2,0.7,0.3,1.2,0.3c0.6,0,1.1-0.1,1.4-0.2
				c0.3-0.1,0.4-0.3,0.4-0.6l0.2,1.1c-0.1,0.2-0.3,0.4-0.5,0.5s-0.4,0.2-0.7,0.3s-0.6,0.1-0.9,0.1C275.2,44,274.5,43.8,274,43.4z
				 M278.2,38.8c0-0.5-0.1-0.9-0.4-1.2c-0.3-0.3-0.7-0.4-1.2-0.4c-0.3,0-0.6,0-0.9,0.1c-0.3,0.1-0.6,0.2-0.8,0.4l-1.2-0.8
				c0.3-0.4,0.7-0.7,1.2-0.9c0.5-0.2,1.1-0.3,1.7-0.3c0.7,0,1.2,0.1,1.7,0.4c0.5,0.2,0.8,0.6,1.1,1c0.3,0.5,0.4,1,0.4,1.6v5.2h-1.5
				V38.8z"/>
			<path class="st4" d="M282.2,35.8h1.6v8.1h-1.6V35.8z M286.1,37.3c-0.2-0.1-0.5-0.1-0.7-0.1c-0.5,0-0.9,0.1-1.2,0.4
				c-0.3,0.3-0.4,0.7-0.4,1.2l-0.2-1.6c0.3-0.5,0.6-0.9,1-1.1c0.4-0.3,0.8-0.4,1.3-0.4c0.4,0,0.7,0.1,1,0.2c0.3,0.1,0.6,0.3,0.8,0.5
				l-1,1.4C286.5,37.5,286.3,37.4,286.1,37.3z"/>
			<path class="st4" d="M289,35.8h1.6v8.1H289V35.8z M292.9,37.3c-0.2-0.1-0.5-0.1-0.7-0.1c-0.5,0-0.9,0.1-1.2,0.4
				c-0.3,0.3-0.4,0.7-0.4,1.2l-0.2-1.6c0.3-0.5,0.6-0.9,1-1.1c0.4-0.3,0.8-0.4,1.3-0.4c0.4,0,0.7,0.1,1,0.2c0.3,0.1,0.6,0.3,0.8,0.5
				l-1,1.4C293.3,37.5,293.1,37.4,292.9,37.3z"/>
			<path class="st4" d="M296.2,43.4c-0.5-0.4-0.7-1-0.7-1.9c0-0.8,0.2-1.4,0.7-1.8c0.5-0.4,1.1-0.6,2.1-0.6h2.3l0.1,1.3h-2.4
				c-0.4,0-0.7,0.1-0.9,0.3c-0.2,0.2-0.3,0.5-0.3,0.8c0,0.4,0.1,0.7,0.4,0.9c0.3,0.2,0.7,0.3,1.2,0.3c0.6,0,1.1-0.1,1.4-0.2
				c0.3-0.1,0.4-0.3,0.4-0.6l0.2,1.1c-0.1,0.2-0.3,0.4-0.5,0.5s-0.4,0.2-0.7,0.3s-0.6,0.1-0.9,0.1C297.4,44,296.7,43.8,296.2,43.4z
				 M300.4,38.8c0-0.5-0.1-0.9-0.4-1.2c-0.3-0.3-0.7-0.4-1.2-0.4c-0.3,0-0.6,0-0.9,0.1c-0.3,0.1-0.6,0.2-0.8,0.4l-1.2-0.8
				c0.3-0.4,0.7-0.7,1.2-0.9c0.5-0.2,1.1-0.3,1.7-0.3c0.7,0,1.2,0.1,1.7,0.4c0.5,0.2,0.8,0.6,1.1,1c0.3,0.5,0.4,1,0.4,1.6v5.2h-1.5
				V38.8z"/>
			<path class="st4" d="M304.3,35.8h1.6v8.1h-1.6V35.8z M309.2,39c0-0.6-0.1-1-0.4-1.3s-0.7-0.5-1.3-0.5c-0.5,0-0.9,0.1-1.2,0.4
				c-0.3,0.3-0.4,0.7-0.4,1.2l-0.2-1.6c0.3-0.5,0.6-0.9,1-1.1s0.9-0.4,1.3-0.4c0.9,0,1.6,0.3,2,0.9c0.5,0.6,0.7,1.4,0.7,2.4v4.9
				h-1.6V39z"/>
			<path class="st4" d="M314.3,43.7c-0.4-0.3-0.7-0.6-1-1.1c-0.2-0.5-0.3-1.1-0.3-1.8V39c0-0.7,0.1-1.3,0.3-1.8
				c0.2-0.5,0.5-0.9,0.9-1.1s0.9-0.4,1.5-0.4c0.5,0,0.9,0.1,1.3,0.4s0.7,0.6,1,1.1l-0.2,1.7c0-0.3-0.1-0.6-0.2-0.9
				c-0.1-0.2-0.3-0.4-0.5-0.6c-0.2-0.1-0.5-0.2-0.9-0.2c-0.5,0-0.9,0.2-1.2,0.5s-0.4,0.8-0.4,1.4v1.8c0,0.6,0.1,1,0.4,1.4
				s0.7,0.5,1.2,0.5c0.3,0,0.6-0.1,0.9-0.2s0.4-0.3,0.5-0.6s0.2-0.5,0.2-0.9l0.1,1.7c-0.2,0.4-0.4,0.7-0.8,1s-0.8,0.4-1.4,0.4
				C315.2,44,314.7,43.9,314.3,43.7z M317.9,35.8h1.6v11.4h-1.6V35.8z"/>
			<path class="st4" d="M323.5,40.7c0,0.6,0.1,1,0.4,1.3c0.3,0.3,0.7,0.5,1.2,0.5c0.5,0,0.9-0.1,1.2-0.4c0.3-0.3,0.4-0.7,0.4-1.2
				l0.1,1.7c-0.2,0.4-0.4,0.7-0.8,1c-0.4,0.3-0.8,0.4-1.4,0.4c-0.9,0-1.6-0.3-2.1-0.9c-0.5-0.6-0.7-1.4-0.7-2.4v-4.9h1.6V40.7z
				 M326.8,35.8h1.6v8.1h-1.6V35.8z"/>
			<path class="st4" d="M330.8,32.5h1.6v1.6h-1.6V32.5z M330.8,35.8h1.6v8.1h-1.6V35.8z"/>
			<path class="st4" d="M336.4,41.8c0,0.2,0,0.4,0.1,0.5c0.1,0.1,0.2,0.2,0.4,0.2h0.8v1.5h-0.9c-0.6,0-1.1-0.2-1.4-0.6
				s-0.5-0.9-0.5-1.6v-9.3h1.6V41.8z"/>
			<path class="st4" d="M341,41.8c0,0.2,0,0.4,0.1,0.5c0.1,0.1,0.2,0.2,0.4,0.2h0.8v1.5h-0.9c-0.6,0-1.1-0.2-1.4-0.6
				s-0.5-0.9-0.5-1.6v-9.3h1.6V41.8z"/>
			<path class="st4" d="M344.3,43.4c-0.5-0.4-0.7-1-0.7-1.9c0-0.8,0.2-1.4,0.7-1.8c0.5-0.4,1.1-0.6,2.1-0.6h2.3l0.1,1.3h-2.4
				c-0.4,0-0.7,0.1-0.9,0.3c-0.2,0.2-0.3,0.5-0.3,0.8c0,0.4,0.1,0.7,0.4,0.9c0.3,0.2,0.7,0.3,1.2,0.3c0.6,0,1.1-0.1,1.4-0.2
				c0.3-0.1,0.4-0.3,0.4-0.6l0.2,1.1c-0.1,0.2-0.3,0.4-0.5,0.5s-0.4,0.2-0.7,0.3s-0.6,0.1-0.9,0.1C345.6,44,344.8,43.8,344.3,43.4z
				 M348.6,38.8c0-0.5-0.1-0.9-0.4-1.2c-0.3-0.3-0.7-0.4-1.2-0.4c-0.3,0-0.6,0-0.9,0.1c-0.3,0.1-0.6,0.2-0.8,0.4l-1.2-0.8
				c0.3-0.4,0.7-0.7,1.2-0.9c0.5-0.2,1.1-0.3,1.7-0.3c0.7,0,1.2,0.1,1.7,0.4c0.5,0.2,0.8,0.6,1.1,1c0.3,0.5,0.4,1,0.4,1.6v5.2h-1.5
				V38.8z"/>
		</g>
	</g>
	<g>
		<path class="st4" d="M0.9,13.5h0.9l5.4,8.3l-0.4-0.3v-8.1h0.9v9.2H6.8l-5.5-8.4l0.5,0.4v8H0.9V13.5z"/>
		<path class="st4" d="M10.8,20.1c0,0.6,0.2,1,0.5,1.3c0.3,0.3,0.7,0.5,1.3,0.5c0.5,0,1-0.1,1.3-0.4c0.3-0.3,0.4-0.7,0.4-1.2
			l0.1,1.4c-0.2,0.3-0.4,0.6-0.8,0.8c-0.4,0.2-0.8,0.3-1.4,0.3c-0.7,0-1.3-0.2-1.7-0.7s-0.6-1.1-0.6-2v-4h0.9V20.1z M14.2,16.1h0.9
			v6.6h-0.9V16.1z"/>
		<path class="st4" d="M17.1,16.1H18v6.6h-0.9V16.1z M21.5,18.7c0-0.6-0.2-1-0.5-1.4c-0.3-0.3-0.7-0.5-1.3-0.5c-0.5,0-1,0.1-1.3,0.4
			C18.2,17.6,18,18,18,18.5l-0.1-1.3c0.2-0.4,0.5-0.7,0.9-0.9c0.4-0.2,0.8-0.3,1.3-0.3c0.7,0,1.3,0.2,1.7,0.7c0.4,0.5,0.6,1.1,0.6,2
			v4h-0.9V18.7z"/>
		<path class="st4" d="M26.1,22.8c0,0-0.2-0.1-0.6-0.3c-0.4-0.2-0.7-0.5-0.9-1c-0.2-0.4-0.3-1-0.3-1.6v-1.1c0-0.6,0.1-1.2,0.3-1.6
			s0.5-0.7,0.9-0.9c0.4-0.2,0.9-0.3,1.6-0.3c0.4,0,0.7,0,1,0.1c0.3,0.1,0.6,0.2,0.8,0.3c0.2,0.2,0.4,0.4,0.6,0.6l-0.7,0.6
			c-0.2-0.3-0.5-0.5-0.8-0.6c-0.3-0.1-0.6-0.2-0.9-0.2c-0.7,0-1.1,0.2-1.5,0.5c-0.3,0.3-0.5,0.8-0.5,1.5v1.1c0,0.7,0.2,1.2,0.5,1.5
			c0.3,0.3,0.8,0.5,1.5,0.5c0.4,0,0.7-0.1,1-0.2s0.6-0.3,0.8-0.6l0.6,0.6c-0.2,0.2-0.4,0.4-0.6,0.6c-0.2,0.2-0.5,0.3-0.8,0.3
			s-0.6,0.1-1,0.1C26.4,22.8,26.1,22.8,26.1,22.8z"/>
		<path class="st4" d="M32.2,24.5h0.7c0.2,0,0.4-0.1,0.6-0.2c0.1-0.2,0.2-0.4,0.2-0.7v-7.5h0.9v7.5c0,0.6-0.1,1-0.4,1.3
			s-0.6,0.5-1.1,0.5h-0.9V24.5z M33.6,13.5h0.9v0.9h-0.9V13.5z"/>
		<path class="st4" d="M37.5,20.1c0,0.6,0.2,1,0.5,1.3c0.3,0.3,0.7,0.5,1.3,0.5c0.5,0,1-0.1,1.3-0.4c0.3-0.3,0.4-0.7,0.4-1.2
			l0.1,1.4c-0.2,0.3-0.4,0.6-0.8,0.8c-0.4,0.2-0.8,0.3-1.4,0.3c-0.7,0-1.3-0.2-1.7-0.7s-0.6-1.1-0.6-2v-4h0.9V20.1z M40.9,16.1h0.9
			v6.6h-0.9V16.1z"/>
		<path class="st4" d="M45.5,22.8c0,0-0.2,0-0.5-0.1c-0.3-0.1-0.6-0.2-0.9-0.3c-0.3-0.1-0.5-0.3-0.8-0.5l0.5-0.6
			c0.4,0.2,0.7,0.4,1.1,0.6C45.3,22,45.7,22,46,22c0.6,0,1.1-0.1,1.5-0.3s0.5-0.5,0.5-0.9c0-0.3-0.1-0.5-0.3-0.6
			c-0.2-0.1-0.4-0.2-0.6-0.3s-0.6-0.1-1.1-0.1c0,0-0.1,0-0.1,0c0,0-0.1,0-0.1,0c0,0,0,0-0.1,0c0,0,0,0-0.1,0c-0.4,0-0.8-0.1-1.1-0.2
			c-0.3-0.1-0.5-0.2-0.7-0.5c-0.2-0.2-0.3-0.6-0.3-1c0-0.4,0.1-0.8,0.3-1.1c0.2-0.3,0.5-0.5,0.9-0.7c0.4-0.2,0.9-0.2,1.4-0.2
			c0.3,0,0.6,0,0.9,0.1c0.3,0.1,0.6,0.1,0.8,0.2c0.3,0.1,0.5,0.2,0.7,0.4l-0.5,0.6c-0.3-0.2-0.6-0.3-1-0.4c-0.3-0.1-0.7-0.1-1-0.1
			c-0.6,0-1,0.1-1.3,0.3c-0.3,0.2-0.5,0.5-0.5,0.9c0,0.3,0.1,0.5,0.2,0.6c0.2,0.1,0.4,0.2,0.6,0.3c0.3,0,0.6,0.1,1,0.1
			c0,0,0,0,0.1,0c0,0,0,0,0.1,0c0,0,0,0,0,0s0,0,0,0c0.5,0,0.9,0.1,1.2,0.2c0.3,0.1,0.6,0.3,0.8,0.5c0.2,0.3,0.3,0.6,0.3,1.1
			c0,0.4-0.1,0.8-0.3,1.1c-0.2,0.3-0.5,0.5-1,0.7c-0.4,0.2-0.9,0.2-1.5,0.2C45.7,22.8,45.5,22.8,45.5,22.8z"/>
		<path class="st4" d="M50,16.1h3v0.8h-3V16.1z M51.1,22.3c-0.2-0.3-0.4-0.7-0.4-1.3v-6.8h0.9V21c0,0.3,0.1,0.5,0.2,0.7
			s0.3,0.2,0.6,0.2H53v0.9h-0.7C51.7,22.7,51.3,22.6,51.1,22.3z"/>
		<path class="st4" d="M55.8,22.5c-0.4-0.2-0.7-0.6-0.9-1c-0.2-0.4-0.3-0.9-0.3-1.6v-1.1c0-0.6,0.1-1.1,0.3-1.5
			c0.2-0.4,0.5-0.7,0.9-1c0.4-0.2,0.9-0.3,1.5-0.3s1.1,0.1,1.5,0.3c0.4,0.2,0.7,0.5,0.9,1c0.2,0.4,0.3,0.9,0.3,1.5V20
			c0,0.6-0.1,1.1-0.3,1.5c-0.2,0.4-0.5,0.8-0.9,1c-0.4,0.2-0.9,0.3-1.5,0.3S56.2,22.7,55.8,22.5z M58.6,21.4
			c0.3-0.3,0.5-0.8,0.5-1.5v-1.1c0-0.6-0.2-1.1-0.5-1.5c-0.3-0.3-0.8-0.5-1.3-0.5c-0.6,0-1,0.2-1.3,0.5c-0.3,0.3-0.5,0.8-0.5,1.5V20
			c0,0.6,0.2,1.1,0.5,1.5c0.3,0.3,0.8,0.5,1.3,0.5C57.8,22,58.3,21.8,58.6,21.4z"/>
		<path class="st4" d="M65.8,22.8c0,0-0.2-0.1-0.6-0.3s-0.8-0.6-1-1c-0.2-0.4-0.3-1-0.3-1.6v-0.7c0-0.7,0.1-1.2,0.3-1.7
			c0.2-0.5,0.5-0.8,0.9-1.1c0.4-0.2,0.9-0.4,1.5-0.4c0.5,0,1,0.1,1.4,0.4c0.4,0.2,0.7,0.6,0.9,1s0.3,1,0.3,1.6v0.8h-4.8V19h3.9v-0.1
			c0-0.7-0.2-1.2-0.5-1.5c-0.3-0.4-0.7-0.5-1.3-0.5c-0.6,0-1.1,0.2-1.4,0.6c-0.3,0.4-0.5,0.9-0.5,1.6v0.8c0,0.7,0.2,1.2,0.5,1.5
			c0.4,0.4,0.9,0.5,1.5,0.5c0.3,0,0.6-0.1,0.9-0.2c0.3-0.1,0.6-0.3,0.8-0.5l0.6,0.6c-0.3,0.3-0.7,0.6-1.1,0.7
			c-0.4,0.2-0.8,0.3-1.2,0.3C66.1,22.8,65.8,22.8,65.8,22.8z"/>
		<path class="st4" d="M71,16.1h0.9v6.6H71V16.1z M74.4,17c-0.2-0.1-0.4-0.1-0.7-0.1c-0.5,0-1,0.1-1.3,0.4s-0.5,0.7-0.5,1.2
			l-0.1-1.3c0.2-0.4,0.6-0.7,0.9-0.9S73.6,16,74,16c0.3,0,0.6,0,0.8,0.1c0.2,0.1,0.5,0.2,0.6,0.4l-0.6,0.8
			C74.8,17.2,74.6,17.1,74.4,17z"/>
		<path class="st4" d="M77.5,22.5c-0.4-0.2-0.7-0.6-0.9-1c-0.2-0.4-0.3-0.9-0.3-1.6v-1.1c0-0.6,0.1-1.1,0.3-1.5
			c0.2-0.4,0.5-0.7,0.9-1c0.4-0.2,0.9-0.3,1.5-0.3s1.1,0.1,1.5,0.3c0.4,0.2,0.7,0.5,0.9,1c0.2,0.4,0.3,0.9,0.3,1.5V20
			c0,0.6-0.1,1.1-0.3,1.5c-0.2,0.4-0.5,0.8-0.9,1c-0.4,0.2-0.9,0.3-1.5,0.3S77.9,22.7,77.5,22.5z M80.3,21.4
			c0.3-0.3,0.5-0.8,0.5-1.5v-1.1c0-0.6-0.2-1.1-0.5-1.5C80,17,79.5,16.9,79,16.9c-0.6,0-1,0.2-1.3,0.5c-0.3,0.3-0.5,0.8-0.5,1.5V20
			c0,0.6,0.2,1.1,0.5,1.5C78,21.8,78.4,22,79,22C79.5,22,80,21.8,80.3,21.4z"/>
		<path class="st4" d="M85.3,22.8c0,0-0.2,0-0.5-0.1c-0.3-0.1-0.6-0.2-0.9-0.3c-0.3-0.1-0.5-0.3-0.8-0.5l0.5-0.6
			c0.4,0.2,0.7,0.4,1.1,0.6c0.4,0.1,0.8,0.2,1.1,0.2c0.6,0,1.1-0.1,1.5-0.3s0.5-0.5,0.5-0.9c0-0.3-0.1-0.5-0.3-0.6
			c-0.2-0.1-0.4-0.2-0.6-0.3s-0.6-0.1-1.1-0.1c0,0-0.1,0-0.1,0c0,0-0.1,0-0.1,0c0,0,0,0-0.1,0c0,0,0,0-0.1,0c-0.4,0-0.8-0.1-1.1-0.2
			c-0.3-0.1-0.5-0.2-0.7-0.5c-0.2-0.2-0.3-0.6-0.3-1c0-0.4,0.1-0.8,0.3-1.1c0.2-0.3,0.5-0.5,0.9-0.7C85,16.1,85.4,16,86,16
			c0.3,0,0.6,0,0.9,0.1c0.3,0.1,0.6,0.1,0.8,0.2c0.3,0.1,0.5,0.2,0.7,0.4l-0.5,0.6c-0.3-0.2-0.6-0.3-1-0.4c-0.3-0.1-0.7-0.1-1-0.1
			c-0.6,0-1,0.1-1.3,0.3c-0.3,0.2-0.5,0.5-0.5,0.9c0,0.3,0.1,0.5,0.2,0.6c0.2,0.1,0.4,0.2,0.6,0.3c0.3,0,0.6,0.1,1,0.1
			c0,0,0,0,0.1,0c0,0,0,0,0.1,0c0,0,0,0,0,0s0,0,0,0c0.5,0,0.9,0.1,1.2,0.2c0.3,0.1,0.6,0.3,0.8,0.5c0.2,0.3,0.3,0.6,0.3,1.1
			c0,0.4-0.1,0.8-0.3,1.1c-0.2,0.3-0.5,0.5-1,0.7c-0.4,0.2-0.9,0.2-1.5,0.2C85.4,22.8,85.3,22.8,85.3,22.8z"/>
		<path class="st4" d="M90.3,21.8h0.9v0.9l-0.9,0.9V21.8z"/>
		<path class="st4" d="M95.4,16.1h0.9v9.3h-0.9V16.1z M97,22.5c-0.4-0.2-0.6-0.5-0.8-0.9l0.1-1.4c0,0.3,0.1,0.6,0.2,0.8
			s0.3,0.5,0.6,0.6S97.7,22,98,22c0.5,0,1-0.2,1.3-0.5c0.3-0.3,0.5-0.8,0.5-1.4v-1.4c0-0.6-0.2-1.1-0.5-1.4C99,17,98.6,16.8,98,16.8
			c-0.3,0-0.6,0.1-0.9,0.2c-0.3,0.2-0.4,0.4-0.6,0.6c-0.1,0.3-0.2,0.5-0.2,0.8l-0.1-1.3c0.2-0.4,0.5-0.7,0.9-0.9
			c0.4-0.2,0.8-0.3,1.3-0.3c0.5,0,0.9,0.1,1.2,0.3c0.3,0.2,0.6,0.5,0.8,0.9c0.2,0.4,0.3,0.9,0.3,1.5v1.4c0,0.6-0.1,1-0.3,1.4
			c-0.2,0.4-0.4,0.7-0.8,0.9c-0.3,0.2-0.8,0.3-1.2,0.3C97.9,22.8,97.4,22.7,97,22.5z"/>
		<path class="st4" d="M102.5,16.1h0.9v6.6h-0.9V16.1z M105.9,17c-0.2-0.1-0.4-0.1-0.7-0.1c-0.5,0-1,0.1-1.3,0.4s-0.5,0.7-0.5,1.2
			l-0.1-1.3c0.2-0.4,0.6-0.7,0.9-0.9s0.8-0.3,1.3-0.3c0.3,0,0.6,0,0.8,0.1c0.2,0.1,0.5,0.2,0.6,0.4l-0.6,0.8
			C106.3,17.2,106.1,17.1,105.9,17z"/>
		<path class="st4" d="M109.7,22.8c0,0-0.2-0.1-0.6-0.3s-0.8-0.6-1-1c-0.2-0.4-0.3-1-0.3-1.6v-0.7c0-0.7,0.1-1.2,0.3-1.7
			c0.2-0.5,0.5-0.8,0.9-1.1c0.4-0.2,0.9-0.4,1.5-0.4c0.5,0,1,0.1,1.4,0.4c0.4,0.2,0.7,0.6,0.9,1s0.3,1,0.3,1.6v0.8h-4.8V19h3.9v-0.1
			c0-0.7-0.2-1.2-0.5-1.5c-0.3-0.4-0.7-0.5-1.3-0.5c-0.6,0-1.1,0.2-1.4,0.6c-0.3,0.4-0.5,0.9-0.5,1.6v0.8c0,0.7,0.2,1.2,0.5,1.5
			c0.4,0.4,0.9,0.5,1.5,0.5c0.3,0,0.6-0.1,0.9-0.2c0.3-0.1,0.6-0.3,0.8-0.5l0.6,0.6c-0.3,0.3-0.7,0.6-1.1,0.7
			c-0.4,0.2-0.8,0.3-1.2,0.3C110,22.8,109.7,22.8,109.7,22.8z"/>
		<path class="st4" d="M114.4,16.1h3v0.8h-3V16.1z M115.4,22.3c-0.2-0.3-0.4-0.7-0.4-1.3v-6.8h0.9V21c0,0.3,0.1,0.5,0.2,0.7
			s0.3,0.2,0.6,0.2h0.6v0.9h-0.7C116.1,22.7,115.7,22.6,115.4,22.3z"/>
		<path class="st4" d="M119.3,13.5h0.9v0.9h-0.9V13.5z M119.3,16.1h0.9v6.6h-0.9V16.1z"/>
		<path class="st4" d="M123.3,20.1c0,0.6,0.2,1,0.5,1.3c0.3,0.3,0.7,0.5,1.3,0.5c0.5,0,1-0.1,1.3-0.4c0.3-0.3,0.4-0.7,0.4-1.2
			l0.1,1.4c-0.2,0.3-0.4,0.6-0.8,0.8c-0.4,0.2-0.8,0.3-1.4,0.3c-0.7,0-1.3-0.2-1.7-0.7s-0.6-1.1-0.6-2v-4h0.9V20.1z M126.8,16.1h0.9
			v6.6h-0.9V16.1z"/>
		<path class="st4" d="M129.6,16.1h0.9v6.6h-0.9V16.1z M133.8,18.7c0-0.6-0.1-1-0.4-1.4c-0.3-0.3-0.7-0.5-1.2-0.5s-0.9,0.1-1.2,0.4
			c-0.3,0.3-0.4,0.7-0.4,1.2l-0.1-1.3c0.2-0.4,0.5-0.8,0.9-1c0.4-0.2,0.8-0.3,1.2-0.3c0.5,0,0.8,0.1,1.2,0.3
			c0.3,0.2,0.6,0.5,0.7,0.9c0.2,0.4,0.3,0.9,0.3,1.5v4h-0.9V18.7z M137.9,18.7c0-0.6-0.1-1-0.4-1.4c-0.3-0.3-0.7-0.5-1.2-0.5
			c-0.5,0-0.9,0.2-1.2,0.5c-0.3,0.3-0.4,0.8-0.4,1.3l-0.4-1c0.2-0.5,0.5-1,0.9-1.3c0.4-0.3,0.8-0.4,1.4-0.4c0.5,0,0.9,0.1,1.2,0.3
			c0.3,0.2,0.6,0.5,0.8,0.9c0.2,0.4,0.3,0.9,0.3,1.5v4h-0.9V18.7z"/>
		<path class="st4" d="M143.3,22.3c-0.4-0.4-0.6-0.9-0.6-1.5c0-0.6,0.2-1.1,0.6-1.4c0.4-0.3,0.9-0.5,1.6-0.5h2.2l0.1,0.9h-2.3
			c-0.4,0-0.8,0.1-1,0.3c-0.2,0.2-0.3,0.5-0.3,0.8c0,0.4,0.1,0.7,0.4,0.9s0.7,0.3,1.2,0.3c0.6,0,1-0.1,1.3-0.2s0.5-0.3,0.5-0.5
			l0.1,0.9c-0.1,0.1-0.3,0.3-0.5,0.4c-0.2,0.1-0.4,0.2-0.7,0.2s-0.5,0.1-0.9,0.1C144.3,22.8,143.7,22.6,143.3,22.3z M147,18.5
			c0-0.5-0.1-0.9-0.4-1.2c-0.3-0.3-0.7-0.4-1.2-0.4c-0.3,0-0.6,0.1-0.9,0.2s-0.6,0.2-0.8,0.4L143,17c0.3-0.3,0.6-0.5,1-0.7
			s0.9-0.3,1.4-0.3c0.5,0,1,0.1,1.4,0.3s0.7,0.5,0.9,0.8s0.3,0.8,0.3,1.3v4.2H147V18.5z"/>
		<path class="st4" d="M151.6,22.8c0,0-0.2-0.1-0.6-0.3c-0.4-0.2-0.7-0.5-0.9-1c-0.2-0.4-0.3-1-0.3-1.6v-1.1c0-0.6,0.1-1.2,0.3-1.6
			s0.5-0.7,0.9-0.9c0.4-0.2,0.9-0.3,1.6-0.3c0.4,0,0.7,0,1,0.1c0.3,0.1,0.6,0.2,0.8,0.3c0.2,0.2,0.4,0.4,0.6,0.6l-0.7,0.6
			c-0.2-0.3-0.5-0.5-0.8-0.6c-0.3-0.1-0.6-0.2-0.9-0.2c-0.7,0-1.1,0.2-1.5,0.5c-0.3,0.3-0.5,0.8-0.5,1.5v1.1c0,0.7,0.2,1.2,0.5,1.5
			c0.3,0.3,0.8,0.5,1.5,0.5c0.4,0,0.7-0.1,1-0.2s0.6-0.3,0.8-0.6l0.6,0.6c-0.2,0.2-0.4,0.4-0.6,0.6c-0.2,0.2-0.5,0.3-0.8,0.3
			s-0.6,0.1-1,0.1C151.9,22.8,151.6,22.8,151.6,22.8z"/>
		<path class="st4" d="M160.4,22.8c0,0-0.2-0.1-0.6-0.3s-0.8-0.6-1-1c-0.2-0.4-0.3-1-0.3-1.6v-0.7c0-0.7,0.1-1.2,0.3-1.7
			c0.2-0.5,0.5-0.8,0.9-1.1c0.4-0.2,0.9-0.4,1.5-0.4c0.5,0,1,0.1,1.4,0.4c0.4,0.2,0.7,0.6,0.9,1s0.3,1,0.3,1.6v0.8H159V19h3.9v-0.1
			c0-0.7-0.2-1.2-0.5-1.5c-0.3-0.4-0.7-0.5-1.3-0.5c-0.6,0-1.1,0.2-1.4,0.6c-0.3,0.4-0.5,0.9-0.5,1.6v0.8c0,0.7,0.2,1.2,0.5,1.5
			c0.4,0.4,0.9,0.5,1.5,0.5c0.3,0,0.6-0.1,0.9-0.2c0.3-0.1,0.6-0.3,0.8-0.5l0.6,0.6c-0.3,0.3-0.7,0.6-1.1,0.7
			c-0.4,0.2-0.8,0.3-1.2,0.3C160.7,22.8,160.4,22.8,160.4,22.8z"/>
		<path class="st4" d="M165.6,16.1h0.9v6.6h-0.9V16.1z M170,18.7c0-0.6-0.2-1-0.5-1.4c-0.3-0.3-0.7-0.5-1.3-0.5
			c-0.5,0-1,0.1-1.3,0.4c-0.3,0.3-0.4,0.7-0.4,1.2l-0.1-1.3c0.2-0.4,0.5-0.7,0.9-0.9c0.4-0.2,0.8-0.3,1.3-0.3c0.7,0,1.3,0.2,1.7,0.7
			c0.4,0.5,0.6,1.1,0.6,2v4H170V18.7z"/>
		<path class="st4" d="M173,13.5h0.9v0.9H173V13.5z M173,16.1h0.9v6.6H173V16.1z"/>
		<path class="st4" d="M176.1,16.1h0.9v6.6h-0.9V16.1z M180.2,18.7c0-0.6-0.1-1-0.4-1.4c-0.3-0.3-0.7-0.5-1.2-0.5s-0.9,0.1-1.2,0.4
			c-0.3,0.3-0.4,0.7-0.4,1.2l-0.1-1.3c0.2-0.4,0.5-0.8,0.9-1c0.4-0.2,0.8-0.3,1.2-0.3c0.5,0,0.8,0.1,1.2,0.3
			c0.3,0.2,0.6,0.5,0.7,0.9c0.2,0.4,0.3,0.9,0.3,1.5v4h-0.9V18.7z M184.3,18.7c0-0.6-0.1-1-0.4-1.4c-0.3-0.3-0.7-0.5-1.2-0.5
			c-0.5,0-0.9,0.2-1.2,0.5c-0.3,0.3-0.4,0.8-0.4,1.3l-0.4-1c0.2-0.5,0.5-1,0.9-1.3c0.4-0.3,0.8-0.4,1.4-0.4c0.5,0,0.9,0.1,1.2,0.3
			c0.3,0.2,0.6,0.5,0.8,0.9c0.2,0.4,0.3,0.9,0.3,1.5v4h-0.9V18.7z"/>
		<path class="st4" d="M189.8,22.3c-0.4-0.4-0.6-0.9-0.6-1.5c0-0.6,0.2-1.1,0.6-1.4c0.4-0.3,0.9-0.5,1.6-0.5h2.2l0.1,0.9h-2.3
			c-0.4,0-0.8,0.1-1,0.3c-0.2,0.2-0.3,0.5-0.3,0.8c0,0.4,0.1,0.7,0.4,0.9s0.7,0.3,1.2,0.3c0.6,0,1-0.1,1.3-0.2s0.5-0.3,0.5-0.5
			l0.1,0.9c-0.1,0.1-0.3,0.3-0.5,0.4c-0.2,0.1-0.4,0.2-0.7,0.2s-0.5,0.1-0.9,0.1C190.8,22.8,190.2,22.6,189.8,22.3z M193.5,18.5
			c0-0.5-0.1-0.9-0.4-1.2c-0.3-0.3-0.7-0.4-1.2-0.4c-0.3,0-0.6,0.1-0.9,0.2s-0.6,0.2-0.8,0.4l-0.7-0.5c0.3-0.3,0.6-0.5,1-0.7
			s0.9-0.3,1.4-0.3c0.5,0,1,0.1,1.4,0.3s0.7,0.5,0.9,0.8s0.3,0.8,0.3,1.3v4.2h-0.9V18.5z"/>
		<path class="st4" d="M198.1,22.8c0,0-0.2-0.1-0.6-0.3c-0.4-0.2-0.7-0.5-0.9-1c-0.2-0.4-0.3-1-0.3-1.6v-1.1c0-0.6,0.1-1.2,0.3-1.6
			s0.5-0.7,0.9-0.9c0.4-0.2,0.9-0.3,1.6-0.3c0.4,0,0.7,0,1,0.1c0.3,0.1,0.6,0.2,0.8,0.3c0.2,0.2,0.4,0.4,0.6,0.6l-0.7,0.6
			c-0.2-0.3-0.5-0.5-0.8-0.6c-0.3-0.1-0.6-0.2-0.9-0.2c-0.7,0-1.1,0.2-1.5,0.5c-0.3,0.3-0.5,0.8-0.5,1.5v1.1c0,0.7,0.2,1.2,0.5,1.5
			c0.3,0.3,0.8,0.5,1.5,0.5c0.4,0,0.7-0.1,1-0.2s0.6-0.3,0.8-0.6l0.6,0.6c-0.2,0.2-0.4,0.4-0.6,0.6c-0.2,0.2-0.5,0.3-0.8,0.3
			s-0.6,0.1-1,0.1C198.4,22.8,198.1,22.8,198.1,22.8z"/>
		<path class="st4" d="M202.6,21.8h0.9v0.9h-0.9V21.8z"/>
		<path class="st4" d="M3.4,29.5h1.1l3.4,9.2h-1L4,30.4L1,38.7H0L3.4,29.5z M1.6,35.6h4.9v0.9H1.6V35.6z"/>
		<path class="st4" d="M11,38.8c0,0-0.2-0.1-0.6-0.3s-0.8-0.6-1-1C9.1,37,9,36.5,9,35.9v-0.7c0-0.7,0.1-1.2,0.3-1.7
			c0.2-0.5,0.5-0.8,0.9-1.1c0.4-0.2,0.9-0.4,1.5-0.4c0.5,0,1,0.1,1.4,0.4c0.4,0.2,0.7,0.6,0.9,1s0.3,1,0.3,1.6v0.8H9.6V35h3.9v-0.1
			c0-0.7-0.2-1.2-0.5-1.5c-0.3-0.4-0.7-0.5-1.3-0.5c-0.6,0-1.1,0.2-1.4,0.6C10,33.8,9.8,34.4,9.8,35v0.8c0,0.7,0.2,1.2,0.5,1.5
			c0.4,0.4,0.9,0.5,1.5,0.5c0.3,0,0.6-0.1,0.9-0.2c0.3-0.1,0.6-0.3,0.8-0.5l0.6,0.6c-0.3,0.3-0.7,0.6-1.1,0.7
			c-0.4,0.2-0.8,0.3-1.2,0.3C11.3,38.8,11,38.8,11,38.8z"/>
		<path class="st4" d="M16.1,32.1h0.9v6.6h-0.9V32.1z M20.5,34.7c0-0.6-0.2-1-0.5-1.4c-0.3-0.3-0.7-0.5-1.3-0.5
			c-0.5,0-1,0.1-1.3,0.4c-0.3,0.3-0.4,0.7-0.4,1.2l-0.1-1.3c0.2-0.4,0.5-0.7,0.9-0.9c0.4-0.2,0.8-0.3,1.3-0.3c0.7,0,1.3,0.2,1.7,0.7
			c0.4,0.5,0.6,1.1,0.6,2v4h-0.9V34.7z"/>
		<path class="st4" d="M25.2,38.8c0,0-0.2-0.1-0.6-0.3s-0.8-0.6-1-1c-0.2-0.4-0.3-1-0.3-1.6v-0.7c0-0.7,0.1-1.2,0.3-1.7
			c0.2-0.5,0.5-0.8,0.9-1.1c0.4-0.2,0.9-0.4,1.5-0.4c0.5,0,1,0.1,1.4,0.4c0.4,0.2,0.7,0.6,0.9,1s0.3,1,0.3,1.6v0.8h-4.8V35h3.9v-0.1
			c0-0.7-0.2-1.2-0.5-1.5c-0.3-0.4-0.7-0.5-1.3-0.5c-0.6,0-1.1,0.2-1.4,0.6c-0.3,0.4-0.5,0.9-0.5,1.6v0.8c0,0.7,0.2,1.2,0.5,1.5
			c0.4,0.4,0.9,0.5,1.5,0.5c0.3,0,0.6-0.1,0.9-0.2c0.3-0.1,0.6-0.3,0.8-0.5l0.6,0.6c-0.3,0.3-0.7,0.6-1.1,0.7
			c-0.4,0.2-0.8,0.3-1.2,0.3C25.5,38.8,25.2,38.8,25.2,38.8z"/>
		<path class="st4" d="M30.7,38.3c-0.4-0.4-0.6-0.9-0.6-1.5c0-0.6,0.2-1.1,0.6-1.4c0.4-0.3,0.9-0.5,1.6-0.5h2.2l0.1,0.9h-2.3
			c-0.4,0-0.8,0.1-1,0.3c-0.2,0.2-0.3,0.5-0.3,0.8c0,0.4,0.1,0.7,0.4,0.9s0.7,0.3,1.2,0.3c0.6,0,1-0.1,1.3-0.2s0.5-0.3,0.5-0.5
			l0.1,0.9c-0.1,0.1-0.3,0.3-0.5,0.4c-0.2,0.1-0.4,0.2-0.7,0.2s-0.5,0.1-0.9,0.1C31.7,38.8,31.1,38.6,30.7,38.3z M34.4,34.5
			c0-0.5-0.1-0.9-0.4-1.2c-0.3-0.3-0.7-0.4-1.2-0.4c-0.3,0-0.6,0.1-0.9,0.2s-0.6,0.2-0.8,0.4L30.4,33c0.3-0.3,0.6-0.5,1-0.7
			s0.9-0.3,1.4-0.3c0.5,0,1,0.1,1.4,0.3s0.7,0.5,0.9,0.8s0.3,0.8,0.3,1.3v4.2h-0.9V34.5z"/>
		<path class="st4" d="M37.3,32.1h0.9v6.6h-0.9V32.1z M41.7,34.7c0-0.6-0.2-1-0.5-1.4c-0.3-0.3-0.7-0.5-1.3-0.5
			c-0.5,0-1,0.1-1.3,0.4c-0.3,0.3-0.4,0.7-0.4,1.2l-0.1-1.3c0.2-0.4,0.5-0.7,0.9-0.9c0.4-0.2,0.8-0.3,1.3-0.3c0.7,0,1.3,0.2,1.7,0.7
			c0.4,0.5,0.6,1.1,0.6,2v4h-0.9V34.7z"/>
		<path class="st4" d="M47,29.5h0.9v0.9H47V29.5z M47,32.1h0.9v6.6H47V32.1z"/>
		<path class="st4" d="M50,32.1H51v6.6H50V32.1z M54.4,34.7c0-0.6-0.2-1-0.5-1.4c-0.3-0.3-0.7-0.5-1.3-0.5c-0.5,0-1,0.1-1.3,0.4
			C51.1,33.6,51,34,51,34.5l-0.1-1.3c0.2-0.4,0.5-0.7,0.9-0.9c0.4-0.2,0.8-0.3,1.3-0.3c0.7,0,1.3,0.2,1.7,0.7c0.4,0.5,0.6,1.1,0.6,2
			v4h-0.9V34.7z"/>
		<path class="st4" d="M56.8,32.1h3v0.8h-3V32.1z M57.8,38.3c-0.2-0.3-0.4-0.7-0.4-1.3v-6.8h0.9V37c0,0.3,0.1,0.5,0.2,0.7
			s0.3,0.2,0.6,0.2h0.6v0.9H59C58.5,38.7,58.1,38.6,57.8,38.3z"/>
		<path class="st4" d="M63.3,38.8c0,0-0.2-0.1-0.6-0.3s-0.8-0.6-1-1c-0.2-0.4-0.3-1-0.3-1.6v-0.7c0-0.7,0.1-1.2,0.3-1.7
			c0.2-0.5,0.5-0.8,0.9-1.1c0.4-0.2,0.9-0.4,1.5-0.4c0.5,0,1,0.1,1.4,0.4c0.4,0.2,0.7,0.6,0.9,1s0.3,1,0.3,1.6v0.8H62V35h3.9v-0.1
			c0-0.7-0.2-1.2-0.5-1.5c-0.3-0.4-0.7-0.5-1.3-0.5c-0.6,0-1.1,0.2-1.4,0.6c-0.3,0.4-0.5,0.9-0.5,1.6v0.8c0,0.7,0.2,1.2,0.5,1.5
			c0.4,0.4,0.9,0.5,1.5,0.5c0.3,0,0.6-0.1,0.9-0.2c0.3-0.1,0.6-0.3,0.8-0.5l0.6,0.6c-0.3,0.3-0.7,0.6-1.1,0.7
			c-0.4,0.2-0.8,0.3-1.2,0.3C63.6,38.8,63.3,38.8,63.3,38.8z"/>
		<path class="st4" d="M68.5,32.1h0.9v6.6h-0.9V32.1z M71.9,33c-0.2-0.1-0.4-0.1-0.7-0.1c-0.5,0-1,0.1-1.3,0.4s-0.5,0.7-0.5,1.2
			l-0.1-1.3c0.2-0.4,0.6-0.7,0.9-0.9s0.8-0.3,1.3-0.3c0.3,0,0.6,0,0.8,0.1c0.2,0.1,0.5,0.2,0.6,0.4l-0.6,0.8
			C72.3,33.2,72.1,33.1,71.9,33z"/>
		<path class="st4" d="M74.8,38.5c-0.3-0.2-0.6-0.5-0.8-0.9c-0.2-0.4-0.3-0.9-0.3-1.4v-1.4c0-0.6,0.1-1.1,0.3-1.5
			c0.2-0.4,0.4-0.7,0.8-0.9c0.3-0.2,0.7-0.3,1.2-0.3c0.5,0,0.9,0.1,1.3,0.3c0.4,0.2,0.7,0.5,0.9,0.9l-0.1,1.3c0-0.3-0.1-0.6-0.2-0.8
			c-0.1-0.3-0.3-0.5-0.6-0.6c-0.3-0.2-0.6-0.2-0.9-0.2c-0.5,0-1,0.2-1.3,0.5c-0.3,0.3-0.5,0.8-0.5,1.4v1.4c0,0.6,0.2,1.1,0.5,1.4
			c0.3,0.3,0.7,0.5,1.3,0.5c0.3,0,0.6-0.1,0.9-0.2s0.4-0.4,0.6-0.6s0.2-0.5,0.2-0.8l0.1,1.4c-0.2,0.4-0.4,0.7-0.8,0.9
			c-0.4,0.2-0.8,0.3-1.3,0.3C75.5,38.8,75.1,38.7,74.8,38.5z M78.1,29.5H79v9.2h-0.9V29.5z"/>
		<path class="st4" d="M81.9,36.1c0,0.6,0.2,1,0.5,1.3c0.3,0.3,0.7,0.5,1.3,0.5c0.5,0,1-0.1,1.3-0.4c0.3-0.3,0.4-0.7,0.4-1.2
			l0.1,1.4c-0.2,0.3-0.4,0.6-0.8,0.8c-0.4,0.2-0.8,0.3-1.4,0.3c-0.7,0-1.3-0.2-1.7-0.7s-0.6-1.1-0.6-2v-4h0.9V36.1z M85.3,32.1h0.9
			v6.6h-0.9V32.1z"/>
		<path class="st4" d="M88.2,32.1h0.9v6.6h-0.9V32.1z M92.3,34.7c0-0.6-0.1-1-0.4-1.4c-0.3-0.3-0.7-0.5-1.2-0.5s-0.9,0.1-1.2,0.4
			c-0.3,0.3-0.4,0.7-0.4,1.2L89,33.3c0.2-0.4,0.5-0.8,0.9-1c0.4-0.2,0.8-0.3,1.2-0.3c0.5,0,0.8,0.1,1.2,0.3c0.3,0.2,0.6,0.5,0.7,0.9
			c0.2,0.4,0.3,0.9,0.3,1.5v4h-0.9V34.7z M96.4,34.7c0-0.6-0.1-1-0.4-1.4c-0.3-0.3-0.7-0.5-1.2-0.5c-0.5,0-0.9,0.2-1.2,0.5
			c-0.3,0.3-0.4,0.8-0.4,1.3l-0.4-1c0.2-0.5,0.5-1,0.9-1.3c0.4-0.3,0.8-0.4,1.4-0.4c0.5,0,0.9,0.1,1.2,0.3c0.3,0.2,0.6,0.5,0.8,0.9
			c0.2,0.4,0.3,0.9,0.3,1.5v4h-0.9V34.7z"/>
		<path class="st4" d="M101,32.1h3.3v0.8H101V32.1z M101.7,31.2c0-0.6,0.1-1,0.4-1.3s0.6-0.4,1.1-0.4h1.1v0.9h-0.9
			c-0.3,0-0.4,0.1-0.6,0.2c-0.1,0.1-0.2,0.4-0.2,0.7v7.5h-0.9V31.2z"/>
		<path class="st4" d="M106,38.3c-0.4-0.4-0.6-0.9-0.6-1.5c0-0.6,0.2-1.1,0.6-1.4c0.4-0.3,0.9-0.5,1.6-0.5h2.2l0.1,0.9h-2.3
			c-0.4,0-0.8,0.1-1,0.3c-0.2,0.2-0.3,0.5-0.3,0.8c0,0.4,0.1,0.7,0.4,0.9s0.7,0.3,1.2,0.3c0.6,0,1-0.1,1.3-0.2s0.5-0.3,0.5-0.5
			l0.1,0.9c-0.1,0.1-0.3,0.3-0.5,0.4c-0.2,0.1-0.4,0.2-0.7,0.2s-0.5,0.1-0.9,0.1C107,38.8,106.4,38.6,106,38.3z M109.7,34.5
			c0-0.5-0.1-0.9-0.4-1.2c-0.3-0.3-0.7-0.4-1.2-0.4c-0.3,0-0.6,0.1-0.9,0.2s-0.6,0.2-0.8,0.4l-0.7-0.5c0.3-0.3,0.6-0.5,1-0.7
			s0.9-0.3,1.4-0.3c0.5,0,1,0.1,1.4,0.3s0.7,0.5,0.9,0.8s0.3,0.8,0.3,1.3v4.2h-0.9V34.5z"/>
		<path class="st4" d="M114.3,38.8c0,0-0.2-0.1-0.6-0.3c-0.4-0.2-0.7-0.5-0.9-1c-0.2-0.4-0.3-1-0.3-1.6v-1.1c0-0.6,0.1-1.2,0.3-1.6
			s0.5-0.7,0.9-0.9c0.4-0.2,0.9-0.3,1.6-0.3c0.4,0,0.7,0,1,0.1c0.3,0.1,0.6,0.2,0.8,0.3c0.2,0.2,0.4,0.4,0.6,0.6l-0.7,0.6
			c-0.2-0.3-0.5-0.5-0.8-0.6c-0.3-0.1-0.6-0.2-0.9-0.2c-0.7,0-1.1,0.2-1.5,0.5c-0.3,0.3-0.5,0.8-0.5,1.5v1.1c0,0.7,0.2,1.2,0.5,1.5
			c0.3,0.3,0.8,0.5,1.5,0.5c0.4,0,0.7-0.1,1-0.2s0.6-0.3,0.8-0.6l0.6,0.6c-0.2,0.2-0.4,0.4-0.6,0.6c-0.2,0.2-0.5,0.3-0.8,0.3
			s-0.6,0.1-1,0.1C114.6,38.8,114.3,38.8,114.3,38.8z"/>
		<path class="st4" d="M119.2,29.5h0.9v0.9h-0.9V29.5z M119.2,32.1h0.9v6.6h-0.9V32.1z"/>
		<path class="st4" d="M123.2,37c0,0.3,0.1,0.5,0.2,0.7c0.1,0.2,0.3,0.2,0.6,0.2h0.6v0.9h-0.8c-0.5,0-0.9-0.2-1.1-0.5
			s-0.4-0.7-0.4-1.3v-7.5h0.9V37z"/>
		<path class="st4" d="M126.3,29.5h0.9v0.9h-0.9V29.5z M126.3,32.1h0.9v6.6h-0.9V32.1z"/>
		<path class="st4" d="M131.1,38.8c0,0-0.2,0-0.5-0.1c-0.3-0.1-0.6-0.2-0.9-0.3c-0.3-0.1-0.5-0.3-0.8-0.5l0.5-0.6
			c0.4,0.2,0.7,0.4,1.1,0.6c0.4,0.1,0.8,0.2,1.1,0.2c0.6,0,1.1-0.1,1.5-0.3s0.5-0.5,0.5-0.9c0-0.3-0.1-0.5-0.3-0.6
			c-0.2-0.1-0.4-0.2-0.6-0.3s-0.6-0.1-1.1-0.1c0,0-0.1,0-0.1,0c0,0-0.1,0-0.1,0c0,0,0,0-0.1,0c0,0,0,0-0.1,0c-0.4,0-0.8-0.1-1.1-0.2
			c-0.3-0.1-0.5-0.2-0.7-0.5c-0.2-0.2-0.3-0.6-0.3-1c0-0.4,0.1-0.8,0.3-1.1c0.2-0.3,0.5-0.5,0.9-0.7c0.4-0.2,0.9-0.2,1.4-0.2
			c0.3,0,0.6,0,0.9,0.1c0.3,0.1,0.6,0.1,0.8,0.2c0.3,0.1,0.5,0.2,0.7,0.4l-0.5,0.6c-0.3-0.2-0.6-0.3-1-0.4c-0.3-0.1-0.7-0.1-1-0.1
			c-0.6,0-1,0.1-1.3,0.3c-0.3,0.2-0.5,0.5-0.5,0.9c0,0.3,0.1,0.5,0.2,0.6c0.2,0.1,0.4,0.2,0.6,0.3c0.3,0,0.6,0.1,1,0.1
			c0,0,0,0,0.1,0c0,0,0,0,0.1,0c0,0,0,0,0,0s0,0,0,0c0.5,0,0.9,0.1,1.2,0.2c0.3,0.1,0.6,0.3,0.8,0.5c0.2,0.3,0.3,0.6,0.3,1.1
			c0,0.4-0.1,0.8-0.3,1.1c-0.2,0.3-0.5,0.5-1,0.7c-0.4,0.2-0.9,0.2-1.5,0.2C131.2,38.8,131.1,38.8,131.1,38.8z"/>
		<path class="st4" d="M136.3,29.5h0.9v0.9h-0.9V29.5z M136.3,32.1h0.9v6.6h-0.9V32.1z"/>
		<path class="st4" d="M141.1,38.8c0,0-0.2,0-0.5-0.1c-0.3-0.1-0.6-0.2-0.9-0.3c-0.3-0.1-0.5-0.3-0.8-0.5l0.5-0.6
			c0.4,0.2,0.7,0.4,1.1,0.6c0.4,0.1,0.8,0.2,1.1,0.2c0.6,0,1.1-0.1,1.5-0.3s0.5-0.5,0.5-0.9c0-0.3-0.1-0.5-0.3-0.6
			c-0.2-0.1-0.4-0.2-0.6-0.3s-0.6-0.1-1.1-0.1c0,0-0.1,0-0.1,0c0,0-0.1,0-0.1,0c0,0,0,0-0.1,0c0,0,0,0-0.1,0c-0.4,0-0.8-0.1-1.1-0.2
			c-0.3-0.1-0.5-0.2-0.7-0.5c-0.2-0.2-0.3-0.6-0.3-1c0-0.4,0.1-0.8,0.3-1.1c0.2-0.3,0.5-0.5,0.9-0.7c0.4-0.2,0.9-0.2,1.4-0.2
			c0.3,0,0.6,0,0.9,0.1c0.3,0.1,0.6,0.1,0.8,0.2c0.3,0.1,0.5,0.2,0.7,0.4l-0.5,0.6c-0.3-0.2-0.6-0.3-1-0.4c-0.3-0.1-0.7-0.1-1-0.1
			c-0.6,0-1,0.1-1.3,0.3c-0.3,0.2-0.5,0.5-0.5,0.9c0,0.3,0.1,0.5,0.2,0.6c0.2,0.1,0.4,0.2,0.6,0.3c0.3,0,0.6,0.1,1,0.1
			c0,0,0,0,0.1,0c0,0,0,0,0.1,0c0,0,0,0,0,0s0,0,0,0c0.5,0,0.9,0.1,1.2,0.2c0.3,0.1,0.6,0.3,0.8,0.5c0.2,0.3,0.3,0.6,0.3,1.1
			c0,0.4-0.1,0.8-0.3,1.1c-0.2,0.3-0.5,0.5-1,0.7c-0.4,0.2-0.9,0.2-1.5,0.2C141.2,38.8,141.1,38.8,141.1,38.8z"/>
		<path class="st4" d="M150.1,38.8c0,0-0.2-0.1-0.6-0.3s-0.8-0.6-1-1c-0.2-0.4-0.3-1-0.3-1.6v-0.7c0-0.7,0.1-1.2,0.3-1.7
			c0.2-0.5,0.5-0.8,0.9-1.1c0.4-0.2,0.9-0.4,1.5-0.4c0.5,0,1,0.1,1.4,0.4c0.4,0.2,0.7,0.6,0.9,1s0.3,1,0.3,1.6v0.8h-4.8V35h3.9v-0.1
			c0-0.7-0.2-1.2-0.5-1.5c-0.3-0.4-0.7-0.5-1.3-0.5c-0.6,0-1.1,0.2-1.4,0.6c-0.3,0.4-0.5,0.9-0.5,1.6v0.8c0,0.7,0.2,1.2,0.5,1.5
			c0.4,0.4,0.9,0.5,1.5,0.5c0.3,0,0.6-0.1,0.9-0.2c0.3-0.1,0.6-0.3,0.8-0.5l0.6,0.6c-0.3,0.3-0.7,0.6-1.1,0.7
			c-0.4,0.2-0.8,0.3-1.2,0.3C150.4,38.8,150.1,38.8,150.1,38.8z"/>
		<path class="st4" d="M155.3,32.1h0.9v6.6h-0.9V32.1z M158.6,33c-0.2-0.1-0.4-0.1-0.7-0.1c-0.5,0-1,0.1-1.3,0.4s-0.5,0.7-0.5,1.2
			l-0.1-1.3c0.2-0.4,0.6-0.7,0.9-0.9s0.8-0.3,1.3-0.3c0.3,0,0.6,0,0.8,0.1c0.2,0.1,0.5,0.2,0.6,0.4l-0.6,0.8
			C159,33.2,158.8,33.1,158.6,33z"/>
		<path class="st4" d="M161.8,38.5c-0.4-0.2-0.7-0.6-0.9-1c-0.2-0.4-0.3-0.9-0.3-1.6v-1.1c0-0.6,0.1-1.1,0.3-1.5
			c0.2-0.4,0.5-0.7,0.9-1c0.4-0.2,0.9-0.3,1.5-0.3s1.1,0.1,1.5,0.3c0.4,0.2,0.7,0.5,0.9,1c0.2,0.4,0.3,0.9,0.3,1.5V36
			c0,0.6-0.1,1.1-0.3,1.5c-0.2,0.4-0.5,0.8-0.9,1c-0.4,0.2-0.9,0.3-1.5,0.3S162.2,38.7,161.8,38.5z M164.5,37.4
			c0.3-0.3,0.5-0.8,0.5-1.5v-1.1c0-0.6-0.2-1.1-0.5-1.5c-0.3-0.3-0.8-0.5-1.3-0.5c-0.6,0-1,0.2-1.3,0.5c-0.3,0.3-0.5,0.8-0.5,1.5V36
			c0,0.6,0.2,1.1,0.5,1.5c0.3,0.3,0.8,0.5,1.3,0.5C163.8,38,164.2,37.8,164.5,37.4z"/>
		<path class="st4" d="M169.5,38.8c0,0-0.2,0-0.5-0.1c-0.3-0.1-0.6-0.2-0.9-0.3c-0.3-0.1-0.5-0.3-0.8-0.5l0.5-0.6
			c0.4,0.2,0.7,0.4,1.1,0.6c0.4,0.1,0.8,0.2,1.1,0.2c0.6,0,1.1-0.1,1.5-0.3s0.5-0.5,0.5-0.9c0-0.3-0.1-0.5-0.3-0.6
			c-0.2-0.1-0.4-0.2-0.6-0.3s-0.6-0.1-1.1-0.1c0,0-0.1,0-0.1,0c0,0-0.1,0-0.1,0c0,0,0,0-0.1,0c0,0,0,0-0.1,0c-0.4,0-0.8-0.1-1.1-0.2
			c-0.3-0.1-0.5-0.2-0.7-0.5c-0.2-0.2-0.3-0.6-0.3-1c0-0.4,0.1-0.8,0.3-1.1c0.2-0.3,0.5-0.5,0.9-0.7c0.4-0.2,0.9-0.2,1.4-0.2
			c0.3,0,0.6,0,0.9,0.1c0.3,0.1,0.6,0.1,0.8,0.2c0.3,0.1,0.5,0.2,0.7,0.4l-0.5,0.6c-0.3-0.2-0.6-0.3-1-0.4c-0.3-0.1-0.7-0.1-1-0.1
			c-0.6,0-1,0.1-1.3,0.3c-0.3,0.2-0.5,0.5-0.5,0.9c0,0.3,0.1,0.5,0.2,0.6c0.2,0.1,0.4,0.2,0.6,0.3c0.3,0,0.6,0.1,1,0.1
			c0,0,0,0,0.1,0c0,0,0,0,0.1,0c0,0,0,0,0,0s0,0,0,0c0.5,0,0.9,0.1,1.2,0.2c0.3,0.1,0.6,0.3,0.8,0.5c0.2,0.3,0.3,0.6,0.3,1.1
			c0,0.4-0.1,0.8-0.3,1.1c-0.2,0.3-0.5,0.5-1,0.7c-0.4,0.2-0.9,0.2-1.5,0.2C169.7,38.8,169.5,38.8,169.5,38.8z"/>
		<path class="st4" d="M174.5,37.8h0.9v0.9l-0.9,0.9V37.8z"/>
	</g>
	<rect x="246.2" class="st15" width="1" height="70"/>
</g>
</svg>
