<?xml version="1.0" encoding="utf-8"?>
<!-- Generator: Adobe Illustrator 23.0.1, SVG Export Plug-In . SVG Version: 6.00 Build 0)  -->
<svg version="1.1" id="Capa_1" xmlns="http://www.w3.org/2000/svg" xmlns:xlink="http://www.w3.org/1999/xlink" x="0px" y="0px"
	 viewBox="0 0 208.6 208.6" style="enable-background:new 0 0 208.6 208.6;" xml:space="preserve">
<style type="text/css">
	.st0{fill:#FFFFFF;}
</style>
<g>
	<path class="st0" d="M29.5,177c0.5,0.5,0.9,1,1.4,1.4l0.7-0.7c-0.5-0.5-0.9-0.9-1.4-1.4L29.5,177z"/>
	<path class="st0" d="M16.9,161.3c0.4,0.6,0.7,1.1,1.1,1.7l0.8-0.6c-0.4-0.5-0.7-1.1-1.1-1.7L16.9,161.3z"/>
	<path class="st0" d="M19.2,164.7c0.4,0.5,0.8,1.1,1.2,1.6l0.8-0.6c-0.4-0.5-0.8-1.1-1.2-1.6L19.2,164.7z"/>
	<path class="st0" d="M12.8,154.5c0.3,0.6,0.6,1.2,1,1.7l0.9-0.5c-0.3-0.6-0.7-1.2-1-1.7L12.8,154.5z"/>
	<path class="st0" d="M11,150.9c0.3,0.6,0.6,1.2,0.9,1.8l0.9-0.5c-0.3-0.6-0.6-1.2-0.9-1.8L11,150.9z"/>
	<path class="st0" d="M1.1,108.4l-1,0c0,0.7,0.1,1.3,0.1,2l1-0.1C1.1,109.7,1.1,109,1.1,108.4z"/>
	<path class="st0" d="M26.7,174.1c0.4,0.5,0.9,1,1.4,1.5l0.7-0.7c-0.5-0.5-0.9-1-1.3-1.5L26.7,174.1z"/>
	<path class="st0" d="M29.5,31.6c-0.5,0.5-0.9,1-1.4,1.5l0.7,0.7c0.5-0.5,0.9-1,1.4-1.4L29.5,31.6z"/>
	<path class="st0" d="M10.1,146.9l-0.9,0.4c0.3,0.6,0.6,1.2,0.8,1.8l0.9-0.4C10.7,148.1,10.4,147.5,10.1,146.9z"/>
	<path class="st0" d="M21.6,167.9c0.4,0.5,0.8,1.1,1.2,1.6l0.8-0.6c-0.4-0.5-0.8-1-1.2-1.6L21.6,167.9z"/>
	<path class="st0" d="M14.8,157.9c0.3,0.6,0.7,1.1,1,1.7l0.8-0.5c-0.4-0.6-0.7-1.1-1-1.7L14.8,157.9z"/>
	<path class="st0" d="M2.2,120.3l-1,0.2c0.1,0.7,0.2,1.3,0.3,2l1-0.2C2.4,121.6,2.3,120.9,2.2,120.3z"/>
	<path class="st0" d="M2.9,124.2l-1,0.2c0.1,0.7,0.3,1.3,0.4,2l1-0.2C3.2,125.5,3,124.8,2.9,124.2z"/>
	<path class="st0" d="M1.7,116.3l-1,0.1c0.1,0.7,0.2,1.3,0.3,2l1-0.1C1.8,117.6,1.8,117,1.7,116.3z"/>
	<path class="st0" d="M1.3,112.4l-1,0.1c0.1,0.7,0.1,1.3,0.2,2l1-0.1C1.4,113.7,1.4,113,1.3,112.4z"/>
	<path class="st0" d="M5.9,135.8l-1,0.3c0.2,0.6,0.4,1.3,0.6,1.9l0.9-0.3C6.3,137,6.1,136.4,5.9,135.8z"/>
	<path class="st0" d="M7.2,139.5l-0.9,0.3c0.2,0.6,0.5,1.3,0.7,1.9l0.9-0.4C7.6,140.8,7.4,140.1,7.2,139.5z"/>
	<path class="st0" d="M8.6,143.2l-0.9,0.4c0.3,0.6,0.5,1.2,0.8,1.8l0.9-0.4C9.1,144.5,8.8,143.9,8.6,143.2z"/>
	<path class="st0" d="M3.7,128.1l-1,0.2c0.2,0.7,0.3,1.3,0.5,2l1-0.2C4.1,129.4,3.9,128.7,3.7,128.1z"/>
	<path class="st0" d="M4.7,131.9l-1,0.3c0.2,0.6,0.4,1.3,0.6,1.9l1-0.3C5.1,133.2,4.9,132.6,4.7,131.9z"/>
	<path class="st0" d="M24.1,171c0.4,0.5,0.9,1,1.3,1.5l0.8-0.7c-0.4-0.5-0.9-1-1.3-1.5L24.1,171z"/>
	<path class="st0" d="M58.7,198.1c0.6,0.3,1.2,0.6,1.8,0.9l0.4-0.9c-0.6-0.3-1.2-0.6-1.8-0.9L58.7,198.1z"/>
	<path class="st0" d="M69.8,202.8c0.6,0.2,1.3,0.4,1.9,0.6l0.3-1c-0.6-0.2-1.3-0.4-1.9-0.6L69.8,202.8z"/>
	<path class="st0" d="M66,201.4c0.6,0.2,1.3,0.5,1.9,0.7l0.3-0.9c-0.6-0.2-1.2-0.5-1.9-0.7L66,201.4z"/>
	<path class="st0" d="M62.3,199.8c0.6,0.3,1.2,0.5,1.9,0.8l0.4-0.9c-0.6-0.3-1.2-0.5-1.8-0.8L62.3,199.8z"/>
	<path class="st0" d="M73.7,204.1c0.6,0.2,1.3,0.4,1.9,0.6l0.3-1c-0.6-0.2-1.3-0.4-1.9-0.6L73.7,204.1z"/>
	<path class="st0" d="M129.1,3c-0.7-0.2-1.3-0.3-2-0.5l-0.2,1c0.6,0.1,1.3,0.3,1.9,0.5L129.1,3z"/>
	<path class="st0" d="M77.5,205.2c0.6,0.2,1.3,0.3,1.9,0.5l0.2-1c-0.6-0.2-1.3-0.3-1.9-0.5L77.5,205.2z"/>
	<path class="st0" d="M32.3,28.8c-0.5,0.5-1,0.9-1.4,1.4l0.7,0.7c0.5-0.5,0.9-0.9,1.4-1.4L32.3,28.8z"/>
	<path class="st0" d="M125.2,2.1c-0.7-0.1-1.3-0.3-2-0.4l-0.2,1c0.7,0.1,1.3,0.2,2,0.4L125.2,2.1z"/>
	<path class="st0" d="M81.4,206.1c0.7,0.1,1.3,0.3,2,0.4l0.2-1c-0.7-0.1-1.3-0.3-1.9-0.4L81.4,206.1z"/>
	<path class="st0" d="M35.3,26.1c-0.5,0.4-1,0.9-1.5,1.3l0.7,0.7c0.5-0.4,1-0.9,1.5-1.3L35.3,26.1z"/>
	<path class="st0" d="M35.3,182.5c0.5,0.4,1,0.9,1.5,1.3l0.6-0.8c-0.5-0.4-1-0.9-1.5-1.3L35.3,182.5z"/>
	<path class="st0" d="M38.4,185.1c0.5,0.4,1,0.8,1.6,1.3l0.6-0.8c-0.5-0.4-1-0.8-1.6-1.2L38.4,185.1z"/>
	<path class="st0" d="M32.3,179.8c0.5,0.5,1,0.9,1.5,1.4l0.7-0.7c-0.5-0.4-1-0.9-1.5-1.4L32.3,179.8z"/>
	<path class="st0" d="M85.4,206.9c0.7,0.1,1.3,0.2,2,0.3l0.2-1c-0.7-0.1-1.3-0.2-2-0.3L85.4,206.9z"/>
	<path class="st0" d="M55.1,196.3c0.6,0.3,1.2,0.6,1.8,0.9l0.5-0.9c-0.6-0.3-1.2-0.6-1.8-0.9L55.1,196.3z"/>
	<path class="st0" d="M51.6,194.3c0.6,0.3,1.2,0.7,1.7,1l0.5-0.9c-0.6-0.3-1.2-0.7-1.7-1L51.6,194.3z"/>
	<path class="st0" d="M44.8,190c0.6,0.4,1.1,0.8,1.7,1.1l0.6-0.8c-0.6-0.4-1.1-0.7-1.6-1.1L44.8,190z"/>
	<path class="st0" d="M41.5,187.6c0.5,0.4,1.1,0.8,1.6,1.2l0.6-0.8c-0.5-0.4-1.1-0.8-1.6-1.2L41.5,187.6z"/>
	<path class="st0" d="M48.1,192.2c0.6,0.4,1.1,0.7,1.7,1.1l0.5-0.9c-0.6-0.3-1.1-0.7-1.7-1.1L48.1,192.2z"/>
	<path class="st0" d="M62.6,9.8l-0.4-0.9c-0.6,0.3-1.2,0.5-1.8,0.8l0.4,0.9C61.4,10.3,62,10,62.6,9.8z"/>
	<path class="st0" d="M59,11.4l-0.4-0.9c-0.6,0.3-1.2,0.6-1.8,0.9l0.5,0.9C57.8,12,58.4,11.7,59,11.4z"/>
	<path class="st0" d="M66.3,8.2l-0.4-0.9c-0.6,0.2-1.2,0.5-1.9,0.8L64.4,9C65.1,8.7,65.7,8.5,66.3,8.2z"/>
	<path class="st0" d="M73.8,5.6l-0.3-1c-0.6,0.2-1.3,0.4-1.9,0.6l0.3,0.9C72.5,6,73.2,5.8,73.8,5.6z"/>
	<path class="st0" d="M70,6.8l-0.3-0.9c-0.6,0.2-1.3,0.5-1.9,0.7l0.4,0.9C68.8,7.3,69.4,7.1,70,6.8z"/>
	<path class="st0" d="M55.5,13.2L55,12.4c-0.6,0.3-1.2,0.6-1.8,1l0.5,0.9C54.3,13.9,54.9,13.6,55.5,13.2z"/>
	<path class="st0" d="M45.3,19.5l-0.6-0.8c-0.5,0.4-1.1,0.8-1.6,1.2l0.6,0.8C44.3,20.2,44.8,19.9,45.3,19.5z"/>
	<path class="st0" d="M1,104.4l-1,0c0,0.7,0,1.3,0,2l1,0C1,105.7,1,105.1,1,104.4z"/>
	<path class="st0" d="M52,15.2l-0.5-0.9c-0.6,0.3-1.1,0.7-1.7,1l0.5,0.9C50.9,15.9,51.5,15.5,52,15.2z"/>
	<path class="st0" d="M42.1,21.8L41.5,21c-0.5,0.4-1.1,0.8-1.6,1.2l0.6,0.8C41.1,22.6,41.6,22.2,42.1,21.8z"/>
	<path class="st0" d="M77.6,4.5l-0.3-1c-0.6,0.2-1.3,0.4-1.9,0.5l0.3,1C76.3,4.8,77,4.7,77.6,4.5z"/>
	<path class="st0" d="M97.2,1.2l-0.1-1c-0.7,0-1.3,0.1-2,0.2l0.1,1C95.9,1.3,96.6,1.3,97.2,1.2z"/>
	<path class="st0" d="M101.2,1l0-1c-0.7,0-1.3,0-2,0.1l0,1C99.9,1.1,100.5,1.1,101.2,1z"/>
	<path class="st0" d="M89.3,2.1l-0.1-1c-0.7,0.1-1.3,0.2-2,0.3l0.2,1C88,2.3,88.7,2.2,89.3,2.1z"/>
	<path class="st0" d="M93.3,1.6l-0.1-1c-0.7,0.1-1.3,0.1-2,0.2l0.1,1C91.9,1.7,92.6,1.7,93.3,1.6z"/>
	<path class="st0" d="M81.5,3.5l-0.2-1c-0.7,0.1-1.3,0.3-2,0.5l0.2,1C80.2,3.8,80.8,3.7,81.5,3.5z"/>
	<path class="st0" d="M85.4,2.7l-0.2-1c-0.7,0.1-1.3,0.3-2,0.4l0.2,1C84.1,3,84.7,2.9,85.4,2.7z"/>
	<path class="st0" d="M113.2,0.4c-0.7-0.1-1.3-0.1-2-0.2l-0.1,1c0.7,0,1.3,0.1,2,0.1L113.2,0.4z"/>
	<path class="st0" d="M121.2,1.4c-0.7-0.1-1.3-0.2-2-0.3l-0.1,1c0.7,0.1,1.3,0.2,2,0.3L121.2,1.4z"/>
	<path class="st0" d="M109.2,0.1c-0.7,0-1.3-0.1-2-0.1l0,1c0.7,0,1.3,0,2,0.1L109.2,0.1z"/>
	<path class="st0" d="M48.6,17.3l-0.5-0.8c-0.6,0.4-1.1,0.7-1.7,1.1l0.6,0.8C47.5,18,48.1,17.6,48.6,17.3z"/>
	<path class="st0" d="M2.9,84.6l-1-0.2c-0.1,0.7-0.2,1.3-0.4,2l1,0.2C2.6,85.9,2.8,85.3,2.9,84.6z"/>
	<path class="st0" d="M3.7,80.7l-1-0.2c-0.2,0.7-0.3,1.3-0.4,2l1,0.2C3.4,82,3.6,81.4,3.7,80.7z"/>
	<path class="st0" d="M4.7,76.9l-1-0.3c-0.2,0.6-0.3,1.3-0.5,1.9l1,0.2C4.3,78.1,4.5,77.5,4.7,76.9z"/>
	<path class="st0" d="M7.1,69.3l-0.9-0.3c-0.2,0.6-0.5,1.3-0.7,1.9l0.9,0.3C6.7,70.5,6.9,69.9,7.1,69.3z"/>
	<path class="st0" d="M5.8,73l-1-0.3c-0.2,0.6-0.4,1.3-0.6,1.9l1,0.3C5.4,74.3,5.6,73.7,5.8,73z"/>
	<path class="st0" d="M1.7,92.5l-1-0.1c-0.1,0.7-0.1,1.3-0.2,2l1,0.1C1.5,93.8,1.6,93.1,1.7,92.5z"/>
	<path class="st0" d="M1.3,96.4l-1-0.1c-0.1,0.7-0.1,1.3-0.1,2l1,0.1C1.2,97.8,1.2,97.1,1.3,96.4z"/>
	<path class="st0" d="M1.1,100.4l-1,0c0,0.7,0,1.3-0.1,2l1,0C1,101.7,1,101.1,1.1,100.4z"/>
	<path class="st0" d="M2.2,88.5l-1-0.2c-0.1,0.7-0.2,1.3-0.3,2l1,0.1C2,89.8,2.1,89.2,2.2,88.5z"/>
	<path class="st0" d="M8.5,65.5l-0.9-0.4c-0.3,0.6-0.5,1.2-0.7,1.9l0.9,0.4C8,66.8,8.3,66.1,8.5,65.5z"/>
	<path class="st0" d="M27.5,35.2l-0.7-0.7c-0.4,0.5-0.9,1-1.3,1.5l0.8,0.7C26.6,36.2,27,35.7,27.5,35.2z"/>
	<path class="st0" d="M24.9,38.3l-0.8-0.6c-0.4,0.5-0.9,1-1.3,1.6l0.8,0.6C24,39.3,24.4,38.8,24.9,38.3z"/>
	<path class="st0" d="M22.4,41.4l-0.8-0.6c-0.4,0.5-0.8,1.1-1.2,1.6l0.8,0.6C21.6,42.4,22,41.9,22.4,41.4z"/>
	<path class="st0" d="M20,44.6L19.2,44c-0.4,0.5-0.8,1.1-1.1,1.7l0.8,0.6C19.3,45.7,19.6,45.1,20,44.6z"/>
	<path class="st0" d="M39,24.3l-0.6-0.8c-0.5,0.4-1,0.9-1.5,1.3l0.6,0.8C38,25.1,38.5,24.7,39,24.3z"/>
	<path class="st0" d="M17.8,47.9l-0.8-0.5c-0.4,0.6-0.7,1.1-1.1,1.7l0.8,0.5C17,49,17.4,48.4,17.8,47.9z"/>
	<path class="st0" d="M13.7,54.7l-0.9-0.5c-0.3,0.6-0.6,1.2-1,1.8l0.9,0.5C13,55.9,13.3,55.3,13.7,54.7z"/>
	<path class="st0" d="M10.1,61.9l-0.9-0.4c-0.3,0.6-0.5,1.2-0.8,1.8l0.9,0.4C9.6,63.1,9.8,62.5,10.1,61.9z"/>
	<path class="st0" d="M11.8,58.2l-0.9-0.4c-0.3,0.6-0.6,1.2-0.9,1.8l0.9,0.4C11.2,59.4,11.5,58.8,11.8,58.2z"/>
	<path class="st0" d="M15.7,51.3l-0.9-0.5c-0.3,0.6-0.7,1.2-1,1.7l0.9,0.5C15,52.4,15.3,51.8,15.7,51.3z"/>
	<path class="st0" d="M117.2,0.8c-0.7-0.1-1.3-0.2-2-0.2l-0.1,1c0.7,0.1,1.3,0.1,2,0.2L117.2,0.8z"/>
	<path class="st0" d="M174.1,180.5l0.7,0.7c0.5-0.5,1-0.9,1.5-1.4l-0.7-0.7C175.1,179.6,174.6,180.1,174.1,180.5z"/>
	<path class="st0" d="M171.1,183.1l0.6,0.8c0.5-0.4,1-0.9,1.5-1.3l-0.7-0.8C172.1,182.3,171.6,182.7,171.1,183.1z"/>
	<path class="st0" d="M168,185.7l0.6,0.8c0.5-0.4,1-0.8,1.6-1.3l-0.6-0.8C169.1,184.8,168.6,185.3,168,185.7z"/>
	<path class="st0" d="M177,177.8l0.7,0.7c0.5-0.5,0.9-0.9,1.4-1.4l-0.7-0.7C177.9,176.8,177.5,177.3,177,177.8z"/>
	<path class="st0" d="M187,40.7l-0.8,0.6c0.4,0.5,0.8,1.1,1.2,1.6l0.8-0.6C187.8,41.8,187.4,41.2,187,40.7z"/>
	<path class="st0" d="M147.7,198.1l0.4,0.9c0.6-0.3,1.2-0.6,1.8-0.9l-0.4-0.9C148.9,197.5,148.3,197.8,147.7,198.1z"/>
	<path class="st0" d="M185,168.9l0.8,0.6c0.4-0.5,0.8-1.1,1.2-1.6l-0.8-0.6C185.8,167.9,185.4,168.4,185,168.9z"/>
	<path class="st0" d="M179.8,174.9l0.7,0.7c0.5-0.5,0.9-1,1.4-1.5l-0.7-0.7C180.7,173.9,180.2,174.4,179.8,174.9z"/>
	<path class="st0" d="M184.5,37.6l-0.8,0.6c0.4,0.5,0.8,1,1.3,1.5l0.8-0.6C185.3,38.6,184.9,38.1,184.5,37.6z"/>
	<path class="st0" d="M182.4,172l0.8,0.7c0.4-0.5,0.9-1,1.3-1.5l-0.8-0.6C183.3,171,182.9,171.5,182.4,172z"/>
	<path class="st0" d="M170.2,23.4l-0.6,0.8c0.5,0.4,1,0.8,1.5,1.3l0.6-0.8C171.2,24.3,170.7,23.9,170.2,23.4z"/>
	<path class="st0" d="M153.5,12.3l-0.5,0.9c0.6,0.3,1.2,0.6,1.7,1l0.5-0.9C154.7,12.9,154.1,12.6,153.5,12.3z"/>
	<path class="st0" d="M157,14.3l-0.5,0.9c0.6,0.3,1.1,0.7,1.7,1l0.5-0.9C158.2,14.9,157.6,14.6,157,14.3z"/>
	<path class="st0" d="M154.8,194.5l0.5,0.9c0.6-0.3,1.2-0.7,1.7-1l-0.5-0.9C156,193.8,155.4,194.2,154.8,194.5z"/>
	<path class="st0" d="M164.9,188.1l0.6,0.8c0.5-0.4,1.1-0.8,1.6-1.2l-0.6-0.8C165.9,187.3,165.4,187.7,164.9,188.1z"/>
	<path class="st0" d="M151.3,196.4l0.5,0.9c0.6-0.3,1.2-0.6,1.8-0.9l-0.5-0.9C152.5,195.7,151.9,196.1,151.3,196.4z"/>
	<path class="st0" d="M149.9,10.5l-0.4,0.9c0.6,0.3,1.2,0.6,1.8,0.9l0.5-0.9C151.1,11.1,150.5,10.8,149.9,10.5z"/>
	<path class="st0" d="M158.2,192.5l0.5,0.9c0.6-0.3,1.1-0.7,1.7-1.1l-0.5-0.8C159.4,191.8,158.8,192.1,158.2,192.5z"/>
	<path class="st0" d="M161.6,190.3l0.6,0.8c0.6-0.4,1.1-0.7,1.7-1.1l-0.6-0.8C162.7,189.6,162.1,190,161.6,190.3z"/>
	<path class="st0" d="M163.8,18.6l-0.6,0.8c0.5,0.4,1.1,0.8,1.6,1.2l0.6-0.8C164.9,19.4,164.3,19,163.8,18.6z"/>
	<path class="st0" d="M160.4,16.4l-0.5,0.8c0.6,0.4,1.1,0.7,1.7,1.1l0.6-0.8C161.6,17.1,161,16.7,160.4,16.4z"/>
	<path class="st0" d="M167,21l-0.6,0.8c0.5,0.4,1.1,0.8,1.6,1.2l0.6-0.8C168.1,21.8,167.6,21.4,167,21z"/>
	<path class="st0" d="M204.4,129.9l1,0.2c0.2-0.6,0.3-1.3,0.5-2l-1-0.2C204.8,128.7,204.6,129.3,204.4,129.9z"/>
	<path class="st0" d="M206.1,122.2l1,0.2c0.1-0.7,0.2-1.3,0.3-2l-1-0.2C206.3,120.8,206.2,121.5,206.1,122.2z"/>
	<path class="st0" d="M205.3,126.1l1,0.2c0.1-0.7,0.3-1.3,0.4-2l-1-0.2C205.6,124.8,205.5,125.4,205.3,126.1z"/>
	<path class="st0" d="M203.4,133.8l1,0.3c0.2-0.6,0.4-1.3,0.6-1.9l-1-0.3C203.8,132.5,203.6,133.1,203.4,133.8z"/>
	<path class="st0" d="M202.2,137.6l0.9,0.3c0.2-0.6,0.4-1.3,0.6-1.9l-1-0.3C202.6,136.3,202.4,136.9,202.2,137.6z"/>
	<path class="st0" d="M207.2,114.3l1,0.1c0.1-0.7,0.1-1.3,0.2-2l-1-0.1C207.3,112.9,207.2,113.6,207.2,114.3z"/>
	<path class="st0" d="M206.7,118.2l1,0.1c0.1-0.7,0.2-1.3,0.2-2l-1-0.1C206.9,116.9,206.8,117.6,206.7,118.2z"/>
	<path class="st0" d="M207.5,110.3l1,0.1c0-0.7,0.1-1.3,0.1-2l-1,0C207.5,109,207.5,109.6,207.5,110.3z"/>
	<path class="st0" d="M208.6,104.2h-1l0,0.2c0,0.7,0,1.3,0,2l1,0c0-0.7,0-1.3,0-2L208.6,104.2z"/>
	<path class="st0" d="M200.8,141.3l0.9,0.4c0.2-0.6,0.5-1.3,0.7-1.9l-0.9-0.3C201.3,140.1,201,140.7,200.8,141.3z"/>
	<path class="st0" d="M191.6,47.2l-0.8,0.5c0.4,0.6,0.7,1.1,1.1,1.7l0.8-0.5C192.4,48.4,192,47.8,191.6,47.2z"/>
	<path class="st0" d="M191.9,159.2l0.8,0.5c0.4-0.6,0.7-1.1,1.1-1.7l-0.9-0.5C192.6,158,192.3,158.6,191.9,159.2z"/>
	<path class="st0" d="M193.8,50.6l-0.9,0.5c0.3,0.6,0.7,1.1,1,1.7l0.9-0.5C194.5,51.8,194.1,51.2,193.8,50.6z"/>
	<path class="st0" d="M189.4,43.9l-0.8,0.6c0.4,0.5,0.8,1.1,1.1,1.6l0.8-0.6C190.2,45,189.8,44.5,189.4,43.9z"/>
	<path class="st0" d="M189.7,162.5l0.8,0.6c0.4-0.6,0.8-1.1,1.1-1.7l-0.8-0.5C190.5,161.4,190.1,161.9,189.7,162.5z"/>
	<path class="st0" d="M195.9,152.2l0.9,0.5c0.3-0.6,0.6-1.2,0.9-1.8l-0.9-0.4C196.5,151.1,196.2,151.7,195.9,152.2z"/>
	<path class="st0" d="M197.7,148.7l0.9,0.4c0.3-0.6,0.6-1.2,0.8-1.8l-0.9-0.4C198.2,147.5,197.9,148.1,197.7,148.7z"/>
	<path class="st0" d="M194,155.7l0.9,0.5c0.3-0.6,0.7-1.2,1-1.8l-0.9-0.5C194.6,154.6,194.3,155.2,194,155.7z"/>
	<path class="st0" d="M199.3,145l0.9,0.4c0.3-0.6,0.5-1.2,0.8-1.9l-0.9-0.4C199.8,143.8,199.6,144.4,199.3,145z"/>
	<path class="st0" d="M195.8,54.1l-0.9,0.5c0.3,0.6,0.6,1.2,0.9,1.7l0.9-0.5C196.4,55.3,196.1,54.7,195.8,54.1z"/>
	<path class="st0" d="M187.4,165.7l0.8,0.6c0.4-0.5,0.8-1.1,1.2-1.6l-0.8-0.6C188.2,164.7,187.8,165.2,187.4,165.7z"/>
	<path class="st0" d="M109.3,207.5l0,1c0.7,0,1.3-0.1,2-0.1l-0.1-1C110.7,207.5,110,207.5,109.3,207.5z"/>
	<path class="st0" d="M198.5,59.5c-0.3-0.6-0.6-1.2-0.9-1.8l-0.9,0.4c0.3,0.6,0.6,1.2,0.9,1.8L198.5,59.5z"/>
	<path class="st0" d="M183.2,36c-0.4-0.5-0.9-1-1.3-1.5l-0.7,0.7c0.4,0.5,0.9,1,1.3,1.5L183.2,36z"/>
	<path class="st0" d="M105.4,207.6l0,1c0.7,0,1.3,0,2,0l0-1C106.7,207.6,106,207.6,105.4,207.6z"/>
	<path class="st0" d="M199.3,63.5l0.9-0.4c-0.3-0.6-0.5-1.2-0.8-1.8l-0.9,0.4C198.7,62.3,199,62.9,199.3,63.5z"/>
	<path class="st0" d="M203.3,74.7l1-0.3c-0.2-0.6-0.4-1.3-0.6-1.9l-1,0.3C202.9,73.4,203.1,74.1,203.3,74.7z"/>
	<path class="st0" d="M202.1,70.9l0.9-0.3c-0.2-0.6-0.4-1.3-0.7-1.9l-0.9,0.3C201.7,69.7,201.9,70.3,202.1,70.9z"/>
	<path class="st0" d="M200.8,67.2l0.9-0.4c-0.2-0.6-0.5-1.2-0.7-1.9l-0.9,0.4C200.3,65.9,200.5,66.6,200.8,67.2z"/>
	<path class="st0" d="M113.3,207.3l0.1,1c0.7-0.1,1.3-0.1,2-0.2l-0.1-1C114.6,207.1,114,207.2,113.3,207.3z"/>
	<path class="st0" d="M174.8,27.4c-0.5-0.5-1-0.9-1.5-1.3l-0.7,0.8c0.5,0.4,1,0.9,1.5,1.3L174.8,27.4z"/>
	<path class="st0" d="M93.3,208.1c0.7,0.1,1.3,0.1,2,0.2l0.1-1c-0.7-0.1-1.3-0.1-2-0.2L93.3,208.1z"/>
	<path class="st0" d="M117.3,206.8l0.1,1c0.7-0.1,1.3-0.2,2-0.3l-0.1-1C118.6,206.7,117.9,206.8,117.3,206.8z"/>
	<path class="st0" d="M97.3,208.4c0.7,0,1.3,0.1,2,0.1l0-1c-0.7,0-1.3-0.1-2-0.1L97.3,208.4z"/>
	<path class="st0" d="M180.5,33c-0.5-0.5-0.9-1-1.4-1.5l-0.7,0.7c0.5,0.5,0.9,1,1.4,1.4L180.5,33z"/>
	<path class="st0" d="M89.3,207.6c0.7,0.1,1.3,0.2,2,0.3l0.1-1c-0.7-0.1-1.3-0.2-2-0.3L89.3,207.6z"/>
	<path class="st0" d="M101.3,208.6c0.7,0,1.3,0,2,0l0-1c-0.7,0-1.3,0-2,0L101.3,208.6z"/>
	<path class="st0" d="M105.2,0l-0.9,0c-0.4,0-0.8,0-1.1,0l0,1c0.4,0,0.7,0,1.1,0l0.9,0L105.2,0z"/>
	<path class="st0" d="M177.7,30.2c-0.5-0.5-1-0.9-1.4-1.4l-0.7,0.7c0.5,0.5,1,0.9,1.4,1.4L177.7,30.2z"/>
	<path class="st0" d="M136.7,202.5l0.3,1c0.6-0.2,1.3-0.4,1.9-0.6l-0.3-0.9C137.9,202.1,137.3,202.3,136.7,202.5z"/>
	<path class="st0" d="M134.9,4.6l-0.3,1c0.6,0.2,1.3,0.4,1.9,0.6l0.3-1C136.2,5,135.5,4.8,134.9,4.6z"/>
	<path class="st0" d="M146.2,8.8l-0.4,0.9c0.6,0.3,1.2,0.5,1.8,0.8l0.4-0.9C147.5,9.3,146.9,9,146.2,8.8z"/>
	<path class="st0" d="M132.9,203.6l0.3,1c0.6-0.2,1.3-0.4,1.9-0.6l-0.3-1C134.1,203.3,133.5,203.5,132.9,203.6z"/>
	<path class="st0" d="M142.5,7.2l-0.4,0.9c0.6,0.2,1.2,0.5,1.9,0.7l0.4-0.9C143.8,7.7,143.1,7.5,142.5,7.2z"/>
	<path class="st0" d="M131,3.5l-0.3,1c0.6,0.2,1.3,0.3,1.9,0.5l0.3-1C132.3,3.8,131.7,3.6,131,3.5z"/>
	<path class="st0" d="M140.4,201.2l0.3,0.9c0.6-0.2,1.3-0.5,1.9-0.7l-0.4-0.9C141.7,200.7,141,200.9,140.4,201.2z"/>
	<path class="st0" d="M204.4,78.6l1-0.2c-0.2-0.6-0.3-1.3-0.5-1.9l-1,0.3C204.1,77.3,204.2,77.9,204.4,78.6z"/>
	<path class="st0" d="M144.1,199.7l0.4,0.9c0.6-0.3,1.2-0.5,1.8-0.8l-0.4-0.9C145.3,199.2,144.7,199.4,144.1,199.7z"/>
	<path class="st0" d="M138.7,5.8l-0.3,0.9c0.6,0.2,1.3,0.4,1.9,0.7l0.3-0.9C140,6.3,139.4,6,138.7,5.8z"/>
	<path class="st0" d="M207.6,102.2l1,0c0-0.7,0-1.3-0.1-2l-1,0C207.6,100.8,207.6,101.5,207.6,102.2z"/>
	<path class="st0" d="M207.5,98.2l1-0.1c0-0.7-0.1-1.3-0.1-2l-1,0.1C207.4,96.9,207.4,97.5,207.5,98.2z"/>
	<path class="st0" d="M206.7,90.3l1-0.1c-0.1-0.7-0.2-1.3-0.3-2l-1,0.2C206.5,89,206.6,89.6,206.7,90.3z"/>
	<path class="st0" d="M206.1,86.3l1-0.2c-0.1-0.7-0.2-1.3-0.4-2l-1,0.2C205.8,85,206,85.7,206.1,86.3z"/>
	<path class="st0" d="M205.3,82.4l1-0.2c-0.1-0.7-0.3-1.3-0.4-2l-1,0.2C205,81.1,205.2,81.8,205.3,82.4z"/>
	<path class="st0" d="M125.1,205.5l0.2,1c0.7-0.1,1.3-0.3,2-0.4l-0.2-1C126.4,205.3,125.8,205.4,125.1,205.5z"/>
	<path class="st0" d="M129,204.7l0.2,1c0.7-0.2,1.3-0.3,1.9-0.5l-0.3-1C130.3,204.3,129.7,204.5,129,204.7z"/>
	<path class="st0" d="M121.2,206.3l0.2,1c0.7-0.1,1.3-0.2,2-0.3l-0.2-1C122.5,206,121.9,206.2,121.2,206.3z"/>
	<path class="st0" d="M207.2,94.2l1-0.1c-0.1-0.7-0.1-1.3-0.2-2l-1,0.1C207,92.9,207.1,93.6,207.2,94.2z"/>
	<path class="st0" d="M128,90.5c-0.3-0.6-0.7-1.2-1.1-1.7l-0.8,0.6c0.4,0.5,0.7,1.1,1.1,1.7L128,90.5z"/>
	<path class="st0" d="M129.9,114.3c0.2-0.6,0.5-1.3,0.7-1.9l-1-0.3c-0.2,0.6-0.4,1.3-0.7,1.9L129.9,114.3z"/>
	<path class="st0" d="M131.7,102.2c-0.1-0.7-0.1-1.4-0.2-2l-1,0.2c0.1,0.6,0.2,1.3,0.2,2L131.7,102.2z"/>
	<path class="st0" d="M100.3,78.2l-0.2-1c-0.7,0.1-1.3,0.2-2,0.4l0.2,1C99,78.4,99.7,78.3,100.3,78.2z"/>
	<path class="st0" d="M128.1,92.8c0.3,0.6,0.6,1.2,0.8,1.8l0.9-0.4c-0.3-0.6-0.5-1.3-0.8-1.9L128.1,92.8z"/>
	<path class="st0" d="M129.6,96.4c0.2,0.6,0.4,1.3,0.5,1.9l1-0.2c-0.2-0.7-0.3-1.3-0.5-2L129.6,96.4z"/>
	<path class="st0" d="M119.7,81.6c-0.6-0.4-1.2-0.7-1.7-1.1l-0.5,0.9c0.6,0.3,1.1,0.7,1.7,1L119.7,81.6z"/>
	<path class="st0" d="M122.2,84.9l0.7-0.7c-0.5-0.5-1-0.9-1.6-1.3l-0.6,0.8C121.2,84,121.8,84.4,122.2,84.9z"/>
	<path class="st0" d="M96.5,79.1l-0.3-1c-0.7,0.2-1.3,0.4-1.9,0.7l0.4,0.9C95.2,79.5,95.8,79.3,96.5,79.1z"/>
	<path class="st0" d="M77.9,102.4l-1-0.1c0,0.7-0.1,1.3-0.1,2v0.1l1-0.1C77.9,103.7,77.9,103,77.9,102.4z"/>
	<path class="st0" d="M117.6,127.2c-0.6,0.3-1.2,0.6-1.7,0.9l0.4,0.9c0.6-0.3,1.2-0.6,1.8-1L117.6,127.2z"/>
	<path class="st0" d="M114,128.9c-0.6,0.2-1.2,0.5-1.9,0.7l0.3,1c0.6-0.2,1.3-0.4,1.9-0.7L114,128.9z"/>
	<path class="st0" d="M114.3,78.7l-0.4,0.9c0.6,0.2,1.2,0.5,1.8,0.8l0.4-0.9C115.5,79.3,114.9,79,114.3,78.7z"/>
	<path class="st0" d="M110.2,130.1c-0.6,0.1-1.3,0.3-1.9,0.4l0.1,1c0.7-0.1,1.3-0.2,2-0.4L110.2,130.1z"/>
	<path class="st0" d="M110.3,77.5l-0.2,1c0.6,0.1,1.3,0.3,1.9,0.5l0.3-1C111.7,77.9,111,77.7,110.3,77.5z"/>
	<path class="st0" d="M106.3,76.9l-0.1,1c0.7,0,1.3,0.1,2,0.2l0.1-1C107.6,77.1,107,77,106.3,76.9z"/>
	<path class="st0" d="M102.2,77l0.1,1c0.7-0.1,1.3-0.1,2-0.1l0-1C103.6,76.9,102.9,76.9,102.2,77z"/>
	<path class="st0" d="M106.3,130.7c-0.7,0-1.3,0.1-2,0.1l0,1c0.7,0,1.4,0,2-0.1L106.3,130.7z"/>
	<path class="st0" d="M124.4,85.6l-0.7,0.7c0.4,0.5,0.9,1,1.3,1.5l0.8-0.6C125.3,86.6,124.8,86.1,124.4,85.6z"/>
	<path class="st0" d="M130.1,110.2l1,0.2c0.2-0.7,0.3-1.3,0.4-2l-1-0.1C130.4,108.9,130.2,109.6,130.1,110.2z"/>
	<path class="st0" d="M128.1,115.8c-0.3,0.6-0.6,1.2-0.9,1.7l0.9,0.5c0.3-0.6,0.7-1.2,1-1.8L128.1,115.8z"/>
	<path class="st0" d="M120.8,125c-0.5,0.4-1,0.8-1.6,1.2l0.6,0.8c0.6-0.4,1.1-0.8,1.6-1.2L120.8,125z"/>
	<path class="st0" d="M130.8,104.3c0,0.7,0,1.3-0.1,2l1,0.1c0-0.7,0.1-1.4,0.1-2v-0.1h-1V104.3z"/>
	<path class="st0" d="M127,119.8l-0.8-0.6c-0.4,0.5-0.8,1.1-1.2,1.6l0.8,0.6C126.2,120.9,126.6,120.3,127,119.8z"/>
	<path class="st0" d="M122.3,123.7l0.7,0.7c0.5-0.5,1-1,1.5-1.5l-0.7-0.7C123.3,122.8,122.8,123.2,122.3,123.7z"/>
	<path class="st0" d="M92.8,80.5l-0.4-0.9c-0.6,0.3-1.2,0.6-1.8,1l0.5,0.9C91.6,81.1,92.2,80.8,92.8,80.5z"/>
	<path class="st0" d="M102.4,130.7c-0.7,0-1.3-0.1-2-0.2l-0.1,1c0.7,0.1,1.4,0.2,2,0.2L102.4,130.7z"/>
	<path class="st0" d="M98.5,130.1c-0.6-0.1-1.3-0.3-1.9-0.5l-0.3,1c0.7,0.2,1.3,0.4,2,0.5L98.5,130.1z"/>
	<path class="st0" d="M80.5,92.9c0.3-0.6,0.6-1.2,0.9-1.8l-0.9-0.5c-0.3,0.6-0.7,1.2-1,1.8L80.5,92.9z"/>
	<path class="st0" d="M77.6,110.5c0.2,0.7,0.3,1.3,0.5,2l1-0.3c-0.2-0.6-0.4-1.3-0.5-1.9L77.6,110.5z"/>
	<path class="st0" d="M89.4,82.5l-0.6-0.8c-0.6,0.4-1.1,0.8-1.6,1.2l0.6,0.8C88.3,83.3,88.8,82.9,89.4,82.5z"/>
	<path class="st0" d="M77.2,100.3l1,0.1c0.1-0.6,0.2-1.3,0.4-1.9l-1-0.2C77.4,98.9,77.3,99.6,77.2,100.3z"/>
	<path class="st0" d="M84.9,86.4c0.4-0.5,0.9-1,1.4-1.4l-0.7-0.7c-0.5,0.5-1,1-1.4,1.5L84.9,86.4z"/>
	<path class="st0" d="M83.6,87.9l-0.8-0.6c-0.4,0.5-0.8,1.1-1.2,1.7l0.8,0.6C82.8,88.9,83.2,88.4,83.6,87.9z"/>
	<path class="st0" d="M79.7,94.7l-0.9-0.4c-0.2,0.6-0.5,1.3-0.7,1.9l1,0.3C79.2,96,79.4,95.3,79.7,94.7z"/>
	<path class="st0" d="M91.1,127.2c-0.6-0.3-1.1-0.7-1.7-1.1l-0.6,0.8c0.6,0.4,1.1,0.8,1.7,1.1L91.1,127.2z"/>
	<path class="st0" d="M85.7,124.5c0.5,0.5,1,0.9,1.6,1.3l0.6-0.8c-0.5-0.4-1-0.8-1.5-1.3L85.7,124.5z"/>
	<path class="st0" d="M94.7,129c-0.6-0.2-1.2-0.5-1.8-0.8l-0.4,0.9c0.6,0.3,1.2,0.6,1.9,0.8L94.7,129z"/>
	<path class="st0" d="M78.8,114.4c0.2,0.6,0.5,1.3,0.8,1.9l0.9-0.4c-0.3-0.6-0.6-1.2-0.8-1.8L78.8,114.4z"/>
	<path class="st0" d="M82.9,121.5c0.4,0.5,0.9,1.1,1.3,1.6l0.7-0.7c-0.4-0.5-0.9-1-1.3-1.5L82.9,121.5z"/>
	<path class="st0" d="M78,106.3l-1,0.1c0.1,0.7,0.1,1.4,0.2,2l1-0.1C78.1,107.7,78,107,78,106.3z"/>
	<path class="st0" d="M82.5,119.2c-0.4-0.5-0.7-1.1-1.1-1.7l-0.9,0.5c0.3,0.6,0.7,1.2,1.1,1.7L82.5,119.2z"/>
</g>
</svg>
