<svg xmlns="http://www.w3.org/2000/svg" xmlns:xlink="http://www.w3.org/1999/xlink" viewBox="0 0 83.63 83.65"><defs><style>.cls-1{fill:url(#linear-gradient);}.cls-2{fill:#fff;fill-rule:evenodd;}</style><linearGradient id="linear-gradient" x1="41.81" y1="-45.95" x2="41.81" y2="91.6" gradientUnits="userSpaceOnUse"><stop offset="0.32" stop-color="#20a9e5"/><stop offset="0.67" stop-color="#1686c3"/></linearGradient></defs><title>twittericon</title><g id="Capa_2" data-name="Capa 2"><g id="Capa_1-2" data-name="Capa 1"><path class="cls-1" d="M83.63,41.82A41.82,41.82,0,1,1,41.82,0,41.84,41.84,0,0,1,83.63,41.82Z"/><path class="cls-2" d="M16.51,58.84a23.83,23.83,0,0,0,11.46-2,21,21,0,0,0,4.6-2.75,11.38,11.38,0,0,1-4.76-1.19,10.75,10.75,0,0,1-5.24-5.86c-.24-.59-.24-.59.41-.55a8.48,8.48,0,0,0,4-.27,10.58,10.58,0,0,1-2.59-1,11,11,0,0,1-5.94-9.35c0-.49.09-.55.54-.33a11.41,11.41,0,0,0,4.31,1.19c-.7-.65-1.31-1.15-1.85-1.7a11.3,11.3,0,0,1-1.74-12.47c.27-.53.37-.53.74-.1a31.27,31.27,0,0,0,19.18,10.7c.78.14,1.64.16,2.44.31.54.08.6-.17.52-.58A11,11,0,0,1,61,23a1.23,1.23,0,0,0,1.21.29A22.06,22.06,0,0,0,68,21.07a1.79,1.79,0,0,0,.46-.29,11,11,0,0,1-4.63,6.06,22.35,22.35,0,0,0,5.92-1.56c0,.27-.16.43-.27.62A21.44,21.44,0,0,1,65,30.56a1,1,0,0,0-.41.91A32,32,0,0,1,57,52.93,29.74,29.74,0,0,1,38.61,63.22,31.2,31.2,0,0,1,16.74,59C16.66,58.92,16.57,58.84,16.51,58.84Z"/></g></g></svg>