<svg xmlns="http://www.w3.org/2000/svg" viewBox="0 0 53.25 53.25"><defs><style>.cls-1{fill:#f8b133;}.cls-2{opacity:0.75;}</style></defs><title>webicon</title><g id="Capa_2" data-name="Capa 2"><g id="Capa_1-2" data-name="Capa 1"><circle class="cls-1" cx="26.63" cy="26.63" r="26.63"/><g class="cls-2"><rect x="19.18" y="17.06" width="13.42" height="1.55"/><rect x="21.25" y="22.73" width="3.1" height="1.03"/><path d="M33.64,25.86a.59.59,0,0,1,.17-.42l.4-.4-3.42-1,.66,2.18.37,1.24.37-.38a.68.68,0,0,1,.48-.19.66.66,0,0,1,.47.19l1.14,1.14.73-.73-1.2-1.2A.58.58,0,0,1,33.64,25.86Z"/><path d="M32.6,23.49V19.64H19.18v6.19H30.26l-.48-1.6-.18-.59c-.07-.25-.16-.51,0-.74h0c.26-.26.61-.1.91,0l1,.3Zm-7.22.79a.52.52,0,0,1-.52.52H20.73a.51.51,0,0,1-.51-.52V22.22a.51.51,0,0,1,.51-.52h4.13a.52.52,0,0,1,.52.52Z"/><path d="M14,31.51H11.44v2.06a2.07,2.07,0,0,0,2.07,2.07H23.8c-.12,2-1,3.09-2.55,3.09h-1a1.55,1.55,0,1,0,0,3.1H33.63a1.55,1.55,0,0,0,0-3.1h-1c-1.58,0-2.43-1-2.55-3.09H40.34a2.07,2.07,0,0,0,2.07-2.07V31.51H14Zm11.36,1h3.09a.52.52,0,1,1,0,1H25.38a.52.52,0,1,1,0-1Zm4.71,6.19H23.76a4.93,4.93,0,0,0,1.09-3.09H29A4.93,4.93,0,0,0,30.09,38.73Z"/><path d="M14.54,15V30.48H39.31V15ZM36.1,27.83l-1.46,1.46a.48.48,0,0,1-.36.15.51.51,0,0,1-.37-.15l-1.24-1.24-.73.73a.5.5,0,0,1-.49.13.5.5,0,0,1-.37-.35l-.51-1.7H18.67a.51.51,0,0,1-.52-.51V16.54a.51.51,0,0,1,.52-.51H33.12a.51.51,0,0,1,.51.51v7.25l1.7.51a.55.55,0,0,1,.36.37.51.51,0,0,1-.14.49l-.69.7L36.1,27.1A.52.52,0,0,1,36.1,27.83Z"/><path d="M40.34,11.9H13.51A2.07,2.07,0,0,0,11.44,14V30.48h2.07v-16A.51.51,0,0,1,14,14H39.83a.51.51,0,0,1,.51.52v16h2.07V14A2.07,2.07,0,0,0,40.34,11.9Z"/></g></g></g></svg>