<svg xmlns="http://www.w3.org/2000/svg" xmlns:xlink="http://www.w3.org/1999/xlink" viewBox="0 0 83.64 83.65"><defs><style>.cls-1{fill:url(#linear-gradient);}.cls-2{fill:#fff;fill-rule:evenodd;}</style><linearGradient id="linear-gradient" x1="40.95" y1="-33.26" x2="42.47" y2="97.69" gradientUnits="userSpaceOnUse"><stop offset="0.13" stop-color="#01cf2d"/><stop offset="0.79" stop-color="#009804"/></linearGradient></defs><title>whatsappicon</title><g id="Capa_2" data-name="Capa 2"><g id="Capa_1-2" data-name="Capa 1"><path class="cls-1" d="M83.64,41.8A41.82,41.82,0,1,1,41.8,0,41.83,41.83,0,0,1,83.64,41.8Z"/><path class="cls-2" d="M66.6,35.84A25.41,25.41,0,0,0,41.8,16.2a30.57,30.57,0,0,0-4.86.5A25.39,25.39,0,0,0,19.53,53.75,1.6,1.6,0,0,1,19.76,55c-1.19,3.88-2.28,7.89-3.33,11.81-.18.7-.18.7.48.5,4.12-1.11,8.2-2.16,12.31-3.17a1,1,0,0,1,.92.06A25.44,25.44,0,0,0,66.6,35.84ZM45.38,62.44a10.37,10.37,0,0,1-2.93.26A21.89,21.89,0,0,1,31,59.77a1.34,1.34,0,0,0-1.3-.21c-2.3.56-4.54,1.17-6.82,1.75-.47.16-.52.08-.41-.41.61-2.1,1.17-4.25,1.83-6.43A1.56,1.56,0,0,0,24,53a21,21,0,0,1,.75-23.68C30.14,22.12,37.52,19.14,46.28,21s14.18,7.44,16.14,16A20.94,20.94,0,0,1,45.38,62.44Z"/><path class="cls-2" d="M48.46,53.75a6.82,6.82,0,0,1-2.64-.37,25.75,25.75,0,0,1-13.76-10.1,14.3,14.3,0,0,1-3-6,6.92,6.92,0,0,1,2.29-6.8A4,4,0,0,1,34.79,30a3.29,3.29,0,0,1,.56.71c.72,1.79,1.49,3.46,2.22,5.2a1.35,1.35,0,0,1-.1,1.07A10.25,10.25,0,0,1,35.91,39a1,1,0,0,0-.16,1.4,17,17,0,0,0,8.68,7.44,1,1,0,0,0,1.31-.29c.65-.74,1.3-1.56,1.9-2.36a1.11,1.11,0,0,1,1.41-.37l3.67,1.72c.33.15.56.29.85.39,1.26.62,1.26.72,1.12,2.06-.17,2.65-2.21,4-4.54,4.66A4.43,4.43,0,0,1,48.46,53.75Z"/></g></g></svg>