<svg xmlns="http://www.w3.org/2000/svg" viewBox="0 0 53.25 53.25"><defs><style>.cls-1{fill:#00a099;}.cls-2{opacity:0.75;}</style></defs><title>aboutusicon</title><g id="Capa_2" data-name="Capa 2"><g id="Capa_1-2" data-name="Capa 1"><circle class="cls-1" cx="26.63" cy="26.63" r="26.63"/><g class="cls-2"><path d="M20.92,25.19a5.07,5.07,0,0,1,.27,1,6.57,6.57,0,0,1,.09,1.05,6.43,6.43,0,0,1-.15,1.44,5.58,5.58,0,0,1-.46,1.22A6.55,6.55,0,0,1,19.9,31a9.74,9.74,0,0,1-1.08,1c-.42.37-.79.7-1.12,1a6.53,6.53,0,0,0-.84.94,3.35,3.35,0,0,0-.51,1,3.29,3.29,0,0,0-.17,1.12,2.45,2.45,0,0,0,.19,1,2.21,2.21,0,0,0,.53.78,2.8,2.8,0,0,0,.86.51,3.23,3.23,0,0,0,1.11.18A7.67,7.67,0,0,0,21.64,38a9,9,0,0,0,2.71-1.68v5.14a10.56,10.56,0,0,1-2.87,1.17,12.58,12.58,0,0,1-3.2.4,12.07,12.07,0,0,1-3-.35,7,7,0,0,1-2.38-1.1,5.24,5.24,0,0,1-1.58-1.93,6.16,6.16,0,0,1-.58-2.8A6.93,6.93,0,0,1,11,34.92a6.63,6.63,0,0,1,.7-1.59,8,8,0,0,1,1.15-1.45,19,19,0,0,1,1.57-1.42c.39-.33.74-.64,1.05-.92a6.26,6.26,0,0,0,.75-.85,3.11,3.11,0,0,0,.45-.89,3.43,3.43,0,0,0,.15-1.06,3.13,3.13,0,0,0-.11-.84,2.2,2.2,0,0,0-.3-.71Zm-2.49-7.48a3.2,3.2,0,0,1,2.27.82,2.69,2.69,0,0,1,.9,2,2.56,2.56,0,0,1-.9,2,3.31,3.31,0,0,1-2.27.8,3.25,3.25,0,0,1-2.24-.8,2.55,2.55,0,0,1-.88-2,2.6,2.6,0,0,1,.87-2A3.24,3.24,0,0,1,18.43,17.71Z"/><path d="M33.08,28.86a5.19,5.19,0,0,1-.26-1,6.42,6.42,0,0,1-.1-1.05,6.32,6.32,0,0,1,.16-1.43,4.72,4.72,0,0,1,.46-1.22,5.56,5.56,0,0,1,.77-1.09,8.81,8.81,0,0,1,1.07-1q.65-.55,1.14-1a6.89,6.89,0,0,0,.82-.94,3.65,3.65,0,0,0,.52-1A3.6,3.6,0,0,0,37.83,18a2.45,2.45,0,0,0-.19-1,2.23,2.23,0,0,0-.54-.78,2.75,2.75,0,0,0-.85-.51,3.33,3.33,0,0,0-1.12-.19,7.6,7.6,0,0,0-2.76.56,9.13,9.13,0,0,0-2.72,1.68V12.63a11,11,0,0,1,2.87-1.18,13.07,13.07,0,0,1,3.21-.39,12,12,0,0,1,3,.35,6.86,6.86,0,0,1,2.38,1.1,5.13,5.13,0,0,1,1.59,1.92,6.37,6.37,0,0,1,.57,2.81A6.93,6.93,0,0,1,43,19.13a6.26,6.26,0,0,1-.7,1.59,8.37,8.37,0,0,1-1.14,1.44c-.46.46-1,.94-1.57,1.43-.4.33-.75.64-1,.92a6.26,6.26,0,0,0-.75.85,3.06,3.06,0,0,0-.45.88,3.25,3.25,0,0,0-.16,1.07,3.59,3.59,0,0,0,.11.84,2.76,2.76,0,0,0,.3.71Zm2.49,7.48a3.21,3.21,0,0,1-2.26-.82,2.66,2.66,0,0,1-.91-2,2.54,2.54,0,0,1,.91-2,3.24,3.24,0,0,1,2.26-.8,3.19,3.19,0,0,1,2.24.8,2.55,2.55,0,0,1,.89,2,2.65,2.65,0,0,1-.87,2A3.25,3.25,0,0,1,35.57,36.34Z"/></g></g></g></svg>