<svg xmlns="http://www.w3.org/2000/svg" viewBox="0 0 208.64 191.41"><defs><style>.cls-1{fill:#fff;}</style></defs><title>circlemenu</title><g id="Capa_2" data-name="Capa 2"><g id="Capa_1-2" data-name="Capa 1"><path class="cls-1" d="M31.64,12.25c-.48.46-1,.94-1.43,1.41l.71.7L32.34,13Z"/><path class="cls-1" d="M46.19,1.66c.46-.32.92-.62,1.38-.93L46.87,0,45.62.83Z"/><path class="cls-1" d="M44,2c-.55.38-1.09.78-1.63,1.17L43,4c.53-.4,1.06-.78,1.61-1.17Z"/><path class="cls-1" d="M34.58,9.5c-.5.45-1,.9-1.49,1.36l.69.73,1.46-1.34Z"/><path class="cls-1" d="M177,12.25l-1.45-1.39-.69.73c.49.46,1,.91,1.45,1.38Z"/><path class="cls-1" d="M40.75,4.36c-.53.41-1.06.82-1.58,1.24l.62.78c.52-.41,1-.82,1.57-1.22Z"/><path class="cls-1" d="M37.61,6.87l-1.53,1.3.66.76,1.51-1.29Z"/><path class="cls-1" d="M10.49,41.43c-.29.6-.58,1.21-.86,1.82l.9.42c.28-.6.57-1.2.86-1.8Z"/><path class="cls-1" d="M5.83,52.59c-.22.63-.43,1.27-.64,1.91l.95.31c.2-.63.42-1.26.64-1.89Z"/><path class="cls-1" d="M7.24,48.81c-.24.62-.49,1.25-.72,1.88l.94.35c.23-.62.47-1.25.71-1.86Z"/><path class="cls-1" d="M8.8,45.09c-.28.61-.54,1.23-.8,1.85l.92.39c.26-.62.52-1.23.79-1.84Z"/><path class="cls-1" d="M4.57,56.42,4,58.35l1,.28.57-1.91Z"/><path class="cls-1" d="M205.68,111.85q.24-1,.45-1.95l-1-.22-.45,1.94Z"/><path class="cls-1" d="M3.47,60.29c-.17.65-.34,1.3-.5,2l1,.24c.16-.65.33-1.29.5-1.93Z"/><path class="cls-1" d="M179.82,15.1l-1.4-1.44-.71.71c.47.47.93.94,1.39,1.42Z"/><path class="cls-1" d="M206.55,107.93c.14-.66.26-1.31.38-2l-1-.18c-.12.65-.25,1.3-.38,2Z"/><path class="cls-1" d="M2.52,64.2c-.15.65-.29,1.3-.42,2l1,.2.42-2Z"/><path class="cls-1" d="M182.54,18.06c-.44-.5-.89-1-1.35-1.49l-.73.68c.45.49.89,1,1.33,1.48Z"/><path class="cls-1" d="M26.09,18.06c-.44.51-.88,1-1.31,1.52l.76.65c.43-.5.86-1,1.3-1.5Z"/><path class="cls-1" d="M23.49,21.13c-.43.52-.85,1-1.26,1.57l.79.62,1.24-1.56Z"/><path class="cls-1" d="M28.81,15.1l-1.37,1.47.73.68,1.36-1.46Z"/><path class="cls-1" d="M1.71,68.14c-.12.65-.23,1.31-.34,2l1,.16c.1-.66.22-1.31.34-2Z"/><path class="cls-1" d="M12.33,37.84l-.94,1.79.89.45c.3-.59.61-1.18.93-1.76Z"/><path class="cls-1" d="M14.3,34.33c-.34.58-.68,1.16-1,1.75l.87.49c.32-.58.65-1.16,1-1.73Z"/><path class="cls-1" d="M18.64,27.55l-1.13,1.66.83.56,1.12-1.65Z"/><path class="cls-1" d="M21,24.29l-1.19,1.62.81.59c.39-.54.78-1.07,1.18-1.6Z"/><path class="cls-1" d="M16.4,30.9c-.36.56-.71,1.13-1.07,1.7l.86.53c.35-.57.7-1.13,1.06-1.69Z"/><path class="cls-1" d="M198.88,45.39l.91-.4c-.27-.62-.54-1.22-.83-1.83l-.9.42C198.34,44.18,198.61,44.78,198.88,45.39Z"/><path class="cls-1" d="M197.2,41.79l.9-.44c-.29-.6-.59-1.2-.89-1.79l-.89.46C196.62,40.6,196.91,41.2,197.2,41.79Z"/><path class="cls-1" d="M200.41,49.05l.93-.37c-.25-.62-.5-1.24-.76-1.85l-.92.38C199.92,47.82,200.17,48.43,200.41,49.05Z"/><path class="cls-1" d="M203.05,56.56l1-.29c-.2-.65-.4-1.28-.61-1.92l-1,.31C202.65,55.29,202.86,55.92,203.05,56.56Z"/><path class="cls-1" d="M201.8,52.78l.95-.33q-.34-1-.69-1.89l-.94.35C201.36,51.53,201.58,52.15,201.8,52.78Z"/><path class="cls-1" d="M195.39,38.26l.88-.48c-.31-.58-.64-1.17-1-1.75l-.87.49C194.76,37.09,195.08,37.68,195.39,38.26Z"/><path class="cls-1" d="M189.16,28.11l.82-.58c-.38-.55-.77-1.09-1.17-1.63l-.8.58C188.39,27,188.78,27.56,189.16,28.11Z"/><path class="cls-1" d="M193.45,34.8l.86-.51c-.34-.58-.69-1.15-1-1.72l-.85.52C192.77,33.66,193.11,34.23,193.45,34.8Z"/><path class="cls-1" d="M186.82,24.89l.8-.61-1.22-1.59-.79.62C186,23.83,186.42,24.36,186.82,24.89Z"/><path class="cls-1" d="M204.15,60.39l1-.26c-.17-.65-.35-1.3-.54-1.94l-1,.28C203.8,59.11,204,59.74,204.15,60.39Z"/><path class="cls-1" d="M207.4,80l1-.07c0-.67-.09-1.34-.15-2l-1,.08C207.3,78.67,207.35,79.34,207.4,80Z"/><path class="cls-1" d="M207.59,84l1,0c0-.67-.05-1.34-.08-2l-1,0C207.54,82.65,207.57,83.31,207.59,84Z"/><path class="cls-1" d="M206.55,72.08l1-.14c-.09-.67-.2-1.33-.31-2l-1,.16C206.36,70.77,206.46,71.42,206.55,72.08Z"/><path class="cls-1" d="M207.05,76l1-.1c-.07-.67-.15-1.34-.24-2l-1,.12C206.9,74.71,207,75.37,207.05,76Z"/><path class="cls-1" d="M205.1,64.25l1-.22c-.15-.65-.3-1.3-.46-2l-1,.24C204.81,63,205,63.61,205.1,64.25Z"/><path class="cls-1" d="M205.9,68.15l1-.18c-.12-.66-.25-1.32-.39-2l-1,.2C205.66,66.85,205.78,67.5,205.9,68.15Z"/><path class="cls-1" d="M208.26,96q.09-1,.15-2l-1-.06q-.06,1-.15,2Z"/><path class="cls-1" d="M207.27,104c.11-.67.21-1.33.31-2l-1-.14-.3,2Z"/><path class="cls-1" d="M208.52,92c0-.66.06-1.33.08-2l-1,0c0,.66,0,1.33-.08,2Z"/><path class="cls-1" d="M191.37,31.41l.84-.54c-.36-.56-.73-1.12-1.1-1.68l-.83.56C190.65,30.3,191,30.85,191.37,31.41Z"/><path class="cls-1" d="M173.39,10.25l.67-.75-1.51-1.33-.66.76C172.4,9.36,172.89,9.8,173.39,10.25Z"/><path class="cls-1" d="M170.38,7.64l.63-.77c-.51-.43-1-.85-1.55-1.27l-.63.78C169.35,6.79,169.86,7.21,170.38,7.64Z"/><path class="cls-1" d="M167.26,5.15l.61-.79c-.53-.41-1.06-.82-1.6-1.21l-.6.8Q166.48,4.54,167.26,5.15Z"/><path class="cls-1" d="M164.06,2.78l.58-.81c-.55-.39-1.1-.78-1.65-1.15l-.57.82Z"/><path class="cls-1" d="M184.37,21.76l.77-.63c-.42-.52-.85-1-1.29-1.55l-.76.65C183.52,20.74,184,21.24,184.37,21.76Z"/><path class="cls-1" d="M207.84,100c.09-.67.16-1.34.23-2l-1-.11c-.07.67-.15,1.32-.23,2Z"/><path class="cls-1" d="M28.12,156.86l-.74.68L28.75,159l.73-.69C29,157.84,28.57,157.35,28.12,156.86Z"/><path class="cls-1" d="M25.49,153.88l-.77.65L26,156.05l.75-.67C26.35,154.89,25.92,154.39,25.49,153.88Z"/><path class="cls-1" d="M23,150.8l-.78.62L23.44,153l.78-.63C23.8,151.84,23.38,151.32,23,150.8Z"/><path class="cls-1" d="M30.86,159.75l-.71.7c.47.48,1,1,1.43,1.42l.7-.72C31.8,160.69,31.33,160.22,30.86,159.75Z"/><path class="cls-1" d="M168,169.76l-.61-.79-1.59,1.2.59.8C166.88,170.57,167.42,170.17,168,169.76Z"/><path class="cls-1" d="M10.54,130.51l-.91.43c.28.6.57,1.21.86,1.81l.9-.44C11.1,131.71,10.82,131.12,10.54,130.51Z"/><path class="cls-1" d="M39.74,167.74l-.63.78c.52.42,1,.84,1.58,1.24l.61-.79C40.78,168.57,40.25,168.16,39.74,167.74Z"/><path class="cls-1" d="M33.72,162.52l-.69.73c.49.46,1,.92,1.48,1.36l.67-.74C34.69,163.43,34.2,163,33.72,162.52Z"/><path class="cls-1" d="M171.08,167.25l-.64-.77-1.54,1.26.62.78C170.05,168.1,170.57,167.67,171.08,167.25Z"/><path class="cls-1" d="M36.68,165.19,36,166l1.53,1.3.64-.77Z"/><path class="cls-1" d="M185.19,153l-.77-.63-1.27,1.53.76.64C184.34,154,184.77,153.5,185.19,153Z"/><path class="cls-1" d="M196.34,136.26l-.88-.48c-.31.59-.63,1.17-1,1.75l.88.49C195.7,137.44,196,136.85,196.34,136.26Z"/><path class="cls-1" d="M194.37,139.77l-.86-.51q-.51.87-1,1.71l.85.53Z"/><path class="cls-1" d="M14.16,137.58l-.88.49c.33.59.66,1.17,1,1.74l.86-.5C14.81,138.73,14.48,138.16,14.16,137.58Z"/><path class="cls-1" d="M20.58,147.62l-.81.59c.39.54.79,1.08,1.19,1.61l.8-.6C21.36,148.69,21,148.16,20.58,147.62Z"/><path class="cls-1" d="M12.28,134.08l-.89.46c.3.59.61,1.19.93,1.77l.88-.47C12.89,135.26,12.58,134.67,12.28,134.08Z"/><path class="cls-1" d="M198.18,132.67l-.9-.44c-.29.6-.59,1.19-.89,1.79l.89.45Z"/><path class="cls-1" d="M16.17,141l-.86.52c.35.57.71,1.14,1.07,1.7l.84-.54C16.86,142.14,16.51,141.57,16.17,141Z"/><path class="cls-1" d="M18.31,144.36l-.83.55c.37.56.75,1.11,1.13,1.66l.82-.57C19.05,145.46,18.68,144.91,18.31,144.36Z"/><path class="cls-1" d="M190,146.55l-.82-.57c-.38.55-.77,1.09-1.16,1.63l.81.58C189.27,147.65,189.65,147.1,190,146.55Z"/><path class="cls-1" d="M192.27,143.2l-.84-.54c-.36.57-.72,1.12-1.09,1.67l.83.56C191.54,144.33,191.91,143.77,192.27,143.2Z"/><path class="cls-1" d="M187.68,149.81l-.8-.6c-.4.53-.81,1.06-1.22,1.58l.79.62Z"/><path class="cls-1" d="M78.7,187.2l-.25,1q1,.26,2,.48l.23-1C80,187.53,79.34,187.37,78.7,187.2Z"/><path class="cls-1" d="M86.48,188.87l-.17,1,2,.32.15-1C87.79,189.09,87.14,189,86.48,188.87Z"/><path class="cls-1" d="M82.57,188.11l-.21,1c.66.14,1.32.28,2,.4l.19-1C83.87,188.39,83.22,188.25,82.57,188.11Z"/><path class="cls-1" d="M74.86,186.15l-.29,1,1.94.55.26-1C76.13,186.52,75.5,186.33,74.86,186.15Z"/><path class="cls-1" d="M71.06,184.94l-.32.94c.63.22,1.27.43,1.91.63l.31-.95Z"/><path class="cls-1" d="M94.38,189.93l-.1,1,2,.17.08-1C95.7,190.05,95,190,94.38,189.93Z"/><path class="cls-1" d="M90.42,189.48l-.13,1,2,.25.11-1Z"/><path class="cls-1" d="M98.34,190.24l0,1,2,.1,0-1Z"/><path class="cls-1" d="M104.48,191.4v-1h-.16l-2,0v1l2,0Z"/><path class="cls-1" d="M67.3,183.58l-.36.93,1.89.71.34-.95C68.55,184.05,67.92,183.82,67.3,183.58Z"/><path class="cls-1" d="M161.41,174.41l-.55-.84c-.56.37-1.11.73-1.68,1.08l.54.84C160.28,175.14,160.85,174.78,161.41,174.41Z"/><path class="cls-1" d="M49.48,174.67l-.53.84c.56.36,1.14.71,1.71,1.06l.52-.86Z"/><path class="cls-1" d="M158,176.54l-.52-.85-1.71,1,.5.86C156.86,177.23,157.43,176.89,158,176.54Z"/><path class="cls-1" d="M164.72,172.15l-.58-.82c-.54.39-1.08.77-1.63,1.14l.56.83C163.63,172.92,164.17,172.54,164.72,172.15Z"/><path class="cls-1" d="M46.14,172.48l-.56.83c.55.38,1.11.75,1.67,1.12l.55-.84C47.24,173.23,46.69,172.86,46.14,172.48Z"/><path class="cls-1" d="M56.39,178.64l-.46.89,1.79.92.45-.9Z"/><path class="cls-1" d="M60,180.43l-.43.9,1.83.85.41-.91Z"/><path class="cls-1" d="M52.9,176.72l-.5.87,1.75,1,.48-.88Z"/><path class="cls-1" d="M63.6,182.07l-.39.92q.91.4,1.86.78l.37-.93C64.83,182.59,64.21,182.34,63.6,182.07Z"/><path class="cls-1" d="M154.53,178.55l-.48-.88-1.75.94.47.89Z"/><path class="cls-1" d="M42.89,170.17l-.59.81,1.63,1.18.58-.82C44,171,43.43,170.57,42.89,170.17Z"/><path class="cls-1" d="M1.12,92.1l-1,.05c0,.67.07,1.34.11,2l1-.07C1.19,93.43,1.15,92.77,1.12,92.1Z"/><path class="cls-1" d="M149.18,181.29l1.8-.88-.45-.89-1.78.87Z"/><path class="cls-1" d="M172.61,166c.51-.44,1-.89,1.51-1.34l-.67-.74L172,165.19Z"/><path class="cls-1" d="M1,88.12H0c0,.68,0,1.34,0,2l1,0C1,89.45,1,88.79,1,88.12Z"/><path class="cls-1" d="M145.14,182l.39.92,1.83-.81-.41-.91Z"/><path class="cls-1" d="M133.92,186.1l.29,1,1.92-.59-.31-1C135.19,185.72,134.56,185.91,133.92,186.1Z"/><path class="cls-1" d="M137.71,184.89l.33,1,1.89-.67-.34-.94Z"/><path class="cls-1" d="M141.46,183.53l.36.93,1.86-.74-.37-.93Z"/><path class="cls-1" d="M1.38,96.08l-1,.08c0,.67.12,1.34.19,2l1-.1C1.5,97.4,1.44,96.74,1.38,96.08Z"/><path class="cls-1" d="M181.25,157.54c.45-.49.9-1,1.34-1.49l-.75-.67c-.44.5-.88,1-1.33,1.49Z"/><path class="cls-1" d="M.57,76.09c-.07.67-.14,1.34-.19,2l1,.09c.06-.66.12-1.32.19-2Z"/><path class="cls-1" d="M1.8,100l-1,.12c.08.67.17,1.33.27,2l1-.14C2,101.35,1.88,100.7,1.8,100Z"/><path class="cls-1" d="M.23,80.1q-.08,1-.12,2l1,0c0-.66.07-1.32.11-2Z"/><path class="cls-1" d="M175.6,163.26l1.45-1.39-.7-.72-1.44,1.38Z"/><path class="cls-1" d="M1.06,72.1c-.09.67-.18,1.33-.26,2l1,.12c.08-.66.17-1.32.26-2Z"/><path class="cls-1" d="M0,84.11c0,.67,0,1.34,0,2H1c0-.66,0-1.33,0-2Z"/><path class="cls-1" d="M208.63,88v-.88c0-.38,0-.76,0-1.13h-1c0,.37,0,.74,0,1.12V88Z"/><path class="cls-1" d="M178.48,160.45c.47-.47.93-.95,1.4-1.44l-.73-.69-1.38,1.43Z"/><path class="cls-1" d="M6.16,119.43l-1,.31c.21.64.43,1.28.65,1.91l.94-.33C6.58,120.69,6.37,120.06,6.16,119.43Z"/><path class="cls-1" d="M204.08,117.67l-1-.29c-.19.63-.39,1.27-.6,1.9l.95.31C203.68,119,203.88,118.31,204.08,117.67Z"/><path class="cls-1" d="M199.87,129l-.92-.4c-.26.61-.54,1.21-.82,1.82l.91.42C199.32,130.24,199.6,129.63,199.87,129Z"/><path class="cls-1" d="M5,115.63l-1,.27c.18.65.37,1.29.57,1.93l1-.3C5.36,116.9,5.17,116.26,5,115.63Z"/><path class="cls-1" d="M201.42,125.29l-.93-.37-.75,1.85.92.39C200.92,126.54,201.17,125.91,201.42,125.29Z"/><path class="cls-1" d="M205.18,113.8l-1-.25c-.17.64-.35,1.28-.53,1.92l1,.27C204.83,115.1,205,114.45,205.18,113.8Z"/><path class="cls-1" d="M7.48,123.19l-.94.35.72,1.88.93-.37C8,124.43,7.71,123.81,7.48,123.19Z"/><path class="cls-1" d="M130.08,187.17l.25,1,1.95-.51-.27-1Z"/><path class="cls-1" d="M8.94,126.88l-.92.39c.25.62.52,1.23.79,1.84l.91-.4C9.46,128.1,9.19,127.5,8.94,126.88Z"/><path class="cls-1" d="M202.82,121.5l-.94-.33c-.22.63-.45,1.26-.68,1.88l.94.35C202.37,122.77,202.6,122.14,202.82,121.5Z"/><path class="cls-1" d="M106.47,190.38l0,1c.67,0,1.34,0,2-.06l0-1Q107.46,190.37,106.47,190.38Z"/><path class="cls-1" d="M110.44,190.23l.06,1,2-.14-.08-1Z"/><path class="cls-1" d="M118.37,189.46l.13,1,2-.29-.15-1Z"/><path class="cls-1" d="M122.3,188.85l.17,1,2-.37-.19-1Z"/><path class="cls-1" d="M126.21,188.08l.21,1,2-.44-.23-1Z"/><path class="cls-1" d="M3.09,107.89l-1,.2.42,2,1-.22Q3.29,108.87,3.09,107.89Z"/><path class="cls-1" d="M4,111.78,3,112c.16.65.33,1.3.5,1.94l1-.25C4.29,113.07,4.12,112.42,4,111.78Z"/><path class="cls-1" d="M2.37,104l-1,.16c.11.66.23,1.32.35,2l1-.18C2.59,105.29,2.48,104.63,2.37,104Z"/><path class="cls-1" d="M114.41,189.92l.1,1c.67-.06,1.33-.13,2-.21l-.12-1Z"/><path class="cls-1" d="M118.12,110.8c.59-.34,1.17-.71,1.73-1.09l-.56-.83c-.54.37-1.1.73-1.67,1.06Z"/><path class="cls-1" d="M94.29,112.64c.64.25,1.29.47,1.94.68l.3-1c-.63-.19-1.26-.41-1.87-.65Z"/><path class="cls-1" d="M106.48,114.44c.68,0,1.36-.13,2-.23l-.15-1c-.64.1-1.31.17-2,.22Z"/><path class="cls-1" d="M130.45,83.07l1-.15c-.1-.68-.23-1.35-.38-2l-1,.23C130.23,81.77,130.35,82.42,130.45,83.07Z"/><path class="cls-1" d="M115.88,110.87c-.59.29-1.2.56-1.81.8l.37.93c.63-.25,1.26-.53,1.87-.83Z"/><path class="cls-1" d="M112.21,112.33c-.63.19-1.27.37-1.91.52l.23,1q1-.22,2-.54Z"/><path class="cls-1" d="M127,102.47c.38-.56.75-1.15,1.09-1.74l-.87-.5c-.32.57-.68,1.13-1.05,1.68Z"/><path class="cls-1" d="M123.76,105l.73.67c.47-.5.92-1,1.34-1.56l-.79-.62C124.64,104,124.2,104.52,123.76,105Z"/><path class="cls-1" d="M129.57,79.22l1-.3c-.2-.65-.43-1.3-.68-1.93l-.93.37C129.15,78,129.37,78.59,129.57,79.22Z"/><path class="cls-1" d="M106.24,60.71l.07-1c-.66,0-1.33-.07-2-.07h-.06l.06,1Q105.28,60.65,106.24,60.71Z"/><path class="cls-1" d="M81.42,100.32c-.33-.57-.64-1.15-.93-1.75l-.9.44c.3.61.62,1.22,1,1.81Z"/><path class="cls-1" d="M79.7,96.77c-.24-.62-.46-1.24-.65-1.87l-1,.3c.2.64.43,1.3.68,1.93Z"/><path class="cls-1" d="M129.9,97l-.93-.36c-.24.61-.51,1.22-.79,1.81l.9.43C129.38,98.3,129.65,97.67,129.9,97Z"/><path class="cls-1" d="M78.54,93c-.15-.64-.27-1.29-.37-1.94l-1,.15c.1.67.23,1.35.38,2Z"/><path class="cls-1" d="M131.09,93.11l-1-.22c-.15.64-.32,1.28-.51,1.91l1,.29C130.77,94.44,130.94,93.77,131.09,93.11Z"/><path class="cls-1" d="M131.69,89.05l-1-.07c-.05.65-.12,1.31-.21,2l1,.15C131.56,90.41,131.64,89.73,131.69,89.05Z"/><path class="cls-1" d="M131.67,85l-1,.08c0,.65.07,1.32.08,2h1C131.75,86.32,131.73,85.63,131.67,85Z"/><path class="cls-1" d="M78,89.09c0-.66-.07-1.32-.07-2h-1c0,.68,0,1.37.07,2Z"/><path class="cls-1" d="M123.05,107.14l-.69-.73c-.47.44-1,.88-1.49,1.29l.63.78C122,108.05,122.55,107.6,123.05,107.14Z"/><path class="cls-1" d="M98.44,112.87l-.23,1c.66.16,1.34.28,2,.38l.15-1C99.72,113.14,99.07,113,98.44,112.87Z"/><path class="cls-1" d="M92.85,110.92c-.6-.29-1.18-.6-1.75-.93l-.5.87c.59.34,1.2.66,1.81,1Z"/><path class="cls-1" d="M83.65,103.58c-.41-.51-.81-1-1.18-1.59l-.82.56c.38.57.79,1.12,1.22,1.65Z"/><path class="cls-1" d="M104.32,113.53c-.66,0-1.33,0-2-.08l-.07,1c.67,0,1.36.08,2,.08h.1v-1Z"/><path class="cls-1" d="M88.86,109.76l.56-.82c-.54-.37-1.07-.77-1.59-1.18l-.62.78C87.74,109,88.3,109.38,88.86,109.76Z"/><path class="cls-1" d="M84.94,105.08l-.73.68c.46.5,1,1,1.45,1.45l.68-.74C85.86,106,85.39,105.56,84.94,105.08Z"/><path class="cls-1" d="M128.11,75.55l.9-.44c-.29-.61-.62-1.22-1-1.81l-.87.51A19.36,19.36,0,0,1,128.11,75.55Z"/><path class="cls-1" d="M78,85.14c0-.66.12-1.32.21-2l-1-.14c-.1.67-.17,1.35-.22,2Z"/><path class="cls-1" d="M78.53,81.23c.14-.64.31-1.28.5-1.91l-1-.29c-.2.65-.38,1.32-.53,2Z"/><path class="cls-1" d="M115.74,63.23c.59.29,1.18.6,1.75.92l.5-.86c-.59-.34-1.21-.66-1.82-1Z"/><path class="cls-1" d="M98.16,60.34c-.67.15-1.33.33-2,.53l.29,1c.63-.2,1.27-.37,1.91-.52Z"/><path class="cls-1" d="M126.13,72.14l.82-.57c-.39-.56-.8-1.12-1.22-1.65l-.78.63C125.36,71.06,125.75,71.59,126.13,72.14Z"/><path class="cls-1" d="M108.35,59.94l-.15,1c.65.09,1.3.21,1.94.36l.22-1C109.7,60.16,109,60,108.35,59.94Z"/><path class="cls-1" d="M122.25,67.66c.49.45,1,.92,1.41,1.4l.73-.69c-.47-.49-1-1-1.46-1.44Z"/><path class="cls-1" d="M120.75,66.38l.63-.79c-.54-.42-1.1-.83-1.66-1.21l-.56.82C119.7,65.57,120.24,66,120.75,66.38Z"/><path class="cls-1" d="M113.92,62.44l.37-.93c-.64-.24-1.29-.47-1.94-.67l-.3.95C112.68,62,113.31,62.21,113.92,62.44Z"/><path class="cls-1" d="M81.4,73.89c.32-.57.68-1.13,1-1.67l-.83-.57c-.38.57-.75,1.15-1.09,1.74Z"/><path class="cls-1" d="M84.18,68.45c-.47.5-.92,1-1.34,1.55l.78.63q.61-.78,1.29-1.5Z"/><path class="cls-1" d="M79.68,77.45c.24-.61.51-1.22.79-1.81l-.9-.43c-.29.61-.57,1.25-.82,1.88Z"/><path class="cls-1" d="M94.24,61.55c-.62.25-1.26.53-1.87.83l.43.9c.6-.29,1.2-.56,1.81-.8Z"/><path class="cls-1" d="M87.18,65.65c-.54.43-1.06.88-1.56,1.34l.69.74c.48-.45,1-.88,1.49-1.3Z"/><path class="cls-1" d="M102.29,60.72l-.08-1c-.67.05-1.36.12-2,.23l.15,1C101,60.85,101.64,60.77,102.29,60.72Z"/><path class="cls-1" d="M89.39,65.26c.54-.37,1.1-.73,1.67-1.06l-.5-.86c-.59.34-1.17.71-1.74,1.09Z"/></g></g></svg>