<svg xmlns="http://www.w3.org/2000/svg" viewBox="0 0 53.25 53.25"><defs><style>.cls-1{isolation:isolate;}.cls-2{fill:#a3897a;}.cls-3{opacity:0.75;mix-blend-mode:multiply;}</style></defs><title>contacicon</title><g class="cls-1"><g id="Capa_2" data-name="Capa 2"><g id="Capa_1-2" data-name="Capa 1"><circle class="cls-2" cx="26.63" cy="26.63" r="26.63"/><g class="cls-3"><path d="M27.18,19.25c4.75.05,7.73-.25,8.13,5h5.8C41.11,16.11,34,15,27,15s-14.08,1.1-14.08,9.26h5.75C19.14,18.9,22.46,19.21,27.18,19.25Z"/><path d="M15.81,26.9c1.41,0,2.59.08,2.85-1.31a3.06,3.06,0,0,0,.06-.65H12.91C12.91,27,14.21,26.9,15.81,26.9Z"/><path d="M35.35,24.94H35.3a3.06,3.06,0,0,0,.06.65c.27,1.29,1.45,1.21,2.85,1.21,1.62,0,2.92.1,2.92-1.86Z"/><path d="M32.52,23.54v-.82c0-.37-.43-.39-1-.39h-.85c-.52,0-.95,0-.95.39V24h-6V22.72c0-.37-.42-.39-.94-.39h-.86c-.52,0-.94,0-.94.39v1.53c-1.38,1.43-5.88,7.52-6,8.26v4.91a.83.83,0,0,0,.82.83h22a.83.83,0,0,0,.83-.83V32.48c-.17-.71-4.67-6.8-6-8.23Zm-9.08,9.63a.8.8,0,1,1,.8-.8A.8.8,0,0,1,23.44,33.17Zm0-2.75a.8.8,0,1,1,.8-.8A.8.8,0,0,1,23.44,30.42Zm0-2.74a.8.8,0,1,1,.8-.8A.8.8,0,0,1,23.44,27.68Zm3.29,5.49a.8.8,0,1,1,.8-.8A.8.8,0,0,1,26.73,33.17Zm0-2.75a.8.8,0,1,1,.8-.8A.8.8,0,0,1,26.73,30.42Zm0-2.74a.8.8,0,1,1,.8-.8A.8.8,0,0,1,26.73,27.68ZM30,33.17a.8.8,0,0,1,0-1.6.8.8,0,0,1,0,1.6Zm0-2.75a.8.8,0,1,1,.8-.8A.8.8,0,0,1,30,30.42Zm0-2.74a.8.8,0,1,1,.8-.8A.8.8,0,0,1,30,27.68Z"/></g></g></g></g></svg>