<svg xmlns="http://www.w3.org/2000/svg" viewBox="0 0 53.25 53.25"><defs><style>.cls-1{fill:#35a8e0;}.cls-2{opacity:0.75;}</style></defs><title>espaciosicon</title><g id="Capa_2" data-name="Capa 2"><g id="Capa_1-2" data-name="Capa 1"><circle class="cls-1" cx="26.63" cy="26.63" r="26.63"/><g class="cls-2"><polygon class="cls-1" points="23.71 42.67 9.24 35.43 8.03 15.81 9.09 16.13 10.15 34.3 23.69 40.85 23.71 42.67"/><path d="M23.71,42.73h0L9.21,35.49a.07.07,0,0,1,0-.06L8,15.81a.09.09,0,0,1,0-.06h.06l1.06.32a.07.07,0,0,1,.05.06l1.05,18.14,13.51,6.53a.09.09,0,0,1,0,.06l0,1.82a.05.05,0,0,1,0,0ZM9.3,35.38l14.34,7.18,0-1.66-13.5-6.54a.07.07,0,0,1,0-.06L9,16.18l-.92-.28Z"/><polygon class="cls-1" points="44.84 32.79 23.71 42.67 23.69 40.85 44.04 31.65 44.97 14.39 45.9 14.13 44.84 32.79"/><path d="M23.71,42.73h0a.07.07,0,0,1,0,0l0-1.81a.08.08,0,0,1,0-.07L44,31.61l.92-17.22a.06.06,0,0,1,.05-.06l.93-.27a.07.07,0,0,1,.06,0,0,0,0,0,1,0,.05L44.91,32.8a.1.1,0,0,1,0,.05L23.74,42.73Zm.05-1.83,0,1.66,21-9.81,1.06-18.53-.79.22-.93,17.22a.07.07,0,0,1,0,.05Zm21.08-8.11Z"/><polygon class="cls-1" points="9.09 16.13 8.03 15.81 30.48 10.96 45.9 14.13 44.97 14.39 30.62 11.39 9.09 16.13"/><path d="M9.09,16.19h0L8,15.87a.08.08,0,0,1,0-.07A.09.09,0,0,1,8,15.74l22.45-4.85h0l15.42,3.17a.08.08,0,0,1,.05.07,0,0,0,0,1,0,.06l-.93.27h0l-14.34-3L9.11,16.19Zm-.79-.37.8.24,21.51-4.74h0l14.33,3,.64-.18L30.48,11Z"/><path d="M9.09,16.13l21.53-4.74L30.48,27,10.15,34.3Zm16.29,8.13-.06-7.85-1.07.27L17,18.52l.26,7.61,0,.72Z"/><polygon points="30.62 11.39 44.97 14.39 44.04 31.65 42.39 31.09 42.43 30.41 43.02 18.05 38.19 16.89 37.27 16.67 36.9 29.22 30.48 27.03 30.62 11.39"/><path class="cls-1" d="M44.1,31.74l-1.78-.6,0-.73L43,18.1l-5.61-1.35L37,29.31l-6.55-2.23v0l.15-15.72,14.48,3v.05ZM42.46,31l1.52.52.92-17.11-14.21-3L30.55,27l6.28,2.14.38-12.54L43.09,18v.06Z"/><polygon points="44.04 31.65 23.69 40.85 10.15 34.3 30.48 27.03 36.9 29.22 37.79 28.86 42.43 30.41 42.39 31.09 44.04 31.65"/><path class="cls-1" d="M23.69,40.93h0L10,34.29,30.48,27h0l6.39,2.18.9-.36h0l4.68,1.56,0,.68,1.76.6-.15.07ZM10.32,34.31l13.37,6.47,20.17-9.12-1.54-.52,0-.68L37.8,28.93l-.9.36h0L30.48,27.1Z"/><polygon class="cls-1" points="36.9 29.22 37.27 16.67 38.19 16.89 37.79 28.86 36.9 29.22"/><path d="M36.9,29.28h0a.05.05,0,0,1,0-.05l.38-12.56a.08.08,0,0,1,0-.05h.06l.92.22a.08.08,0,0,1,0,.07l-.4,12a.07.07,0,0,1,0,.06l-.9.36Zm.44-12.53L37,29.12l.76-.31.39-11.87Z"/><polygon class="cls-1" points="25.32 16.41 25.38 24.26 24.33 23.91 24.25 16.68 25.32 16.41"/><path d="M25.38,24.32h0L24.31,24a.06.06,0,0,1,0-.06l-.08-7.23a.06.06,0,0,1,.06-.06l1.07-.28s0,0,.05,0a.05.05,0,0,1,0,.05l.06,7.85a.05.05,0,0,1,0,0Zm-1-.46.91.3,0-7.66-.94.23Z"/><polygon class="cls-1" points="25.38 24.26 17.25 26.85 17.23 26.13 24.33 23.91 25.38 24.26"/><path d="M17.26,26.91h0a.05.05,0,0,1,0,0l0-.72a.06.06,0,0,1,.05-.06l7.1-2.23h0l1,.35a.08.08,0,0,1,.05.07.06.06,0,0,1-.05.06l-8.12,2.59Zm0-.73,0,.58,7.84-2.5L24.33,24Z"/></g></g></g></svg>