<svg xmlns="http://www.w3.org/2000/svg" viewBox="0 0 30 30"><defs><style>.cls-1{fill:#fff;}.cls-2{opacity:0.7;}</style></defs><title>homeicon</title><g id="Capa_2" data-name="Capa 2"><g id="Capa_1-2" data-name="Capa 1"><circle class="cls-1" cx="15" cy="15" r="15"/><path class="cls-2" d="M22.62,13.57,16,6.13a1.27,1.27,0,0,0-1.87,0L7.41,13.57a1.11,1.11,0,0,0,.94,1.83h.57a2.46,2.46,0,0,0-.18.94v4.89a2.44,2.44,0,0,0,2.44,2.44H13.5a.71.71,0,0,1,0-.21V18.11a.93.93,0,0,1,.93-.93h2a.93.93,0,0,1,.93.93v5.35a1.36,1.36,0,0,1,0,.21h1.51a2.45,2.45,0,0,0,2.45-2.44V16.34a2.47,2.47,0,0,0-.19-.94h.58A1.11,1.11,0,0,0,22.62,13.57Z"/></g></g></svg>