<svg xmlns="http://www.w3.org/2000/svg" viewBox="0 0 53.25 53.25"><defs><style>.cls-1{fill:#2dab66;}.cls-2{opacity:0.75;}</style></defs><title>industrialicon</title><g id="Capa_2" data-name="Capa 2"><g id="Capa_1-2" data-name="Capa 1"><circle class="cls-1" cx="26.63" cy="26.63" r="26.63"/><g class="cls-2"><path d="M26,12l-2.2.8.16.57,2.3-.78A1.83,1.83,0,0,1,26,12Z"/><path d="M29.79,12.6a2.54,2.54,0,0,1-.37.43l9.36,6.3A2.33,2.33,0,0,1,39,19Z"/><path d="M39.73,22.12,32.32,40.85h.82l7.17-18.53A2.21,2.21,0,0,1,39.73,22.12Z"/><path d="M42.82,20.24a2.12,2.12,0,0,0-2.12-2.13,2.27,2.27,0,0,0-.59.09l-10-6.95a2.12,2.12,0,0,0-4-.66l-2.68,1L23.23,11l-3.81,1.12A5,5,0,0,0,10.28,15v2.75S11,19,15.31,19s5-1.24,5-1.24V15.27l.32-.09,1,4a.62.62,0,1,0,.36-.08l-1-4,3.14-.92-.09-.32,2.5-.84a2.08,2.08,0,0,0,2.43.33l9.63,6.48a2,2,0,0,0,0,.43,2.08,2.08,0,0,0,.74,1.6l-7.53,19H30.12V40H28.38v.81H27v2.51H38.43V40.85h-3.9L41.81,22A2.13,2.13,0,0,0,42.82,20.24ZM23.76,12.81,26,12a1.83,1.83,0,0,0,.26.59l-2.3.78Zm5.66.22a2.54,2.54,0,0,0,.37-.43L39,19a2.33,2.33,0,0,0-.2.34Zm2.9,27.82,7.41-18.73a2.21,2.21,0,0,0,.58.2L33.14,40.85Z"/></g></g></g></svg>