<svg xmlns="http://www.w3.org/2000/svg" viewBox="0 0 196.74 77.37"><defs><style>.cls-1{fill:#fff;}</style></defs><title>boomlogo</title><g id="Capa_2" data-name="Capa 2"><g id="Capa_1-2" data-name="Capa 1"><path class="cls-1" d="M27.09,73.18a3.24,3.24,0,0,0,2.69-1.5l.14.24A3.33,3.33,0,0,1,27,73.59c-1.89,0-3.22-1.65-3.22-3.92,0-2.61,1.5-4.17,3.46-4.17a3.28,3.28,0,0,1,2.63,1.58l-.13.21a3.13,3.13,0,0,0-2.5-1.38c-1.63,0-2.93,1.19-2.93,3.76C24.35,72,25.55,73.18,27.09,73.18Zm4.79-.13v.32l-2.23.1,0-1.52V61.7H28.21v-.33L30,61.18l.22.13,0,2.25v9.81L29.92,73Z"/><path class="cls-1" d="M60.23,68.5a3.43,3.43,0,0,1-.1.93l-6,0v-.34l5.3,0c.23,0,.33-.17.33-.64a2.45,2.45,0,0,0-2.45-2.63c-1.74,0-2.95,1.68-2.95,3.51,0,2.74,1.54,3.83,3.08,3.83a3.4,3.4,0,0,0,2.56-1l.18.18a3.54,3.54,0,0,1-2.74,1.29c-1.79,0-3.6-1.23-3.6-4.08,0-2.48,1.66-4,3.47-4A2.84,2.84,0,0,1,60.23,68.5Z"/><path class="cls-1" d="M82.55,73.08l0-1.65h.36l.24,1.68L82.76,73v-.28a3.75,3.75,0,0,0,2.15.54c1.52,0,2.28-.73,2.28-1.7,0-.8-.39-1.24-1.76-1.72l-.76-.28c-1.16-.43-1.93-1-1.93-2.09s.9-2,2.5-2a3.67,3.67,0,0,1,2.17.65l0,1.45H87L86.87,66l.26.22v.24a3.2,3.2,0,0,0-1.94-.64c-1.36,0-2,.72-2,1.6s.55,1.27,1.65,1.68l.83.31c1.45.54,2,1.11,2,2.09s-.86,2.09-2.77,2.09A5.51,5.51,0,0,1,82.55,73.08Z"/><path class="cls-1" d="M111.4,73.37c0-.73,0-2.41,0-3.42v-.8c0-1,0-2,0-3.05h-1.53v-.32l1.89-.2.16.1,0,1.89V70c0,1,0,2.69,0,3.42Zm1.86-.32v.32H110v-.32l1.63-.1h.15ZM111,62.33a.53.53,0,1,1,.52.53A.51.51,0,0,1,111,62.33Z"/><path class="cls-1" d="M142,74.84c0-.75-.39-1.37-1.73-1.37h-2a7.06,7.06,0,0,1-1.21-.1v-.06a1.12,1.12,0,0,1-1-1.06c0-.77.52-1.27,1.26-1.91l.18.16c-.64.67-1,1.08-1,1.63s.44.85,1.53.85h2.34c1.33,0,2.1.62,2.1,1.84s-1.18,2.55-3.6,2.55c-2.06,0-3.31-.9-3.31-2.19a2.49,2.49,0,0,1,1.74-2.12l.11.18c-.88.51-1.37,1-1.37,1.85,0,1.19,1,1.89,2.86,1.89C140.93,77,142,76,142,74.84Zm-3.36-9.34a2.7,2.7,0,1,1-2.69,2.69A2.56,2.56,0,0,1,138.61,65.5Zm-2.2,2.69a2.21,2.21,0,1,0,2.2-2.37A2.2,2.2,0,0,0,136.41,68.19Zm5.82-2.58.24.17v.5h-2.31v-.19Z"/><path class="cls-1" d="M165.82,73.37c0-.73.05-2.41.05-3.42v-.8c0-1.14,0-2.22-.05-3.05H164.3v-.32l1.83-.2.16.1,0,1.76V70c0,1,0,2.69.05,3.42Zm1.86-.32v.32h-3.31v-.32L166,73h.15Zm3.88-4.8V70c0,1,0,2.69.05,3.42h-.56c0-.73,0-2.38,0-3.42V68.24c0-1.67-.67-2.29-1.63-2.29-.7,0-1.89.33-3.26,1.93H166v-.34h.29l-.16.06c1.28-1.58,2.46-2.1,3.49-2.1C170.79,65.5,171.56,66.22,171.56,68.25Zm-.18,4.7,1.53.1v.32H169.6v-.32l1.63-.1Z"/><path class="cls-1" d="M42.72,25.68a13,13,0,0,0,1.82-13.39,14.2,14.2,0,0,0-13.1-8.37H7.08A7.07,7.07,0,0,0,0,11V42.44a7.08,7.08,0,0,0,7.08,7.08H34.51A13.57,13.57,0,0,0,47.88,36.14,13.61,13.61,0,0,0,42.72,25.68ZM15.93,13.83l10.32,0a4.06,4.06,0,0,1,4.1,3.57,4,4,0,0,1-3.94,4.33l-10.48,0a4,4,0,0,1,0-7.9Zm16.59,22.7a4.09,4.09,0,0,1-4,3.11l-12.55,0a4,4,0,0,1-3.95-4h0a4,4,0,0,1,3.95-4l12.73,0A4,4,0,0,1,32.52,36.53Z"/><path class="cls-1" d="M97.42,29.68,92.58,38.1l2.15-9.59-7.68-3.42c0,.08,0,.15.06.24A11.54,11.54,0,1,1,70.23,17.6L57.49,11.93A24.21,24.21,0,1,0,99.85,30.59c0-.06,0-.11,0-.16Z"/><path class="cls-1" d="M73.56,12.88a11.5,11.5,0,0,1,7.08,4.46l12.51,4.3L82.91,14.41l12.26,5.46A24.37,24.37,0,0,0,73.25.07,24,24,0,0,0,53.45,8l14.83,5.11A11.54,11.54,0,0,1,73.56,12.88Z"/><path class="cls-1" d="M121.63,12.88a11.55,11.55,0,0,1,4.48,20.77l12.4,5.53a24.05,24.05,0,0,0,5.05-16.94,24.19,24.19,0,0,0-47.94-2.17L108,25.58A11.54,11.54,0,0,1,121.63,12.88Z"/><path class="cls-1" d="M122.45,39.21A11.44,11.44,0,0,1,115,35.1L99.87,30.44s0,.1,0,.15A24.21,24.21,0,0,0,142.28,43.5l-15.17-4.68A11.65,11.65,0,0,1,122.45,39.21Z"/><path class="cls-1" d="M192.84,3.92a3.91,3.91,0,0,0-2.63,1L183,11.49a15.21,15.21,0,0,1-20.48,0l-7.24-6.58a3.91,3.91,0,0,0-6.53,2.89V43.5a6,6,0,0,0,6,6h0a6,6,0,0,0,6-6V26.17h0a17.78,17.78,0,0,0,23.9-.06h0V43.5a6,6,0,0,0,12,0V7.82A3.9,3.9,0,0,0,192.84,3.92Z"/></g></g></svg>