<svg xmlns="http://www.w3.org/2000/svg" viewBox="0 0 53.25 53.25"><defs><style>.cls-1{fill:#f29100;}.cls-2{opacity:0.75;}</style></defs><title>mobiliarioicon</title><g id="Capa_2" data-name="Capa 2"><g id="Capa_1-2" data-name="Capa 1"><circle class="cls-1" cx="26.63" cy="26.63" r="26.63"/><g class="cls-2"><path d="M23.22,25.64a3,3,0,0,0,3.41,2.83A3,3,0,0,0,30,25.64c.26-2.84-2-4.36-2.52-7.46,3.55-.08,4.43-.6,4.43-.6l-.57-7.86s-3.48-.41-4.74-.41-4.75.41-4.75.41l-.56,7.86s.87.52,4.42.6C25.24,21.28,23,22.8,23.22,25.64Z"/><path d="M35.6,28.48H17.66a1.34,1.34,0,0,0-.35,0l-1.83.35v.4h1.07V44h.83a1.79,1.79,0,0,1,1.8-1.8h14.9A1.79,1.79,0,0,1,35.87,44h.83V29.27h1.07v-.4l-1.83-.35A1.32,1.32,0,0,0,35.6,28.48Z"/></g></g></g></svg>