<svg xmlns="http://www.w3.org/2000/svg" viewBox="0 0 53.25 53.25"><defs><style>.cls-1{fill:#f8b133;}.cls-2{opacity:0.75;}</style></defs><title>webicon</title><g id="Capa_2" data-name="Capa 2"><g id="Capa_1-2" data-name="Capa 1"><circle class="cls-1" cx="26.63" cy="26.63" r="26.63"/><g class="cls-2"><rect x="18.65" y="17.12" width="13.42" height="1.55"/><rect x="20.71" y="22.8" width="3.1" height="1.03"/><path d="M33.1,25.92a.61.61,0,0,1,.17-.41l.4-.4-3.41-1,.65,2.18.37,1.24.38-.38a.69.69,0,0,1,.95,0l1.13,1.14.73-.73-1.19-1.2A.58.58,0,0,1,33.1,25.92Z"/><path d="M32.07,23.55V19.7H18.65v6.19H29.72c-.15-.53-.31-1.06-.47-1.59l-.18-.6c-.08-.25-.17-.51,0-.74h0c.25-.26.61-.1.91,0l1,.3Zm-7.23.79a.51.51,0,0,1-.51.52H20.2a.52.52,0,0,1-.52-.52V22.28a.52.52,0,0,1,.52-.52h4.13a.52.52,0,0,1,.51.52Z"/><path d="M13.49,31.57H10.91v2.06A2.07,2.07,0,0,0,13,35.7h10.3c-.12,2-1,3.09-2.56,3.09h-1a1.55,1.55,0,0,0,0,3.1H33.1a1.55,1.55,0,0,0,0-3.1h-1c-1.59,0-2.44-1-2.56-3.09h10.3a2.07,2.07,0,0,0,2.06-2.07V31.57H13.49Zm11.35,1h3.1a.52.52,0,0,1,0,1h-3.1a.52.52,0,0,1,0-1Zm4.71,6.19H23.23a4.92,4.92,0,0,0,1.08-3.09h4.16A4.92,4.92,0,0,0,29.55,38.79Z"/><path d="M14,15.05V30.54H38.78V15.05ZM35.57,27.89l-1.46,1.46a.52.52,0,0,1-.37.16.5.5,0,0,1-.36-.16l-1.25-1.24-.73.73a.49.49,0,0,1-.49.13.52.52,0,0,1-.37-.35L30,26.92H18.13a.51.51,0,0,1-.51-.51V16.6a.51.51,0,0,1,.51-.51H32.58a.51.51,0,0,1,.52.51v7.26l1.7.51a.51.51,0,0,1,.35.36.54.54,0,0,1-.13.5l-.7.69,1.25,1.24A.52.52,0,0,1,35.57,27.89Z"/><path d="M39.81,12H13A2.06,2.06,0,0,0,10.91,14V30.54H13v-16a.52.52,0,0,1,.52-.52h25.8a.52.52,0,0,1,.52.52v16h2.06V14A2.06,2.06,0,0,0,39.81,12Z"/></g></g></g></svg>